<?xml version="1.0" standalone="no"?><!DOCTYPE svg PUBLIC "-//W3C//DTD SVG 1.1//EN" "http://www.w3.org/Graphics/SVG/1.1/DTD/svg11.dtd"><svg t="1758597011430" class="icon" viewBox="0 0 1024 1024" version="1.1" xmlns="http://www.w3.org/2000/svg" p-id="3191" xmlns:xlink="http://www.w3.org/1999/xlink" width="128" height="128"><path d="M663.04 80H156.16A92.16 92.16 0 0 0 64 172.16v506.88a92.16 92.16 0 0 0 92.16 92.16h506.88a92.16 92.16 0 0 0 92.16-92.16V172.16A92.16 92.16 0 0 0 663.04 80z" fill="#0065F3" p-id="3192"></path><path d="M855.04 272H348.16A92.16 92.16 0 0 0 256 364.16v506.88a92.16 92.16 0 0 0 92.16 92.16h506.88a92.16 92.16 0 0 0 92.16-92.16V364.16A92.16 92.16 0 0 0 855.04 272z" fill="#82B6FA" opacity=".4" p-id="3193"></path><path d="M348.16 280h506.88a84.16 84.16 0 0 1 84.16 84.16v506.88a84.16 84.16 0 0 1-84.16 84.16H348.16a84.16 84.16 0 0 1-84.16-84.16V364.16a84.16 84.16 0 0 1 84.16-84.16z m607.04 84.16a100.16 100.16 0 0 0-100.16-100.16H348.16a100.16 100.16 0 0 0-100.16 100.16v506.88a100.16 100.16 0 0 0 100.16 100.16h506.88a100.16 100.16 0 0 0 100.16-100.16V364.16z" fill="#FFFFFF" opacity=".4" p-id="3194"></path><path d="M734.08 448H481.92A50.08 50.08 0 0 0 432 497.92v201.824a50.08 50.08 0 0 0 49.92 49.968h75.792L608 800l50.288-50.288h75.776A50.08 50.08 0 0 0 784 699.792V497.92A50.08 50.08 0 0 0 734.08 448zM482.272 624h176v25.136h-176V624z m251.424-25.136H482.288v-25.152h251.424v25.152z m0-50.288H482.288v-25.152h251.424v25.152z" fill="#FFFFFF" p-id="3195"></path></svg>