<?xml version="1.0" standalone="no"?><!DOCTYPE svg PUBLIC "-//W3C//DTD SVG 1.1//EN" "http://www.w3.org/Graphics/SVG/1.1/DTD/svg11.dtd"><svg t="1758597702780" class="icon" viewBox="0 0 1024 1024" version="1.1" xmlns="http://www.w3.org/2000/svg" p-id="23833" xmlns:xlink="http://www.w3.org/1999/xlink" width="128" height="128"><path d="M663.04 80H156.16A92.16 92.16 0 0 0 64 172.16v506.88a92.16 92.16 0 0 0 92.16 92.16h506.88a92.16 92.16 0 0 0 92.16-92.16V172.16A92.16 92.16 0 0 0 663.04 80z" fill="#0065F3" p-id="23834"></path><path d="M855.04 272H348.16A92.16 92.16 0 0 0 256 364.16v506.88a92.16 92.16 0 0 0 92.16 92.16h506.88a92.16 92.16 0 0 0 92.16-92.16V364.16A92.16 92.16 0 0 0 855.04 272z" fill="#82B6FA" opacity=".4" p-id="23835"></path><path d="M348.16 280h506.88a84.16 84.16 0 0 1 84.16 84.16v506.88a84.16 84.16 0 0 1-84.16 84.16H348.16a84.16 84.16 0 0 1-84.16-84.16V364.16a84.16 84.16 0 0 1 84.16-84.16z m607.04 84.16a100.16 100.16 0 0 0-100.16-100.16H348.16a100.16 100.16 0 0 0-100.16 100.16v506.88a100.16 100.16 0 0 0 100.16 100.16h506.88a100.16 100.16 0 0 0 100.16-100.16V364.16z" fill="#FFFFFF" opacity=".4" p-id="23836"></path><path d="M612.272 400.096l198.08 33.184c3.264 0.528 5.648 3.12 5.648 6.176v94.672c0 124.72-72 240-189.216 303.152l-0.096 0.032-14.592 7.6a15.344 15.344 0 0 1-0.8 0.352 8.608 8.608 0 0 1-2.16 0.48 10.176 10.176 0 0 1-1.76-0.096 6.768 6.768 0 0 1-1.712-0.48 8.336 8.336 0 0 1-0.4-0.192l-5.056-2.528C476.864 780.816 400 662.192 400 533.264v-93.888c0-3.088 2.384-5.6 5.68-6.16l199.264-33.12 0.592-0.064 5.552-0.032c0.416 0 0.8 0.032 1.184 0.096z m-69.648 89.04a230.928 230.928 0 0 1-9.808 30.24 463.44 463.44 0 0 1-28.576 59.232 310.512 310.512 0 0 1-15.104 23.68l18.016 20.656 4.96-7.008 4.576-6.992 8.704-14.016v131.936h24.672v-180l3.2-7.856c5.36-13.952 10.048-28.112 14.064-42.496l-24.704-7.36z m164.976 144.832h-132.528v92.384h25.744v-15.2h80.992v15.2h25.792v-92.416 0.032z m-25.792 23.12v31.504h-80.992v-31.504h80.992z m22.944-61.392H577.44v22.288h127.296v-22.288z m0-38.24H577.44v21.776h127.296v-21.776z m-55.568-66.528l-26.56 4 1.6 4.912 5.648 17.152h-66.08v24.064h163.072v-24.064h-69.008l-1.488-4.96a259.648 259.648 0 0 0-3.12-9.216c-1.536-4.4-2.912-8.32-4.064-11.888z" fill="#FFFFFF" p-id="23837"></path></svg>