<?xml version="1.0" standalone="no"?><!DOCTYPE svg PUBLIC "-//W3C//DTD SVG 1.1//EN" "http://www.w3.org/Graphics/SVG/1.1/DTD/svg11.dtd"><svg t="1758596863391" class="icon" viewBox="0 0 1024 1024" version="1.1" xmlns="http://www.w3.org/2000/svg" p-id="2371" xmlns:xlink="http://www.w3.org/1999/xlink" width="128" height="128"><path d="M663.04 80H156.16A92.16 92.16 0 0 0 64 172.16v506.88a92.16 92.16 0 0 0 92.16 92.16h506.88a92.16 92.16 0 0 0 92.16-92.16V172.16A92.16 92.16 0 0 0 663.04 80z" fill="#0065F3" p-id="2372"></path><path d="M855.04 272H348.16A92.16 92.16 0 0 0 256 364.16v506.88a92.16 92.16 0 0 0 92.16 92.16h506.88a92.16 92.16 0 0 0 92.16-92.16V364.16A92.16 92.16 0 0 0 855.04 272z" fill="#82B6FA" opacity=".4" p-id="2373"></path><path d="M348.16 280h506.88a84.16 84.16 0 0 1 84.16 84.16v506.88a84.16 84.16 0 0 1-84.16 84.16H348.16a84.16 84.16 0 0 1-84.16-84.16V364.16a84.16 84.16 0 0 1 84.16-84.16z m607.04 84.16a100.16 100.16 0 0 0-100.16-100.16H348.16a100.16 100.16 0 0 0-100.16 100.16v506.88a100.16 100.16 0 0 0 100.16 100.16h506.88a100.16 100.16 0 0 0 100.16-100.16V364.16z" fill="#FFFFFF" opacity=".4" p-id="2374"></path><path d="M443.424 432h123.44c15.136 0 27.424 12.272 27.424 27.424v123.44c0 15.136-12.288 27.424-27.424 27.424h-123.44A27.424 27.424 0 0 1 416 582.864v-123.44c0-15.152 12.272-27.424 27.424-27.424z m329.152 0H649.12c-15.136 0-27.424 12.272-27.424 27.424v123.44c0 15.136 12.288 27.424 27.424 27.424h123.44c15.152 0 27.424-12.288 27.424-27.424v-123.44c0-15.152-12.272-27.424-27.424-27.424zM443.424 637.712h123.44c15.136 0 27.424 12.288 27.424 27.424v123.44c0 15.152-12.288 27.424-27.424 27.424h-123.44A27.424 27.424 0 0 1 416 788.576V665.12c0-15.136 12.272-27.424 27.424-27.424z m329.152 0H649.12c-15.136 0-27.424 12.288-27.424 27.424v123.44c0 15.152 12.288 27.424 27.424 27.424h123.44c15.152 0 27.424-12.272 27.424-27.424V665.12c0-15.136-12.272-27.424-27.424-27.424z m-123.44 150.864V665.12h123.44v123.44H649.12z" fill="#FFFFFF" p-id="2375"></path></svg>