<?xml version="1.0" encoding="UTF-8"?>
<svg width="960px" height="604px" viewBox="0 0 960 604" version="1.1" xmlns="http://www.w3.org/2000/svg" xmlns:xlink="http://www.w3.org/1999/xlink">
    <title>product_elb_scene_structure2</title>
    <defs>
        <rect id="path-1" x="0" y="0" width="960" height="604"></rect>
        <rect id="path-3" x="0" y="0" width="384" height="120" rx="8"></rect>
        <mask id="mask-4" maskContentUnits="userSpaceOnUse" maskUnits="objectBoundingBox" x="-1" y="-1" width="386" height="122">
            <rect x="-1" y="-1" width="386" height="122" fill="white"></rect>
            <use xlink:href="#path-3" fill="black"></use>
        </mask>
        <rect id="path-5" x="0" y="0" width="384" height="120" rx="8"></rect>
        <mask id="mask-6" maskContentUnits="userSpaceOnUse" maskUnits="objectBoundingBox" x="-1" y="-1" width="386" height="122">
            <rect x="-1" y="-1" width="386" height="122" fill="white"></rect>
            <use xlink:href="#path-5" fill="black"></use>
        </mask>
        <ellipse id="path-7" cx="24.0033555" cy="10.3898381" rx="2.80240307" ry="2.80080881"></ellipse>
        <filter x="-44.6%" y="-44.6%" width="224.9%" height="225.0%" filterUnits="objectBoundingBox" id="filter-8">
            <feOffset dx="1" dy="1" in="SourceAlpha" result="shadowOffsetOuter1"></feOffset>
            <feGaussianBlur stdDeviation="1" in="shadowOffsetOuter1" result="shadowBlurOuter1"></feGaussianBlur>
            <feColorMatrix values="0 0 0 0 0.151548283   0 0 0 0 0.402452901   0 0 0 0 0.707144475  0 0 0 0.5 0" type="matrix" in="shadowBlurOuter1"></feColorMatrix>
        </filter>
        <path d="M20.5110816,101 L875.488918,101 C882.621068,101 885.207358,101.742605 887.814766,103.137062 C890.422173,104.531518 892.468482,106.577827 893.862938,109.185234 C895.257395,111.792642 896,114.378932 896,121.511082 L896,470.488918 C896,477.621068 895.257395,480.207358 893.862938,482.814766 C892.468482,485.422173 890.422173,487.468482 887.814766,488.862938 C885.207358,490.257395 882.621068,491 875.488918,491 L20.5110816,491 C13.3789317,491 10.7926418,490.257395 8.18523437,488.862938 C5.57782696,487.468482 3.53151837,485.422173 2.13706163,482.814766 C0.742604889,480.207358 -2.31349546e-15,477.621068 3.98172253e-15,470.488918 L5.52448164e-16,121.511082 C-3.20988293e-16,114.378932 0.742604889,111.792642 2.13706163,109.185234 C3.53151837,106.577827 5.57782696,104.531518 8.18523437,103.137062 C10.7926418,101.742605 13.3789317,101 20.5110816,101 Z" id="path-9"></path>
        <mask id="mask-10" maskContentUnits="userSpaceOnUse" maskUnits="objectBoundingBox" x="-1" y="-1" width="898" height="392">
            <rect x="-1" y="100" width="898" height="392" fill="white"></rect>
            <use xlink:href="#path-9" fill="black"></use>
        </mask>
    </defs>
    <g id="页面-1" stroke="none" stroke-width="1" fill="none" fill-rule="evenodd">
        <g id="编组-20备份" transform="translate(-160.000000, -232.000000)">
            <g id="product_elb_scene_structure2" transform="translate(160.000000, 232.000000)">
                <mask id="mask-2" fill="white">
                    <use xlink:href="#path-1"></use>
                </mask>
                <g id="蒙版"></g>
                <g id="编组-44" mask="url(#mask-2)">
                    <g transform="translate(32.000000, 48.000000)">
                        <path id="直线备份-13" d="M459.999786,92.9975516 L469,97.4971237 L460.000214,101.997552 L460,97.997 L428.500024,97.9990492 L428.499976,96.9990492 L459.999,96.997 L459.999786,92.9975516 Z" transform="translate(448.500000, 97.498098) rotate(90.002724) translate(-448.500000, -97.498098) " stroke="none" fill="#999999" fill-rule="nonzero"></path>
                        <g id="编组-41备份" stroke="none" stroke-width="1" fill="none" fill-rule="evenodd" transform="translate(424.000000, 0.000000)">
                            <g id="编组-20备份-3" transform="translate(12.000000, 52.000000)" fill="#242828" font-family="PingFangSC-Regular, PingFang SC" font-size="12" font-weight="normal" line-spacing="18">
                                <g id="编组-15备份-2">
                                    <text id="用户">
                                        <tspan x="0" y="13">用户</tspan>
                                    </text>
                                </g>
                            </g>
                            <g id="编组-24" transform="translate(4.000000, 2.000000)" fill="#FF9A2E">
                                <path d="M25.5135135,27.7607073 C25.3513514,26.1513537 25.4054054,25.9573171 25.4054054,24.4517927 C26.1621622,24.0364756 28.8648649,21.5445732 29.0810811,19.4679878 C29.6756757,19.4160732 30.6486486,18.8450122 30.9189189,16.5607683 C31.0810811,15.3667317 30.4864865,14.6399268 30.1081081,14.4322683 C31.0810811,11.5769634 31.5135135,2.64764634 24.7027027,1.76509756 C24,0.62297561 22.2162162,0 19.8918919,0 C10.5945946,0.155743902 7.83783784,6.85273171 9.89189189,14.4841829 C9.51351351,14.6918415 8.91891892,15.3667317 9.08108108,16.6126829 C9.35135135,18.8969268 10.3243243,19.4679878 10.9189189,19.5199024 C11.1351351,21.6484024 13.8378378,24.1403049 14.5945946,24.5037073 C14.5945946,26.0092317 14.6486486,26.1513537 14.4864865,27.812622 C12.9560384,31.7899284 4.34102948,30.0413867 1.15865213,35.3710895 C0.519473299,36.4415575 0.0994496114,42.2547084 0,44 L40,44 C39.9492597,42.3431122 39.6048035,36.5773082 39.0527389,35.5299808 C36.0760868,29.8829439 27.0638232,31.8334224 25.5135135,27.7607073 Z" id="路径备份-7" fill-rule="nonzero"></path>
                                <path d="M17.3370281,34.705537 L18.5227929,37.1267421 C18.7851361,37.6624189 18.5635554,38.3093418 18.0278787,38.571685 C17.8800017,38.6441065 17.717523,38.6817564 17.5528643,38.6817564 L15.1813348,38.6817564 C14.5848673,38.6817564 14.1013348,38.198224 14.1013348,37.6017564 C14.1013348,37.4370978 14.1389847,37.2746191 14.2114062,37.1267421 L15.397171,34.705537 C15.6595142,34.1698603 16.3064371,33.9482797 16.8421139,34.2106228 C17.0574499,34.3160818 17.2315691,34.490201 17.3370281,34.705537 Z" id="三角形" transform="translate(16.367100, 35.703401) rotate(-270.000000) translate(-16.367100, -35.703401) "></path>
                                <path d="M20.9110541,34.705537 L22.0968189,37.1267421 C22.359162,37.6624189 22.1375814,38.3093418 21.6019046,38.571685 C21.4540277,38.6441065 21.291549,38.6817564 21.1268903,38.6817564 L18.7553608,38.6817564 C18.1588932,38.6817564 17.6753608,38.198224 17.6753608,37.6017564 C17.6753608,37.4370978 17.7130107,37.2746191 17.7854322,37.1267421 L18.971197,34.705537 C19.2335402,34.1698603 19.8804631,33.9482797 20.4161399,34.2106228 C20.6314759,34.3160818 20.8055951,34.490201 20.9110541,34.705537 Z" id="三角形备份" transform="translate(19.941126, 35.703401) scale(-1, 1) rotate(-270.000000) translate(-19.941126, -35.703401) "></path>
                            </g>
                        </g>
                        <g id="编组-91备份" stroke="none" stroke-width="1" fill="none" fill-rule="evenodd" transform="translate(20.000000, 217.000000)">
                            <g id="编组-90">
                                <path d="M10.2555408,-4.14336123e-16 L405.744459,4.14336123e-16 C409.310534,-2.4074122e-16 410.603679,0.371302445 411.907383,1.06853082 C413.211087,1.76575919 414.234241,2.78891348 414.931469,4.09261719 C415.628698,5.39632089 416,6.68946584 416,10.2555408 L416,243.744459 C416,247.310534 415.628698,248.603679 414.931469,249.907383 C414.234241,251.211087 413.211087,252.234241 411.907383,252.931469 C410.603679,253.628698 409.310534,254 405.744459,254 L10.2555408,254 C6.68946584,254 5.39632089,253.628698 4.09261719,252.931469 C2.78891348,252.234241 1.76575919,251.211087 1.06853082,249.907383 C0.371302445,248.603679 -1.4201961e-15,247.310534 2.44427834e-15,243.744459 L2.76224082e-16,10.2555408 C-1.60494146e-16,6.68946584 0.371302445,5.39632089 1.06853082,4.09261719 C1.76575919,2.78891348 2.78891348,1.76575919 4.09261719,1.06853082 C5.39632089,0.371302445 6.68946584,2.4074122e-16 10.2555408,-4.14336123e-16 Z" id="矩形备份-151" fill="#FAFAFA"></path>
                                <path d="M358,0 L408,0 C412.418278,-8.11624501e-16 416,3.581722 416,8 L416,18 L416,18 L366,18 C361.581722,18 358,14.418278 358,10 L358,0 L358,0 Z" id="矩形备份-147" fill-opacity="0.1" fill="#1476FF" fill-rule="nonzero"></path>
                                <text id="可用区-1" font-family="PingFangSC-Regular, PingFang SC" font-size="12" font-weight="normal" line-spacing="18" letter-spacing="-0.436363636" fill="#1476FF">
                                    <tspan x="365.686909" y="13">可用区 1</tspan>
                                </text>
                            </g>
                            <g id="编组-47备份-5" transform="translate(16.000000, 32.000000)">
                                <g id="编组-85" fill="#FFFFFF" fill-opacity="0.04" stroke="#999999" stroke-dasharray="2.7" stroke-width="2">
                                    <use id="矩形备份-146" mask="url(#mask-4)" xlink:href="#path-3"></use>
                                </g>
                                <g id="编组-86" transform="translate(28.000000, 24.000000)">
                                    <text id="弹性云服务器-ECS" font-family="PingFangSC-Regular, PingFang SC" font-size="12" font-weight="normal" line-spacing="16" fill="#242828">
                                        <tspan x="0" y="65">弹性云服务器</tspan>
                                        <tspan x="22.02" y="81"> ECS</tspan>
                                    </text>
                                    <g id="编组备份" transform="translate(12.000000, 0.000000)">
                                        <rect id="矩形备份-15" fill="#F85835" fill-rule="nonzero" x="0" y="0" width="48" height="48" rx="10"></rect>
                                        <path d="M16.0050009,36 L16.0046414,35.9856885 C11.5415963,35.7216771 8,31.8379674 8,27.0857143 C8,22.2485025 11.6693584,18.3111666 16.2448749,18.1750668 C17.3458263,14.5920192 20.5478934,12 24.3265306,12 C28.1219735,12 31.3357063,14.6151268 32.4225373,18.2229292 C36.6821362,18.6999935 40,22.4860164 40,27.0857143 C40,31.9386066 36.3068135,35.8857794 31.7106,35.9975654 L31.5102041,36 L16.0050009,36 Z" id="路径备份-7" fill="#FFFFFF"></path>
                                        <rect id="矩形备份-18" fill="#F85835" fill-rule="nonzero" x="13.2825133" y="22.4480702" width="21.5042136" height="6.57859754" rx="3.28929876"></rect>
                                        <path d="M15.2854108,31.004844 L32.8147252,31.0798616 C33.216887,31.0815826 33.5415138,31.4102348 33.5398127,31.8139266 C33.5381626,32.1992686 33.2397694,32.5136954 32.8628696,32.5399866 L32.8085164,32.5417588 L15.2792018,32.4667412 C14.87704,32.4650202 14.5524133,32.1363682 14.5541144,31.7326764 C14.5557645,31.3473342 14.8541576,31.0329074 15.2310574,31.0066162 L15.2854108,31.004844 Z" id="路径备份-5" fill="#F85835" fill-rule="nonzero"></path>
                                        <circle id="椭圆形备份-7" fill="#FFFFFF" fill-rule="nonzero" cx="31.3023766" cy="25.8881504" r="2"></circle>
                                    </g>
                                </g>
                                <g id="编组-86备份-8" transform="translate(156.000000, 24.000000)">
                                    <text id="弹性云服务器-ECS" font-family="PingFangSC-Regular, PingFang SC" font-size="12" font-weight="normal" line-spacing="16" fill="#242828">
                                        <tspan x="0" y="65">弹性云服务器</tspan>
                                        <tspan x="22.02" y="81"> ECS</tspan>
                                    </text>
                                    <g id="编组备份" transform="translate(12.000000, 0.000000)">
                                        <rect id="矩形备份-15" fill="#F85835" fill-rule="nonzero" x="0" y="0" width="48" height="48" rx="10"></rect>
                                        <path d="M16.0050009,36 L16.0046414,35.9856885 C11.5415963,35.7216771 8,31.8379674 8,27.0857143 C8,22.2485025 11.6693584,18.3111666 16.2448749,18.1750668 C17.3458263,14.5920192 20.5478934,12 24.3265306,12 C28.1219735,12 31.3357063,14.6151268 32.4225373,18.2229292 C36.6821362,18.6999935 40,22.4860164 40,27.0857143 C40,31.9386066 36.3068135,35.8857794 31.7106,35.9975654 L31.5102041,36 L16.0050009,36 Z" id="路径备份-7" fill="#FFFFFF"></path>
                                        <rect id="矩形备份-18" fill="#F85835" fill-rule="nonzero" x="13.2825133" y="22.4480702" width="21.5042136" height="6.57859754" rx="3.28929876"></rect>
                                        <path d="M15.2854108,31.004844 L32.8147252,31.0798616 C33.216887,31.0815826 33.5415138,31.4102348 33.5398127,31.8139266 C33.5381626,32.1992686 33.2397694,32.5136954 32.8628696,32.5399866 L32.8085164,32.5417588 L15.2792018,32.4667412 C14.87704,32.4650202 14.5524133,32.1363682 14.5541144,31.7326764 C14.5557645,31.3473342 14.8541576,31.0329074 15.2310574,31.0066162 L15.2854108,31.004844 Z" id="路径备份-5" fill="#F85835" fill-rule="nonzero"></path>
                                        <circle id="椭圆形备份-7" fill="#FFFFFF" fill-rule="nonzero" cx="31.3023766" cy="25.8881504" r="2"></circle>
                                    </g>
                                </g>
                                <g id="编组-86备份-9" transform="translate(284.000000, 24.000000)">
                                    <text id="弹性云服务器-ECS" font-family="PingFangSC-Regular, PingFang SC" font-size="12" font-weight="normal" line-spacing="16" fill="#242828">
                                        <tspan x="0" y="65">弹性云服务器</tspan>
                                        <tspan x="22.02" y="81"> ECS</tspan>
                                    </text>
                                    <g id="编组备份" transform="translate(12.000000, 0.000000)">
                                        <rect id="矩形备份-15" fill="#F85835" fill-rule="nonzero" x="0" y="0" width="48" height="48" rx="10"></rect>
                                        <path d="M16.0050009,36 L16.0046414,35.9856885 C11.5415963,35.7216771 8,31.8379674 8,27.0857143 C8,22.2485025 11.6693584,18.3111666 16.2448749,18.1750668 C17.3458263,14.5920192 20.5478934,12 24.3265306,12 C28.1219735,12 31.3357063,14.6151268 32.4225373,18.2229292 C36.6821362,18.6999935 40,22.4860164 40,27.0857143 C40,31.9386066 36.3068135,35.8857794 31.7106,35.9975654 L31.5102041,36 L16.0050009,36 Z" id="路径备份-7" fill="#FFFFFF"></path>
                                        <rect id="矩形备份-18" fill="#F85835" fill-rule="nonzero" x="13.2825133" y="22.4480702" width="21.5042136" height="6.57859754" rx="3.28929876"></rect>
                                        <path d="M15.2854108,31.004844 L32.8147252,31.0798616 C33.216887,31.0815826 33.5415138,31.4102348 33.5398127,31.8139266 C33.5381626,32.1992686 33.2397694,32.5136954 32.8628696,32.5399866 L32.8085164,32.5417588 L15.2792018,32.4667412 C14.87704,32.4650202 14.5524133,32.1363682 14.5541144,31.7326764 C14.5557645,31.3473342 14.8541576,31.0329074 15.2310574,31.0066162 L15.2854108,31.004844 Z" id="路径备份-5" fill="#F85835" fill-rule="nonzero"></path>
                                        <circle id="椭圆形备份-7" fill="#FFFFFF" fill-rule="nonzero" cx="31.3023766" cy="25.8881504" r="2"></circle>
                                    </g>
                                </g>
                            </g>
                            <g id="编组-86备份-4" transform="translate(163.000000, 168.000000)">
                                <g id="编组" transform="translate(21.000000, 0.000000)">
                                    <rect id="矩形备份-11" fill="#1476FF" x="0" y="0" width="48" height="48" rx="10.6666667"></rect>
                                    <path d="M36.32,14.2545455 L26.42,8.58181818 C25.6866667,8.21818182 24.88,8 24,8 C23.12,8 22.3133333,8.21818182 21.58,8.58181818 L11.68,14.2545455 C10.36,14.9818182 9.33333333,16.8 9.33333333,18.3272727 L9.33333333,29.6727273 C9.33333333,31.2 10.36,32.9454545 11.68,33.7454545 L21.58,39.4181818 C22.24,39.7818182 23.12,40 24,40 C24.88,40 25.6866667,39.7818182 26.42,39.4181818 L36.32,33.7454545 C37.64,32.9454545 38.6666667,31.2 38.6666667,29.6727273 L38.6666667,18.3272727 C38.6666667,16.8 37.64,14.9818182 36.32,14.2545455 Z" id="路径备份-2" fill="#FFFFFF"></path>
                                    <g id="编组-79备份" transform="translate(12.388889, 15.384615)">
                                        <path d="M22.7227444,14.08933 C21.7944904,13.2456576 20.6974629,12.9081886 19.9379824,12.7394541 C19.8535956,12.1488834 19.6848222,11.1364764 19.2628885,9.95533499 C18.8409549,8.85856079 18.2502478,7.7617866 17.4907673,6.74937965 C16.5625133,5.48387097 15.2967124,4.47146402 13.862138,3.54342432 C13.5245911,3.37468983 13.4402043,3.12158809 13.4402043,3.03722084 C13.4402043,2.78411911 13.5245911,2.53101737 13.6089778,2.44665012 C13.7777513,2.27791563 14.3684583,1.51861042 14.1152982,0.843672457 C14.0309114,0.506203474 13.6933645,0 12.7651105,0 L12.6807238,0 C11.9212433,0 10.8242158,0.506203474 9.72718833,1.94044665 C9.64280161,2.0248139 9.64280161,2.10918114 9.64280161,2.10918114 C9.64280161,2.10918114 9.55841488,2.19354839 9.38964142,2.19354839 C8.96770779,2.27791563 8.37700069,2.44665012 7.44874669,2.69975186 C5.00153159,3.45905707 2.72308995,4.89330025 1.71044922,6.32754342 C0.613421762,7.84615385 0.697808489,8.85856079 0.782195217,9.28039702 C0.782195217,9.28039702 0.613421762,9.44913151 0.529035034,9.53349876 C0.444648307,9.70223325 0.360261579,9.7866005 0.275874851,9.7866005 C0.107101396,10.0397022 -0.146058786,10.7146402 0.107101396,11.2208437 C0.275874851,11.5583127 0.613421762,11.7270471 1.0353554,11.7270471 C1.28851558,11.7270471 1.62606249,11.6426799 1.9636094,11.4739454 C3.65134395,10.630273 5.08591832,10.0397022 5.84539887,9.70223325 C6.09855905,10.0397022 6.43610596,10.292804 6.77365287,10.5459057 C7.36435996,10.8833747 7.95506706,11.1364764 8.46138742,11.1364764 C8.54577415,11.1364764 8.63016088,11.1364764 8.7145476,11.1364764 C9.55841488,11.0521092 9.72718833,10.5459057 9.81157506,10.292804 C9.89596179,9.87096774 9.72718833,9.44913151 9.3052547,9.11166253 C9.98034852,9.19602978 10.9086025,9.28039702 12.0900167,9.44913151 C13.3558176,9.617866 14.7060053,10.292804 15.8874194,11.3895782 C16.8156734,12.2332506 17.4907673,13.1612903 17.8283142,13.5831266 C17.8283142,13.5831266 17.7439275,13.6674938 17.7439275,13.751861 C17.575154,14.0049628 17.4063805,14.2580645 17.1532204,14.5111663 C16.8156734,14.9330025 16.5625133,15.2704715 16.4781265,15.5235732 C16.4781265,15.6079404 15.9718062,16.6203474 16.4781265,17.2109181 C16.6469,17.4640199 16.9000602,17.5483871 17.2376071,17.5483871 C17.7439275,17.5483871 18.1658611,17.2109181 18.4190213,16.8734491 C18.5877947,16.6203474 19.0097284,16.3672457 19.5160487,16.1985112 C20.0223691,16.0297767 20.5286895,15.9454094 21.0350098,15.9454094 C21.28817,15.9454094 21.4569435,15.9454094 21.4569435,16.0297767 C21.6257169,16.1141439 22.1320373,16.2828784 22.5539709,16.2828784 C23.0602913,16.2828784 23.3978382,16.0297767 23.5666116,15.6923077 C23.7353851,15.0173697 23.0602913,14.426799 22.7227444,14.08933 Z" id="路径" fill="#1476FF"></path>
                                        <path d="M2.82093254,7.22580645 C2.3593254,7.22580645 2.0515873,7.53548387 2.0515873,8 C2.0515873,8.46451613 2.3593254,8.77419355 2.82093254,8.77419355 C3.28253968,8.77419355 3.59027778,8.46451613 3.59027778,8 C3.59027778,7.53548387 3.28253968,7.22580645 2.82093254,7.22580645 Z" id="路径" fill="#FFFFFF" fill-rule="nonzero"></path>
                                    </g>
                                </g>
                                <text id="云数据库-RDS-for-MySQL" font-family="PingFangSC-Regular, PingFang SC" font-size="12" font-weight="normal" line-spacing="16" fill="#242828">
                                    <tspan x="20.214" y="65">云数据库</tspan>
                                    <tspan x="0" y="81">RDS for MySQL</tspan>
                                </text>
                            </g>
                        </g>
                        <g id="编组-91备份-4" stroke="none" stroke-width="1" fill="none" fill-rule="evenodd" transform="translate(460.000000, 217.000000)">
                            <g id="编组-90">
                                <path d="M10.2555408,-4.14336123e-16 L405.744459,4.14336123e-16 C409.310534,-2.4074122e-16 410.603679,0.371302445 411.907383,1.06853082 C413.211087,1.76575919 414.234241,2.78891348 414.931469,4.09261719 C415.628698,5.39632089 416,6.68946584 416,10.2555408 L416,243.744459 C416,247.310534 415.628698,248.603679 414.931469,249.907383 C414.234241,251.211087 413.211087,252.234241 411.907383,252.931469 C410.603679,253.628698 409.310534,254 405.744459,254 L10.2555408,254 C6.68946584,254 5.39632089,253.628698 4.09261719,252.931469 C2.78891348,252.234241 1.76575919,251.211087 1.06853082,249.907383 C0.371302445,248.603679 -1.4201961e-15,247.310534 2.44427834e-15,243.744459 L2.76224082e-16,10.2555408 C-1.60494146e-16,6.68946584 0.371302445,5.39632089 1.06853082,4.09261719 C1.76575919,2.78891348 2.78891348,1.76575919 4.09261719,1.06853082 C5.39632089,0.371302445 6.68946584,2.4074122e-16 10.2555408,-4.14336123e-16 Z" id="矩形备份-151" fill="#FAFAFA"></path>
                                <path d="M358,0 L408,0 C412.418278,-8.11624501e-16 416,3.581722 416,8 L416,18 L416,18 L366,18 C361.581722,18 358,14.418278 358,10 L358,0 L358,0 Z" id="矩形备份-147" fill-opacity="0.1" fill="#1476FF" fill-rule="nonzero"></path>
                                <text id="可用区-2" font-family="PingFangSC-Regular, PingFang SC" font-size="12" font-weight="normal" line-spacing="18" letter-spacing="-0.436363636" fill="#1476FF">
                                    <tspan x="364.492909" y="13">可用区 2</tspan>
                                </text>
                            </g>
                            <g id="编组-47备份-5" transform="translate(16.000000, 32.000000)">
                                <g id="编组-85" fill="#FFFFFF" fill-opacity="0.04" stroke="#999999" stroke-dasharray="2.7" stroke-width="2">
                                    <use id="矩形备份-146" mask="url(#mask-6)" xlink:href="#path-5"></use>
                                </g>
                                <g id="编组-86" transform="translate(28.000000, 24.000000)">
                                    <text id="弹性云服务器-ECS" font-family="PingFangSC-Regular, PingFang SC" font-size="12" font-weight="normal" line-spacing="16" fill="#242828">
                                        <tspan x="0" y="65">弹性云服务器</tspan>
                                        <tspan x="22.02" y="81"> ECS</tspan>
                                    </text>
                                    <g id="编组备份" transform="translate(12.000000, 0.000000)">
                                        <rect id="矩形备份-15" fill="#F85835" fill-rule="nonzero" x="0" y="0" width="48" height="48" rx="10"></rect>
                                        <path d="M16.0050009,36 L16.0046414,35.9856885 C11.5415963,35.7216771 8,31.8379674 8,27.0857143 C8,22.2485025 11.6693584,18.3111666 16.2448749,18.1750668 C17.3458263,14.5920192 20.5478934,12 24.3265306,12 C28.1219735,12 31.3357063,14.6151268 32.4225373,18.2229292 C36.6821362,18.6999935 40,22.4860164 40,27.0857143 C40,31.9386066 36.3068135,35.8857794 31.7106,35.9975654 L31.5102041,36 L16.0050009,36 Z" id="路径备份-7" fill="#FFFFFF"></path>
                                        <rect id="矩形备份-18" fill="#F85835" fill-rule="nonzero" x="13.2825133" y="22.4480702" width="21.5042136" height="6.57859754" rx="3.28929876"></rect>
                                        <path d="M15.2854108,31.004844 L32.8147252,31.0798616 C33.216887,31.0815826 33.5415138,31.4102348 33.5398127,31.8139266 C33.5381626,32.1992686 33.2397694,32.5136954 32.8628696,32.5399866 L32.8085164,32.5417588 L15.2792018,32.4667412 C14.87704,32.4650202 14.5524133,32.1363682 14.5541144,31.7326764 C14.5557645,31.3473342 14.8541576,31.0329074 15.2310574,31.0066162 L15.2854108,31.004844 Z" id="路径备份-5" fill="#F85835" fill-rule="nonzero"></path>
                                        <circle id="椭圆形备份-7" fill="#FFFFFF" fill-rule="nonzero" cx="31.3023766" cy="25.8881504" r="2"></circle>
                                    </g>
                                </g>
                                <g id="编组-86备份-8" transform="translate(156.000000, 24.000000)">
                                    <text id="弹性云服务器-ECS" font-family="PingFangSC-Regular, PingFang SC" font-size="12" font-weight="normal" line-spacing="16" fill="#242828">
                                        <tspan x="0" y="65">弹性云服务器</tspan>
                                        <tspan x="22.02" y="81"> ECS</tspan>
                                    </text>
                                    <g id="编组备份" transform="translate(12.000000, 0.000000)">
                                        <rect id="矩形备份-15" fill="#F85835" fill-rule="nonzero" x="0" y="0" width="48" height="48" rx="10"></rect>
                                        <path d="M16.0050009,36 L16.0046414,35.9856885 C11.5415963,35.7216771 8,31.8379674 8,27.0857143 C8,22.2485025 11.6693584,18.3111666 16.2448749,18.1750668 C17.3458263,14.5920192 20.5478934,12 24.3265306,12 C28.1219735,12 31.3357063,14.6151268 32.4225373,18.2229292 C36.6821362,18.6999935 40,22.4860164 40,27.0857143 C40,31.9386066 36.3068135,35.8857794 31.7106,35.9975654 L31.5102041,36 L16.0050009,36 Z" id="路径备份-7" fill="#FFFFFF"></path>
                                        <rect id="矩形备份-18" fill="#F85835" fill-rule="nonzero" x="13.2825133" y="22.4480702" width="21.5042136" height="6.57859754" rx="3.28929876"></rect>
                                        <path d="M15.2854108,31.004844 L32.8147252,31.0798616 C33.216887,31.0815826 33.5415138,31.4102348 33.5398127,31.8139266 C33.5381626,32.1992686 33.2397694,32.5136954 32.8628696,32.5399866 L32.8085164,32.5417588 L15.2792018,32.4667412 C14.87704,32.4650202 14.5524133,32.1363682 14.5541144,31.7326764 C14.5557645,31.3473342 14.8541576,31.0329074 15.2310574,31.0066162 L15.2854108,31.004844 Z" id="路径备份-5" fill="#F85835" fill-rule="nonzero"></path>
                                        <circle id="椭圆形备份-7" fill="#FFFFFF" fill-rule="nonzero" cx="31.3023766" cy="25.8881504" r="2"></circle>
                                    </g>
                                </g>
                                <g id="编组-86备份-9" transform="translate(284.000000, 24.000000)">
                                    <text id="弹性云服务器-ECS" font-family="PingFangSC-Regular, PingFang SC" font-size="12" font-weight="normal" line-spacing="16" fill="#242828">
                                        <tspan x="0" y="65">弹性云服务器</tspan>
                                        <tspan x="22.02" y="81"> ECS</tspan>
                                    </text>
                                    <g id="编组备份" transform="translate(12.000000, 0.000000)">
                                        <rect id="矩形备份-15" fill="#F85835" fill-rule="nonzero" x="0" y="0" width="48" height="48" rx="10"></rect>
                                        <path d="M16.0050009,36 L16.0046414,35.9856885 C11.5415963,35.7216771 8,31.8379674 8,27.0857143 C8,22.2485025 11.6693584,18.3111666 16.2448749,18.1750668 C17.3458263,14.5920192 20.5478934,12 24.3265306,12 C28.1219735,12 31.3357063,14.6151268 32.4225373,18.2229292 C36.6821362,18.6999935 40,22.4860164 40,27.0857143 C40,31.9386066 36.3068135,35.8857794 31.7106,35.9975654 L31.5102041,36 L16.0050009,36 Z" id="路径备份-7" fill="#FFFFFF"></path>
                                        <rect id="矩形备份-18" fill="#F85835" fill-rule="nonzero" x="13.2825133" y="22.4480702" width="21.5042136" height="6.57859754" rx="3.28929876"></rect>
                                        <path d="M15.2854108,31.004844 L32.8147252,31.0798616 C33.216887,31.0815826 33.5415138,31.4102348 33.5398127,31.8139266 C33.5381626,32.1992686 33.2397694,32.5136954 32.8628696,32.5399866 L32.8085164,32.5417588 L15.2792018,32.4667412 C14.87704,32.4650202 14.5524133,32.1363682 14.5541144,31.7326764 C14.5557645,31.3473342 14.8541576,31.0329074 15.2310574,31.0066162 L15.2854108,31.004844 Z" id="路径备份-5" fill="#F85835" fill-rule="nonzero"></path>
                                        <circle id="椭圆形备份-7" fill="#FFFFFF" fill-rule="nonzero" cx="31.3023766" cy="25.8881504" r="2"></circle>
                                    </g>
                                </g>
                            </g>
                            <g id="编组-86备份-4" transform="translate(163.000000, 168.000000)">
                                <g id="编组" transform="translate(21.000000, 0.000000)">
                                    <rect id="矩形备份-11" fill="#1476FF" x="0" y="0" width="48" height="48" rx="10.6666667"></rect>
                                    <path d="M36.32,14.2545455 L26.42,8.58181818 C25.6866667,8.21818182 24.88,8 24,8 C23.12,8 22.3133333,8.21818182 21.58,8.58181818 L11.68,14.2545455 C10.36,14.9818182 9.33333333,16.8 9.33333333,18.3272727 L9.33333333,29.6727273 C9.33333333,31.2 10.36,32.9454545 11.68,33.7454545 L21.58,39.4181818 C22.24,39.7818182 23.12,40 24,40 C24.88,40 25.6866667,39.7818182 26.42,39.4181818 L36.32,33.7454545 C37.64,32.9454545 38.6666667,31.2 38.6666667,29.6727273 L38.6666667,18.3272727 C38.6666667,16.8 37.64,14.9818182 36.32,14.2545455 Z" id="路径备份-2" fill="#FFFFFF"></path>
                                    <g id="编组-79备份" transform="translate(12.388889, 15.384615)">
                                        <path d="M22.7227444,14.08933 C21.7944904,13.2456576 20.6974629,12.9081886 19.9379824,12.7394541 C19.8535956,12.1488834 19.6848222,11.1364764 19.2628885,9.95533499 C18.8409549,8.85856079 18.2502478,7.7617866 17.4907673,6.74937965 C16.5625133,5.48387097 15.2967124,4.47146402 13.862138,3.54342432 C13.5245911,3.37468983 13.4402043,3.12158809 13.4402043,3.03722084 C13.4402043,2.78411911 13.5245911,2.53101737 13.6089778,2.44665012 C13.7777513,2.27791563 14.3684583,1.51861042 14.1152982,0.843672457 C14.0309114,0.506203474 13.6933645,0 12.7651105,0 L12.6807238,0 C11.9212433,0 10.8242158,0.506203474 9.72718833,1.94044665 C9.64280161,2.0248139 9.64280161,2.10918114 9.64280161,2.10918114 C9.64280161,2.10918114 9.55841488,2.19354839 9.38964142,2.19354839 C8.96770779,2.27791563 8.37700069,2.44665012 7.44874669,2.69975186 C5.00153159,3.45905707 2.72308995,4.89330025 1.71044922,6.32754342 C0.613421762,7.84615385 0.697808489,8.85856079 0.782195217,9.28039702 C0.782195217,9.28039702 0.613421762,9.44913151 0.529035034,9.53349876 C0.444648307,9.70223325 0.360261579,9.7866005 0.275874851,9.7866005 C0.107101396,10.0397022 -0.146058786,10.7146402 0.107101396,11.2208437 C0.275874851,11.5583127 0.613421762,11.7270471 1.0353554,11.7270471 C1.28851558,11.7270471 1.62606249,11.6426799 1.9636094,11.4739454 C3.65134395,10.630273 5.08591832,10.0397022 5.84539887,9.70223325 C6.09855905,10.0397022 6.43610596,10.292804 6.77365287,10.5459057 C7.36435996,10.8833747 7.95506706,11.1364764 8.46138742,11.1364764 C8.54577415,11.1364764 8.63016088,11.1364764 8.7145476,11.1364764 C9.55841488,11.0521092 9.72718833,10.5459057 9.81157506,10.292804 C9.89596179,9.87096774 9.72718833,9.44913151 9.3052547,9.11166253 C9.98034852,9.19602978 10.9086025,9.28039702 12.0900167,9.44913151 C13.3558176,9.617866 14.7060053,10.292804 15.8874194,11.3895782 C16.8156734,12.2332506 17.4907673,13.1612903 17.8283142,13.5831266 C17.8283142,13.5831266 17.7439275,13.6674938 17.7439275,13.751861 C17.575154,14.0049628 17.4063805,14.2580645 17.1532204,14.5111663 C16.8156734,14.9330025 16.5625133,15.2704715 16.4781265,15.5235732 C16.4781265,15.6079404 15.9718062,16.6203474 16.4781265,17.2109181 C16.6469,17.4640199 16.9000602,17.5483871 17.2376071,17.5483871 C17.7439275,17.5483871 18.1658611,17.2109181 18.4190213,16.8734491 C18.5877947,16.6203474 19.0097284,16.3672457 19.5160487,16.1985112 C20.0223691,16.0297767 20.5286895,15.9454094 21.0350098,15.9454094 C21.28817,15.9454094 21.4569435,15.9454094 21.4569435,16.0297767 C21.6257169,16.1141439 22.1320373,16.2828784 22.5539709,16.2828784 C23.0602913,16.2828784 23.3978382,16.0297767 23.5666116,15.6923077 C23.7353851,15.0173697 23.0602913,14.426799 22.7227444,14.08933 Z" id="路径" fill="#1476FF"></path>
                                        <path d="M2.82093254,7.22580645 C2.3593254,7.22580645 2.0515873,7.53548387 2.0515873,8 C2.0515873,8.46451613 2.3593254,8.77419355 2.82093254,8.77419355 C3.28253968,8.77419355 3.59027778,8.46451613 3.59027778,8 C3.59027778,7.53548387 3.28253968,7.22580645 2.82093254,7.22580645 Z" id="路径" fill="#FFFFFF" fill-rule="nonzero"></path>
                                    </g>
                                </g>
                                <text id="云数据库-RDS-for-MySQL" font-family="PingFangSC-Regular, PingFang SC" font-size="12" font-weight="normal" line-spacing="16" fill="#242828">
                                    <tspan x="20.214" y="65">云数据库</tspan>
                                    <tspan x="0" y="81">RDS for MySQL</tspan>
                                </text>
                            </g>
                        </g>
                        <path id="路径" d="M652,152.5 C661.00549,152.5 668.325942,159.714505 668.496942,168.679101 L668.5,169 L668.5,252.5 L672.5,252.5 L668,261.5 L663.5,252.5 L667.5,252.5 L667.5,169 C667.5,160.54527 660.730704,153.671595 652.316301,153.503163 L652,153.5 L244,153.5 C235.54527,153.5 228.671595,160.269296 228.503163,168.683699 L228.5,169 L228.5,252.5 L232.5,252.5 L228,261.5 L223.5,252.5 L227.5,252.5 L227.5,169 C227.5,159.99451 234.714505,152.674058 243.679101,152.503058 L244,152.5 L652,152.5 Z" stroke="none" fill="#999999" fill-rule="nonzero"></path>
                        <g id="编组-145备份-5" stroke="none" stroke-width="1" fill="none" fill-rule="evenodd" transform="translate(412.000000, 129.000000)">
                            <text id="弹性负载均衡-ELB" font-family="PingFangSC-Regular, PingFang SC" font-size="12" font-weight="normal" line-spacing="16" fill="#242828">
                                <tspan x="0" y="65">弹性负载均衡</tspan>
                                <tspan x="22.59" y="81"> ELB</tspan>
                            </text>
                            <g id="网络/ELB" transform="translate(12.000000, 0.000000)">
                                <rect id="矩形备份-15" fill="#1476FF" x="0" y="0" width="48" height="48" rx="10.56"></rect>
                                <g id="编组" transform="translate(8.000000, 8.000000)">
                                    <path d="M14.7767273,4.74181818 C14.8916364,4.80218182 15.0101818,4.85527273 15.1345455,4.89818182 L15.1345455,27.1025455 C14.6458182,27.272 14.2269091,27.576 13.9229091,27.9738182 L4.22254545,23.3418182 C4.28218182,23.1490909 4.32436364,22.9483636 4.32436364,22.7367273 C4.32436364,22.0887273 4.01527273,21.5149091 3.54109091,21.1287273 L14.7767273,4.74181818 Z M27.6749091,22.7367273 C27.6749091,22.9563636 27.7192727,23.1636364 27.784,23.3621818 L18.0690909,27.9658182 C17.7650909,27.5723636 17.3498182,27.2712727 16.8647273,27.1025455 L16.8647273,4.89818182 C17.008,4.84872727 17.144,4.78618182 17.2749091,4.71345455 L28.4938182,21.0996364 C27.9992727,21.4858182 27.6749091,22.072 27.6749091,22.7367273 L27.6749091,22.7367273 Z M29.8378182,20.632 C29.64,20.632 29.4523636,20.6661818 29.2698182,20.7141818 L17.9476364,4.17890909 C18.3447273,3.73454545 18.5941818,3.16145455 18.5941818,2.52654545 C18.5941818,1.13309091 17.4312727,0 16,0 C14.5672727,0 13.4050909,1.13309091 13.4050909,2.52654545 C13.4050909,3.18254545 13.6690909,3.77527273 14.0909091,4.22472727 L2.77454545,20.728 C2.57963636,20.6712727 2.376,20.632 2.16145455,20.632 C0.968727273,20.632 0,21.576 0,22.7367273 C0,23.8989091 0.968727273,24.8421818 2.16145455,24.8421818 C2.47709091,24.8421818 2.77381818,24.7730909 3.04363636,24.6552727 L13.4189091,29.6094545 C13.4923636,30.9396364 14.6145455,32 16,32 C17.3890909,32 18.5156364,30.9323636 18.5810909,29.5956364 L28.9789091,24.6676364 C29.2429091,24.7789091 29.5323636,24.8421818 29.8378182,24.8421818 C31.0305455,24.8421818 32,23.8989091 32,22.7367273 C32,21.576 31.0305455,20.632 29.8378182,20.632 L29.8378182,20.632 Z" id="Fill-1" stroke="#FFFFFF" stroke-width="0.66" fill="#FFFFFF"></path>
                                    <path d="M29.8378182,24 C29.1221818,24 28.5403636,23.4334545 28.5403636,22.7367273 C28.5403636,22.0407273 29.1221818,21.4734545 29.8378182,21.4734545 C30.5527273,21.4734545 31.1345455,22.0407273 31.1345455,22.7367273 C31.1345455,23.4334545 30.5527273,24 29.8378182,24 L29.8378182,24 Z" id="路径" fill="#1476FF"></path>
                                    <path d="M16,31.1585455 C15.0458182,31.1585455 14.2705455,30.4029091 14.2705455,29.4741818 C14.2705455,28.5454545 15.0458182,27.7898182 16,27.7898182 C16.9534545,27.7898182 17.7294545,28.5454545 17.7294545,29.4741818 C17.7294545,30.4029091 16.9534545,31.1585455 16,31.1585455 L16,31.1585455 Z" id="路径" fill="#1476FF"></path>
                                    <path d="M0.864727273,22.7367273 C0.864727273,22.0407273 1.44654545,21.4734545 2.16145455,21.4734545 C2.87781818,21.4734545 3.45890909,22.0407273 3.45890909,22.7367273 C3.45890909,23.4334545 2.87781818,24 2.16145455,24 C1.44654545,24 0.864727273,23.4334545 0.864727273,22.7367273 L0.864727273,22.7367273 Z" id="路径" fill="#1476FF"></path>
                                </g>
                                <g id="椭圆形备份-18">
                                    <use fill="black" fill-opacity="1" filter="url(#filter-8)" xlink:href="#path-7"></use>
                                    <use fill="#FFFFFF" fill-rule="evenodd" xlink:href="#path-7"></use>
                                </g>
                            </g>
                        </g>
                        <path id="路径备份-15" d="M339,184.5 C348.00549,184.5 355.325942,191.714505 355.496942,200.679101 L355.5,201 L355.5,252.5 L359.5,252.5 L355,261.5 L350.5,252.5 L354.5,252.5 L354.5,201 C354.5,192.54527 347.730704,185.671595 339.316301,185.503163 L339,185.5 L115,185.5 C106.54527,185.5 99.6715949,192.269296 99.5031631,200.683699 L99.5,201 L99.5,252.5 L103.5,252.5 L99,261.5 L94.5,252.5 L98.5,252.5 L98.5,201 C98.5,191.99451 105.714505,184.674058 114.679101,184.503058 L115,184.5 L339,184.5 Z" stroke="none" fill="#999999" fill-rule="nonzero"></path>
                        <path id="路径备份-17" d="M780,184.5 C789.00549,184.5 796.325942,191.714505 796.496942,200.679101 L796.5,201 L796.5,252.5 L800.5,252.5 L796,261.5 L791.5,252.5 L795.5,252.5 L795.5,201 C795.5,192.54527 788.730704,185.671595 780.316301,185.503163 L780,185.5 L556,185.5 C547.54527,185.5 540.671595,192.269296 540.503163,200.683699 L540.5,201 L540.5,252.5 L544.5,252.5 L540,261.5 L535.5,252.5 L539.5,252.5 L539.5,201 C539.5,191.99451 546.714505,184.674058 555.679101,184.503058 L556,184.5 L780,184.5 Z" stroke="none" fill="#999999" fill-rule="nonzero"></path>
                        <use id="矩形备份-148" stroke="#999999" mask="url(#mask-10)" stroke-width="2" fill="none" stroke-dasharray="2.7" xlink:href="#path-9"></use>
                        <g id="编组-88备份" stroke="none" stroke-width="1" fill="none" fill-rule="evenodd" transform="translate(82.000000, 77.000000)">
                            <g id="编组" transform="translate(6.000000, 0.000000)">
                                <rect id="矩形备份-15" fill="#F85835" x="0" y="0" width="48" height="48" rx="10.6666667"></rect>
                                <path d="M16.8236215,35.9730759 C11.9504699,35.9730759 8,32.0447301 8,27.19887 C8,22.6933513 11.4150466,18.9809923 15.8115503,18.4817536 C16.6789449,14.7823376 20.0158796,12.0269241 24,12.0269241 C27.9841204,12.0269241 31.3210551,14.7823376 32.1887673,18.481332 C36.5849534,18.9809923 40,22.6933513 40,27.19887 C40,32.0447301 36.0495301,35.9730759 31.1763785,35.9730759 L31.1763785,35.9730759 Z" id="形状结合" fill="#FFFFFF"></path>
                                <polygon id="路径-13" stroke="#F85835" points="15.5453676 18.1368096 17.9843525 27.8060387 24.7619756 20.6349287"></polygon>
                                <circle id="椭圆形" fill="#F85835" cx="18" cy="27.8060387" r="1.44265774"></circle>
                                <circle id="椭圆形" fill="#F85835" cx="24.9836103" cy="20.6035226" r="1.44265774"></circle>
                            </g>
                            <text id="虚拟私有云-VPC" font-family="PingFangSC-Regular, PingFang SC" font-size="12" font-weight="normal" line-spacing="16" fill="#242828">
                                <tspan x="0" y="65">虚拟私有云</tspan>
                                <tspan x="15.948" y="81"> VPC</tspan>
                            </text>
                        </g>
                    </g>
                </g>
            </g>
        </g>
    </g>
</svg>