<?xml version="1.0" encoding="UTF-8"?>
<svg width="960px" height="604px" viewBox="0 0 960 604" version="1.1" xmlns="http://www.w3.org/2000/svg" xmlns:xlink="http://www.w3.org/1999/xlink">
    <title>product_elb_scene_structure3</title>
    <defs>
        <ellipse id="path-1" cx="24.0033555" cy="10.3898381" rx="2.80240307" ry="2.80080881"></ellipse>
        <filter x="-44.6%" y="-44.6%" width="224.9%" height="225.0%" filterUnits="objectBoundingBox" id="filter-2">
            <feOffset dx="1" dy="1" in="SourceAlpha" result="shadowOffsetOuter1"></feOffset>
            <feGaussianBlur stdDeviation="1" in="shadowOffsetOuter1" result="shadowBlurOuter1"></feGaussianBlur>
            <feColorMatrix values="0 0 0 0 0.151548283   0 0 0 0 0.402452901   0 0 0 0 0.707144475  0 0 0 0.5 0" type="matrix" in="shadowBlurOuter1"></feColorMatrix>
        </filter>
        <ellipse id="path-3" cx="24.0033555" cy="10.3898381" rx="2.80240307" ry="2.80080881"></ellipse>
        <filter x="-44.6%" y="-44.6%" width="224.9%" height="225.0%" filterUnits="objectBoundingBox" id="filter-4">
            <feOffset dx="1" dy="1" in="SourceAlpha" result="shadowOffsetOuter1"></feOffset>
            <feGaussianBlur stdDeviation="1" in="shadowOffsetOuter1" result="shadowBlurOuter1"></feGaussianBlur>
            <feColorMatrix values="0 0 0 0 0.151548283   0 0 0 0 0.402452901   0 0 0 0 0.707144475  0 0 0 0.5 0" type="matrix" in="shadowBlurOuter1"></feColorMatrix>
        </filter>
        <ellipse id="path-5" cx="24.0033555" cy="10.3898381" rx="2.80240307" ry="2.80080881"></ellipse>
        <filter x="-44.6%" y="-44.6%" width="224.9%" height="225.0%" filterUnits="objectBoundingBox" id="filter-6">
            <feOffset dx="1" dy="1" in="SourceAlpha" result="shadowOffsetOuter1"></feOffset>
            <feGaussianBlur stdDeviation="1" in="shadowOffsetOuter1" result="shadowBlurOuter1"></feGaussianBlur>
            <feColorMatrix values="0 0 0 0 0.151548283   0 0 0 0 0.402452901   0 0 0 0 0.707144475  0 0 0 0.5 0" type="matrix" in="shadowBlurOuter1"></feColorMatrix>
        </filter>
        <path d="M100.511082,31 L859.488918,31 C866.621068,31 869.207358,31.7426049 871.814766,33.1370616 C874.422173,34.5315184 876.468482,36.577827 877.862938,39.1852344 C879.257395,41.7926418 880,44.3789317 880,51.5110816 L880,100.488918 C880,107.621068 879.257395,110.207358 877.862938,112.814766 C876.468482,115.422173 874.422173,117.468482 871.814766,118.862938 C869.207358,120.257395 866.621068,121 859.488918,121 L100.511082,121 C93.3789317,121 90.7926418,120.257395 88.1852344,118.862938 C85.577827,117.468482 83.5315184,115.422173 82.1370616,112.814766 C80.7426049,110.207358 80,107.621068 80,100.488918 L80,51.5110816 C80,44.3789317 80.7426049,41.7926418 82.1370616,39.1852344 C83.5315184,36.577827 85.577827,34.5315184 88.1852344,33.1370616 C90.7926418,31.7426049 93.3789317,31 100.511082,31 Z" id="path-7"></path>
        <mask id="mask-8" maskContentUnits="userSpaceOnUse" maskUnits="objectBoundingBox" x="-1" y="-1" width="802" height="92">
            <rect x="79" y="30" width="802" height="92" fill="white"></rect>
            <use xlink:href="#path-7" fill="black"></use>
        </mask>
        <path d="M100.511082,133 L859.488918,133 C866.621068,133 869.207358,133.742605 871.814766,135.137062 C874.422173,136.531518 876.468482,138.577827 877.862938,141.185234 C879.257395,143.792642 880,146.378932 880,153.511082 L880,552.488918 C880,559.621068 879.257395,562.207358 877.862938,564.814766 C876.468482,567.422173 874.422173,569.468482 871.814766,570.862938 C869.207358,572.257395 866.621068,573 859.488918,573 L100.511082,573 C93.3789317,573 90.7926418,572.257395 88.1852344,570.862938 C85.577827,569.468482 83.5315184,567.422173 82.1370616,564.814766 C80.7426049,562.207358 80,559.621068 80,552.488918 L80,153.511082 C80,146.378932 80.7426049,143.792642 82.1370616,141.185234 C83.5315184,138.577827 85.577827,136.531518 88.1852344,135.137062 C90.7926418,133.742605 93.3789317,133 100.511082,133 Z" id="path-9"></path>
        <mask id="mask-10" maskContentUnits="userSpaceOnUse" maskUnits="objectBoundingBox" x="-1" y="-1" width="802" height="442">
            <rect x="79" y="132" width="802" height="442" fill="white"></rect>
            <use xlink:href="#path-9" fill="black"></use>
        </mask>
        <path d="M34.5753199,23.8488093 C34.5762076,23.8529748 34.5766951,23.8540669 34.5767977,23.8522202 L34.5561603,23.6610394 L34.4793933,23.0499294 L34.3349177,21.9658191 L34.2271687,21.1943482 L34.1231061,20.4799184 L34.0074196,19.727905 L33.9393249,19.3116403 L33.8736975,18.9348411 L33.8319143,18.7109236 L33.7795223,18.4500974 L33.713627,18.1408439 C33.7024869,18.0901131 33.6912691,18.0397895 33.679975,17.9898755 L33.6113071,17.6953246 L33.5408799,17.4107143 L33.4687647,17.1361556 C33.3472057,16.686996 33.2189105,16.2801811 33.0853651,15.918025 L33.0046197,15.706109 L32.9226855,15.5050221 C32.4689092,14.4290284 31.964429,13.8494502 31.4626393,13.8494502 C30.7613996,13.8494502 30.1899703,14.6838569 29.7578199,16.3345273 L29.6955737,16.5819137 C29.6649489,16.7085183 29.6350722,16.8394884 29.6059474,16.9748168 L29.5487014,17.2512829 L29.4934669,17.5393587 L29.4402507,17.8390316 L29.3890593,18.150289 C29.3806964,18.2031299 29.3724183,18.2564529 29.3642249,18.3102579 L29.316083,18.6388683 L29.2713721,18.9666445 L29.2278269,19.3070405 C29.2206165,19.3651704 29.2134173,19.4240853 29.2062103,19.4839148 L29.162727,19.8549036 L29.0488718,20.9027363 L28.9563334,21.7677758 L28.9107711,22.1667272 L28.8673173,22.5175229 L28.8389105,22.7280983 L28.8105275,22.9224683 L28.7818028,23.1027117 L28.7523711,23.2709073 L28.7292365,23.3957566 L28.1450819,27.1749645 L27.9855042,28.1665828 L27.9049819,28.6430985 L27.8520961,28.939548 L27.8066244,29.1828223 L27.7143868,29.6564276 L27.6202669,30.1128543 C27.3348953,31.4564616 27.021569,32.5694395 26.6574039,33.4633196 C26.0077589,35.057939 25.1805929,36 24.0083191,36 C22.8576526,36 22.0551298,35.0712989 21.427819,33.5036098 C20.9997565,32.4338547 20.6457829,31.0427346 20.3280542,29.3184086 L20.2681718,28.9863404 L20.2131667,28.6613667 L20.1088219,28.0084054 L19.8984189,26.6206616 L19.4535493,23.6198712 L19.4196433,23.4149941 L19.3795059,23.1987871 L18.9851587,20.8808787 L18.8170779,19.9171672 L18.696288,19.24929 L18.6091325,18.7902775 L18.5518252,18.5069864 L18.4844658,18.1949003 L18.4158374,17.8925647 L18.3460347,17.6001005 L18.2751524,17.3176282 L18.2032852,17.0452684 L18.1305276,16.7831417 L18.0569745,16.5313687 L17.9827205,16.2900701 L17.9078602,16.0593664 L17.8324883,15.8393783 C17.8198889,15.8036132 17.8072722,15.7682997 17.7946401,15.7334402 L17.7186784,15.5297516 L17.6424418,15.3370801 L17.566025,15.1555463 L17.4895226,14.9852707 C17.4257613,14.8480989 17.3620095,14.7227802 17.2985138,14.6096286 L17.2224577,14.479707 C16.9694521,14.0662364 16.7221217,13.8494502 16.4962455,13.8494502 C16.1268968,13.8494502 15.8103501,14.0069493 15.5339008,14.3642945 L15.4708108,14.4503257 C15.4500142,14.4801981 15.4294491,14.5112723 15.4091097,14.5435676 L15.3487628,14.6441359 C15.328869,14.6788926 15.3091951,14.7148896 15.2897354,14.7521463 L15.2319928,14.8677144 L15.1755002,14.9909559 L15.1202231,15.1219864 L15.0661267,15.2609216 L15.0131762,15.4078771 L14.9613371,15.5629686 L14.9105746,15.7263117 L14.8608541,15.8980221 L14.8121407,16.0782154 L14.7643999,16.2670073 L14.7175969,16.4645134 L14.649075,16.7773646 L14.6044648,16.9971622 L14.560671,17.2260788 L14.4964351,17.5868048 L14.4338409,17.968699 L14.3929657,18.235248 L14.3527334,18.5114943 L14.3131094,18.7975535 L14.2547378,19.2452944 L14.1975395,19.7157648 L14.1413975,20.209355 L14.0861946,20.7264555 L14.0318137,21.2674563 L13.9781377,21.832748 L13.9074639,22.6249305 L13.8549773,23.2484186 C13.519662,27.3267038 12.1144357,31.4327959 9.6504182,35.5617141 C9.39124239,35.9960112 8.84158037,36.1302352 8.42271372,35.8615117 C8.00384707,35.5927882 7.87439206,35.0228774 8.13356787,34.5885803 C10.4563709,30.6962931 11.7673697,26.8655352 12.0776841,23.0913255 L12.1769265,21.9186274 L12.2346503,21.2735303 L12.2915555,20.6691654 L12.3480903,20.1029479 L12.4002493,19.6126878 L12.4472016,19.1984865 L12.4947369,18.8053448 L12.5431055,18.4318191 L12.5925577,18.0764659 C12.600904,18.0186745 12.6093058,17.9615802 12.6177684,17.9051528 L12.6693153,17.5743515 L12.7225716,17.2581135 L12.7777875,16.9549954 C12.7871673,16.9054888 12.7966393,16.8564687 12.8062085,16.8079051 L12.8648331,16.5217599 L12.926043,16.2451255 C12.946905,16.1543388 12.9682396,16.0648966 12.9900885,15.9765583 L13.0572199,15.7146147 L13.092021,15.5856756 C13.7237572,13.2840092 14.7847838,12 16.4962455,12 C17.9450868,12 18.886951,13.2189937 19.614826,15.4683977 L19.7011626,15.7432601 C19.7153871,15.7898908 19.7295306,15.8369306 19.7435957,15.8843781 L19.8270618,16.1739426 L19.9087549,16.473218 L19.9887874,16.7821319 L20.067272,17.1006119 L20.144321,17.4285855 L20.2200471,17.7659804 L20.3147912,18.2102581 L20.4046595,18.6687757 L20.5317724,19.3596259 L20.6669523,20.1250164 L21.1497808,22.9566697 L21.1753992,23.0938401 L21.2394054,23.4933554 L21.8249963,27.4220139 L21.9413991,28.1651431 L22.0088556,28.5728181 L22.0386591,28.7432752 C22.0922116,29.0420416 22.1467113,29.3299874 22.2022579,29.6069609 L22.2863757,30.0141729 C22.5270051,31.1445164 22.7874496,32.0753003 23.0753847,32.7948682 C23.4523898,33.7370275 23.8096674,34.1504221 24.0083191,34.1504221 C24.2381012,34.1504221 24.6168404,33.7191337 25.0142428,32.7436693 C25.2260899,32.2236693 25.4238698,31.596535 25.6108167,30.8649945 L25.7034024,30.4905364 C25.7492588,30.2989697 25.7944719,30.1009061 25.8390921,29.8963881 L25.9275571,29.4787589 L26.014531,29.0439939 L26.1137026,28.5176468 L26.1739411,28.1730535 L26.2785939,27.5406545 L26.516079,26.0328591 L26.9465371,23.2356014 L26.9881412,22.9886072 L27.013503,22.8499522 L27.0386084,22.6982506 L27.0637281,22.5318568 L27.1020263,22.2511192 L27.1418788,21.9280689 L27.204593,21.3689395 L27.3457726,20.0457431 L27.4142474,19.439621 L27.4590884,19.067621 L27.5043854,18.7137323 L27.5510841,18.3714802 C27.7943709,16.6450722 28.1063146,15.3153634 28.5718438,14.2783882 C29.2144936,12.8468732 30.1653402,12 31.4626393,12 C33.135859,12 34.2177309,13.4195473 34.9853033,15.9128915 L35.0693098,16.194331 L35.1508139,16.4845031 L35.2299001,16.7833021 C35.2428843,16.833815 35.2557713,16.884683 35.2685628,16.9359039 L35.3441805,17.2474459 L35.4175913,17.5673515 C35.4296473,17.6213602 35.4416148,17.675713 35.4534956,17.7304076 L35.5237546,18.0626609 L35.58055,18.3458784 L35.6268729,18.5942878 C35.6347406,18.6377881 35.6426761,18.6822851 35.6506705,18.7276993 L35.6992735,19.0105588 L35.7990293,19.6271089 L35.899363,20.2860741 L36.0702486,21.4793367 L36.2289867,22.6618805 L36.3274741,23.4591445 L36.3334721,23.5229285 L36.3332114,23.5303014 L36.3301902,23.5167127 L36.4001329,23.9789246 L36.6583007,25.7366156 L36.6780094,25.864576 C36.8781123,27.1422103 37.098287,28.2865019 37.3687386,29.3672706 C37.9730653,31.7822582 38.7555902,33.535001 39.6921037,34.3762301 C40.0643904,34.710639 40.1047283,35.2946468 39.7822009,35.6806481 C39.4596734,36.0666493 38.8964153,36.1084732 38.5241285,35.7740643 C37.2408044,34.6213104 36.3304577,32.5822653 35.6421678,29.8317469 C35.382001,28.7920782 35.1679326,27.7079287 34.9747026,26.5204322 L34.8871372,25.9640857 L34.5753199,23.8488093 Z" id="path-11"></path>
        <filter x="-8.6%" y="-11.5%" width="123.4%" height="131.3%" filterUnits="objectBoundingBox" id="filter-12">
            <feMorphology radius="0.25" operator="dilate" in="SourceAlpha" result="shadowSpreadOuter1"></feMorphology>
            <feOffset dx="1" dy="1" in="shadowSpreadOuter1" result="shadowOffsetOuter1"></feOffset>
            <feGaussianBlur stdDeviation="1" in="shadowOffsetOuter1" result="shadowBlurOuter1"></feGaussianBlur>
            <feComposite in="shadowBlurOuter1" in2="SourceAlpha" operator="out" result="shadowBlurOuter1"></feComposite>
            <feColorMatrix values="0 0 0 0 0.317647059   0 0 0 0 0.317647059   0 0 0 0 0.317647059  0 0 0 0.3 0" type="matrix" in="shadowBlurOuter1"></feColorMatrix>
        </filter>
    </defs>
    <g id="页面-1" stroke="none" stroke-width="1" fill="none" fill-rule="evenodd">
        <g id="编组-20备份-4" transform="translate(-160.000000, -232.000000)">
            <g id="product_elb_scene_structure3" transform="translate(160.000000, 232.000000)">
                <rect id="蒙版" x="0" y="0" width="960" height="604"></rect>
                <g id="编组-20备份-3" transform="translate(134.000000, 46.000000)">
                    <text id="会员" font-family="PingFangSC-Regular, PingFang SC" font-size="12" font-weight="normal" line-spacing="18" fill="#242828">
                        <tspan x="12" y="62">会员</tspan>
                    </text>
                    <g id="编组" fill="#FF9A2E" fill-rule="nonzero">
                        <g transform="translate(5.500000, 3.000000)" id="形状结合">
                            <path d="M19.4223372,0.266730336 L28.845427,16.4839347 C28.9489774,16.6439729 29.1043031,16.7506651 29.311404,16.7506651 C29.4149544,16.7506651 29.5185048,16.697319 29.6220553,16.6439729 L38.1649664,9.76233028 C38.2685168,9.70898421 38.3720673,9.65563815 38.4756177,9.65563815 C38.786269,9.65563815 39.0451451,9.92236848 38.9933699,10.295791 L33.8676232,33.2345998 C33.815848,33.5013301 33.6087471,33.6613683 33.349871,33.6613683 L4.0968724,33.6613683 C3.8379963,33.6613683 3.63089543,33.4479841 3.57912021,33.2345998 L0.00663010774,10.6158674 C-0.0451451111,10.2424449 0.213730983,9.97571455 0.524382296,9.97571455 C0.627932734,9.97571455 0.731483171,10.0290606 0.835033609,10.0824067 L8.70486687,16.2172044 C8.80841731,16.2705505 8.91196775,16.3238965 9.01551819,16.3238965 C9.17084384,16.3238965 9.37794472,16.2172044 9.48149515,16.0571662 L18.4903832,0.266730336 C18.5939337,0.0533460671 18.7492593,0 18.9563602,0 C19.1116859,0 19.3187867,0.106692134 19.4223372,0.266730336 Z M34.125,41 L4.875,41 C3.74678571,41 2.78571429,39.9572909 2.78571429,38.7332412 C2.78571429,37.5091914 3.705,36.4664824 4.875,36.4664824 L34.125,36.4664824 C35.295,36.4664824 36.2142857,37.5091914 36.2142857,38.7332412 C36.2142857,40.0026261 35.295,41 34.125,41 Z"></path>
                        </g>
                    </g>
                </g>
                <g id="编组-20备份-3" transform="translate(241.000000, 46.000000)">
                    <text id="订单" font-family="PingFangSC-Regular, PingFang SC" font-size="12" font-weight="normal" line-spacing="18" fill="#242828">
                        <tspan x="12" y="62">订单</tspan>
                    </text>
                    <g id="编组" fill="#FF9A2E" fill-rule="nonzero">
                        <path d="M37.1711831,7.86784436 L31.9135377,7.86784436 C31.409437,6.20661896 29.8888026,5 28.0932042,5 L19.9859317,5 C18.1903333,5 16.6696989,6.20661896 16.1655982,7.86784436 L10.8329627,7.86784436 C9.26650095,7.86784436 8,9.15943649 8,10.756932 L8,40.1109123 C8,41.7084079 9.26650095,43 10.8329627,43 L37.167017,43 C38.7334787,43 39.9999898,41.7084079 39.9999898,40.1109123 L39.9999898,10.756932 C40.0041457,9.16368515 38.7334787,7.86784436 37.1711831,7.86784436 Z M24.039568,33.0581395 C24.039568,33.8059034 23.4438126,34.4134615 22.7105752,34.4134615 L16.0864419,34.4134615 C15.3532045,34.4134615 14.7574492,33.8059034 14.7574492,33.0581395 C14.7574492,32.3103757 15.3532045,31.7028175 16.0864419,31.7028175 L22.7105752,31.7028175 C23.4438126,31.7028175 24.039568,32.3103757 24.039568,33.0581395 Z M33.3883447,25.4997764 C33.3883447,26.2475403 32.7925893,26.8550984 32.0593519,26.8550984 L16.019784,26.8550984 C15.2865466,26.8550984 14.6907912,26.2475403 14.6907912,25.4997764 C14.6907912,24.7520125 15.2865466,24.1444544 16.019784,24.1444544 L32.0635181,24.1444544 C32.7967555,24.1444544 33.3883447,24.7520125 33.3883447,25.4997764 Z M33.3883447,17.9414132 C33.3883447,18.6891771 32.7925893,19.2967352 32.0593519,19.2967352 L16.019784,19.2967352 C15.2865466,19.2967352 14.6907912,18.6891771 14.6907912,17.9414132 C14.6907912,17.1936494 15.2865466,16.5860912 16.019784,16.5860912 L32.0635181,16.5860912 C32.7967555,16.5860912 33.3883447,17.1936494 33.3883447,17.9414132 Z" id="形状"></path>
                    </g>
                </g>
                <g id="编组-20备份-3" transform="translate(456.000000, 46.000000)">
                    <text id="促销" font-family="PingFangSC-Regular, PingFang SC" font-size="12" font-weight="normal" line-spacing="18" fill="#242828">
                        <tspan x="12" y="62">促销</tspan>
                    </text>
                    <g id="编组" fill="#FF9A2E" fill-rule="nonzero">
                        <g transform="translate(5.500000, 5.500000)" id="形状">
                            <path d="M34.671242,0 L19.4682513,0 C18.8530298,0 18.2625823,0.243638393 17.8249079,0.681361607 L0.681285571,17.8227679 C-0.22709519,18.73125 -0.22709519,20.2013393 0.681285571,21.1098214 L15.8884053,36.3186384 C16.7967861,37.2271205 18.2667113,37.2271205 19.1750921,36.3186384 L36.3187144,19.1731027 C36.7563888,18.7353795 37,18.1448661 37,17.5295759 L37,2.32488839 C36.995871,1.040625 35.9553621,0 34.671242,0 Z M25.4346613,16.1875 C22.8788082,16.1875 20.8101774,14.1186384 20.8101774,11.5625 C20.8101774,9.00636161 22.8788082,6.9375 25.4346613,6.9375 C27.9905145,6.9375 30.0591452,9.00636161 30.0591452,11.5625 C30.0591452,14.1186384 27.9905145,16.1875 25.4346613,16.1875 Z"></path>
                        </g>
                    </g>
                </g>
                <g id="编组-20备份-3" transform="translate(563.000000, 46.000000)">
                    <text id="积分" font-family="PingFangSC-Regular, PingFang SC" font-size="12" font-weight="normal" line-spacing="18" fill="#242828">
                        <tspan x="12" y="62">积分</tspan>
                    </text>
                    <g id="编组" fill="#FF9A2E" fill-rule="nonzero">
                        <g transform="translate(6.000000, 5.000000)" id="形状结合">
                            <path d="M33.6166274,25.475018 C34.5072435,26.5553951 35,27.7437068 35,28.9913242 C35,33.9666757 27.1649785,38 17.5,38 C7.8350215,38 4.3764679e-08,33.9666757 4.3764679e-08,28.9913242 C4.3764679e-08,27.7437517 0.492756573,26.5553951 1.38337268,25.475018 C4.04451767,28.7031848 10.2585435,30.9673875 17.5,30.9673875 C24.7414565,30.9673875 30.9554823,28.7031847 33.6166274,25.475018 Z M33.5118779,15.3594973 C34.4684606,16.4727572 35,17.7044043 35,19.0000224 C35,23.9753739 27.1649785,28.0086982 17.5,28.0086982 C7.83502146,28.0086982 0,23.9753739 0,19.0000224 C0,17.7044042 0.531584137,16.4727572 1.48812206,15.3594973 C4.2048886,18.5213601 10.3518282,20.7276479 17.5,20.7276479 C24.6481718,20.7276479 30.7951114,18.5213601 33.5118779,15.3594973 Z M17.5,0 C27.1649831,0 35,4.03332153 35,9.00867579 C35,12.2271657 31.6645189,15.201173 26.25,16.810418 C20.8354812,18.419663 14.1645188,18.419663 8.74999991,16.810418 C3.33548104,15.201173 0,12.2271657 0,9.00867579 C0,4.03332153 7.83501687,0 17.5,0 Z"></path>
                        </g>
                    </g>
                </g>
                <g id="编组-20备份-3" transform="translate(671.000000, 46.000000)">
                    <text id="商品" font-family="PingFangSC-Regular, PingFang SC" font-size="12" font-weight="normal" line-spacing="18" fill="#242828">
                        <tspan x="12" y="62">商品</tspan>
                    </text>
                    <g id="编组" fill="#FF9A2E" fill-rule="nonzero">
                        <g transform="translate(7.000000, 3.000000)" id="形状">
                            <path d="M26.6733091,26.6 C24.7371637,29.8857333 21.1690182,31.9124 17.3066182,31.92 C13.4417454,31.9124 9.8736,29.8857333 7.93498184,26.6 C7.63060146,26.1332694 7.6123696,25.529652 7.88800001,25.0445333 C8.17480743,24.5501025 8.69909681,24.2520143 9.26036365,24.2642667 C9.82909091,24.2718667 10.3458909,24.586 10.608,25.08 C11.9952,27.4284 14.5445818,28.8749333 17.3066182,28.88 C20.0661818,28.8749333 22.6130909,27.4284 23.9978182,25.08 C24.2819106,24.6006828 24.7906946,24.3092806 25.3380364,24.3124 C25.8847684,24.3067769 26.394357,24.5952181 26.6807273,25.0724 C26.9578789,25.5425279 26.9559713,26.1317659 26.6757818,26.6 M30.9214545,7.6 L3.07854545,7.6 C1.37978182,7.6 0.00247273935,8.95533335 0,10.6273333 L0,34.9676 C0,36.6396 1.37978182,38 3.07854545,38 L30.9214545,38 C32.6226909,37.9974667 33.9975273,36.6421333 34,34.9701333 L34,10.6298667 C34,8.95786665 32.6202182,7.60253331 30.9214545,7.6 M17,3.04 C19.5568,3.04 21.6363637,5.08693335 21.6363637,7.6 L24.7272727,7.6 C24.7272727,3.40986665 21.2605091,0 17,0 C12.739491,0 9.27272727,3.40986665 9.27272727,7.6 L12.3636364,7.6 C12.3636364,5.08693335 14.4432,3.04 17,3.04"></path>
                        </g>
                    </g>
                </g>
                <g id="编组-20备份-3" transform="translate(778.000000, 46.000000)">
                    <text id="库存" font-family="PingFangSC-Regular, PingFang SC" font-size="12" font-weight="normal" line-spacing="18" fill="#242828">
                        <tspan x="12" y="62">库存</tspan>
                    </text>
                    <g id="编组" fill="#FF9A2E" fill-rule="nonzero">
                        <g transform="translate(7.000000, 6.000000)" id="形状">
                            <path d="M5.28233209,27.6250142 C4.69554403,27.6250142 4.21985187,28.1007142 4.21985187,28.6875118 C4.21985187,29.2743095 4.69554403,29.7500095 5.28233209,29.7500095 L15.9071343,29.7500095 C16.4939223,29.7500095 16.9696145,29.2743095 16.9696145,28.6875118 C16.9696145,28.1007142 16.4939223,27.6250142 15.9071343,27.6250142 L5.28233209,27.6250142 Z M5.28767652,21.2500284 C4.70088846,21.2500284 4.2251963,21.7257284 4.2251963,22.3125261 C4.2251963,22.8993237 4.70088846,23.3750237 5.28767652,23.3750237 L11.6732846,23.3750237 C12.2600727,23.3750237 12.7357648,22.8993237 12.7357648,22.3125261 C12.7357648,21.7257284 12.2600727,21.2500284 11.6732846,21.2500284 L5.28767652,21.2500284 Z M0.00059514545,17.0000379 C0.00059514545,15.8264425 0.95197945,14.8750426 2.12555558,14.8750426 L31.8750396,14.8750426 C33.0486536,14.8750426 34,15.8264425 34,17.0000379 L34,31.3846358 C34,32.8291717 32.8291529,34 31.3846408,34 L2.61591649,34 C1.17159382,34 0.00059514545,32.8291717 0.00059514545,31.3846358 L0.00059514545,17.0000379 Z M18.0320947,10.6250142 L18.0320947,2.12503317 C18.0320947,0.951437802 18.983479,3.79043786e-05 20.1570551,3.79043786e-05 L26.0858471,3.79043786e-05 C26.929979,3.79043786e-05 27.7220527,0.408067492 28.21221,1.09532282 L33.9627406,10.6250142 C33.9652423,10.6250142 33.9674407,10.6355895 33.9693359,10.6567781 L33.9693359,10.6764505 C34.0629202,11.7239 33.0697281,12.6489185 32.0222578,12.7425044 C31.9659202,12.7475193 31.9093882,12.7500474 31.852828,12.7500474 L20.1570551,12.7500474 C18.983479,12.7500474 18.0320947,11.7986096 18.0320947,10.6250142 Z M13.8183719,12.7500095 L2.12263699,12.7500095 C2.06607672,12.7500095 2.00954472,12.7474814 1.9532072,12.7424665 C0.905736867,12.6488806 -0.0874552825,11.7238621 0.006129094,10.6764126 L0.006129094,10.6567402 C0.0079863781,10.6355895 0.0102226998,10.6249763 0.0127243477,10.6249763 L5.76321706,1.09528492 C6.25337432,0.408029588 7.0454481,0 7.88957993,0 L13.8183719,0 C14.991948,0 15.9433324,0.951399898 15.9433324,2.12499526 L15.9433324,10.6250142 C15.9433324,11.7986096 14.991948,12.7500095 13.8183719,12.7500095 Z"></path>
                        </g>
                    </g>
                </g>
                <g id="编组-20备份-3" transform="translate(349.000000, 46.000000)">
                    <text id="财务" font-family="PingFangSC-Regular, PingFang SC" font-size="12" font-weight="normal" line-spacing="18" fill="#242828">
                        <tspan x="12" y="62">财务</tspan>
                    </text>
                    <g id="编组" fill="#FF9A2E" fill-rule="nonzero">
                        <g transform="translate(6.000000, 5.000000)" id="形状">
                            <path d="M13.2006965,9.54187454 L22.2686013,9.54187454 C25.0767266,9.54187454 27.228787,3.39175506 27.228787,3.39175506 C27.228787,1.54586858 27.0532792,0.163580319 23.9233894,0.0529972577 C20.8143935,-0.0575858034 20.0496808,2.2476457 17.8098665,2.2476457 C15.5031921,2.2476457 14.3707487,0.448544361 11.5417295,0.0529972577 C8.71271039,-0.342549845 8.23633198,1.54586858 8.23633198,3.39175506 C8.23633198,3.39175506 10.3883923,9.54187454 13.1965177,9.54187454 L13.2006965,9.54187454 L13.2006965,9.54187454 Z M22.774231,11.4515589 L13.2048752,11.4515589 C2.61172374,11.4515589 0,32.4665937 0,32.4665937 C0,35.2354235 2.21892049,38 4.96018572,38 L31.0398143,38 C33.7810795,38 36,35.2311703 36,32.4665937 C35.9749275,32.4665937 33.3673825,11.4515589 22.774231,11.4515589 Z M23.8607081,27.6136986 C24.4917005,27.5966859 25.018224,28.1070692 25.0307603,28.7493016 C25.0474753,29.391534 24.5460244,29.9274365 23.9150319,29.9401961 L19.1637841,29.9401961 L19.1637841,33.0152559 C19.1470691,33.6617414 18.6205456,34.176378 17.9811956,34.1593652 C17.3669182,34.1423524 16.869646,33.6404755 16.8571097,33.0152559 L16.8571097,29.9401961 L12.1351132,29.9401961 C11.5041207,29.9572089 10.9775972,29.4468255 10.9650609,28.8045931 C10.9483459,28.1623608 11.4497969,27.6264582 12.0807893,27.6136986 L16.8529309,27.6136986 L16.8529309,26.1420933 L12.1351132,26.1420933 C11.5041207,26.1591061 10.9775972,25.6487227 10.9650609,25.0064903 C10.9483459,24.3642579 11.4497969,23.8283554 12.0807893,23.8155958 L15.331863,23.8155958 L12.0473593,17.9291744 C11.7297737,17.3720059 11.913639,16.653216 12.4610563,16.32572 C13.0126524,16.0024772 13.7188624,16.1896178 14.0489843,16.7425331 L17.9853743,23.7688107 L18.181776,23.7688107 L22.118166,16.7425331 C22.4482879,16.1853646 23.154498,15.998224 23.706094,16.32572 C24.2535113,16.6489628 24.4415554,17.3677527 24.1197911,17.9249212 L24.1197911,17.9291744 L20.8561811,23.7943298 L23.8565293,23.7943298 C24.4875218,23.7773171 25.0140453,24.2877004 25.0265815,24.9299328 C25.0432966,25.5721652 24.5418456,26.1080677 23.9108532,26.1208273 L19.1596053,26.1208273 L19.1596053,27.5924327 L23.8565293,27.5924327 L23.8607081,27.6136986 Z"></path>
                        </g>
                    </g>
                </g>
                <g id="编组-45" transform="translate(424.000000, 153.000000)">
                    <path d="M10.2555408,4.92498016e-16 L253.744459,4.14336123e-16 C257.310534,-2.4074122e-16 258.603679,0.371302445 259.907383,1.06853082 C261.211087,1.76575919 262.234241,2.78891348 262.931469,4.09261719 C263.628698,5.39632089 264,6.68946584 264,10.2555408 L264,109.744459 C264,113.310534 263.628698,114.603679 262.931469,115.907383 C262.234241,117.211087 261.211087,118.234241 259.907383,118.931469 C258.603679,119.628698 257.310534,120 253.744459,120 L10.2555408,120 C6.68946584,120 5.39632089,119.628698 4.09261719,118.931469 C2.78891348,118.234241 1.76575919,117.211087 1.06853082,115.907383 C0.371302445,114.603679 -1.94709285e-15,113.310534 3.35111248e-15,109.744459 L2.76224082e-16,10.2555408 C-1.60494146e-16,6.68946584 0.371302445,5.39632089 1.06853082,4.09261719 C1.76575919,2.78891348 2.78891348,1.76575919 4.09261719,1.06853082 C5.39632089,0.371302445 6.68946584,-2.8615553e-16 10.2555408,4.92498016e-16 Z" id="矩形备份-151" fill="#FAFAFA"></path>
                    <g id="网络/ELB" transform="translate(24.000000, 20.000000)">
                        <rect id="矩形备份-15" fill="#1476FF" x="0" y="0" width="48" height="48" rx="10.56"></rect>
                        <g id="编组" transform="translate(8.000000, 8.000000)">
                            <path d="M14.7767273,4.74181818 C14.8916364,4.80218182 15.0101818,4.85527273 15.1345455,4.89818182 L15.1345455,27.1025455 C14.6458182,27.272 14.2269091,27.576 13.9229091,27.9738182 L4.22254545,23.3418182 C4.28218182,23.1490909 4.32436364,22.9483636 4.32436364,22.7367273 C4.32436364,22.0887273 4.01527273,21.5149091 3.54109091,21.1287273 L14.7767273,4.74181818 Z M27.6749091,22.7367273 C27.6749091,22.9563636 27.7192727,23.1636364 27.784,23.3621818 L18.0690909,27.9658182 C17.7650909,27.5723636 17.3498182,27.2712727 16.8647273,27.1025455 L16.8647273,4.89818182 C17.008,4.84872727 17.144,4.78618182 17.2749091,4.71345455 L28.4938182,21.0996364 C27.9992727,21.4858182 27.6749091,22.072 27.6749091,22.7367273 L27.6749091,22.7367273 Z M29.8378182,20.632 C29.64,20.632 29.4523636,20.6661818 29.2698182,20.7141818 L17.9476364,4.17890909 C18.3447273,3.73454545 18.5941818,3.16145455 18.5941818,2.52654545 C18.5941818,1.13309091 17.4312727,0 16,0 C14.5672727,0 13.4050909,1.13309091 13.4050909,2.52654545 C13.4050909,3.18254545 13.6690909,3.77527273 14.0909091,4.22472727 L2.77454545,20.728 C2.57963636,20.6712727 2.376,20.632 2.16145455,20.632 C0.968727273,20.632 0,21.576 0,22.7367273 C0,23.8989091 0.968727273,24.8421818 2.16145455,24.8421818 C2.47709091,24.8421818 2.77381818,24.7730909 3.04363636,24.6552727 L13.4189091,29.6094545 C13.4923636,30.9396364 14.6145455,32 16,32 C17.3890909,32 18.5156364,30.9323636 18.5810909,29.5956364 L28.9789091,24.6676364 C29.2429091,24.7789091 29.5323636,24.8421818 29.8378182,24.8421818 C31.0305455,24.8421818 32,23.8989091 32,22.7367273 C32,21.576 31.0305455,20.632 29.8378182,20.632 L29.8378182,20.632 Z" id="Fill-1" stroke="#FFFFFF" stroke-width="0.66" fill="#FFFFFF"></path>
                            <path d="M29.8378182,24 C29.1221818,24 28.5403636,23.4334545 28.5403636,22.7367273 C28.5403636,22.0407273 29.1221818,21.4734545 29.8378182,21.4734545 C30.5527273,21.4734545 31.1345455,22.0407273 31.1345455,22.7367273 C31.1345455,23.4334545 30.5527273,24 29.8378182,24 L29.8378182,24 Z" id="路径" fill="#1476FF"></path>
                            <path d="M16,31.1585455 C15.0458182,31.1585455 14.2705455,30.4029091 14.2705455,29.4741818 C14.2705455,28.5454545 15.0458182,27.7898182 16,27.7898182 C16.9534545,27.7898182 17.7294545,28.5454545 17.7294545,29.4741818 C17.7294545,30.4029091 16.9534545,31.1585455 16,31.1585455 L16,31.1585455 Z" id="路径" fill="#1476FF"></path>
                            <path d="M0.864727273,22.7367273 C0.864727273,22.0407273 1.44654545,21.4734545 2.16145455,21.4734545 C2.87781818,21.4734545 3.45890909,22.0407273 3.45890909,22.7367273 C3.45890909,23.4334545 2.87781818,24 2.16145455,24 C1.44654545,24 0.864727273,23.4334545 0.864727273,22.7367273 L0.864727273,22.7367273 Z" id="路径" fill="#1476FF"></path>
                        </g>
                        <g id="椭圆形备份-18">
                            <use fill="black" fill-opacity="1" filter="url(#filter-2)" xlink:href="#path-1"></use>
                            <use fill="#FFFFFF" fill-rule="evenodd" xlink:href="#path-1"></use>
                        </g>
                    </g>
                    <text id="弹性负载均衡-ELB" font-family="PingFangSC-Regular, PingFang SC" font-size="12" font-weight="normal" line-spacing="16" fill="#242828">
                        <tspan x="96" y="89">弹性负载均衡</tspan>
                        <tspan x="120.588" y="105">ELB</tspan>
                    </text>
                    <g id="网络/ELB" transform="translate(96.000000, 20.000000)">
                        <rect id="矩形备份-15" fill="#1476FF" x="0" y="0" width="48" height="48" rx="10.56"></rect>
                        <g id="编组" transform="translate(8.000000, 8.000000)">
                            <path d="M14.7767273,4.74181818 C14.8916364,4.80218182 15.0101818,4.85527273 15.1345455,4.89818182 L15.1345455,27.1025455 C14.6458182,27.272 14.2269091,27.576 13.9229091,27.9738182 L4.22254545,23.3418182 C4.28218182,23.1490909 4.32436364,22.9483636 4.32436364,22.7367273 C4.32436364,22.0887273 4.01527273,21.5149091 3.54109091,21.1287273 L14.7767273,4.74181818 Z M27.6749091,22.7367273 C27.6749091,22.9563636 27.7192727,23.1636364 27.784,23.3621818 L18.0690909,27.9658182 C17.7650909,27.5723636 17.3498182,27.2712727 16.8647273,27.1025455 L16.8647273,4.89818182 C17.008,4.84872727 17.144,4.78618182 17.2749091,4.71345455 L28.4938182,21.0996364 C27.9992727,21.4858182 27.6749091,22.072 27.6749091,22.7367273 L27.6749091,22.7367273 Z M29.8378182,20.632 C29.64,20.632 29.4523636,20.6661818 29.2698182,20.7141818 L17.9476364,4.17890909 C18.3447273,3.73454545 18.5941818,3.16145455 18.5941818,2.52654545 C18.5941818,1.13309091 17.4312727,0 16,0 C14.5672727,0 13.4050909,1.13309091 13.4050909,2.52654545 C13.4050909,3.18254545 13.6690909,3.77527273 14.0909091,4.22472727 L2.77454545,20.728 C2.57963636,20.6712727 2.376,20.632 2.16145455,20.632 C0.968727273,20.632 0,21.576 0,22.7367273 C0,23.8989091 0.968727273,24.8421818 2.16145455,24.8421818 C2.47709091,24.8421818 2.77381818,24.7730909 3.04363636,24.6552727 L13.4189091,29.6094545 C13.4923636,30.9396364 14.6145455,32 16,32 C17.3890909,32 18.5156364,30.9323636 18.5810909,29.5956364 L28.9789091,24.6676364 C29.2429091,24.7789091 29.5323636,24.8421818 29.8378182,24.8421818 C31.0305455,24.8421818 32,23.8989091 32,22.7367273 C32,21.576 31.0305455,20.632 29.8378182,20.632 L29.8378182,20.632 Z" id="Fill-1" stroke="#FFFFFF" stroke-width="0.66" fill="#FFFFFF"></path>
                            <path d="M29.8378182,24 C29.1221818,24 28.5403636,23.4334545 28.5403636,22.7367273 C28.5403636,22.0407273 29.1221818,21.4734545 29.8378182,21.4734545 C30.5527273,21.4734545 31.1345455,22.0407273 31.1345455,22.7367273 C31.1345455,23.4334545 30.5527273,24 29.8378182,24 L29.8378182,24 Z" id="路径" fill="#1476FF"></path>
                            <path d="M16,31.1585455 C15.0458182,31.1585455 14.2705455,30.4029091 14.2705455,29.4741818 C14.2705455,28.5454545 15.0458182,27.7898182 16,27.7898182 C16.9534545,27.7898182 17.7294545,28.5454545 17.7294545,29.4741818 C17.7294545,30.4029091 16.9534545,31.1585455 16,31.1585455 L16,31.1585455 Z" id="路径" fill="#1476FF"></path>
                            <path d="M0.864727273,22.7367273 C0.864727273,22.0407273 1.44654545,21.4734545 2.16145455,21.4734545 C2.87781818,21.4734545 3.45890909,22.0407273 3.45890909,22.7367273 C3.45890909,23.4334545 2.87781818,24 2.16145455,24 C1.44654545,24 0.864727273,23.4334545 0.864727273,22.7367273 L0.864727273,22.7367273 Z" id="路径" fill="#1476FF"></path>
                        </g>
                        <g id="椭圆形备份-18">
                            <use fill="black" fill-opacity="1" filter="url(#filter-4)" xlink:href="#path-3"></use>
                            <use fill="#FFFFFF" fill-rule="evenodd" xlink:href="#path-3"></use>
                        </g>
                    </g>
                    <text id="…" font-family="PingFangSC-Regular, PingFang SC" font-size="12" font-weight="normal" line-spacing="18" fill="#242828">
                        <tspan x="162" y="46">…</tspan>
                    </text>
                    <g id="网络/ELB" transform="translate(192.000000, 20.000000)">
                        <rect id="矩形备份-15" fill="#1476FF" x="0" y="0" width="48" height="48" rx="10.56"></rect>
                        <g id="编组" transform="translate(8.000000, 8.000000)">
                            <path d="M14.7767273,4.74181818 C14.8916364,4.80218182 15.0101818,4.85527273 15.1345455,4.89818182 L15.1345455,27.1025455 C14.6458182,27.272 14.2269091,27.576 13.9229091,27.9738182 L4.22254545,23.3418182 C4.28218182,23.1490909 4.32436364,22.9483636 4.32436364,22.7367273 C4.32436364,22.0887273 4.01527273,21.5149091 3.54109091,21.1287273 L14.7767273,4.74181818 Z M27.6749091,22.7367273 C27.6749091,22.9563636 27.7192727,23.1636364 27.784,23.3621818 L18.0690909,27.9658182 C17.7650909,27.5723636 17.3498182,27.2712727 16.8647273,27.1025455 L16.8647273,4.89818182 C17.008,4.84872727 17.144,4.78618182 17.2749091,4.71345455 L28.4938182,21.0996364 C27.9992727,21.4858182 27.6749091,22.072 27.6749091,22.7367273 L27.6749091,22.7367273 Z M29.8378182,20.632 C29.64,20.632 29.4523636,20.6661818 29.2698182,20.7141818 L17.9476364,4.17890909 C18.3447273,3.73454545 18.5941818,3.16145455 18.5941818,2.52654545 C18.5941818,1.13309091 17.4312727,0 16,0 C14.5672727,0 13.4050909,1.13309091 13.4050909,2.52654545 C13.4050909,3.18254545 13.6690909,3.77527273 14.0909091,4.22472727 L2.77454545,20.728 C2.57963636,20.6712727 2.376,20.632 2.16145455,20.632 C0.968727273,20.632 0,21.576 0,22.7367273 C0,23.8989091 0.968727273,24.8421818 2.16145455,24.8421818 C2.47709091,24.8421818 2.77381818,24.7730909 3.04363636,24.6552727 L13.4189091,29.6094545 C13.4923636,30.9396364 14.6145455,32 16,32 C17.3890909,32 18.5156364,30.9323636 18.5810909,29.5956364 L28.9789091,24.6676364 C29.2429091,24.7789091 29.5323636,24.8421818 29.8378182,24.8421818 C31.0305455,24.8421818 32,23.8989091 32,22.7367273 C32,21.576 31.0305455,20.632 29.8378182,20.632 L29.8378182,20.632 Z" id="Fill-1" stroke="#FFFFFF" stroke-width="0.66" fill="#FFFFFF"></path>
                            <path d="M29.8378182,24 C29.1221818,24 28.5403636,23.4334545 28.5403636,22.7367273 C28.5403636,22.0407273 29.1221818,21.4734545 29.8378182,21.4734545 C30.5527273,21.4734545 31.1345455,22.0407273 31.1345455,22.7367273 C31.1345455,23.4334545 30.5527273,24 29.8378182,24 L29.8378182,24 Z" id="路径" fill="#1476FF"></path>
                            <path d="M16,31.1585455 C15.0458182,31.1585455 14.2705455,30.4029091 14.2705455,29.4741818 C14.2705455,28.5454545 15.0458182,27.7898182 16,27.7898182 C16.9534545,27.7898182 17.7294545,28.5454545 17.7294545,29.4741818 C17.7294545,30.4029091 16.9534545,31.1585455 16,31.1585455 L16,31.1585455 Z" id="路径" fill="#1476FF"></path>
                            <path d="M0.864727273,22.7367273 C0.864727273,22.0407273 1.44654545,21.4734545 2.16145455,21.4734545 C2.87781818,21.4734545 3.45890909,22.0407273 3.45890909,22.7367273 C3.45890909,23.4334545 2.87781818,24 2.16145455,24 C1.44654545,24 0.864727273,23.4334545 0.864727273,22.7367273 L0.864727273,22.7367273 Z" id="路径" fill="#1476FF"></path>
                        </g>
                        <g id="椭圆形备份-18">
                            <use fill="black" fill-opacity="1" filter="url(#filter-6)" xlink:href="#path-5"></use>
                            <use fill="#FFFFFF" fill-rule="evenodd" xlink:href="#path-5"></use>
                        </g>
                    </g>
                </g>
                <g id="编组-45备份" transform="translate(424.000000, 293.000000)">
                    <path d="M10.2555408,4.92498016e-16 L253.744459,4.14336123e-16 C257.310534,-2.4074122e-16 258.603679,0.371302445 259.907383,1.06853082 C261.211087,1.76575919 262.234241,2.78891348 262.931469,4.09261719 C263.628698,5.39632089 264,6.68946584 264,10.2555408 L264,109.744459 C264,113.310534 263.628698,114.603679 262.931469,115.907383 C262.234241,117.211087 261.211087,118.234241 259.907383,118.931469 C258.603679,119.628698 257.310534,120 253.744459,120 L10.2555408,120 C6.68946584,120 5.39632089,119.628698 4.09261719,118.931469 C2.78891348,118.234241 1.76575919,117.211087 1.06853082,115.907383 C0.371302445,114.603679 -1.94709285e-15,113.310534 3.35111248e-15,109.744459 L2.76224082e-16,10.2555408 C-1.60494146e-16,6.68946584 0.371302445,5.39632089 1.06853082,4.09261719 C1.76575919,2.78891348 2.78891348,1.76575919 4.09261719,1.06853082 C5.39632089,0.371302445 6.68946584,-2.8615553e-16 10.2555408,4.92498016e-16 Z" id="矩形备份-151" fill="#FAFAFA"></path>
                    <g id="编组-145备份-9" transform="translate(24.000000, 20.000000)">
                        <text id="弹性云服务器-ECS" font-family="PingFangSC-Regular, PingFang SC" font-size="12" font-weight="normal" line-spacing="16" fill="#242828">
                            <tspan x="72" y="69">弹性云服务器</tspan>
                            <tspan x="94.02" y="85"> ECS</tspan>
                        </text>
                        <g id="编组备份">
                            <rect id="矩形备份-15" fill="#F85835" fill-rule="nonzero" x="0" y="0" width="48" height="48" rx="10"></rect>
                            <path d="M16.0050009,36 L16.0046414,35.9856885 C11.5415963,35.7216771 8,31.8379674 8,27.0857143 C8,22.2485025 11.6693584,18.3111666 16.2448749,18.1750668 C17.3458263,14.5920192 20.5478934,12 24.3265306,12 C28.1219735,12 31.3357063,14.6151268 32.4225373,18.2229292 C36.6821362,18.6999935 40,22.4860164 40,27.0857143 C40,31.9386066 36.3068135,35.8857794 31.7106,35.9975654 L31.5102041,36 L16.0050009,36 Z" id="路径备份-7" fill="#FFFFFF"></path>
                            <rect id="矩形备份-18" fill="#F85835" fill-rule="nonzero" x="13.2825133" y="22.4480702" width="21.5042136" height="6.57859754" rx="3.28929876"></rect>
                            <path d="M15.2854108,31.004844 L32.8147252,31.0798616 C33.216887,31.0815826 33.5415138,31.4102348 33.5398127,31.8139266 C33.5381626,32.1992686 33.2397694,32.5136954 32.8628696,32.5399866 L32.8085164,32.5417588 L15.2792018,32.4667412 C14.87704,32.4650202 14.5524133,32.1363682 14.5541144,31.7326764 C14.5557645,31.3473342 14.8541576,31.0329074 15.2310574,31.0066162 L15.2854108,31.004844 Z" id="路径备份-5" fill="#F85835" fill-rule="nonzero"></path>
                            <circle id="椭圆形备份-7" fill="#FFFFFF" fill-rule="nonzero" cx="31.3023766" cy="25.8881504" r="2"></circle>
                        </g>
                        <g id="编组备份" transform="translate(72.000000, 0.000000)">
                            <rect id="矩形备份-15" fill="#F85835" fill-rule="nonzero" x="0" y="0" width="48" height="48" rx="10"></rect>
                            <path d="M16.0050009,36 L16.0046414,35.9856885 C11.5415963,35.7216771 8,31.8379674 8,27.0857143 C8,22.2485025 11.6693584,18.3111666 16.2448749,18.1750668 C17.3458263,14.5920192 20.5478934,12 24.3265306,12 C28.1219735,12 31.3357063,14.6151268 32.4225373,18.2229292 C36.6821362,18.6999935 40,22.4860164 40,27.0857143 C40,31.9386066 36.3068135,35.8857794 31.7106,35.9975654 L31.5102041,36 L16.0050009,36 Z" id="路径备份-7" fill="#FFFFFF"></path>
                            <rect id="矩形备份-18" fill="#F85835" fill-rule="nonzero" x="13.2825133" y="22.4480702" width="21.5042136" height="6.57859754" rx="3.28929876"></rect>
                            <path d="M15.2854108,31.004844 L32.8147252,31.0798616 C33.216887,31.0815826 33.5415138,31.4102348 33.5398127,31.8139266 C33.5381626,32.1992686 33.2397694,32.5136954 32.8628696,32.5399866 L32.8085164,32.5417588 L15.2792018,32.4667412 C14.87704,32.4650202 14.5524133,32.1363682 14.5541144,31.7326764 C14.5557645,31.3473342 14.8541576,31.0329074 15.2310574,31.0066162 L15.2854108,31.004844 Z" id="路径备份-5" fill="#F85835" fill-rule="nonzero"></path>
                            <circle id="椭圆形备份-7" fill="#FFFFFF" fill-rule="nonzero" cx="31.3023766" cy="25.8881504" r="2"></circle>
                        </g>
                        <g id="编组备份" transform="translate(168.000000, 0.000000)">
                            <rect id="矩形备份-15" fill="#F85835" fill-rule="nonzero" x="0" y="0" width="48" height="48" rx="10"></rect>
                            <path d="M16.0050009,36 L16.0046414,35.9856885 C11.5415963,35.7216771 8,31.8379674 8,27.0857143 C8,22.2485025 11.6693584,18.3111666 16.2448749,18.1750668 C17.3458263,14.5920192 20.5478934,12 24.3265306,12 C28.1219735,12 31.3357063,14.6151268 32.4225373,18.2229292 C36.6821362,18.6999935 40,22.4860164 40,27.0857143 C40,31.9386066 36.3068135,35.8857794 31.7106,35.9975654 L31.5102041,36 L16.0050009,36 Z" id="路径备份-7" fill="#FFFFFF"></path>
                            <rect id="矩形备份-18" fill="#F85835" fill-rule="nonzero" x="13.2825133" y="22.4480702" width="21.5042136" height="6.57859754" rx="3.28929876"></rect>
                            <path d="M15.2854108,31.004844 L32.8147252,31.0798616 C33.216887,31.0815826 33.5415138,31.4102348 33.5398127,31.8139266 C33.5381626,32.1992686 33.2397694,32.5136954 32.8628696,32.5399866 L32.8085164,32.5417588 L15.2792018,32.4667412 C14.87704,32.4650202 14.5524133,32.1363682 14.5541144,31.7326764 C14.5557645,31.3473342 14.8541576,31.0329074 15.2310574,31.0066162 L15.2854108,31.004844 Z" id="路径备份-5" fill="#F85835" fill-rule="nonzero"></path>
                            <circle id="椭圆形备份-7" fill="#FFFFFF" fill-rule="nonzero" cx="31.3023766" cy="25.8881504" r="2"></circle>
                        </g>
                    </g>
                    <text id="…" font-family="PingFangSC-Regular, PingFang SC" font-size="12" font-weight="normal" line-spacing="18" fill="#242828">
                        <tspan x="162" y="45.4363636">…</tspan>
                    </text>
                </g>
                <g id="编组-45备份-4" transform="translate(424.000000, 433.000000)">
                    <path d="M10.2555408,4.92498016e-16 L253.744459,4.14336123e-16 C257.310534,-2.4074122e-16 258.603679,0.371302445 259.907383,1.06853082 C261.211087,1.76575919 262.234241,2.78891348 262.931469,4.09261719 C263.628698,5.39632089 264,6.68946584 264,10.2555408 L264,109.744459 C264,113.310534 263.628698,114.603679 262.931469,115.907383 C262.234241,117.211087 261.211087,118.234241 259.907383,118.931469 C258.603679,119.628698 257.310534,120 253.744459,120 L10.2555408,120 C6.68946584,120 5.39632089,119.628698 4.09261719,118.931469 C2.78891348,118.234241 1.76575919,117.211087 1.06853082,115.907383 C0.371302445,114.603679 -1.94709285e-15,113.310534 3.35111248e-15,109.744459 L2.76224082e-16,10.2555408 C-1.60494146e-16,6.68946584 0.371302445,5.39632089 1.06853082,4.09261719 C1.76575919,2.78891348 2.78891348,1.76575919 4.09261719,1.06853082 C5.39632089,0.371302445 6.68946584,-2.8615553e-16 10.2555408,4.92498016e-16 Z" id="矩形备份-151" fill="#FAFAFA"></path>
                    <g id="编组-145备份-9" transform="translate(24.000000, 20.000000)">
                        <text id="关系型数据库-RDS-for-MySQL" font-family="PingFangSC-Regular, PingFang SC" font-size="12" font-weight="normal" line-spacing="16" fill="#242828">
                            <tspan x="71.714" y="69">关系型数据库</tspan>
                            <tspan x="63.5" y="85">RDS for MySQL</tspan>
                        </text>
                        <g id="编组">
                            <rect id="矩形备份-11" fill="#1476FF" x="0" y="0" width="48" height="48" rx="10.6666667"></rect>
                            <path d="M36.32,14.2545455 L26.42,8.58181818 C25.6866667,8.21818182 24.88,8 24,8 C23.12,8 22.3133333,8.21818182 21.58,8.58181818 L11.68,14.2545455 C10.36,14.9818182 9.33333333,16.8 9.33333333,18.3272727 L9.33333333,29.6727273 C9.33333333,31.2 10.36,32.9454545 11.68,33.7454545 L21.58,39.4181818 C22.24,39.7818182 23.12,40 24,40 C24.88,40 25.6866667,39.7818182 26.42,39.4181818 L36.32,33.7454545 C37.64,32.9454545 38.6666667,31.2 38.6666667,29.6727273 L38.6666667,18.3272727 C38.6666667,16.8 37.64,14.9818182 36.32,14.2545455 Z" id="路径备份-2" fill="#FFFFFF"></path>
                            <g id="编组-79备份" transform="translate(12.388889, 15.384615)">
                                <path d="M22.7227444,14.08933 C21.7944904,13.2456576 20.6974629,12.9081886 19.9379824,12.7394541 C19.8535956,12.1488834 19.6848222,11.1364764 19.2628885,9.95533499 C18.8409549,8.85856079 18.2502478,7.7617866 17.4907673,6.74937965 C16.5625133,5.48387097 15.2967124,4.47146402 13.862138,3.54342432 C13.5245911,3.37468983 13.4402043,3.12158809 13.4402043,3.03722084 C13.4402043,2.78411911 13.5245911,2.53101737 13.6089778,2.44665012 C13.7777513,2.27791563 14.3684583,1.51861042 14.1152982,0.843672457 C14.0309114,0.506203474 13.6933645,0 12.7651105,0 L12.6807238,0 C11.9212433,0 10.8242158,0.506203474 9.72718833,1.94044665 C9.64280161,2.0248139 9.64280161,2.10918114 9.64280161,2.10918114 C9.64280161,2.10918114 9.55841488,2.19354839 9.38964142,2.19354839 C8.96770779,2.27791563 8.37700069,2.44665012 7.44874669,2.69975186 C5.00153159,3.45905707 2.72308995,4.89330025 1.71044922,6.32754342 C0.613421762,7.84615385 0.697808489,8.85856079 0.782195217,9.28039702 C0.782195217,9.28039702 0.613421762,9.44913151 0.529035034,9.53349876 C0.444648307,9.70223325 0.360261579,9.7866005 0.275874851,9.7866005 C0.107101396,10.0397022 -0.146058786,10.7146402 0.107101396,11.2208437 C0.275874851,11.5583127 0.613421762,11.7270471 1.0353554,11.7270471 C1.28851558,11.7270471 1.62606249,11.6426799 1.9636094,11.4739454 C3.65134395,10.630273 5.08591832,10.0397022 5.84539887,9.70223325 C6.09855905,10.0397022 6.43610596,10.292804 6.77365287,10.5459057 C7.36435996,10.8833747 7.95506706,11.1364764 8.46138742,11.1364764 C8.54577415,11.1364764 8.63016088,11.1364764 8.7145476,11.1364764 C9.55841488,11.0521092 9.72718833,10.5459057 9.81157506,10.292804 C9.89596179,9.87096774 9.72718833,9.44913151 9.3052547,9.11166253 C9.98034852,9.19602978 10.9086025,9.28039702 12.0900167,9.44913151 C13.3558176,9.617866 14.7060053,10.292804 15.8874194,11.3895782 C16.8156734,12.2332506 17.4907673,13.1612903 17.8283142,13.5831266 C17.8283142,13.5831266 17.7439275,13.6674938 17.7439275,13.751861 C17.575154,14.0049628 17.4063805,14.2580645 17.1532204,14.5111663 C16.8156734,14.9330025 16.5625133,15.2704715 16.4781265,15.5235732 C16.4781265,15.6079404 15.9718062,16.6203474 16.4781265,17.2109181 C16.6469,17.4640199 16.9000602,17.5483871 17.2376071,17.5483871 C17.7439275,17.5483871 18.1658611,17.2109181 18.4190213,16.8734491 C18.5877947,16.6203474 19.0097284,16.3672457 19.5160487,16.1985112 C20.0223691,16.0297767 20.5286895,15.9454094 21.0350098,15.9454094 C21.28817,15.9454094 21.4569435,15.9454094 21.4569435,16.0297767 C21.6257169,16.1141439 22.1320373,16.2828784 22.5539709,16.2828784 C23.0602913,16.2828784 23.3978382,16.0297767 23.5666116,15.6923077 C23.7353851,15.0173697 23.0602913,14.426799 22.7227444,14.08933 Z" id="路径" fill="#1476FF"></path>
                                <path d="M2.82093254,7.22580645 C2.3593254,7.22580645 2.0515873,7.53548387 2.0515873,8 C2.0515873,8.46451613 2.3593254,8.77419355 2.82093254,8.77419355 C3.28253968,8.77419355 3.59027778,8.46451613 3.59027778,8 C3.59027778,7.53548387 3.28253968,7.22580645 2.82093254,7.22580645 Z" id="路径" fill="#FFFFFF" fill-rule="nonzero"></path>
                            </g>
                        </g>
                        <g id="编组备份-2" transform="translate(72.000000, 0.000000)">
                            <rect id="矩形备份-11" fill="#1476FF" x="0" y="0" width="48" height="48" rx="10.6666667"></rect>
                            <path d="M36.32,14.2545455 L26.42,8.58181818 C25.6866667,8.21818182 24.88,8 24,8 C23.12,8 22.3133333,8.21818182 21.58,8.58181818 L11.68,14.2545455 C10.36,14.9818182 9.33333333,16.8 9.33333333,18.3272727 L9.33333333,29.6727273 C9.33333333,31.2 10.36,32.9454545 11.68,33.7454545 L21.58,39.4181818 C22.24,39.7818182 23.12,40 24,40 C24.88,40 25.6866667,39.7818182 26.42,39.4181818 L36.32,33.7454545 C37.64,32.9454545 38.6666667,31.2 38.6666667,29.6727273 L38.6666667,18.3272727 C38.6666667,16.8 37.64,14.9818182 36.32,14.2545455 Z" id="路径备份-2" fill="#FFFFFF"></path>
                            <g id="编组-79备份" transform="translate(12.388889, 15.384615)">
                                <path d="M22.7227444,14.08933 C21.7944904,13.2456576 20.6974629,12.9081886 19.9379824,12.7394541 C19.8535956,12.1488834 19.6848222,11.1364764 19.2628885,9.95533499 C18.8409549,8.85856079 18.2502478,7.7617866 17.4907673,6.74937965 C16.5625133,5.48387097 15.2967124,4.47146402 13.862138,3.54342432 C13.5245911,3.37468983 13.4402043,3.12158809 13.4402043,3.03722084 C13.4402043,2.78411911 13.5245911,2.53101737 13.6089778,2.44665012 C13.7777513,2.27791563 14.3684583,1.51861042 14.1152982,0.843672457 C14.0309114,0.506203474 13.6933645,0 12.7651105,0 L12.6807238,0 C11.9212433,0 10.8242158,0.506203474 9.72718833,1.94044665 C9.64280161,2.0248139 9.64280161,2.10918114 9.64280161,2.10918114 C9.64280161,2.10918114 9.55841488,2.19354839 9.38964142,2.19354839 C8.96770779,2.27791563 8.37700069,2.44665012 7.44874669,2.69975186 C5.00153159,3.45905707 2.72308995,4.89330025 1.71044922,6.32754342 C0.613421762,7.84615385 0.697808489,8.85856079 0.782195217,9.28039702 C0.782195217,9.28039702 0.613421762,9.44913151 0.529035034,9.53349876 C0.444648307,9.70223325 0.360261579,9.7866005 0.275874851,9.7866005 C0.107101396,10.0397022 -0.146058786,10.7146402 0.107101396,11.2208437 C0.275874851,11.5583127 0.613421762,11.7270471 1.0353554,11.7270471 C1.28851558,11.7270471 1.62606249,11.6426799 1.9636094,11.4739454 C3.65134395,10.630273 5.08591832,10.0397022 5.84539887,9.70223325 C6.09855905,10.0397022 6.43610596,10.292804 6.77365287,10.5459057 C7.36435996,10.8833747 7.95506706,11.1364764 8.46138742,11.1364764 C8.54577415,11.1364764 8.63016088,11.1364764 8.7145476,11.1364764 C9.55841488,11.0521092 9.72718833,10.5459057 9.81157506,10.292804 C9.89596179,9.87096774 9.72718833,9.44913151 9.3052547,9.11166253 C9.98034852,9.19602978 10.9086025,9.28039702 12.0900167,9.44913151 C13.3558176,9.617866 14.7060053,10.292804 15.8874194,11.3895782 C16.8156734,12.2332506 17.4907673,13.1612903 17.8283142,13.5831266 C17.8283142,13.5831266 17.7439275,13.6674938 17.7439275,13.751861 C17.575154,14.0049628 17.4063805,14.2580645 17.1532204,14.5111663 C16.8156734,14.9330025 16.5625133,15.2704715 16.4781265,15.5235732 C16.4781265,15.6079404 15.9718062,16.6203474 16.4781265,17.2109181 C16.6469,17.4640199 16.9000602,17.5483871 17.2376071,17.5483871 C17.7439275,17.5483871 18.1658611,17.2109181 18.4190213,16.8734491 C18.5877947,16.6203474 19.0097284,16.3672457 19.5160487,16.1985112 C20.0223691,16.0297767 20.5286895,15.9454094 21.0350098,15.9454094 C21.28817,15.9454094 21.4569435,15.9454094 21.4569435,16.0297767 C21.6257169,16.1141439 22.1320373,16.2828784 22.5539709,16.2828784 C23.0602913,16.2828784 23.3978382,16.0297767 23.5666116,15.6923077 C23.7353851,15.0173697 23.0602913,14.426799 22.7227444,14.08933 Z" id="路径" fill="#1476FF"></path>
                                <path d="M2.82093254,7.22580645 C2.3593254,7.22580645 2.0515873,7.53548387 2.0515873,8 C2.0515873,8.46451613 2.3593254,8.77419355 2.82093254,8.77419355 C3.28253968,8.77419355 3.59027778,8.46451613 3.59027778,8 C3.59027778,7.53548387 3.28253968,7.22580645 2.82093254,7.22580645 Z" id="路径" fill="#FFFFFF" fill-rule="nonzero"></path>
                            </g>
                        </g>
                        <g id="编组备份-3" transform="translate(168.000000, 0.000000)">
                            <rect id="矩形备份-11" fill="#1476FF" x="0" y="0" width="48" height="48" rx="10.6666667"></rect>
                            <path d="M36.32,14.2545455 L26.42,8.58181818 C25.6866667,8.21818182 24.88,8 24,8 C23.12,8 22.3133333,8.21818182 21.58,8.58181818 L11.68,14.2545455 C10.36,14.9818182 9.33333333,16.8 9.33333333,18.3272727 L9.33333333,29.6727273 C9.33333333,31.2 10.36,32.9454545 11.68,33.7454545 L21.58,39.4181818 C22.24,39.7818182 23.12,40 24,40 C24.88,40 25.6866667,39.7818182 26.42,39.4181818 L36.32,33.7454545 C37.64,32.9454545 38.6666667,31.2 38.6666667,29.6727273 L38.6666667,18.3272727 C38.6666667,16.8 37.64,14.9818182 36.32,14.2545455 Z" id="路径备份-2" fill="#FFFFFF"></path>
                            <g id="编组-79备份" transform="translate(12.388889, 15.384615)">
                                <path d="M22.7227444,14.08933 C21.7944904,13.2456576 20.6974629,12.9081886 19.9379824,12.7394541 C19.8535956,12.1488834 19.6848222,11.1364764 19.2628885,9.95533499 C18.8409549,8.85856079 18.2502478,7.7617866 17.4907673,6.74937965 C16.5625133,5.48387097 15.2967124,4.47146402 13.862138,3.54342432 C13.5245911,3.37468983 13.4402043,3.12158809 13.4402043,3.03722084 C13.4402043,2.78411911 13.5245911,2.53101737 13.6089778,2.44665012 C13.7777513,2.27791563 14.3684583,1.51861042 14.1152982,0.843672457 C14.0309114,0.506203474 13.6933645,0 12.7651105,0 L12.6807238,0 C11.9212433,0 10.8242158,0.506203474 9.72718833,1.94044665 C9.64280161,2.0248139 9.64280161,2.10918114 9.64280161,2.10918114 C9.64280161,2.10918114 9.55841488,2.19354839 9.38964142,2.19354839 C8.96770779,2.27791563 8.37700069,2.44665012 7.44874669,2.69975186 C5.00153159,3.45905707 2.72308995,4.89330025 1.71044922,6.32754342 C0.613421762,7.84615385 0.697808489,8.85856079 0.782195217,9.28039702 C0.782195217,9.28039702 0.613421762,9.44913151 0.529035034,9.53349876 C0.444648307,9.70223325 0.360261579,9.7866005 0.275874851,9.7866005 C0.107101396,10.0397022 -0.146058786,10.7146402 0.107101396,11.2208437 C0.275874851,11.5583127 0.613421762,11.7270471 1.0353554,11.7270471 C1.28851558,11.7270471 1.62606249,11.6426799 1.9636094,11.4739454 C3.65134395,10.630273 5.08591832,10.0397022 5.84539887,9.70223325 C6.09855905,10.0397022 6.43610596,10.292804 6.77365287,10.5459057 C7.36435996,10.8833747 7.95506706,11.1364764 8.46138742,11.1364764 C8.54577415,11.1364764 8.63016088,11.1364764 8.7145476,11.1364764 C9.55841488,11.0521092 9.72718833,10.5459057 9.81157506,10.292804 C9.89596179,9.87096774 9.72718833,9.44913151 9.3052547,9.11166253 C9.98034852,9.19602978 10.9086025,9.28039702 12.0900167,9.44913151 C13.3558176,9.617866 14.7060053,10.292804 15.8874194,11.3895782 C16.8156734,12.2332506 17.4907673,13.1612903 17.8283142,13.5831266 C17.8283142,13.5831266 17.7439275,13.6674938 17.7439275,13.751861 C17.575154,14.0049628 17.4063805,14.2580645 17.1532204,14.5111663 C16.8156734,14.9330025 16.5625133,15.2704715 16.4781265,15.5235732 C16.4781265,15.6079404 15.9718062,16.6203474 16.4781265,17.2109181 C16.6469,17.4640199 16.9000602,17.5483871 17.2376071,17.5483871 C17.7439275,17.5483871 18.1658611,17.2109181 18.4190213,16.8734491 C18.5877947,16.6203474 19.0097284,16.3672457 19.5160487,16.1985112 C20.0223691,16.0297767 20.5286895,15.9454094 21.0350098,15.9454094 C21.28817,15.9454094 21.4569435,15.9454094 21.4569435,16.0297767 C21.6257169,16.1141439 22.1320373,16.2828784 22.5539709,16.2828784 C23.0602913,16.2828784 23.3978382,16.0297767 23.5666116,15.6923077 C23.7353851,15.0173697 23.0602913,14.426799 22.7227444,14.08933 Z" id="路径" fill="#1476FF"></path>
                                <path d="M2.82093254,7.22580645 C2.3593254,7.22580645 2.0515873,7.53548387 2.0515873,8 C2.0515873,8.46451613 2.3593254,8.77419355 2.82093254,8.77419355 C3.28253968,8.77419355 3.59027778,8.46451613 3.59027778,8 C3.59027778,7.53548387 3.28253968,7.22580645 2.82093254,7.22580645 Z" id="路径" fill="#FFFFFF" fill-rule="nonzero"></path>
                            </g>
                        </g>
                    </g>
                    <text id="…" font-family="PingFangSC-Regular, PingFang SC" font-size="12" font-weight="normal" line-spacing="18" fill="#242828">
                        <tspan x="162" y="47">…</tspan>
                    </text>
                </g>
                <g id="编组-45备份-6" transform="translate(104.000000, 433.000000)">
                    <path d="M10.2555408,4.92498016e-16 L253.744459,4.14336123e-16 C257.310534,-2.4074122e-16 258.603679,0.371302445 259.907383,1.06853082 C261.211087,1.76575919 262.234241,2.78891348 262.931469,4.09261719 C263.628698,5.39632089 264,6.68946584 264,10.2555408 L264,109.744459 C264,113.310534 263.628698,114.603679 262.931469,115.907383 C262.234241,117.211087 261.211087,118.234241 259.907383,118.931469 C258.603679,119.628698 257.310534,120 253.744459,120 L10.2555408,120 C6.68946584,120 5.39632089,119.628698 4.09261719,118.931469 C2.78891348,118.234241 1.76575919,117.211087 1.06853082,115.907383 C0.371302445,114.603679 -1.94709285e-15,113.310534 3.35111248e-15,109.744459 L2.76224082e-16,10.2555408 C-1.60494146e-16,6.68946584 0.371302445,5.39632089 1.06853082,4.09261719 C1.76575919,2.78891348 2.78891348,1.76575919 4.09261719,1.06853082 C5.39632089,0.371302445 6.68946584,-2.8615553e-16 10.2555408,4.92498016e-16 Z" id="矩形备份-151" fill="#FAFAFA"></path>
                    <g id="编组-145备份-9" transform="translate(24.000000, 20.000000)">
                        <text id="对象存储服务-OBS" font-family="PingFangSC-Regular, PingFang SC" font-size="12" font-weight="normal" line-spacing="16" fill="#242828">
                            <tspan x="71.136" y="69">对象存储服务 </tspan>
                            <tspan x="94.68" y="85">OBS</tspan>
                        </text>
                        <g id="编组">
                            <rect id="矩形备份-15" fill="#25C251" x="0" y="0" width="48" height="48" rx="10.6666667"></rect>
                            <path d="M16.8236215,35.9730759 C11.9504699,35.9730759 8,32.0447301 8,27.19887 C8,22.6933513 11.4150466,18.9809923 15.8115503,18.4817536 C16.6789449,14.7823376 20.0158796,12.0269241 24,12.0269241 C27.9841204,12.0269241 31.3210551,14.7823376 32.1887673,18.481332 C36.5849534,18.9809923 40,22.6933513 40,27.19887 C40,32.0447301 36.0495301,35.9730759 31.1763785,35.9730759 L31.1763785,35.9730759 Z" id="形状结合" fill="#FFFFFF"></path>
                            <path d="M20.8785657,29.7398857 L16.6379178,29.7398857 C16.4224277,29.7398857 16.2477385,29.5584864 16.2477385,29.3347191 C16.2477385,29.2262787 16.2896004,29.122364 16.3639582,29.0462239 L22.9041614,22.3492585 C23.5118431,21.7270112 24.4881568,21.7270112 25.0958386,22.3492585 L31.6360418,29.0462239 C31.7894795,29.2033394 31.7912095,29.4598704 31.6399058,29.6192019 C31.5665821,29.6964159 31.4665112,29.7398857 31.3620821,29.7398857 L27.1214342,29.7398857" id="路径" stroke="#25C251" fill="#25C251" stroke-linecap="round"></path>
                            <rect id="矩形" fill="#25C251" x="20.8" y="28.1353792" width="6.4" height="7.85731268"></rect>
                        </g>
                        <g id="编组" transform="translate(72.000000, 0.000000)">
                            <rect id="矩形备份-15" fill="#25C251" x="0" y="0" width="48" height="48" rx="10.6666667"></rect>
                            <path d="M16.8236215,35.9730759 C11.9504699,35.9730759 8,32.0447301 8,27.19887 C8,22.6933513 11.4150466,18.9809923 15.8115503,18.4817536 C16.6789449,14.7823376 20.0158796,12.0269241 24,12.0269241 C27.9841204,12.0269241 31.3210551,14.7823376 32.1887673,18.481332 C36.5849534,18.9809923 40,22.6933513 40,27.19887 C40,32.0447301 36.0495301,35.9730759 31.1763785,35.9730759 L31.1763785,35.9730759 Z" id="形状结合" fill="#FFFFFF"></path>
                            <path d="M20.8785657,29.7398857 L16.6379178,29.7398857 C16.4224277,29.7398857 16.2477385,29.5584864 16.2477385,29.3347191 C16.2477385,29.2262787 16.2896004,29.122364 16.3639582,29.0462239 L22.9041614,22.3492585 C23.5118431,21.7270112 24.4881568,21.7270112 25.0958386,22.3492585 L31.6360418,29.0462239 C31.7894795,29.2033394 31.7912095,29.4598704 31.6399058,29.6192019 C31.5665821,29.6964159 31.4665112,29.7398857 31.3620821,29.7398857 L27.1214342,29.7398857" id="路径" stroke="#25C251" fill="#25C251" stroke-linecap="round"></path>
                            <rect id="矩形" fill="#25C251" x="20.8" y="28.1353792" width="6.4" height="7.85731268"></rect>
                        </g>
                        <g id="编组" transform="translate(168.000000, 0.000000)">
                            <rect id="矩形备份-15" fill="#25C251" x="0" y="0" width="48" height="48" rx="10.6666667"></rect>
                            <path d="M16.8236215,35.9730759 C11.9504699,35.9730759 8,32.0447301 8,27.19887 C8,22.6933513 11.4150466,18.9809923 15.8115503,18.4817536 C16.6789449,14.7823376 20.0158796,12.0269241 24,12.0269241 C27.9841204,12.0269241 31.3210551,14.7823376 32.1887673,18.481332 C36.5849534,18.9809923 40,22.6933513 40,27.19887 C40,32.0447301 36.0495301,35.9730759 31.1763785,35.9730759 L31.1763785,35.9730759 Z" id="形状结合" fill="#FFFFFF"></path>
                            <path d="M20.8785657,29.7398857 L16.6379178,29.7398857 C16.4224277,29.7398857 16.2477385,29.5584864 16.2477385,29.3347191 C16.2477385,29.2262787 16.2896004,29.122364 16.3639582,29.0462239 L22.9041614,22.3492585 C23.5118431,21.7270112 24.4881568,21.7270112 25.0958386,22.3492585 L31.6360418,29.0462239 C31.7894795,29.2033394 31.7912095,29.4598704 31.6399058,29.6192019 C31.5665821,29.6964159 31.4665112,29.7398857 31.3620821,29.7398857 L27.1214342,29.7398857" id="路径" stroke="#25C251" fill="#25C251" stroke-linecap="round"></path>
                            <rect id="矩形" fill="#25C251" x="20.8" y="28.1353792" width="6.4" height="7.85731268"></rect>
                        </g>
                    </g>
                    <text id="…" font-family="PingFangSC-Regular, PingFang SC" font-size="12" font-weight="normal" line-spacing="18" fill="#242828">
                        <tspan x="162" y="47">…</tspan>
                    </text>
                </g>
                <use id="矩形备份-148" stroke="#999999" mask="url(#mask-8)" stroke-width="2" stroke-dasharray="2.7" xlink:href="#path-7"></use>
                <use id="矩形备份-148" stroke="#999999" mask="url(#mask-10)" stroke-width="2" stroke-dasharray="2.7" transform="translate(480.000000, 353.000000) scale(1, -1) translate(-480.000000, -353.000000) " xlink:href="#path-9"></use>
                <g id="编组-88" transform="translate(186.000000, 173.000000)">
                    <g id="编组-2" transform="translate(14.000000, 0.000000)">
                        <rect id="矩形备份-15" fill="#9F53E6" x="0" y="0" width="48" height="48" rx="10.6666667"></rect>
                        <g id="编组" transform="translate(8.000000, 8.000000)">
                            <path d="M16,0 C7.2,0 0,7.2 0,16 C0,24.8 7.2,32 16,32 C24.8,32 32,24.8 32,16 C32,7.2 24.8,0 16,0 Z" id="路径" fill="#FFFFFF"></path>
                            <polyline id="路径-14" stroke="#B779EE" points="9.75793651 8.95499022 16.4246032 16.0634921 23.2232143 8.95499022"></polyline>
                            <polyline id="路径-15" stroke="#B779EE" points="9.48015873 23.0450098 16.4246032 16 23.0912698 23.0450098"></polyline>
                            <ellipse id="椭圆形备份-10" fill="#B779EE" cx="23.0912698" cy="23.0450098" rx="3.19444444" ry="3.2407045"></ellipse>
                            <ellipse id="椭圆形" fill="#B779EE" cx="9.75793651" cy="8.95499022" rx="3.19444444" ry="3.2407045"></ellipse>
                            <ellipse id="椭圆形备份-9" fill="#B779EE" cx="23.0912698" cy="8.95499022" rx="3.19444444" ry="3.2407045"></ellipse>
                            <ellipse id="椭圆形备份-12" fill="#B779EE" cx="9.48015873" cy="23.0450098" rx="3.19444444" ry="3.2407045"></ellipse>
                            <ellipse id="椭圆形" fill="#9B54E6" cx="16.4246032" cy="16" rx="4.48148148" ry="4.54637965"></ellipse>
                        </g>
                    </g>
                    <text id="内容分发网络-CDN" font-family="PingFangSC-Regular, PingFang SC" font-size="12" font-weight="normal" line-spacing="16" fill="#242828">
                        <tspan x="1.136" y="65">内容分发网络 </tspan>
                        <tspan x="24.218" y="81">CDN</tspan>
                    </text>
                </g>
                <g id="编组-88备份-2" transform="translate(758.000000, 240.000000)">
                    <g id="编组-3">
                        <g id="编组-14" fill="#1476FF">
                            <rect id="矩形备份-11" x="0" y="0" width="48" height="48" rx="8.72727273"></rect>
                        </g>
                        <g id="编组-2" transform="translate(9.661167, 8.000000)">
                            <path d="M26.8389395,6.68019104 L16.0950551,0.475233113 C15.5464007,0.158653627 14.9361481,0 14.3251792,0 C13.7142103,0 13.1039577,0.158653627 12.5553033,0.475233113 L1.81141891,6.68019104 C0.691906155,7.32717762 0,8.53527405 0,9.84380259 L0,22.1561974 C0,23.4647259 0.691906155,24.6728224 1.81141891,25.319809 L12.5553033,31.5247669 C13.1039577,31.8413464 13.7142103,32 14.3251792,32 C14.9361481,32 15.5464007,31.8413464 16.0950551,31.5247669 L26.8389395,25.319809 C27.9584522,24.6728224 28.6503584,23.4647259 28.6503584,22.1561974 L28.6503584,9.84380259 C28.6503584,8.53527405 27.9584522,7.32717762 26.8389395,6.68019104 L26.8389395,6.68019104 Z" id="路径" fill="#F9F9F9"></path>
                            <path d="M21.999894,10.185854 C21.0902451,9.87509666 19.2981652,9.28560382 18.3942464,8.83511485 C16.5856925,7.93486468 15.9016652,7.32281101 15.229098,6.80973391 C14.9913,6.62779168 14.6639697,6.53900387 14.3344906,6.53900387 L14.3251792,6.53973164 L14.3158678,6.53900387 C13.9863887,6.53900387 13.6590584,6.62779168 13.4212604,6.80973391 C12.7486932,7.32281101 12.0646659,7.93486468 10.256112,8.83511485 C9.35219324,9.28560382 7.56011332,9.87509666 6.65046444,10.185854 C6.0631321,10.3867182 5.68423111,10.916534 5.73508549,11.5365931 C5.89266246,13.4564476 6.36467712,17.2925176 7.54292311,19.6403002 C8.90023384,22.3417785 12.3024639,24.4574028 13.6475982,25.2681374 C13.8603271,25.3969525 14.0931113,25.4609961 14.3251792,25.4609961 C14.5572471,25.4609961 14.7900313,25.3969525 15.0027602,25.2681374 C16.3478945,24.4574028 19.7501246,22.3417785 21.1074353,19.6403002 C22.2863975,17.2925176 22.7576959,13.4564476 22.9159892,11.5365931 C22.9661273,10.916534 22.5872263,10.3867182 21.999894,10.185854 L21.999894,10.185854 Z" id="路径" fill="#1476FF"></path>
                            <g id="编组" transform="translate(8.594975, 9.450080)" fill="#FFFFFF">
                                <path d="M9.46520366,8.66785606 C8.92581868,9.78358477 7.69392408,10.9490727 5.80331764,12.1320816 C5.77779686,12.1482007 5.75296584,12.1566108 5.73020407,12.1566108 C5.7074423,12.1566108 5.68261128,12.1482007 5.65709051,12.1320816 C3.76648407,10.9490727 2.53458947,9.78358477 1.99520449,8.66785606 C1.23440956,7.0951832 0.966786317,4.32898898 0.90263951,3.51812334 C0.892983001,3.40178479 0.978512077,3.35412804 1.03093312,3.33590634 L1.23923781,3.26161787 C1.88967264,3.03314579 2.87118777,2.68693349 3.43057552,2.39818963 C4.50037872,1.84523112 5.00182742,1.43804621 5.40533153,1.11075645 L5.57363068,0.975495365 C5.58604619,0.966384515 5.63087998,0.948162815 5.69709604,0.943957808 L5.73779133,0.943957808 L5.74882734,0.943957808 C5.82332041,0.945359477 5.87298245,0.965683681 5.88677746,0.975495365 L6.05507661,1.11075645 C6.45858072,1.43804621 6.96002942,1.84523112 8.02983263,2.39818963 C8.58922038,2.68693349 9.5707355,3.03314579 10.2211703,3.26161787 L10.429475,3.33590634 C10.4818961,3.35412804 10.5674251,3.40178479 10.5577686,3.51812334 C10.4936218,4.32898898 10.2259986,7.0951832 9.46520366,8.66785606 L9.46520366,8.66785606 Z M10.8471581,2.52463043 C10.2404867,2.30993859 9.0457668,1.90166022 8.44267675,1.59017512 C7.23721292,0.966477144 6.78167223,0.542915624 6.33329412,0.187036616 C6.17428463,0.0611325904 5.95510939,0 5.7366504,0 L5.73020407,0.000727768933 L5.72375774,0 C5.50529876,0 5.28612352,0.0611325904 5.12711403,0.187036616 C4.67873592,0.542915624 4.22319522,0.966477144 3.01773139,1.59017512 C2.41464135,1.90166022 1.2199214,2.30993859 0.613250061,2.52463043 C0.222172669,2.6636343 -0.0306667437,3.03042984 0.00299742744,3.45981351 C0.107571236,4.78944735 0.422725178,7.44507619 1.20917752,9.07018422 C2.11309632,10.9405504 4.38148845,12.4048215 5.27824467,12.9666591 C5.42006394,13.0554469 5.57477588,13.0998408 5.73020407,13.0998408 C5.88563227,13.0998408 6.0403442,13.0554469 6.18216348,12.9666591 C7.07891969,12.4048215 9.34731182,10.9405504 10.2512306,9.07018422 C11.037683,7.44507619 11.3528369,4.78944735 11.4574107,3.45981351 C11.4910749,3.03042984 11.2382355,2.6636343 10.8471581,2.52463043 L10.8471581,2.52463043 Z" id="Fill-2"></path>
                            </g>
                        </g>
                    </g>
                    <text id="安全服务-DBSS" font-family="PingFangSC-Regular, PingFang SC" font-size="12" font-weight="normal" line-spacing="16" fill="#242828">
                        <tspan x="0" y="65">安全服务</tspan>
                        <tspan x="6.12" y="81"> DBSS</tspan>
                    </text>
                </g>
                <g id="编组-88备份-3" transform="translate(752.000000, 370.000000)">
                    <g id="编组" transform="translate(6.000000, 0.000000)">
                        <rect id="矩形备份-15" fill="#1476FF" x="0" y="0" width="48" height="48" rx="10.6666667"></rect>
                        <g id="云监控服务-CES1684582433470" transform="translate(8.000000, 11.333333)" fill-rule="nonzero">
                            <path d="M16,4.35294118 C11.4909091,4.35294118 7.78181818,7.90784314 7.78181818,12.3333333 C7.78181818,16.7588235 11.4909091,20.3137255 16,20.3137255 C20.5090909,20.3137255 24.2181818,16.7588235 24.2181818,12.3333333 C24.2181818,7.90784314 20.5090909,4.35294118 16,4.35294118 Z M16,19.5882353 C11.8545455,19.5882353 8.50909091,16.3235294 8.50909091,12.3333333 C8.50909091,8.34313725 11.8545455,5.07843137 16,5.07843137 C20.1454545,5.07843137 23.4909091,8.34313725 23.4909091,12.3333333 C23.4909091,16.3235294 20.1454545,19.5882353 16,19.5882353 Z" id="形状" fill="#060001"></path>
                            <path d="M16,0 C8.21818182,0 1.67272727,5.29607843 0,12.3333333 C1.67272727,19.3705882 8.21818182,24.6666667 16,24.6666667 C23.7818182,24.6666667 30.3272727,19.3705882 32,12.3333333 C30.3272727,5.29607843 23.7818182,0 16,0 Z" id="路径" fill="#FFFFFF"></path>
                            <circle id="椭圆形" stroke="#1476FF" stroke-width="1.33333333" cx="16" cy="12.6666667" r="8"></circle>
                            <path d="M19.4909091,8.41568627 L17.3090909,10.5196078 C16.9454545,10.3019608 16.5090909,10.1568627 16,10.1568627 C14.7636364,10.1568627 13.7454545,11.1 13.7454545,12.3333333 C13.7454545,13.5666667 14.7636364,14.5098039 16,14.5098039 C17.2363636,14.5098039 18.2545455,13.5666667 18.2545455,12.3333333 C18.2545455,11.8980392 18.1090909,11.4627451 17.8181818,11.1 L20,8.99607843 C20.1454545,8.85098039 20.1454545,8.63333333 20,8.48823529 C19.8545455,8.34313725 19.6363636,8.34313725 19.4909091,8.41568627 Z" id="路径" fill="#1476FF"></path>
                        </g>
                    </g>
                    <text id="云监控服务-CES" font-family="PingFangSC-Regular, PingFang SC" font-size="12" font-weight="normal" line-spacing="16" fill="#242828">
                        <tspan x="0" y="65">云监控服务</tspan>
                        <tspan x="18.018" y="81">CES</tspan>
                    </text>
                </g>
                <g id="编组-88备份" transform="translate(284.000000, 313.000000)">
                    <g id="编组-80" transform="translate(12.000000, 0.000000)">
                        <rect id="矩形备份-38" fill="#33BCF2" x="0" y="0" width="48" height="48" rx="10.6689043"></rect>
                        <path d="M34.4926124,22.418883 L34.3994055,21.9043139 C34.1963468,20.8145067 33.9803315,19.7969961 33.7393611,18.8407872 L33.7006619,18.688791 L33.5829733,18.2450519 L33.5033249,17.959652 L33.4228524,17.6827966 L33.3416651,17.4146603 L33.2598722,17.1554176 C33.2461956,17.1129613 33.2324984,17.0708829 33.2187827,17.0291859 L33.1362861,16.783611 C33.1225059,16.7434545 33.1087118,16.7036868 33.0949062,16.6643114 L33.0119515,16.432797 C32.9981086,16.3950057 32.9842587,16.3576141 32.970404,16.3206258 L32.887237,16.1035646 L32.804065,15.8963571 L32.7209971,15.6991779 L32.6381426,15.5122014 C32.6243574,15.4818986 32.6105856,15.4520281 32.5968295,15.4225937 L32.5144998,15.2512487 C32.5008157,15.223573 32.4871518,15.1963405 32.4735105,15.169555 L32.3919513,15.0142342 C32.3784092,14.9892509 32.3648943,14.9647219 32.3514087,14.9406507 L32.2708657,14.8017469 C32.2575067,14.7795216 32.2441815,14.7577615 32.2308926,14.7364701 L32.1516115,14.614376 C31.9020453,14.2457414 31.6671864,14.0489527 31.4626393,14.0489527 C31.142967,14.0489527 30.8085299,14.4014432 30.481238,15.0683375 L30.4058459,15.2278 C30.3431415,15.3653074 30.2807636,15.5143339 30.2188682,15.6746085 L30.1448352,15.8723198 L30.0713251,16.0807253 L29.9983977,16.299721 C29.9862951,16.337097 29.9742192,16.37491 29.9621713,16.4131577 L29.8902304,16.6478436 L29.8190218,16.8928597 C29.807218,16.9345507 29.7954473,16.9766679 29.7837108,17.019209 L29.7137129,17.2795253 L29.644597,17.5499117 L29.5764229,17.8302641 L29.5092504,18.1204787 L29.4431394,18.4204513 L29.3781496,18.730078 L29.295761,19.1493573 L29.1955161,19.7009877 L28.9515405,21.1163782 L28.5242607,23.639004 L28.1621759,25.6246139 L27.9463093,26.7754142 L27.793951,27.5686214 L27.6527829,28.2813533 L27.577391,28.6475272 L27.4919308,29.0426976 L27.4112461,29.4032258 L27.2900309,29.9253587 C27.2765403,29.9821264 27.2630404,30.0384778 27.2495292,30.0944122 L27.1683108,30.4250103 L27.0867285,30.7455717 L27.0046891,31.0560662 L26.9220995,31.3564638 L26.8388667,31.6467345 L26.7548975,31.9268481 L26.6700989,32.1967746 L26.5843779,32.456484 C26.5556401,32.5413475 26.526733,32.6245033 26.4976412,32.7059461 L26.4097959,32.945131 L26.3207489,33.1740085 C25.6929966,34.7400055 24.970076,35.5462037 24.0083191,35.5462037 C23.0540587,35.5462037 22.3502195,34.7392409 21.7434921,33.1630391 L21.6574608,32.9326386 C21.6432269,32.8933677 21.6290438,32.8536618 21.6149096,32.8135213 L21.530674,32.5674678 C21.5167269,32.5255911 21.5028245,32.483281 21.4889647,32.4405378 L21.4063012,32.1788864 C21.3926037,32.1344131 21.3789447,32.0895078 21.3653222,32.0441711 L21.2840073,31.7669767 C21.2705222,31.7199161 21.2570694,31.6724249 21.2436468,31.6245038 L21.1634571,31.3318214 L21.0838934,31.0288444 L21.0048564,30.715597 L20.9262467,30.3921037 L20.847965,30.0583891 L20.7699119,29.7144774 L20.6919882,29.3603931 L20.5920874,28.8907638 L20.4941017,28.4019775 L20.3545833,27.6728727 L20.1739853,26.6974632 L19.5851134,23.429471 L19.1658851,21.4544943 L19.1012691,21.1588042 L18.9732095,20.586646 C18.9306923,20.3999142 18.8882835,20.2169804 18.8458007,20.0372766 L18.7179473,19.5072871 C18.6751337,19.3334752 18.6320635,19.1623251 18.5885541,18.9932687 L18.4832615,18.5917797 L18.4034041,18.2987349 L18.3229906,18.0135495 L18.2421611,17.7364347 L18.1610558,17.4676015 L18.0798149,17.2072611 L17.9985785,16.9556245 L17.9174868,16.7129028 L17.7964273,16.3659976 L17.7163108,16.1464868 L17.6368295,15.9366298 L17.5581238,15.7366377 L17.4418259,15.4556079 L17.3656723,15.2812016 C17.3530816,15.2530116 17.3405437,15.2252635 17.3280615,15.1979616 L17.2538596,15.03954 L17.1811341,14.8920387 C17.169144,14.8683769 17.1572212,14.845179 17.1453688,14.8224492 L17.0751207,14.6917243 L17.0066995,14.5724475 L16.9402453,14.4648299 C16.7657814,14.193583 16.6137942,14.0489527 16.4962455,14.0489527 C16.1764621,14.0489527 15.8564363,14.3152665 15.5503231,14.8209476 L15.4771303,14.9468931 C15.4528266,14.9903977 15.4286192,15.0354204 15.4045153,15.0819475 L15.3325214,15.2260281 C15.3086318,15.2755501 15.284853,15.3265627 15.2611922,15.379052 L15.1905713,15.5409365 L15.1207019,15.7115988 C15.1091221,15.7407694 15.0975754,15.7703023 15.0860627,15.8001958 L15.0174024,15.9838696 C15.0060295,16.0151984 14.9946925,16.0468843 14.9833922,16.0789257 L14.9160387,16.2754247 C14.9048891,16.3088807 14.893778,16.3426887 14.8827064,16.3768469 L14.8167577,16.5859849 L14.7517998,16.8034454 L14.6878761,17.0291456 C14.6773108,17.0674444 14.6667904,17.106083 14.6563158,17.1450597 L14.5940252,17.3829643 L14.5328776,17.6289017 L14.4729165,17.8827891 L14.4141853,18.1445437 L14.3567277,18.4140827 L14.300587,18.6913234 L14.2189404,19.1214439 L14.1662823,19.4175766 L14.1150933,19.7211212 L14.065417,20.0319949 L14.0172968,20.350115 L13.9481294,20.840701 L13.9040897,21.1765748 L13.8617583,21.5194053 L13.8211788,21.8691096 L13.7636891,22.4063735 L13.7276792,22.7729003 L13.6407243,23.7493871 L13.6023362,24.1520254 L13.5620477,24.5429627 L13.519823,24.9222369 C13.5126222,24.9844794 13.5053392,25.0462376 13.4979734,25.1075122 L13.4527769,25.4693627 L13.4055545,25.8196448 C13.3975132,25.8770632 13.3893861,25.9340012 13.3811723,25.9904595 L13.3308434,26.32346 L13.2783987,26.6449868 L13.2238024,26.9550778 L13.1670183,27.2537708 C13.15737,27.3026053 13.147629,27.3509664 13.1377947,27.3988549 L13.0776618,27.680522 C13.0674509,27.7265236 13.0571451,27.7720541 13.0467436,27.8171145 L12.9831812,28.081841 C12.6703576,29.3341427 12.2758413,30.192351 11.7813844,30.6757136 C11.4987453,30.9520111 11.0470319,30.9454349 10.7724545,30.6610252 C10.5123285,30.3915844 10.5045031,29.9694478 10.7447194,29.6908314 L10.7870514,29.645775 C10.9406398,29.4956327 11.0888179,29.2500743 11.2295327,28.9112653 L11.2893761,28.7603585 L11.3482698,28.5980712 L11.4061777,28.4244411 C11.4157449,28.3945597 11.4252695,28.3642072 11.4347508,28.3333845 L11.4911129,28.1428114 C11.509723,28.0774103 11.5281538,28.0101346 11.5463995,27.9409905 L11.6005746,27.7279594 C11.6095092,27.6915221 11.618396,27.6546194 11.6272342,27.6172519 L11.679675,27.3874767 L11.7309145,27.1465861 C11.7393524,27.1055135 11.7477387,27.0639793 11.7560727,27.0219844 L11.8054431,26.7644917 L11.8535226,26.4959784 L11.9002752,26.2164822 L11.945665,25.9260412 L11.9896561,25.6246931 L12.0322126,25.3124758 L12.0732986,24.9894273 L12.1128781,24.6555853 L12.1509152,24.3109879 L12.1873741,23.9556728 L12.2390246,23.4026875 L12.290122,22.817144 L12.3266275,22.4277986 L12.3847887,21.8561957 L12.4258541,21.4834909 L12.4687707,21.1175466 L12.513554,20.7584225 L12.5602194,20.4061783 L12.6087827,20.0608735 L12.6852197,19.5560583 C12.6939538,19.50085 12.7027686,19.4459372 12.7116644,19.3913209 L12.766014,19.0671923 C12.7752351,19.0137674 12.7845379,18.9606416 12.7939227,18.9078161 L12.8512179,18.5944769 C12.8609319,18.5428576 12.8707285,18.4915412 12.8806081,18.4405288 L12.9408838,18.1381132 L13.0031659,17.8430545 C13.0137143,17.7944944 13.0243469,17.7462434 13.0350641,17.6983026 L13.1003849,17.414391 L13.1677509,17.1379855 C13.1905489,17.0471079 13.2136903,16.9574913 13.2371777,16.8691455 L13.3086808,16.6079308 C13.3328629,16.5221368 13.3573936,16.4376235 13.3822756,16.3544011 L13.4579778,16.1086158 L13.5358028,15.8706347 C14.2458274,13.7641026 15.2156647,12.6130218 16.4962455,12.6130218 C17.2480646,12.6130218 17.8601511,13.1319655 18.4096978,14.1332635 L18.5089434,14.3206248 C18.5253752,14.3527348 18.5417539,14.3852857 18.5580816,14.4182765 L18.6554531,14.6214917 C18.6715854,14.6562379 18.6876711,14.691422 18.7037122,14.7270429 L18.7994416,14.9460021 L18.8942051,15.1753962 C18.9413626,15.2926939 18.9881965,15.4138863 19.0347649,15.5389459 L19.1275648,15.7942135 L19.2197597,16.0597449 C19.2350809,16.1048528 19.2503811,16.1503862 19.2656625,16.1963443 L19.3571432,16.4771799 L19.4482767,16.7681572 L19.5391661,17.0692272 L19.6299144,17.3803412 L19.7206248,17.7014503 L19.8114003,18.0325056 L19.9023441,18.3734582 L19.9697437,18.6323791 L20.1024526,19.1594745 C20.1243863,19.2485006 20.1462438,19.3381645 20.1680489,19.4285407 L20.2984428,19.9799389 L20.4287281,20.551997 C20.450497,20.6492598 20.4723092,20.7475321 20.4941887,20.8468881 L20.9859588,23.1564396 L21.5582952,26.3318989 L21.760904,27.4277696 L21.8854615,28.0796624 L21.977246,28.5403824 L22.0780241,29.0147085 L22.1468373,29.3237012 L22.216313,29.624766 L22.2863472,29.9177243 L22.3922182,30.3415708 L22.4631936,30.6134806 L22.5343635,30.8766583 L22.6056238,31.1309251 L22.6768705,31.3761024 L22.7479997,31.6120115 L22.8189072,31.8384736 L22.8894892,32.05531 C22.9012199,32.0906373 22.9129327,32.1255561 22.9246255,32.1600627 L22.994524,32.3621254 L23.0982411,32.6462779 L23.1664805,32.8228243 L23.2338741,32.9888516 L23.3003181,33.1441808 L23.3657083,33.2886334 C23.3765131,33.3117925 23.3872697,33.334491 23.3979758,33.3567251 L23.4615905,33.4845275 C23.5035739,33.5659745 23.5446815,33.6398725 23.5847746,33.7059832 L23.644136,33.7992791 C23.7807896,34.0032028 23.904166,34.1102728 24.0083191,34.1102728 C24.0562206,34.1102728 24.1625772,34.0441208 24.3199556,33.8492391 C24.5297174,33.589491 24.7509476,33.1810448 24.9719722,32.6412237 C25.2377559,31.9920852 25.4938993,31.1803647 25.7436719,30.2179458 L25.8432489,29.8249692 L25.9421929,29.4160871 L26.0405503,28.9914685 L26.1383677,28.5512824 L26.2481969,28.0260363 L26.4041293,27.2384026 L26.5738636,26.3517647 L27.1947537,22.9561426 L27.6604531,20.1957185 L27.8181254,19.2950336 L27.9190706,18.7485792 L27.9471301,18.6052814 C27.9703411,18.4891805 27.9936995,18.3746716 28.0172236,18.2617629 L28.1242619,17.7645043 L28.1970458,17.445085 L28.2710976,17.1353938 L28.3465269,16.8354812 L28.4234431,16.5453976 L28.501956,16.2651936 C29.1896358,13.8797157 30.0695426,12.6130218 31.4626393,12.6130218 C32.5362456,12.6130218 33.3570602,13.5046158 34.0577428,15.1443815 L34.1570374,15.3837079 L34.2547835,15.6331205 L34.351067,15.8925265 L34.445974,16.161833 L34.5395903,16.440947 L34.6320018,16.7297755 C34.6473081,16.778718 34.6625678,16.8280614 34.6777827,16.8778038 L34.7685483,17.18103 L34.8583241,17.4937386 L34.947196,17.8158365 L35.03525,18.1472309 L35.1225719,18.4878289 C35.344092,19.3668561 35.5441216,20.2907997 35.7320385,21.2699213 L35.8896521,22.1230736 L36.1887662,23.8404852 L36.2239191,24.0575995 L36.2769881,24.413291 L36.3325097,24.8168362 L36.5363588,26.4088157 L36.6166284,27.005551 L36.6564415,27.2864999 C36.7959822,28.253494 36.9497787,29.1265925 37.1433595,30.0053682 C37.2286371,30.3924929 36.9858954,30.7758837 36.6011807,30.8616955 C36.216466,30.9475074 35.835462,30.7032451 35.7501843,30.3161204 C35.5735541,29.5142932 35.429139,28.7195647 35.2991422,27.863623 L35.2237688,27.3495553 L35.1631289,26.9100302 L34.9371575,25.151572 L34.8653845,24.6237488 L34.8151382,24.2864141 C34.8096353,24.2511849 34.8041462,24.2166302 34.7986578,24.1826734 L34.4926124,22.418883 Z" id="路径备份-22" fill="#FFFFFF" fill-rule="nonzero" transform="translate(23.865571, 24.079613) scale(1, -1) translate(-23.865571, -24.079613) "></path>
                        <g id="路径备份-24" fill-rule="nonzero">
                            <use fill="black" fill-opacity="1" filter="url(#filter-12)" xlink:href="#path-11"></use>
                            <use stroke="#FFFFFF" stroke-width="0.5" fill="#FFFFFF" xlink:href="#path-11"></use>
                        </g>
                    </g>
                    <text id="弹性伸缩服务-AS" font-family="PingFangSC-Regular, PingFang SC" font-size="12" font-weight="normal" line-spacing="16" fill="#242828">
                        <tspan x="0" y="65">弹性伸缩服务</tspan>
                        <tspan x="28.266" y="81">AS</tspan>
                    </text>
                </g>
                <line x1="546" y1="283.000475" x2="566" y2="282.999525" id="直线备份-13" stroke="#999999" transform="translate(556.000000, 283.000000) rotate(90.002724) translate(-556.000000, -283.000000) "></line>
                <line x1="145" y1="345.003803" x2="305" y2="344.996197" id="直线备份-21" stroke="#999999" transform="translate(225.000000, 345.000000) rotate(90.002724) translate(-225.000000, -345.000000) "></line>
                <line x1="546" y1="423.000475" x2="566" y2="422.999525" id="直线备份-19" stroke="#999999" transform="translate(556.000000, 423.000000) rotate(90.002724) translate(-556.000000, -423.000000) "></line>
                <line x1="368" y1="493.001331" x2="424" y2="492.998669" id="直线备份-20" stroke="#999999" transform="translate(396.000000, 493.000000) rotate(0.002724) translate(-396.000000, -493.000000) "></line>
                <line x1="368" y1="340.001331" x2="424" y2="339.998669" id="直线备份-22" stroke="#999999" transform="translate(396.000000, 340.000000) rotate(0.002724) translate(-396.000000, -340.000000) "></line>
                <text id="商品图片-等静态数据-通过CDN加速" font-family="PingFangSC-Regular, PingFang SC" font-size="12" font-weight="normal" line-spacing="18" fill="#595959">
                    <tspan x="161" y="324">商品图片</tspan>
                    <tspan x="149" y="342">等静态数据</tspan>
                    <tspan x="135.164" y="360">通过CDN加速</tspan>
                </text>
            </g>
        </g>
    </g>
</svg>