<?xml version="1.0" encoding="UTF-8"?>
<!DOCTYPE svg PUBLIC "-//W3C//DTD SVG 1.1//EN" "http://www.w3.org/Graphics/SVG/1.1/DTD/svg11.dtd">
<!-- Creator: CorelDRAW 2018 (64-Bit) -->
<svg xmlns="http://www.w3.org/2000/svg" xml:space="preserve" width="5358px" height="5370px" version="1.1" style="shape-rendering:geometricPrecision; text-rendering:geometricPrecision; image-rendering:optimizeQuality; fill-rule:evenodd; clip-rule:evenodd"
viewBox="0 0 639.12 640.5"
 xmlns:xlink="http://www.w3.org/1999/xlink">
 <defs>
  <style type="text/css">
   <![CDATA[
    .str2 {stroke:#626983;stroke-width:0.7;stroke-miterlimit:22.9256}
    .str1 {stroke:#B2B2B2;stroke-width:0.7;stroke-miterlimit:22.9256}
    .str0 {stroke:#B2B2B2;stroke-width:0.7;stroke-miterlimit:22.9256;stroke-dasharray:3.520000 3.520000}
    .fil3 {fill:#252A3B}
    .fil5 {fill:#626983}
    .fil0 {fill:#F3F3F3}
    .fil4 {fill:white}
    .fil1 {fill:#252A3B;fill-rule:nonzero}
    .fil2 {fill:#626983;fill-rule:nonzero}
   ]]>
  </style>
 </defs>
 <g id="图层_x0020_1">
  <metadata id="CorelCorpID_0Corel-Layer"/>
  <g id="_2352016757440">
   <g>
    <path class="fil0 str0" d="M548.01 633.91l0 -233.95c0,-3.43 2.8,-6.23 6.23,-6.23l78.28 0c3.43,0 6.23,2.8 6.23,6.23l0 233.95c0,3.43 -2.8,6.24 -6.23,6.24l-78.28 0c-3.43,0 -6.23,-2.81 -6.23,-6.24z"/>
    <g>
     <g>
      <path class="fil0 str1" d="M560.1 483.23l0 -76.86c0,-2.52 2.06,-4.58 4.58,-4.58l57.4 0c2.52,0 4.58,2.06 4.58,4.58l0 76.86c0,2.51 -2.06,4.57 -4.58,4.57l-57.4 0c-2.52,0 -4.58,-2.06 -4.58,-4.57z"/>
      <g>
       <g>
        <path class="fil1" d="M588.7 482.62l-1.2 0 -2.64 -3.37 -2.18 0 0 3.41 -0.89 0 0 -7.84 3.61 0c1.73,0.05 2.64,0.78 2.72,2.17 0,1.38 -0.77,2.11 -2.29,2.22l2.87 3.41zm-6.02 -7.06l0 2.95 2.49 0c1.37,0.03 2.04,-0.48 2.02,-1.52 0.02,-0.95 -0.65,-1.43 -2.02,-1.43l-2.49 0zm9.75 7.06l-2.76 0 0 -7.84 2.76 0c2.48,0.08 3.76,1.39 3.84,3.92 0.05,2.67 -1.23,3.98 -3.84,3.92zm-0.04 -7.06l-1.79 0 0 6.4 1.79 0c1.97,0 2.95,-1.07 2.95,-3.22 -0.05,-2.07 -1.04,-3.13 -2.95,-3.18zm4.97 4.77l0.93 -0.27c0.16,1.37 0.96,2.05 2.41,2.02 1.29,-0.02 1.98,-0.53 2.06,-1.51 0.07,-0.7 -0.59,-1.21 -1.99,-1.52 -0.02,0 -0.05,-0.01 -0.07,-0.04 -0.08,-0.02 -0.22,-0.06 -0.43,-0.11 -1.84,-0.31 -2.72,-1.01 -2.64,-2.1 0.08,-1.35 1.01,-2.05 2.8,-2.1 1.78,0 2.82,0.7 3.1,2.1l-0.97 0.23c-0.18,-1.03 -0.87,-1.56 -2.06,-1.59 -1.16,0.05 -1.8,0.51 -1.9,1.36 -0.08,0.65 0.62,1.11 2.1,1.4 0.07,0 0.18,0.02 0.31,0.07 0.15,0.03 0.26,0.06 0.31,0.08 1.68,0.42 2.48,1.16 2.41,2.22 -0.11,1.42 -1.09,2.16 -2.96,2.21 -1.94,0.05 -3.07,-0.76 -3.41,-2.45z"/>
        <path class="fil2" d="M611.29 446.61l-7.47 -4.29 0 -9.08c0,-1.61 -1.08,-3.49 -2.47,-4.28l-6.1 -3.5c-1.41,-0.81 -3.53,-0.81 -4.93,0l-6.1 3.5c-1.39,0.79 -2.47,2.67 -2.47,4.28l0 9.08 -7.45 4.27c-1.39,0.8 -2.48,2.68 -2.48,4.28l0 7.52c0,1.6 1.09,3.48 2.48,4.28l6.1 3.5c0.7,0.4 1.58,0.6 2.46,0.6 0.88,0 1.76,-0.2 2.47,-0.6l7.45 -4.28 7.49 4.3c0.7,0.4 1.58,0.6 2.46,0.6 0.88,0 1.76,-0.2 2.46,-0.6l6.1 -3.5c1.39,-0.8 2.48,-2.68 2.48,-4.28l0 -7.52c0,-1.6 -1.09,-3.48 -2.48,-4.28zm-18.49 14l0 0 -0.04 -0.07 0.08 0 -0.04 0.07zm-7.48 -29.73l0 0 6.1 -3.5c0.71,-0.41 2.02,-0.41 2.73,0l6.1 3.5c0.72,0.41 1.36,1.53 1.36,2.36l0 9.64 -7.19 4.13c-0.02,0.01 -0.05,0.01 -0.07,0.02 -0.4,-0.4 -0.95,-0.65 -1.56,-0.65 -0.61,-0.01 -1.17,0.25 -1.58,0.66l-0.01 -0.01c-0.02,-0.01 -0.04,-0.02 -0.06,-0.04l-7.18 -4.12 0 -9.63c0,-0.83 0.64,-1.95 1.36,-2.36zm-1.09 33.37l0 0c-0.71,0.41 -2.02,0.41 -2.74,0l-6.1 -3.51c-0.71,-0.41 -1.36,-1.53 -1.36,-2.35l0 -7.52c0,-0.82 0.65,-1.94 1.36,-2.35l8.02 -4.6 -0.06 -0.1 7.24 4.15c0.02,0.01 0.05,0.02 0.07,0.04 -0.05,0.18 -0.08,0.37 -0.08,0.57 -0.01,1.04 0.7,1.9 1.65,2.15 0,0.02 0,0.04 0,0.06l0 0.02 0 8.84 -8 4.6zm27.33 -5.84l0 0c0,0.82 -0.65,1.94 -1.36,2.35l-6.1 3.5c-0.72,0.41 -2.02,0.41 -2.74,0l-8.02 -4.6 0 0.01 0 -8.86c0,-0.03 0,-0.06 0,-0.08 0.95,-0.25 1.65,-1.1 1.65,-2.13 0,-0.2 -0.03,-0.39 -0.08,-0.58 0.02,-0.01 0.04,-0.03 0.07,-0.05l7.28 -4.18 -0.08 0.14 8.02 4.61c0.71,0.41 1.36,1.53 1.36,2.35l0 7.52z"/>
       </g>
       <path class="fil1" d="M563.33 409.68l0 -0.82 2.09 0 0 -2.02 0.9 0 0 2.02 1.86 0 0 0.82 -1.86 0 0 0.81 0.39 -0.46c0.38,0.23 0.76,0.45 1.12,0.66 0.68,-1.12 1.19,-2.42 1.56,-3.93l0.97 0.12c-0.16,0.49 -0.31,1 -0.47,1.52l2.6 0 0 0.93 -0.66 0c-0.15,1.89 -0.52,3.3 -1.09,4.23 0.47,0.57 1.08,1.07 1.83,1.51 -0.03,0.05 -0.08,0.13 -0.16,0.24 -0.18,0.28 -0.32,0.53 -0.42,0.73 -0.78,-0.57 -1.38,-1.11 -1.79,-1.63 -0.41,0.47 -1.05,1.04 -1.9,1.71 -0.21,-0.31 -0.42,-0.57 -0.62,-0.77l-0.16 0.27c-0.57,-0.29 -0.99,-0.5 -1.28,-0.62 -0.65,0.41 -1.54,0.77 -2.68,1.08 -0.13,-0.23 -0.27,-0.51 -0.43,-0.85 0.11,-0.03 0.24,-0.07 0.39,-0.12 0.91,-0.18 1.5,-0.35 1.79,-0.5 -0.08,-0.06 -0.21,-0.12 -0.39,-0.2 -0.23,-0.13 -0.65,-0.31 -1.24,-0.54 0.21,-0.29 0.4,-0.58 0.58,-0.89l-1.01 0 0 -0.82 1.51 0c0.13,-0.23 0.25,-0.44 0.35,-0.62l0.94 0.08 -0.31 0.54 2.17 0 0 0.86c-0.21,0.54 -0.5,1.02 -0.89,1.43 0.31,0.13 0.64,0.27 1.01,0.43l-0.24 0.31c0.78,-0.52 1.39,-1.06 1.83,-1.63 -0.36,-0.62 -0.65,-1.51 -0.86,-2.68 -0.07,0.1 -0.16,0.25 -0.27,0.43 -0.05,0.1 -0.09,0.18 -0.11,0.23 -0.03,-0.03 -0.08,-0.09 -0.16,-0.19 -0.08,-0.13 -0.14,-0.22 -0.19,-0.28l-0.39 0.55c-0.34,-0.29 -0.78,-0.6 -1.32,-0.93l0 0.69 -0.9 0 0 -0.97c-0.41,0.47 -1,0.91 -1.78,1.32 -0.08,-0.15 -0.21,-0.37 -0.39,-0.66 -0.03,-0.05 -0.05,-0.09 -0.08,-0.11 0.8,-0.31 1.47,-0.74 1.98,-1.28l-1.82 0zm6.09 -0.12c0.16,1.32 0.42,2.36 0.78,3.11 0.39,-0.73 0.63,-1.84 0.74,-3.34l-1.44 0c-0.05,0.07 -0.08,0.15 -0.08,0.23zm-4.58 3.96c0.16,0.05 0.38,0.14 0.66,0.27 0.31,0.11 0.53,0.2 0.66,0.27 0.34,-0.26 0.6,-0.62 0.78,-1.08l-1.71 0 -0.39 0.54zm2.33 -4.74l-0.62 -0.54c0.23,-0.21 0.6,-0.58 1.09,-1.13l0.66 0.51c-0.21,0.23 -0.59,0.62 -1.13,1.16zm-2.72 -0.04c-0.41,-0.49 -0.75,-0.86 -1.01,-1.12l0.62 -0.47c0.13,0.13 0.34,0.34 0.63,0.62 0.23,0.21 0.38,0.35 0.46,0.43l-0.7 0.54zm12.12 7.3c-0.21,-0.2 -0.47,-0.44 -0.78,-0.69 0.78,-0.99 1.14,-2.59 1.09,-4.82l0 -3.26 5.83 0 0 2.67 -4.86 0 0 0.98 1.94 0 0 -0.97 0.97 0 0 0.97 2.26 0 0 0.85 -2.26 0 0 0.97 1.79 0 0 3.3 -0.93 0 0 -0.51 -2.67 0 0 0.51 -0.94 0 0 -3.3 1.78 0 0 -0.97 -1.98 0c-0.02,1.68 -0.44,3.11 -1.24,4.27zm-2.79 -6.48l0 -0.98 0.97 0 0 -1.74 0.93 0 0 1.74 0.86 0 0 0.98 -0.86 0 0 1.7 0.78 -0.19c0,0.34 0.02,0.66 0.04,0.97l-0.82 0.23 0 2.56c0.03,0.7 -0.29,1.07 -0.97,1.09 -0.36,0.03 -0.66,0.04 -0.89,0.04 -0.02,-0.33 -0.08,-0.67 -0.15,-1.01 0.02,0 0.07,0 0.15,0 0.21,0.03 0.36,0.04 0.47,0.04 0.33,0.03 0.49,-0.1 0.46,-0.39l0 -2.09c-0.1,0.02 -0.25,0.07 -0.46,0.15 -0.26,0.05 -0.44,0.1 -0.55,0.16l-0.11 -1.09c0.13,-0.03 0.32,-0.07 0.58,-0.12 0.23,-0.05 0.41,-0.09 0.54,-0.11l0 -1.94 -0.97 0zm4.07 -1.47l0 1.04 3.89 0 0 -1.04 -3.89 0zm1.1 5.46l0 1.25 2.67 0 0 -1.25 -2.67 0zm6.02 2.57c-0.26,-0.36 -0.48,-0.66 -0.66,-0.89 1.58,-0.57 2.44,-1.49 2.6,-2.76 0.05,-0.23 0.08,-0.49 0.08,-0.78l-1.48 0 0 -0.85c-0.26,0.23 -0.54,0.46 -0.85,0.7 -0.03,-0.05 -0.08,-0.13 -0.16,-0.24 -0.18,-0.36 -0.32,-0.62 -0.42,-0.77 1.39,-0.93 2.47,-2.15 3.22,-3.65l0.97 0.43c-0.75,1.45 -1.62,2.58 -2.6,3.41l6.25 0c-0.03,0.36 -0.05,0.97 -0.08,1.83 -0.05,0.75 -0.08,1.28 -0.08,1.59 -0.02,1.16 -0.64,1.73 -1.86,1.71 -0.6,0 -1.1,0 -1.51,0 -0.06,-0.39 -0.12,-0.72 -0.2,-0.97 0.16,0 0.39,0 0.7,0 0.39,0.02 0.67,0.03 0.85,0.03 0.63,0.03 0.95,-0.29 0.98,-0.97 0.05,-0.82 0.07,-1.58 0.07,-2.25l-2.72 0c0,0.11 -0.01,0.25 -0.03,0.43 -0.03,0.21 -0.05,0.36 -0.08,0.47 -0.11,1.55 -1.1,2.73 -2.99,3.53zm8 -4.62c-1.69,-1.09 -2.86,-2.54 -3.54,-4.35l0.94 -0.39c0.69,1.71 1.77,2.94 3.22,3.69 -0.1,0.21 -0.31,0.56 -0.62,1.05zm2.92 4.62c-0.08,-0.08 -0.22,-0.21 -0.43,-0.39 -0.2,-0.21 -0.35,-0.35 -0.42,-0.43 0.49,-0.62 0.81,-1.24 0.97,-1.86 0.15,-0.6 0.23,-1.5 0.23,-2.72l0 -3.65 1.09 0 0 2.33 3.17 0 0 -2.56 1.09 0 0 2.56 2.37 0 0 1.01 -6.63 0 0 0.31c0,0.47 -0.02,0.87 -0.04,1.2l4.73 0 0 4.04 -1.05 0 0 -3.03 -3.76 0c-0.1,1.12 -0.54,2.18 -1.32,3.19zm20.27 -4.19l-5.43 0 0 -0.86 5.43 0 0 0.86zm-9.13 3.49l0 -6.21c-0.6,0.57 -1.41,1.07 -2.45,1.51 0,-0.36 0,-0.71 0,-1.05 1.35,-0.62 2.26,-1.38 2.72,-2.29l0.9 0 0 8.04 -1.17 0zm12.48 -4.12l0 -0.04c-0.88,-0.28 -1.35,-0.87 -1.4,-1.78 0.13,-1.35 1.01,-2.06 2.64,-2.14 1.58,0.08 2.45,0.79 2.6,2.14 -0.02,0.96 -0.51,1.55 -1.47,1.78l0 0.04c1.11,0.26 1.69,0.94 1.74,2.02 -0.02,1.45 -1.02,2.19 -2.98,2.22 -1.82,-0.06 -2.75,-0.79 -2.8,-2.22 0.08,-1.06 0.63,-1.73 1.67,-2.02zm1.24 3.42c1.06,-0.02 1.61,-0.49 1.63,-1.4 -0.02,-0.9 -0.59,-1.42 -1.71,-1.55 -1,0.1 -1.53,0.61 -1.59,1.51 0.03,0.94 0.59,1.42 1.67,1.44zm0 -6.52c-0.88,0.05 -1.34,0.48 -1.4,1.28 0,0.8 0.47,1.25 1.4,1.36 0.88,-0.13 1.34,-0.57 1.36,-1.32 -0.02,-0.86 -0.48,-1.3 -1.36,-1.32z"/>
      </g>
     </g>
     <g>
      <path class="fil0 str1" d="M561 601.33l0 -77.1c0,-2.45 2.01,-4.45 4.45,-4.45l55.86 0c2.44,0 4.45,2 4.45,4.45l0 77.1c0,2.44 -2.01,4.45 -4.45,4.45l-55.86 0c-2.44,0 -4.45,-2.01 -4.45,-4.45z"/>
      <g>
       <g>
        <path class="fil1" d="M589.46 600.6l-1.21 0 -2.63 -3.37 -2.18 0 0 3.41 -0.89 0 0 -7.84 3.61 0c1.73,0.05 2.64,0.78 2.72,2.17 0,1.38 -0.77,2.11 -2.29,2.22l2.87 3.41zm-6.02 -7.06l0 2.95 2.49 0c1.37,0.02 2.04,-0.48 2.01,-1.52 0.03,-0.95 -0.64,-1.43 -2.01,-1.43l-2.49 0zm9.75 7.06l-2.76 0 0 -7.84 2.76 0c2.48,0.08 3.76,1.39 3.84,3.92 0.05,2.67 -1.23,3.98 -3.84,3.92zm-0.04 -7.06l-1.79 0 0 6.4 1.79 0c1.96,0 2.95,-1.07 2.95,-3.22 -0.05,-2.07 -1.04,-3.13 -2.95,-3.18zm4.97 4.77l0.93 -0.27c0.15,1.37 0.96,2.05 2.41,2.02 1.29,-0.03 1.98,-0.53 2.06,-1.51 0.07,-0.7 -0.59,-1.21 -1.99,-1.52 -0.02,0 -0.05,-0.01 -0.07,-0.04 -0.08,-0.02 -0.22,-0.06 -0.43,-0.11 -1.84,-0.31 -2.72,-1.01 -2.64,-2.1 0.08,-1.35 1.01,-2.05 2.79,-2.1 1.79,0 2.83,0.7 3.11,2.1l-0.97 0.23c-0.18,-1.03 -0.87,-1.56 -2.06,-1.59 -1.16,0.05 -1.8,0.51 -1.9,1.36 -0.08,0.65 0.62,1.11 2.1,1.4 0.07,0 0.18,0.02 0.31,0.07 0.15,0.03 0.26,0.06 0.31,0.08 1.68,0.42 2.48,1.16 2.4,2.22 -0.1,1.42 -1.08,2.16 -2.95,2.21 -1.94,0.05 -3.08,-0.76 -3.41,-2.45z"/>
        <path class="fil2" d="M612.05 564.59l-7.47 -4.29 0 -9.08c0,-1.61 -1.09,-3.49 -2.47,-4.28l-6.1 -3.5c-1.41,-0.81 -3.53,-0.81 -4.93,0l-6.1 3.5c-1.39,0.79 -2.47,2.67 -2.47,4.28l0 9.08 -7.45 4.27c-1.39,0.8 -2.48,2.68 -2.48,4.28l0 7.52c0,1.6 1.09,3.48 2.48,4.28l6.1 3.5c0.7,0.4 1.58,0.6 2.46,0.6 0.88,0 1.76,-0.2 2.47,-0.6l7.45 -4.28 7.48 4.3c0.71,0.4 1.59,0.6 2.47,0.6 0.88,0 1.76,-0.2 2.46,-0.6l6.1 -3.5c1.39,-0.8 2.48,-2.68 2.48,-4.28l0 -7.52c0,-1.6 -1.09,-3.48 -2.48,-4.28zm-18.49 14l0 0 -0.04 -0.07 0.08 0 -0.04 0.07zm-7.49 -29.73l0 0 6.1 -3.5c0.72,-0.41 2.03,-0.41 2.74,0l6.1 3.5c0.71,0.41 1.36,1.53 1.36,2.36l0 9.64 -7.19 4.13c-0.02,0.01 -0.05,0.01 -0.07,0.02 -0.4,-0.4 -0.95,-0.65 -1.56,-0.65 -0.62,-0.01 -1.17,0.25 -1.58,0.66l-0.01 -0.01c-0.02,-0.01 -0.04,-0.03 -0.06,-0.04l-7.19 -4.12 0 -9.63c0,-0.83 0.65,-1.95 1.36,-2.36zm-1.08 33.37l0 0c-0.72,0.41 -2.02,0.41 -2.74,0l-6.1 -3.51c-0.71,-0.41 -1.36,-1.53 -1.36,-2.35l0 -7.52c0,-0.82 0.65,-1.94 1.36,-2.35l8.02 -4.6 -0.06 -0.1 7.23 4.15c0.03,0.01 0.06,0.02 0.08,0.04 -0.05,0.18 -0.08,0.37 -0.08,0.57 -0.01,1.04 0.7,1.9 1.65,2.15 0,0.02 0,0.04 0,0.06l0 0.02 0 8.84 -8 4.6zm27.33 -5.84l0 0c0,0.82 -0.65,1.94 -1.36,2.35l-6.1 3.5c-0.72,0.41 -2.03,0.41 -2.74,0l-8.02 -4.6 0 0.01 0 -8.86c0,-0.03 0,-0.06 0,-0.08 0.95,-0.25 1.65,-1.1 1.65,-2.13 0,-0.2 -0.03,-0.39 -0.08,-0.58 0.02,-0.01 0.04,-0.03 0.06,-0.05l7.29 -4.18 -0.08 0.14 8.02 4.61c0.71,0.41 1.36,1.53 1.36,2.35l0 7.52z"/>
       </g>
       <path class="fil1" d="M569.14 527.66l0 -0.82 2.1 0 0 -2.02 0.89 0 0 2.02 1.87 0 0 0.82 -1.87 0 0 0.81 0.39 -0.46c0.39,0.23 0.76,0.45 1.13,0.65 0.67,-1.11 1.19,-2.41 1.55,-3.92l0.97 0.12c-0.16,0.49 -0.31,1 -0.47,1.52l2.6 0 0 0.93 -0.66 0c-0.15,1.89 -0.51,3.3 -1.08,4.23 0.46,0.57 1.07,1.07 1.82,1.51 -0.02,0.05 -0.08,0.13 -0.15,0.24 -0.18,0.28 -0.33,0.53 -0.43,0.73 -0.78,-0.57 -1.37,-1.11 -1.79,-1.63 -0.41,0.47 -1.05,1.04 -1.9,1.71 -0.21,-0.31 -0.41,-0.57 -0.62,-0.78l-0.16 0.28c-0.57,-0.29 -0.99,-0.5 -1.28,-0.62 -0.64,0.41 -1.54,0.77 -2.68,1.08 -0.13,-0.23 -0.27,-0.51 -0.42,-0.85 0.1,-0.03 0.23,-0.07 0.39,-0.12 0.9,-0.18 1.5,-0.35 1.78,-0.5 -0.08,-0.06 -0.21,-0.12 -0.39,-0.2 -0.23,-0.13 -0.64,-0.31 -1.24,-0.54 0.21,-0.29 0.4,-0.58 0.58,-0.89l-1.01 0 0 -0.82 1.52 0c0.13,-0.23 0.24,-0.44 0.35,-0.62l0.93 0.08 -0.31 0.54 2.17 0 0 0.86c-0.21,0.54 -0.5,1.02 -0.89,1.43 0.31,0.13 0.65,0.27 1.01,0.43l-0.23 0.31c0.77,-0.52 1.38,-1.06 1.82,-1.63 -0.36,-0.62 -0.65,-1.52 -0.85,-2.68 -0.08,0.1 -0.17,0.25 -0.27,0.43 -0.06,0.1 -0.1,0.18 -0.12,0.23 -0.03,-0.03 -0.08,-0.09 -0.16,-0.19 -0.07,-0.13 -0.14,-0.22 -0.19,-0.28l-0.39 0.55c-0.34,-0.29 -0.78,-0.6 -1.32,-0.94l0 0.7 -0.89 0 0 -0.97c-0.42,0.47 -1.01,0.91 -1.79,1.32 -0.08,-0.15 -0.21,-0.37 -0.39,-0.66 -0.02,-0.05 -0.05,-0.09 -0.07,-0.11 0.8,-0.31 1.46,-0.74 1.98,-1.28l-1.83 0zm6.1 -0.12c0.15,1.32 0.41,2.36 0.77,3.11 0.39,-0.73 0.64,-1.84 0.74,-3.34l-1.44 0c-0.05,0.07 -0.07,0.15 -0.07,0.23zm-4.59 3.96c0.16,0.05 0.38,0.14 0.66,0.27 0.31,0.11 0.53,0.19 0.66,0.27 0.34,-0.26 0.6,-0.62 0.78,-1.08l-1.71 0 -0.39 0.54zm2.33 -4.74l-0.62 -0.54c0.24,-0.21 0.6,-0.59 1.09,-1.13l0.66 0.51c-0.21,0.23 -0.58,0.62 -1.13,1.16zm-2.71 -0.04c-0.42,-0.49 -0.76,-0.86 -1.01,-1.12l0.62 -0.47c0.13,0.13 0.33,0.34 0.62,0.62 0.23,0.21 0.39,0.35 0.46,0.43l-0.69 0.54zm12.11 7.3c-0.2,-0.2 -0.46,-0.44 -0.77,-0.7 0.77,-0.98 1.14,-2.58 1.08,-4.81l0 -3.26 5.84 0 0 2.67 -4.87 0 0 0.98 1.95 0 0 -0.97 0.97 0 0 0.97 2.25 0 0 0.85 -2.25 0 0 0.97 1.79 0 0 3.3 -0.93 0 0 -0.51 -2.68 0 0 0.51 -0.93 0 0 -3.3 1.78 0 0 -0.97 -1.98 0c-0.03,1.68 -0.44,3.11 -1.25,4.27zm-2.78 -6.49l0 -0.97 0.97 0 0 -1.74 0.93 0 0 1.74 0.85 0 0 0.97 -0.85 0 0 1.71 0.77 -0.19c0,0.34 0.02,0.66 0.04,0.97l-0.81 0.23 0 2.56c0.02,0.7 -0.3,1.07 -0.97,1.09 -0.36,0.03 -0.66,0.04 -0.9,0.04 -0.02,-0.34 -0.07,-0.67 -0.15,-1.01 0.02,0 0.08,0 0.15,0 0.21,0.03 0.37,0.04 0.47,0.04 0.34,0.03 0.49,-0.1 0.47,-0.39l0 -2.09c-0.11,0.02 -0.26,0.07 -0.47,0.15 -0.26,0.05 -0.44,0.1 -0.54,0.16l-0.12 -1.09c0.13,-0.03 0.32,-0.07 0.58,-0.12 0.24,-0.05 0.42,-0.09 0.55,-0.11l0 -1.95 -0.97 0zm4.06 -1.46l0 1.04 3.89 0 0 -1.04 -3.89 0zm1.1 5.46l0 1.24 2.68 0 0 -1.24 -2.68 0zm6.02 2.57c-0.26,-0.36 -0.48,-0.66 -0.66,-0.89 1.58,-0.57 2.45,-1.49 2.6,-2.76 0.05,-0.23 0.08,-0.49 0.08,-0.78l-1.48 0 0 -0.85c-0.25,0.23 -0.54,0.46 -0.85,0.7 -0.03,-0.06 -0.08,-0.13 -0.15,-0.24 -0.18,-0.36 -0.33,-0.62 -0.43,-0.77 1.4,-0.94 2.47,-2.15 3.22,-3.65l0.97 0.43c-0.75,1.44 -1.62,2.58 -2.6,3.41l6.25 0c-0.02,0.36 -0.05,0.97 -0.08,1.83 -0.05,0.75 -0.07,1.28 -0.07,1.59 -0.03,1.16 -0.65,1.73 -1.87,1.71 -0.59,0 -1.1,0 -1.51,0 -0.05,-0.39 -0.12,-0.72 -0.19,-0.97 0.15,0 0.38,0 0.69,0 0.39,0.02 0.68,0.03 0.86,0.03 0.62,0.03 0.94,-0.29 0.97,-0.97 0.05,-0.82 0.08,-1.58 0.08,-2.25l-2.72 0c0,0.1 -0.02,0.25 -0.04,0.43 -0.03,0.21 -0.05,0.36 -0.08,0.46 -0.1,1.56 -1.1,2.74 -2.99,3.54zm8 -4.62c-1.68,-1.09 -2.86,-2.54 -3.53,-4.35l0.93 -0.39c0.7,1.71 1.77,2.94 3.22,3.69 -0.1,0.21 -0.31,0.56 -0.62,1.05zm2.92 4.62c-0.07,-0.08 -0.22,-0.21 -0.42,-0.39 -0.21,-0.21 -0.35,-0.35 -0.43,-0.43 0.49,-0.62 0.81,-1.24 0.97,-1.86 0.15,-0.6 0.23,-1.5 0.23,-2.72l0 -3.65 1.09 0 0 2.33 3.18 0 0 -2.56 1.08 0 0 2.56 2.37 0 0 1.01 -6.63 0 0 0.31c0,0.47 -0.01,0.87 -0.04,1.2l4.73 0 0 4.04 -1.05 0 0 -3.03 -3.76 0c-0.1,1.12 -0.54,2.18 -1.32,3.19zm9.36 -8.66l1.43 0 4.04 6.52 0.04 0 0 -6.52 1.17 0 0 7.96 -1.4 0 -4.12 -6.56 0 6.56 -1.16 0 0 -7.96z"/>
      </g>
     </g>
     <g>
      <path class="fil3" d="M592.02 510.5c0,-0.75 0.61,-1.36 1.36,-1.36 0.75,0 1.36,0.61 1.36,1.36 0,0.75 -0.61,1.36 -1.36,1.36 -0.75,0 -1.36,-0.61 -1.36,-1.36z"/>
      <path class="fil3" d="M592.02 503.79c0,-0.75 0.61,-1.36 1.36,-1.36 0.75,0 1.36,0.61 1.36,1.36 0,0.75 -0.61,1.36 -1.36,1.36 -0.75,0 -1.36,-0.61 -1.36,-1.36z"/>
      <path class="fil3" d="M592.02 497.08c0,-0.75 0.61,-1.36 1.36,-1.36 0.75,0 1.36,0.61 1.36,1.36 0,0.75 -0.61,1.36 -1.36,1.36 -0.75,0 -1.36,-0.61 -1.36,-1.36z"/>
     </g>
     <g>
      <path class="fil0 str1" d="M560.1 616.65l0 12.48c0,1.63 1.33,2.95 2.96,2.95l60.64 0c1.63,0 2.96,-1.32 2.96,-2.95l0 -12.48c0,-1.63 -1.33,-2.96 -2.96,-2.96l-60.64 0c-1.63,0 -2.96,1.33 -2.96,2.96z"/>
      <path class="fil1" d="M577.16 627.3c-0.03,-0.26 -0.07,-0.53 -0.12,-0.82 0.11,0 0.31,0 0.62,0 0.39,0.03 0.69,0.04 0.9,0.04 0.69,0.05 1.06,-0.28 1.08,-1.01 0.03,-0.26 0.05,-0.66 0.08,-1.2 0.03,-0.57 0.04,-0.97 0.04,-1.2l-3.03 0c-0.03,0.41 -0.08,0.8 -0.15,1.16 -0.19,1.42 -1.16,2.52 -2.92,3.3 -0.13,-0.21 -0.28,-0.43 -0.46,-0.66 1.53,-0.62 2.39,-1.54 2.6,-2.76 0.08,-0.33 0.11,-0.68 0.11,-1.04l-1.66 0 0 -0.74 6.32 0c-0.05,1.52 -0.1,2.61 -0.15,3.26 -0.03,1.11 -0.62,1.66 -1.79,1.63 -0.59,0.03 -1.08,0.04 -1.47,0.04zm4.7 -4.55c-1.63,-0.98 -2.81,-2.39 -3.54,-4.23l0.74 -0.27c0.7,1.73 1.8,2.99 3.3,3.77 -0.21,0.31 -0.38,0.55 -0.5,0.73zm-8.47 0.04c-0.05,-0.13 -0.18,-0.32 -0.39,-0.58 -0.02,-0.08 -0.05,-0.13 -0.07,-0.15 1.42,-0.94 2.52,-2.17 3.3,-3.69l0.77 0.35c-0.98,1.73 -2.19,3.09 -3.61,4.07zm12.28 -0.93l0 -0.66 1.98 0c0.07,-0.1 0.18,-0.27 0.31,-0.5 0.13,-0.21 0.22,-0.36 0.27,-0.47l0.81 0.12c-0.05,0.08 -0.14,0.22 -0.27,0.43 -0.1,0.18 -0.19,0.32 -0.27,0.42l3.84 0 0 0.66 -4.27 0c-0.38,0.57 -0.77,1.13 -1.16,1.67l2.06 0 0 -1.16 0.74 0 0 1.16 2.56 0 0 0.66 -2.56 0 0 1.05 3.02 0 0 0.66 -3.02 0 0 1.63 -0.74 0 0 -1.63 -3.65 0 0 -0.66 3.65 0 0 -1.05 -2.91 0 0 -0.74c0.38,-0.49 0.77,-1.02 1.16,-1.59l-1.55 0zm-1.64 5.67c-0.05,-0.03 -0.11,-0.08 -0.19,-0.16 -0.05,-0.05 -0.19,-0.17 -0.43,-0.35 0.39,-0.65 0.65,-1.24 0.78,-1.79 0.1,-0.54 0.15,-1.45 0.15,-2.71l0 -3.26 4 0c-0.02,-0.13 -0.06,-0.3 -0.11,-0.51 -0.08,-0.21 -0.13,-0.36 -0.16,-0.46l0.86 -0.08 0.27 1.05 3.53 0 0 0.66 -7.65 0 0 2.67c0.05,2.23 -0.29,3.87 -1.05,4.94zm14.11 -0.23c-0.03,-0.26 -0.07,-0.53 -0.12,-0.82 0.11,0 0.31,0 0.62,0 0.39,0.03 0.69,0.04 0.9,0.04 0.7,0.05 1.06,-0.28 1.08,-1.01 0.03,-0.26 0.06,-0.66 0.08,-1.2 0.03,-0.57 0.04,-0.97 0.04,-1.2l-3.03 0c-0.02,0.41 -0.07,0.8 -0.15,1.16 -0.18,1.42 -1.16,2.52 -2.91,3.3 -0.13,-0.21 -0.29,-0.43 -0.47,-0.66 1.53,-0.62 2.39,-1.54 2.6,-2.76 0.08,-0.33 0.12,-0.68 0.12,-1.04l-1.67 0 0 -0.74 6.33 0c-0.05,1.52 -0.11,2.61 -0.16,3.26 -0.03,1.11 -0.62,1.66 -1.78,1.63 -0.6,0.03 -1.09,0.04 -1.48,0.04zm4.7 -4.55c-1.63,-0.98 -2.81,-2.39 -3.54,-4.23l0.74 -0.27c0.7,1.73 1.8,2.99 3.3,3.77 -0.2,0.31 -0.37,0.55 -0.5,0.73zm-8.47 0.04c-0.05,-0.13 -0.18,-0.32 -0.38,-0.58 -0.03,-0.08 -0.06,-0.13 -0.08,-0.15 1.42,-0.94 2.52,-2.17 3.3,-3.69l0.78 0.35c-0.99,1.73 -2.19,3.09 -3.62,4.07zm10.45 -2.8l0 -0.65 3.93 0 0 -1.05 0.77 0 0 1.05 3.93 0 0 0.65 -3.93 0 0 0.98 3.5 0 0 0.62 -3.5 0 0 0.97 4.24 0 0 0.66 -4.24 0c0.24,0.56 0.55,1.06 0.94,1.47 0.77,-0.41 1.48,-0.83 2.13,-1.24l0.51 0.62c-0.19,0.08 -0.52,0.25 -1.01,0.51 -0.55,0.28 -0.92,0.47 -1.13,0.58 0.67,0.49 1.63,0.88 2.87,1.16 -0.07,0.05 -0.23,0.29 -0.46,0.7 -2.36,-0.62 -3.83,-1.76 -4.43,-3.42 -0.34,0.39 -0.72,0.74 -1.16,1.05l0 1.87c1.06,-0.31 1.85,-0.56 2.36,-0.74 -0.02,0.28 -0.04,0.53 -0.04,0.74 -0.69,0.18 -1.51,0.45 -2.44,0.81 -0.16,0.05 -0.33,0.12 -0.51,0.2l-0.42 -0.59c0.23,-0.15 0.33,-0.33 0.31,-0.54l0 -1.2c-0.65,0.38 -1.41,0.76 -2.29,1.12 -0.03,-0.08 -0.11,-0.23 -0.24,-0.46 -0.05,-0.11 -0.09,-0.18 -0.11,-0.24 1.73,-0.64 3.06,-1.45 4,-2.4l-3.85 0 0 -0.66 4.2 0 0 -0.97 -3.54 0 0 -0.62 3.54 0 0 -0.98 -3.93 0z"/>
     </g>
    </g>
   </g>
   <path class="fil0 str0" d="M548 365.54l0 -358.95c0,-3.43 2.8,-6.24 6.23,-6.24l78.3 0c3.43,0 6.23,2.81 6.23,6.24l0 358.95c0,3.43 -2.8,6.24 -6.23,6.24l-78.3 0c-3.43,0 -6.23,-2.81 -6.23,-6.24z"/>
   <g>
    <path class="fil0 str1" d="M560.1 162.12l0 -149.27c0,-2.51 2.06,-4.57 4.58,-4.57l57.4 0c2.52,0 4.58,2.06 4.58,4.57l0 149.27c0,2.52 -2.06,4.58 -4.58,4.58l-57.4 0c-2.52,0 -4.58,-2.06 -4.58,-4.58z"/>
    <g>
     <path class="fil1" d="M574.33 88.74l-1.2 0 -2.64 -3.38 -2.17 0 0 3.42 -0.9 0 0 -7.84 3.61 0c1.74,0.05 2.65,0.77 2.72,2.17 0,1.37 -0.76,2.11 -2.29,2.22l2.87 3.41zm-6.01 -7.06l0 2.95 2.48 0c1.37,0.02 2.05,-0.48 2.02,-1.52 0.03,-0.95 -0.65,-1.43 -2.02,-1.43l-2.48 0zm9.74 7.06l-2.75 0 0 -7.84 2.75 0c2.49,0.08 3.77,1.38 3.85,3.92 0.05,2.67 -1.23,3.98 -3.85,3.92zm-0.04 -7.06l-1.78 0 0 6.4 1.78 0c1.97,0 2.95,-1.07 2.95,-3.22 -0.05,-2.07 -1.03,-3.13 -2.95,-3.18zm4.97 4.77l0.93 -0.27c0.16,1.37 0.96,2.05 2.41,2.02 1.3,-0.03 1.98,-0.53 2.06,-1.52 0.08,-0.69 -0.58,-1.2 -1.98,-1.51 -0.03,0 -0.05,-0.01 -0.08,-0.04 -0.08,-0.02 -0.22,-0.06 -0.42,-0.12 -1.84,-0.3 -2.72,-1 -2.64,-2.09 0.07,-1.35 1,-2.05 2.79,-2.1 1.79,0 2.82,0.7 3.11,2.1l-0.97 0.23c-0.19,-1.03 -0.87,-1.56 -2.06,-1.59 -1.17,0.05 -1.8,0.5 -1.9,1.36 -0.08,0.65 0.62,1.11 2.09,1.4 0.08,0 0.18,0.02 0.31,0.07 0.16,0.03 0.26,0.06 0.31,0.08 1.69,0.42 2.49,1.15 2.41,2.21 -0.1,1.43 -1.09,2.17 -2.95,2.22 -1.94,0.05 -3.08,-0.77 -3.42,-2.45zm7.65 -3.76l0 -0.74 8.43 0 0 0.74 -3.81 0 0 2.28 3.42 0 0 0.74 -3.42 0 0 2.56 4.24 0 0 0.66 -9.25 0 0 -0.66 4.2 0 0 -2.56 -3.38 0 0 -0.74 3.38 0 0 -2.28 -3.81 0zm4.12 -0.86c-0.13,-0.39 -0.34,-0.87 -0.62,-1.44l0.81 -0.19c0.13,0.31 0.35,0.78 0.66,1.4l-0.85 0.23zm10.44 6.41c-0.03,-0.26 -0.08,-0.54 -0.16,-0.86 0.19,0.03 0.63,0.04 1.33,0.04 0.82,0.05 1.22,-0.28 1.2,-1.01 0.02,-0.23 0.05,-0.63 0.08,-1.2 0.02,-0.28 0.03,-0.49 0.03,-0.62l-3.84 0 0 4.93 -0.81 0 0 -4.93 -2.41 0 0 -0.74 7.92 0c-0.03,0.93 -0.08,1.81 -0.16,2.64 0,1.19 -0.59,1.77 -1.78,1.75 -0.47,0 -0.93,0 -1.4,0zm-5.05 -6.1l0 -0.73 2.57 0 0 -1.17 0.77 0 0 1.17 2.61 0 0 -1.17 0.81 0 0 1.17 2.56 0 0 0.73 -2.56 0 0 0.97 -0.81 0 0 -0.97 -2.61 0 0 0.97 -0.77 0 0 -0.97 -2.57 0zm11.08 4.35l0 -3.3 2.94 0 0 -3.03 0.81 0 0 1.13 4.27 0 0 0.69 -4.27 0 0 1.21 3.42 0 0 3.3 -7.17 0zm0.77 -2.56l0 1.86 5.59 0 0 -1.86 -5.59 0zm-1.21 5.47l-0.73 -0.31c0.02,-0.05 0.07,-0.14 0.15,-0.27 0.47,-0.72 0.79,-1.29 0.97,-1.71l0.74 0.24c-0.31,0.67 -0.69,1.35 -1.13,2.05zm7.81 -0.11c-0.18,-0.39 -0.53,-1.04 -1.05,-1.94l0.74 -0.28c0.08,0.16 0.24,0.47 0.5,0.94 0.29,0.49 0.47,0.81 0.55,0.97l-0.74 0.31zm-5.24 0c-0.06,-0.31 -0.18,-0.77 -0.39,-1.36 -0.08,-0.23 -0.13,-0.42 -0.16,-0.55l0.74 -0.15c0.31,0.9 0.52,1.53 0.62,1.86l-0.81 0.2zm2.48 -0.12c-0.08,-0.29 -0.27,-0.78 -0.58,-1.47 -0.08,-0.19 -0.13,-0.32 -0.16,-0.39l0.74 -0.16c0.31,0.73 0.57,1.33 0.78,1.83l-0.78 0.19z"/>
     <path class="fil2" d="M611.84 52.73l-7.47 -4.29 0 -9.08c0,-1.61 -1.09,-3.49 -2.48,-4.28l-6.1 -3.51c-1.4,-0.8 -3.52,-0.8 -4.92,0l-6.11 3.51c-1.38,0.79 -2.47,2.67 -2.47,4.28l0 9.08 -7.45 4.27c-1.38,0.8 -2.47,2.68 -2.47,4.28l0 7.52c0,1.6 1.08,3.48 2.47,4.28l6.1 3.5c0.71,0.4 1.59,0.6 2.47,0.6 0.88,0 1.76,-0.2 2.46,-0.6l7.45 -4.28 7.49 4.3c0.7,0.4 1.58,0.6 2.46,0.6 0.88,0 1.77,-0.2 2.47,-0.6l6.1 -3.51c1.38,-0.79 2.47,-2.67 2.47,-4.27l0 -7.52c0,-1.6 -1.09,-3.48 -2.47,-4.28zm-18.5 14l0 0 -0.04 -0.07 0.09 0 -0.05 0.07zm-7.48 -29.73l0 0 6.1 -3.5c0.72,-0.41 2.02,-0.41 2.74,0l6.1 3.5c0.71,0.41 1.36,1.53 1.36,2.36l0 9.63 -7.2 4.14c-0.02,0.01 -0.04,0.01 -0.06,0.02 -0.4,-0.4 -0.95,-0.65 -1.56,-0.66 -0.62,0 -1.18,0.26 -1.58,0.67l-0.02 -0.01c-0.02,-0.01 -0.03,-0.03 -0.05,-0.04l-7.19 -4.12 0 -9.63c0,-0.83 0.65,-1.95 1.36,-2.36zm-1.08 33.36l0 0c-0.72,0.42 -2.03,0.42 -2.74,0l-6.1 -3.5c-0.71,-0.41 -1.36,-1.53 -1.36,-2.35l0 -7.52c0,-0.82 0.65,-1.94 1.36,-2.35l8.01 -4.6 -0.05 -0.1 7.23 4.15c0.02,0.01 0.05,0.02 0.08,0.04 -0.05,0.18 -0.09,0.37 -0.09,0.57 0,1.03 0.7,1.9 1.65,2.15 0,0.02 0.01,0.04 0.01,0.06l0 0.02 0 8.84 -8 4.59zm27.32 -5.83l0 0c0,0.82 -0.65,1.94 -1.36,2.35l-6.1 3.5c-0.71,0.41 -2.02,0.41 -2.74,0l-8.01 -4.6 -0.01 0.01 0 -8.86c0,-0.03 0.01,-0.06 0.01,-0.08 0.94,-0.25 1.64,-1.1 1.65,-2.13 0,-0.2 -0.04,-0.39 -0.09,-0.58 0.02,-0.02 0.05,-0.03 0.07,-0.05l7.29 -4.18 -0.08 0.14 8.01 4.61c0.71,0.4 1.36,1.53 1.36,2.35l0 7.52z"/>
    </g>
    <g>
     <path class="fil1" d="M587.99 13.58l3.19 7.96 -1.32 0 -0.82 -2.14 -3.53 0 -0.82 2.14 -1.32 0 3.19 -7.96 1.43 0zm-0.69 1.05l-0.04 0c-0.08,0.23 -0.16,0.46 -0.24,0.7 -0.02,0.05 -0.42,1.08 -1.2,3.1l2.91 0c-0.77,-2.02 -1.18,-3.05 -1.2,-3.1 0,-0.03 -0.01,-0.08 -0.04,-0.16 -0.13,-0.31 -0.19,-0.49 -0.19,-0.54zm14.92 6.91l0 -6.21c-0.6,0.57 -1.41,1.07 -2.45,1.51 0,-0.36 0,-0.71 0,-1.05 1.35,-0.62 2.26,-1.38 2.72,-2.29l0.9 0 0 8.04 -1.17 0zm-3.54 0l-6.72 0 0 -0.82 4.97 -6.13 -4.54 0 0 -1.01 6.14 0 0 0.93 -5.05 6.1 5.2 0 0 0.93z"/>
     <g>
      <path class="fil1" d="M574.69 157.59l0 -4.89 7.1 0 0 4.89 -7.1 0zm0.81 -4.12l0 3.38 5.47 0 0 -3.38 -5.47 0zm-1.36 7.93c-0.03,-0.03 -0.08,-0.09 -0.15,-0.2 -0.21,-0.21 -0.37,-0.35 -0.47,-0.42 1.09,-0.75 2.12,-1.65 3.11,-2.68l0.66 0.54c-0.94,0.96 -1.98,1.88 -3.15,2.76zm8.04 -0.04c-0.91,-0.83 -1.96,-1.74 -3.15,-2.72l0.62 -0.54c0.55,0.46 1.3,1.1 2.26,1.9 0.41,0.34 0.72,0.58 0.93,0.74l-0.66 0.62zm3.96 -2.37l0 -0.66 3.42 0c0.1,-0.54 0.15,-1.37 0.15,-2.48l0.74 0c0,1.08 -0.05,1.91 -0.16,2.48l2.45 0 0 0.66 -2.6 0c0,0.03 -0.01,0.06 -0.04,0.12 -0.03,0.07 -0.05,0.13 -0.08,0.15 0.91,0.47 1.8,0.92 2.68,1.36l-0.47 0.7c-0.72,-0.49 -1.57,-0.98 -2.56,-1.48 -0.49,0.55 -1.56,1.09 -3.22,1.63 -0.03,-0.02 -0.05,-0.08 -0.08,-0.19 -0.05,-0.1 -0.15,-0.28 -0.31,-0.54 1.92,-0.44 3,-1.02 3.26,-1.75l-3.18 0zm0.39 -5.21l0 -0.66 2.52 0 0 -1.01 0.74 0 0 1.01 2.64 0 0 0.66 -2.64 0 0 1.02 2.83 0 0 0.62 -0.27 1.28c-0.02,0 -0.05,0 -0.08,0 -0.23,-0.05 -0.44,-0.08 -0.62,-0.08l0.31 -1.2 -5.78 0 0 -0.62 2.87 0 0 -1.02 -2.52 0zm-1.87 7.31l-0.46 -0.59c0.18,-0.15 0.27,-0.36 0.27,-0.62l0 -3.76 -1.01 0 0 -0.7 1.75 0 0 4.42 1.04 -0.73c0.03,0.07 0.04,0.2 0.04,0.39 0.03,0.18 0.04,0.32 0.04,0.42 -0.44,0.23 -0.85,0.49 -1.24,0.78 -0.05,0.05 -0.13,0.13 -0.23,0.23 -0.11,0.08 -0.17,0.13 -0.2,0.16zm0.55 -6.76c-0.42,-0.54 -0.86,-1.06 -1.32,-1.55l0.62 -0.43c0.36,0.39 0.48,0.52 0.35,0.39 0.46,0.52 0.8,0.88 1.01,1.08l-0.66 0.51zm2.95 3.77c-0.39,-0.24 -0.97,-0.52 -1.75,-0.86l0.31 -0.43c0.6,0.21 1.18,0.47 1.75,0.78l-0.31 0.51zm0.66 -1.13c-0.47,-0.28 -1.03,-0.54 -1.67,-0.78l0.27 -0.46c0.26,0.1 0.63,0.26 1.13,0.46 0.26,0.13 0.45,0.22 0.58,0.28l-0.31 0.5zm5 4.39l0 -4.51 5.13 0 0 4.51 -0.7 0 0 -0.54 -3.73 0 0 0.54 -0.7 0zm0.43 -5.21l0 -2.25 4.32 0 0 2.25 -4.32 0zm5.83 5.17c-0.03,-0.11 -0.05,-0.25 -0.08,-0.43 -0.05,-0.13 -0.08,-0.23 -0.08,-0.31 0.39,0 0.73,0 1.01,0 0.44,0.03 0.65,-0.15 0.62,-0.54l0 -7.85 0.7 0 0 7.96c0.03,0.76 -0.32,1.13 -1.05,1.13 -0.23,0.03 -0.6,0.04 -1.12,0.04zm-0.27 -2.14l0 -5.98 0.65 0 0 5.98 -0.65 0zm-6.18 -5.98l0 -0.58 5.52 0 0 0.58 -5.52 0zm1.32 1.28l0 1.09 2.92 0 0 -1.09 -2.92 0zm1.79 4.67l0 1.12 1.51 0 0 -1.12 -1.51 0zm-2.22 0l0 1.12 1.52 0 0 -1.12 -1.52 0zm3.73 -1.71l-1.51 0 0 1.16 1.51 0 0 -1.16zm-3.73 0l0 1.16 1.52 0 0 -1.16 -1.52 0zm9.21 -2.95l0 -0.74 3.92 0 0 -1.63 0.77 0 0 1.63 3.93 0 0 0.74 -3.46 0c0.85,1.86 2.14,3.31 3.84,4.34 -0.23,0.34 -0.38,0.6 -0.46,0.78 -1.81,-1.27 -3.09,-2.83 -3.85,-4.7l0 4 2.1 0 0 0.7 -2.1 0 0 1.78 -0.77 0 0 -1.78 -2.18 0 0 -0.7 2.18 0 0 -3.96c-0.83,1.99 -2.11,3.6 -3.85,4.81 -0.13,-0.28 -0.28,-0.53 -0.46,-0.74 1.73,-1.16 3,-2.67 3.8,-4.53l-3.41 0z"/>
      <path class="fil2" d="M611.84 124.65l-7.47 -4.29 0 -9.09c0,-1.6 -1.09,-3.48 -2.48,-4.28l-6.1 -3.5c-1.4,-0.81 -3.52,-0.81 -4.92,0l-6.11 3.5c-1.38,0.8 -2.47,2.68 -2.47,4.28l0 9.08 -7.45 4.28c-1.38,0.8 -2.47,2.68 -2.47,4.28l0 7.51c0,1.61 1.08,3.49 2.47,4.28l6.1 3.51c0.71,0.4 1.59,0.6 2.47,0.6 0.88,0 1.76,-0.2 2.46,-0.6l7.45 -4.28 7.49 4.29c0.7,0.41 1.58,0.61 2.46,0.61 0.88,0 1.77,-0.2 2.47,-0.61l6.1 -3.5c1.38,-0.8 2.47,-2.68 2.47,-4.28l0 -7.51c0,-1.61 -1.09,-3.49 -2.47,-4.28zm-18.5 14l0 0 -0.04 -0.07 0.09 0 -0.05 0.07zm-7.48 -29.73l0 0 6.1 -3.51c0.72,-0.41 2.02,-0.41 2.74,0l6.1 3.51c0.71,0.41 1.36,1.53 1.36,2.35l0 9.64 -7.2 4.13c-0.02,0.01 -0.04,0.02 -0.06,0.03 -0.4,-0.41 -0.95,-0.66 -1.56,-0.66 -0.62,0 -1.18,0.25 -1.58,0.66l-0.02 0c-0.02,-0.01 -0.03,-0.03 -0.05,-0.04l-7.19 -4.13 0 -9.63c0,-0.82 0.65,-1.94 1.36,-2.35zm-1.08 33.36l0 0c-0.72,0.41 -2.03,0.41 -2.74,0l-6.1 -3.5c-0.71,-0.41 -1.36,-1.53 -1.36,-2.36l0 -7.51c0,-0.82 0.65,-1.95 1.36,-2.36l8.01 -4.6 -0.05 -0.1 7.23 4.15c0.02,0.02 0.05,0.03 0.08,0.04 -0.05,0.19 -0.09,0.38 -0.09,0.58 0,1.03 0.7,1.89 1.65,2.14 0,0.02 0.01,0.05 0.01,0.07l0 0.01 0 8.85 -8 4.59zm27.32 -5.84l0 0c0,0.83 -0.65,1.95 -1.36,2.36l-6.1 3.5c-0.71,0.41 -2.02,0.41 -2.74,0l-8.01 -4.6 -0.01 0.01 0 -8.87c0,-0.02 0.01,-0.05 0.01,-0.08 0.94,-0.25 1.64,-1.1 1.65,-2.12 0,-0.21 -0.04,-0.4 -0.09,-0.59 0.02,-0.01 0.05,-0.03 0.07,-0.04l7.29 -4.19 -0.08 0.15 8.01 4.6c0.71,0.41 1.36,1.53 1.36,2.36l0 7.51z"/>
     </g>
    </g>
   </g>
   <path class="fil0 str1" d="M560.1 330.71l0 -149.26c0,-2.52 2.06,-4.58 4.58,-4.58l57.4 0c2.52,0 4.58,2.06 4.58,4.58l0 149.26c0,2.52 -2.06,4.58 -4.58,4.58l-57.4 0c-2.52,0 -4.58,-2.06 -4.58,-4.58z"/>
   <g>
    <path class="fil1" d="M574.33 257.33l-1.2 0 -2.64 -3.37 -2.17 0 0 3.41 -0.9 0 0 -7.84 3.61 0c1.74,0.05 2.65,0.78 2.72,2.17 0,1.38 -0.76,2.11 -2.29,2.22l2.87 3.41zm-6.01 -7.06l0 2.95 2.48 0c1.37,0.02 2.05,-0.48 2.02,-1.52 0.03,-0.95 -0.65,-1.43 -2.02,-1.43l-2.48 0zm9.74 7.06l-2.75 0 0 -7.84 2.75 0c2.49,0.08 3.77,1.39 3.85,3.92 0.05,2.67 -1.23,3.98 -3.85,3.92zm-0.04 -7.06l-1.78 0 0 6.4 1.78 0c1.97,0 2.95,-1.07 2.95,-3.22 -0.05,-2.07 -1.03,-3.13 -2.95,-3.18zm4.97 4.77l0.93 -0.27c0.16,1.37 0.96,2.05 2.41,2.02 1.3,-0.03 1.98,-0.53 2.06,-1.51 0.08,-0.7 -0.58,-1.21 -1.98,-1.52 -0.03,0 -0.05,-0.01 -0.08,-0.04 -0.08,-0.02 -0.22,-0.06 -0.42,-0.11 -1.84,-0.31 -2.72,-1.01 -2.64,-2.1 0.07,-1.35 1,-2.05 2.79,-2.1 1.79,0 2.82,0.7 3.11,2.1l-0.97 0.23c-0.19,-1.03 -0.87,-1.56 -2.06,-1.59 -1.17,0.05 -1.8,0.51 -1.9,1.36 -0.08,0.65 0.62,1.11 2.09,1.4 0.08,0 0.18,0.02 0.31,0.07 0.16,0.03 0.26,0.06 0.31,0.08 1.69,0.42 2.49,1.16 2.41,2.22 -0.1,1.42 -1.09,2.16 -2.95,2.21 -1.94,0.05 -3.08,-0.77 -3.42,-2.45zm7.65 -3.76l0 -0.74 8.43 0 0 0.74 -3.81 0 0 2.28 3.42 0 0 0.74 -3.42 0 0 2.56 4.24 0 0 0.66 -9.25 0 0 -0.66 4.2 0 0 -2.56 -3.38 0 0 -0.74 3.38 0 0 -2.28 -3.81 0zm4.12 -0.86c-0.13,-0.39 -0.34,-0.86 -0.62,-1.43l0.81 -0.2c0.13,0.31 0.35,0.78 0.66,1.4l-0.85 0.23zm10.44 6.41c-0.03,-0.26 -0.08,-0.54 -0.16,-0.86 0.19,0.03 0.63,0.04 1.33,0.04 0.82,0.06 1.22,-0.28 1.2,-1.01 0.02,-0.23 0.05,-0.63 0.08,-1.2 0.02,-0.28 0.03,-0.49 0.03,-0.62l-3.84 0 0 4.93 -0.81 0 0 -4.93 -2.41 0 0 -0.74 7.92 0c-0.03,0.93 -0.08,1.81 -0.16,2.64 0,1.19 -0.59,1.77 -1.78,1.75 -0.47,0 -0.93,0 -1.4,0zm-5.05 -6.1l0 -0.73 2.57 0 0 -1.17 0.77 0 0 1.17 2.61 0 0 -1.17 0.81 0 0 1.17 2.56 0 0 0.73 -2.56 0 0 0.98 -0.81 0 0 -0.98 -2.61 0 0 0.98 -0.77 0 0 -0.98 -2.57 0zm11.08 4.35l0 -3.3 2.94 0 0 -3.03 0.81 0 0 1.13 4.27 0 0 0.7 -4.27 0 0 1.2 3.42 0 0 3.3 -7.17 0zm0.77 -2.56l0 1.86 5.59 0 0 -1.86 -5.59 0zm-1.21 5.47l-0.73 -0.31c0.02,-0.05 0.07,-0.14 0.15,-0.27 0.47,-0.72 0.79,-1.29 0.97,-1.71l0.74 0.24c-0.31,0.67 -0.69,1.35 -1.13,2.05zm7.81 -0.11c-0.18,-0.39 -0.53,-1.04 -1.05,-1.94l0.74 -0.28c0.08,0.16 0.24,0.47 0.5,0.94 0.29,0.49 0.47,0.81 0.55,0.97l-0.74 0.31zm-5.24 0c-0.06,-0.31 -0.18,-0.77 -0.39,-1.36 -0.08,-0.23 -0.13,-0.42 -0.16,-0.55l0.74 -0.15c0.31,0.9 0.52,1.53 0.62,1.86l-0.81 0.2zm2.48 -0.12c-0.08,-0.28 -0.27,-0.78 -0.58,-1.47 -0.08,-0.19 -0.13,-0.32 -0.16,-0.39l0.74 -0.16c0.31,0.73 0.57,1.33 0.78,1.83l-0.78 0.19z"/>
    <path class="fil2" d="M611.84 221.32l-7.47 -4.29 0 -9.08c0,-1.61 -1.09,-3.49 -2.48,-4.28l-6.1 -3.5c-1.4,-0.81 -3.52,-0.81 -4.92,0l-6.11 3.5c-1.38,0.79 -2.47,2.67 -2.47,4.28l0 9.08 -7.45 4.27c-1.38,0.8 -2.47,2.68 -2.47,4.28l0 7.52c0,1.6 1.08,3.48 2.47,4.28l6.1 3.5c0.71,0.4 1.59,0.6 2.47,0.6 0.88,0 1.76,-0.2 2.46,-0.6l7.45 -4.28 7.49 4.3c0.7,0.4 1.58,0.6 2.46,0.6 0.88,0 1.77,-0.2 2.47,-0.6l6.1 -3.5c1.38,-0.8 2.47,-2.68 2.47,-4.28l0 -7.52c0,-1.6 -1.09,-3.48 -2.47,-4.28zm-18.5 14l0 0 -0.04 -0.07 0.09 0 -0.05 0.07zm-7.48 -29.73l0 0 6.1 -3.5c0.72,-0.41 2.02,-0.41 2.74,0l6.1 3.5c0.71,0.41 1.36,1.53 1.36,2.36l0 9.64 -7.2 4.13c-0.02,0.01 -0.04,0.01 -0.06,0.02 -0.4,-0.4 -0.95,-0.65 -1.56,-0.65 -0.62,-0.01 -1.18,0.25 -1.58,0.66l-0.02 -0.01c-0.02,-0.01 -0.03,-0.03 -0.05,-0.04l-7.19 -4.12 0 -9.63c0,-0.83 0.65,-1.95 1.36,-2.36zm-1.08 33.37l0 0c-0.72,0.41 -2.03,0.41 -2.74,0l-6.1 -3.51c-0.71,-0.41 -1.36,-1.53 -1.36,-2.35l0 -7.52c0,-0.82 0.65,-1.94 1.36,-2.35l8.01 -4.6 -0.05 -0.1 7.23 4.15c0.02,0.01 0.05,0.02 0.08,0.04 -0.05,0.18 -0.09,0.37 -0.09,0.57 0,1.04 0.7,1.9 1.65,2.15 0,0.02 0.01,0.04 0.01,0.06l0 0.02 0 8.84 -8 4.6zm27.32 -5.84l0 0c0,0.82 -0.65,1.94 -1.36,2.35l-6.1 3.5c-0.71,0.41 -2.02,0.41 -2.74,0l-8.01 -4.6 -0.01 0.01 0 -8.86c0,-0.03 0.01,-0.06 0.01,-0.08 0.94,-0.25 1.64,-1.1 1.65,-2.13 0,-0.2 -0.04,-0.39 -0.09,-0.58 0.02,-0.01 0.05,-0.03 0.07,-0.05l7.29 -4.18 -0.08 0.14 8.01 4.61c0.71,0.4 1.36,1.53 1.36,2.35l0 7.52z"/>
   </g>
   <path class="fil1" d="M587.35 182.17l3.19 7.96 -1.32 0 -0.82 -2.14 -3.53 0 -0.82 2.14 -1.32 0 3.19 -7.96 1.43 0zm-0.7 1.05l-0.03 0c-0.08,0.23 -0.16,0.46 -0.24,0.7 -0.02,0.05 -0.42,1.08 -1.2,3.1l2.91 0c-0.77,-2.02 -1.18,-3.05 -1.2,-3.1 0,-0.03 -0.01,-0.08 -0.04,-0.16 -0.13,-0.31 -0.2,-0.49 -0.2,-0.54zm14 5.98l4.11 0 0 0.89 -5.55 0 0 -0.66c0.54,-1.01 1.37,-1.94 2.49,-2.79 1.32,-0.94 1.92,-1.69 1.82,-2.26 -0.02,-0.88 -0.52,-1.33 -1.47,-1.36 -0.86,0 -1.4,0.51 -1.63,1.52l-1.09 -0.35c0.39,-1.42 1.36,-2.14 2.91,-2.14 1.58,0.05 2.42,0.79 2.52,2.22 0.13,0.93 -0.5,1.85 -1.9,2.75 -0.98,0.68 -1.72,1.4 -2.21,2.18zm-2.61 0.93l-6.72 0 0 -0.82 4.97 -6.13 -4.54 0 0 -1.01 6.13 0 0 0.93 -5.04 6.1 5.2 0 0 0.93z"/>
   <g>
    <path class="fil1" d="M574.69 326.18l0 -4.89 7.1 0 0 4.89 -7.1 0zm0.81 -4.12l0 3.38 5.47 0 0 -3.38 -5.47 0zm-1.36 7.93c-0.03,-0.03 -0.08,-0.09 -0.15,-0.2 -0.21,-0.2 -0.37,-0.35 -0.47,-0.42 1.09,-0.75 2.12,-1.65 3.11,-2.68l0.66 0.54c-0.94,0.96 -1.98,1.88 -3.15,2.76zm8.04 -0.04c-0.91,-0.83 -1.96,-1.74 -3.15,-2.72l0.62 -0.54c0.55,0.46 1.3,1.1 2.26,1.9 0.41,0.34 0.72,0.58 0.93,0.74l-0.66 0.62zm3.96 -2.37l0 -0.66 3.42 0c0.1,-0.54 0.15,-1.37 0.15,-2.48l0.74 0c0,1.08 -0.05,1.91 -0.16,2.48l2.45 0 0 0.66 -2.6 0c0,0.03 -0.01,0.07 -0.04,0.12 -0.03,0.07 -0.05,0.13 -0.08,0.15 0.91,0.47 1.8,0.92 2.68,1.36l-0.47 0.7c-0.72,-0.49 -1.57,-0.98 -2.56,-1.47 -0.49,0.54 -1.56,1.08 -3.22,1.63 -0.03,-0.03 -0.05,-0.09 -0.08,-0.2 -0.05,-0.1 -0.15,-0.28 -0.31,-0.54 1.92,-0.44 3,-1.02 3.26,-1.75l-3.18 0zm0.39 -5.21l0 -0.66 2.52 0 0 -1.01 0.74 0 0 1.01 2.64 0 0 0.66 -2.64 0 0 1.02 2.83 0 0 0.62 -0.27 1.28c-0.02,0 -0.05,0 -0.08,0 -0.23,-0.05 -0.44,-0.08 -0.62,-0.08l0.31 -1.2 -5.78 0 0 -0.62 2.87 0 0 -1.02 -2.52 0zm-1.87 7.31l-0.46 -0.59c0.18,-0.15 0.27,-0.36 0.27,-0.62l0 -3.76 -1.01 0 0 -0.7 1.75 0 0 4.43 1.04 -0.74c0.03,0.07 0.04,0.21 0.04,0.39 0.03,0.18 0.04,0.32 0.04,0.42 -0.44,0.24 -0.85,0.5 -1.24,0.78 -0.05,0.05 -0.13,0.13 -0.23,0.23 -0.11,0.08 -0.17,0.13 -0.2,0.16zm0.55 -6.76c-0.42,-0.54 -0.86,-1.06 -1.32,-1.55l0.62 -0.43c0.36,0.39 0.48,0.52 0.35,0.39 0.46,0.52 0.8,0.88 1.01,1.09l-0.66 0.5zm2.95 3.77c-0.39,-0.24 -0.97,-0.52 -1.75,-0.86l0.31 -0.42c0.6,0.2 1.18,0.46 1.75,0.77l-0.31 0.51zm0.66 -1.13c-0.47,-0.28 -1.03,-0.54 -1.67,-0.78l0.27 -0.46c0.26,0.1 0.63,0.26 1.13,0.46 0.26,0.13 0.45,0.22 0.58,0.28l-0.31 0.5zm5 4.39l0 -4.51 5.13 0 0 4.51 -0.7 0 0 -0.54 -3.73 0 0 0.54 -0.7 0zm0.43 -5.21l0 -2.25 4.32 0 0 2.25 -4.32 0zm5.83 5.17c-0.03,-0.1 -0.05,-0.25 -0.08,-0.43 -0.05,-0.13 -0.08,-0.23 -0.08,-0.31 0.39,0 0.73,0 1.01,0 0.44,0.03 0.65,-0.15 0.62,-0.54l0 -7.84 0.7 0 0 7.96c0.03,0.75 -0.32,1.12 -1.05,1.12 -0.23,0.03 -0.6,0.04 -1.12,0.04zm-0.27 -2.14l0 -5.98 0.65 0 0 5.98 -0.65 0zm-6.18 -5.98l0 -0.58 5.52 0 0 0.58 -5.52 0zm1.32 1.28l0 1.09 2.92 0 0 -1.09 -2.92 0zm1.79 4.67l0 1.12 1.51 0 0 -1.12 -1.51 0zm-2.22 0l0 1.12 1.52 0 0 -1.12 -1.52 0zm3.73 -1.71l-1.51 0 0 1.16 1.51 0 0 -1.16zm-3.73 0l0 1.16 1.52 0 0 -1.16 -1.52 0zm9.21 -2.95l0 -0.74 3.92 0 0 -1.63 0.77 0 0 1.63 3.93 0 0 0.74 -3.46 0c0.85,1.86 2.14,3.31 3.84,4.34 -0.23,0.34 -0.38,0.6 -0.46,0.78 -1.81,-1.27 -3.09,-2.83 -3.85,-4.7l0 4 2.1 0 0 0.7 -2.1 0 0 1.78 -0.77 0 0 -1.78 -2.18 0 0 -0.7 2.18 0 0 -3.96c-0.83,1.99 -2.11,3.6 -3.85,4.81 -0.13,-0.28 -0.28,-0.53 -0.46,-0.74 1.73,-1.16 3,-2.67 3.8,-4.53l-3.41 0z"/>
    <path class="fil2" d="M611.84 293.24l-7.47 -4.29 0 -9.09c0,-1.6 -1.09,-3.48 -2.48,-4.28l-6.1 -3.5c-1.4,-0.81 -3.52,-0.81 -4.92,0l-6.11 3.5c-1.38,0.8 -2.47,2.68 -2.47,4.28l0 9.08 -7.45 4.28c-1.38,0.8 -2.47,2.68 -2.47,4.28l0 7.51c0,1.61 1.08,3.49 2.47,4.28l6.1 3.51c0.71,0.4 1.59,0.6 2.47,0.6 0.88,0 1.76,-0.2 2.46,-0.6l7.45 -4.28 7.49 4.29c0.7,0.41 1.58,0.61 2.46,0.61 0.88,0 1.77,-0.2 2.47,-0.61l6.1 -3.5c1.38,-0.79 2.47,-2.67 2.47,-4.28l0 -7.51c0,-1.61 -1.09,-3.49 -2.47,-4.28zm-18.5 14l0 0 -0.04 -0.07 0.09 0 -0.05 0.07zm-7.48 -29.73l0 0 6.1 -3.5c0.72,-0.42 2.02,-0.42 2.74,0l6.1 3.5c0.71,0.41 1.36,1.53 1.36,2.35l0 9.64 -7.2 4.13c-0.02,0.01 -0.04,0.02 -0.06,0.03 -0.4,-0.41 -0.95,-0.66 -1.56,-0.66 -0.62,0 -1.18,0.25 -1.58,0.66l-0.02 0c-0.02,-0.01 -0.03,-0.03 -0.05,-0.04l-7.19 -4.13 0 -9.63c0,-0.82 0.65,-1.94 1.36,-2.35zm-1.08 33.36l0 0c-0.72,0.41 -2.03,0.41 -2.74,0l-6.1 -3.5c-0.71,-0.41 -1.36,-1.53 -1.36,-2.36l0 -7.51c0,-0.82 0.65,-1.95 1.36,-2.36l8.01 -4.6 -0.05 -0.1 7.23 4.16c0.02,0.01 0.05,0.02 0.08,0.03 -0.05,0.19 -0.09,0.38 -0.09,0.58 0,1.03 0.7,1.89 1.65,2.14 0,0.03 0.01,0.05 0.01,0.07l0 0.01 0 8.85 -8 4.59zm27.32 -5.84l0 0c0,0.83 -0.65,1.95 -1.36,2.36l-6.1 3.5c-0.71,0.41 -2.02,0.41 -2.74,0l-8.01 -4.6 -0.01 0.01 0 -8.87c0,-0.02 0.01,-0.05 0.01,-0.08 0.94,-0.25 1.64,-1.1 1.65,-2.12 0,-0.21 -0.04,-0.4 -0.09,-0.58 0.02,-0.02 0.05,-0.04 0.07,-0.05l7.29 -4.19 -0.08 0.15 8.01 4.6c0.71,0.41 1.36,1.53 1.36,2.36l0 7.51z"/>
   </g>
   <g>
    <path class="fil0 str1" d="M560.1 348.42l0 12.48c0,1.62 1.33,2.95 2.96,2.95l60.64 0c1.63,0 2.96,-1.33 2.96,-2.95l0 -12.48c0,-1.63 -1.33,-2.96 -2.96,-2.96l-60.64 0c-1.63,0 -2.96,1.33 -2.96,2.96z"/>
    <path class="fil1" d="M575.64 356.89l0 -0.66 3.42 0c0.1,-0.54 0.16,-1.37 0.16,-2.48l0.73 0c0,1.08 -0.05,1.91 -0.15,2.48l2.44 0 0 0.66 -2.6 0c0,0.03 -0.01,0.07 -0.04,0.12 -0.02,0.08 -0.05,0.13 -0.07,0.15 0.9,0.47 1.79,0.92 2.67,1.36l-0.46 0.7c-0.73,-0.49 -1.58,-0.98 -2.56,-1.47 -0.5,0.54 -1.57,1.08 -3.23,1.63 -0.02,-0.03 -0.05,-0.09 -0.07,-0.2 -0.05,-0.1 -0.16,-0.28 -0.32,-0.54 1.92,-0.44 3.01,-1.02 3.27,-1.75l-3.19 0zm0.39 -5.21l0 -0.66 2.53 0 0 -1.01 0.73 0 0 1.01 2.64 0 0 0.66 -2.64 0 0 1.02 2.84 0 0 0.62 -0.27 1.28c-0.03,0 -0.06,0 -0.08,0 -0.23,-0.05 -0.44,-0.08 -0.62,-0.08l0.31 -1.2 -5.79 0 0 -0.62 2.88 0 0 -1.02 -2.53 0zm-1.86 7.31l-0.47 -0.58c0.18,-0.16 0.27,-0.36 0.27,-0.63l0 -3.76 -1.01 0 0 -0.7 1.75 0 0 4.43 1.05 -0.74c0.03,0.08 0.04,0.21 0.04,0.39 0.03,0.18 0.04,0.32 0.04,0.42 -0.44,0.24 -0.86,0.5 -1.25,0.78 -0.05,0.05 -0.13,0.13 -0.23,0.23 -0.1,0.08 -0.17,0.13 -0.19,0.16zm0.54 -6.76c-0.41,-0.54 -0.85,-1.06 -1.32,-1.55l0.62 -0.43c0.37,0.39 0.48,0.52 0.35,0.39 0.47,0.52 0.8,0.88 1.01,1.09l-0.66 0.5zm2.95 3.77c-0.39,-0.23 -0.97,-0.52 -1.75,-0.86l0.32 -0.42c0.59,0.2 1.17,0.46 1.74,0.77l-0.31 0.51zm0.66 -1.13c-0.46,-0.28 -1.02,-0.54 -1.67,-0.77l0.27 -0.47c0.26,0.1 0.64,0.26 1.13,0.47 0.26,0.12 0.45,0.22 0.58,0.27l-0.31 0.5zm9.91 4.27c-0.03,-0.25 -0.08,-0.53 -0.15,-0.81 0.64,0.03 1.24,0.04 1.78,0.04 0.8,0.05 1.22,-0.25 1.24,-0.89 0.03,-0.24 0.06,-0.68 0.08,-1.32 0.03,-0.39 0.04,-0.68 0.04,-0.86l-6.41 0 0.66 -3.61 0.82 0 -0.16 1 5.52 0 0 0.7 -5.67 0 -0.23 1.21 6.32 0c-0.02,0.47 -0.06,1.13 -0.11,1.98 -0.03,0.47 -0.04,0.81 -0.04,1.01 -0.03,1.04 -0.65,1.55 -1.86,1.55 -0.57,0 -1.18,0 -1.83,0zm-4.42 -6.79l0 -1.82 8.66 0 0 1.82 -0.78 0 0 -1.08 -7.07 0 0 1.08 -0.81 0zm-0.35 4.85l0 -0.7 6.87 0 0 0.7 -6.87 0zm14.68 1.87c-0.03,-0.26 -0.07,-0.53 -0.12,-0.82 0.11,0 0.31,0 0.62,0 0.39,0.03 0.69,0.04 0.9,0.04 0.7,0.05 1.06,-0.28 1.08,-1.01 0.03,-0.26 0.06,-0.66 0.08,-1.2 0.03,-0.57 0.04,-0.97 0.04,-1.21l-3.03 0c-0.02,0.42 -0.07,0.81 -0.15,1.17 -0.18,1.42 -1.16,2.52 -2.91,3.3 -0.13,-0.21 -0.29,-0.43 -0.47,-0.66 1.53,-0.62 2.39,-1.54 2.6,-2.76 0.08,-0.34 0.12,-0.68 0.12,-1.05l-1.67 0 0 -0.73 6.33 0c-0.05,1.52 -0.11,2.61 -0.16,3.26 -0.03,1.11 -0.62,1.65 -1.78,1.63 -0.6,0.02 -1.09,0.04 -1.48,0.04zm4.7 -4.55c-1.63,-0.98 -2.81,-2.39 -3.54,-4.23l0.74 -0.27c0.7,1.73 1.8,2.99 3.3,3.77 -0.2,0.31 -0.37,0.55 -0.5,0.73zm-8.47 0.04c-0.05,-0.13 -0.18,-0.32 -0.38,-0.58 -0.03,-0.08 -0.06,-0.13 -0.08,-0.16 1.42,-0.93 2.52,-2.16 3.3,-3.69l0.78 0.35c-0.99,1.74 -2.19,3.1 -3.62,4.08zm11.08 0.19l0 -2.76 0.74 0 0 2.14 5.86 0 0 -2.14 0.74 0 0 2.76 -3.27 0c-0.05,0.08 -0.13,0.22 -0.23,0.43 -0.1,0.18 -0.18,0.33 -0.23,0.43l4.07 0 0 2.56c0.03,0.73 -0.28,1.08 -0.93,1.05 -0.23,0.03 -0.65,0.04 -1.24,0.04 0,-0.03 0,-0.06 0,-0.12 -0.03,-0.13 -0.08,-0.31 -0.16,-0.54 0.36,0 0.7,0 1.01,0 0.42,0.03 0.61,-0.13 0.58,-0.47l0 -1.9 -3.72 0c-0.13,0.26 -0.36,0.62 -0.7,1.09 -0.05,0.08 -0.09,0.13 -0.12,0.15 0.44,-0.02 1.23,-0.06 2.37,-0.11 -0.05,-0.08 -0.15,-0.21 -0.31,-0.39 -0.13,-0.16 -0.23,-0.27 -0.31,-0.35l0.5 -0.35c0.55,0.57 1.07,1.14 1.56,1.71l-0.58 0.35c-0.11,-0.13 -0.24,-0.26 -0.39,-0.39 -0.26,0 -0.65,0.01 -1.17,0.04 -0.8,0.03 -1.37,0.05 -1.7,0.08 -0.06,0 -0.13,0.01 -0.24,0.03 -0.23,0 -0.4,0.03 -0.5,0.08l-0.31 -0.66c0.23,-0.13 0.44,-0.32 0.62,-0.58 0.15,-0.21 0.31,-0.44 0.46,-0.7l-2.01 0 0 3.07 -0.74 0 0 -3.69 3.14 0c0.05,-0.1 0.13,-0.25 0.23,-0.43 0.08,-0.21 0.15,-0.35 0.2,-0.43l-3.22 0zm-0.9 -3.26l0 -0.62 4.31 0c-0.07,-0.28 -0.15,-0.54 -0.23,-0.78l0.85 -0.11c0.08,0.28 0.16,0.58 0.24,0.89l4 0 0 0.62 -9.17 0zm6.57 2.37c-0.65,-0.26 -1.29,-0.5 -1.91,-0.74 -0.7,0.29 -1.43,0.55 -2.21,0.78 -0.03,-0.05 -0.08,-0.14 -0.16,-0.27 -0.07,-0.1 -0.14,-0.18 -0.19,-0.23 0.6,-0.16 1.2,-0.35 1.83,-0.59l-1.67 -0.62 0.35 -0.46c0.31,0.13 0.77,0.29 1.39,0.5 0.31,0.13 0.55,0.22 0.7,0.27 0.62,-0.23 1.19,-0.49 1.71,-0.77l0.39 0.42c-0.18,0.11 -0.44,0.24 -0.78,0.39 -0.26,0.13 -0.45,0.22 -0.58,0.27 0.26,0.08 0.65,0.22 1.16,0.43 0.13,0.05 0.24,0.09 0.31,0.12l-0.34 0.5z"/>
   </g>
   <g>
    <path class="fil2" d="M498.79 52.89l0 71.51 -0.71 0 0 -71.51 0.36 -0.35 0.35 0.35zm-0.71 0l0 -0.35 0.36 0 -0.36 0.35zm64.83 0.35l-64.47 0 0 -0.7 64.47 0 0 0.7zm4.09 -0.35l-4.31 2.16 0 -4.31 4.31 2.15z"/>
   </g>
   <g>
    <path class="fil2" d="M498.08 124.4l0 -31.4 0.71 0 0 31.4 -0.35 0.35 -0.36 -0.35zm0.36 0.35l-0.36 0 0 -0.35 0.36 0.35zm64.47 0l-64.47 0 0 -0.7 64.47 0 0 0.7zm4.09 -0.35l-4.31 2.16 0 -4.31 4.31 2.15z"/>
   </g>
   <g>
    <path class="fil0 str2" d="M513.21 59.58l0 -13.37c0,-0.59 0.48,-1.07 1.06,-1.07l13.38 0c0.59,0 1.06,0.48 1.06,1.07l0 13.37c0,0.59 -0.47,1.07 -1.06,1.07l-13.38 0c-0.58,0 -1.06,-0.48 -1.06,-1.07z"/>
    <path class="fil1" d="M521.21 57.24c-0.05,-0.33 -0.11,-0.67 -0.19,-1 0.41,0 1.01,0 1.78,0 0.73,0.05 1.09,-0.22 1.09,-0.82 0.03,-0.18 0.05,-0.53 0.08,-1.05 0.03,-0.44 0.04,-0.74 0.04,-0.89l-6.33 0 0.58 -3.62 1.09 0 -0.16 0.82 5.36 0 0 0.89 -5.47 0 -0.2 1.01 6.25 0c-0.02,0.45 -0.06,1.09 -0.11,1.95 -0.03,0.49 -0.04,0.84 -0.04,1.04 0,1.09 -0.63,1.64 -1.9,1.64l-1.87 0.03zm-4.46 -6.68l0 -2.02 8.74 0 0 2.02 -1.01 0 0 -1.09 -6.68 0 0 1.09 -1.05 0zm-0.31 4.78l0 -0.93 6.83 0 0 0.93 -6.83 0z"/>
   </g>
   <g>
    <path class="fil0 str2" d="M513.21 131.13l0 -13.38c0,-0.58 0.48,-1.06 1.06,-1.06l13.38 0c0.59,0 1.06,0.48 1.06,1.06l0 13.38c0,0.58 -0.47,1.06 -1.06,1.06l-13.38 0c-0.58,0 -1.06,-0.48 -1.06,-1.06z"/>
    <path class="fil1" d="M519.5 128.98c-0.15,-0.36 -0.32,-0.68 -0.5,-0.97 1.84,-0.33 2.9,-0.81 3.18,-1.43l-2.95 0c0,0.26 0.03,0.53 0.08,0.81 -0.05,0.03 -0.13,0.08 -0.23,0.16 -0.44,0.28 -0.75,0.5 -0.93,0.66 -0.06,0.05 -0.12,0.11 -0.2,0.19 -0.13,0.11 -0.22,0.2 -0.27,0.27l-0.62 -0.77c0.18,-0.16 0.27,-0.42 0.27,-0.78l0 -3.34 -0.93 0 0 -0.93 1.94 0 0 4.11c0.08,-0.05 0.22,-0.15 0.43,-0.31 0.18,-0.15 0.31,-0.26 0.39,-0.31l0 -0.62 3.26 0c0.1,-0.49 0.15,-1.28 0.15,-2.37l1.01 0c0,1.04 -0.05,1.83 -0.15,2.37l2.29 0 0 0.86 -2.49 0c0,0.02 -0.01,0.07 -0.04,0.15 0.03,-0.05 0.02,-0.04 -0.04,0.04 0.16,0.08 0.38,0.18 0.66,0.31 0.86,0.41 1.49,0.7 1.91,0.86l-0.59 0.89c-0.7,-0.44 -1.51,-0.88 -2.44,-1.32 -0.57,0.52 -1.63,1.01 -3.19,1.47zm0.01 -7.61l0 -0.86 2.44 0 0 -0.93 1.01 0 0 0.93 2.49 0 0 0.86 -2.49 0 0 0.82 2.68 0 0 0.82 -0.27 1.32c-0.05,0 -0.13,-0.01 -0.23,-0.04 -0.29,-0.05 -0.51,-0.08 -0.66,-0.08l0.27 -1.2 -5.59 0 0 -0.82 2.79 0 0 -0.82 -2.44 0zm-1.48 0.58c-0.18,-0.23 -0.47,-0.59 -0.86,-1.08 -0.18,-0.24 -0.32,-0.42 -0.42,-0.55l0.81 -0.54c0.55,0.6 1,1.13 1.36,1.59l-0.89 0.58zm3.14 3.65c-0.69,-0.33 -1.32,-0.6 -1.86,-0.81l0.35 -0.5c0.72,0.25 1.35,0.49 1.86,0.69l-0.35 0.62zm0.62 -1.12c-0.41,-0.21 -1.02,-0.45 -1.82,-0.74l0.31 -0.54c0.67,0.2 1.31,0.42 1.9,0.66l-0.39 0.62z"/>
   </g>
   <g>
    <path class="fil2" d="M498.79 222.26l0 53.73 -0.71 0 0 -53.73 0.36 -0.35 0.35 0.35zm-0.71 0l0 -0.35 0.36 0 -0.36 0.35zm64.83 0.36l-64.47 0 0 -0.71 64.47 0 0 0.71zm4.09 -0.36l-4.31 2.16 0 -4.31 4.31 2.15z"/>
   </g>
   <g>
    <path class="fil2" d="M498.08 293.77l0 -71.51 0.71 0 0 71.51 -0.35 0.36 -0.36 -0.36zm0.36 0.36l-0.36 0 0 -0.36 0.36 0.36zm64.47 0l-64.47 0 0 -0.71 64.47 0 0 0.71zm4.09 -0.36l-4.31 2.16 0 -4.31 4.31 2.15z"/>
   </g>
   <g>
    <path class="fil0 str2" d="M513.21 228.95l0 -13.37c0,-0.59 0.48,-1.07 1.06,-1.07l13.38 0c0.59,0 1.06,0.48 1.06,1.07l0 13.37c0,0.59 -0.47,1.07 -1.06,1.07l-13.38 0c-0.58,0 -1.06,-0.48 -1.06,-1.07z"/>
    <path class="fil1" d="M521.21 226.62c-0.05,-0.34 -0.11,-0.68 -0.19,-1.01 0.41,0 1.01,0 1.78,0 0.73,0.05 1.09,-0.22 1.09,-0.82 0.03,-0.18 0.05,-0.53 0.08,-1.05 0.03,-0.44 0.04,-0.74 0.04,-0.89l-6.33 0 0.58 -3.62 1.09 0 -0.16 0.82 5.36 0 0 0.89 -5.47 0 -0.2 1.02 6.25 0c-0.02,0.44 -0.06,1.08 -0.11,1.94 -0.03,0.49 -0.04,0.84 -0.04,1.05 0,1.08 -0.63,1.63 -1.9,1.63l-1.87 0.04zm-4.46 -6.69l0 -2.02 8.74 0 0 2.02 -1.01 0 0 -1.09 -6.68 0 0 1.09 -1.05 0zm-0.31 4.78l0 -0.93 6.83 0 0 0.93 -6.83 0z"/>
   </g>
   <g>
    <path class="fil0 str2" d="M513.21 300.5l0 -13.38c0,-0.58 0.48,-1.06 1.06,-1.06l13.38 0c0.59,0 1.06,0.48 1.06,1.06l0 13.38c0,0.58 -0.47,1.06 -1.06,1.06l-13.38 0c-0.58,0 -1.06,-0.48 -1.06,-1.06z"/>
    <path class="fil1" d="M519.5 298.36c-0.15,-0.37 -0.32,-0.69 -0.5,-0.98 1.84,-0.33 2.9,-0.81 3.18,-1.43l-2.95 0c0,0.26 0.03,0.53 0.08,0.81 -0.05,0.03 -0.13,0.08 -0.23,0.16 -0.44,0.28 -0.75,0.5 -0.93,0.66 -0.06,0.05 -0.12,0.11 -0.2,0.19 -0.13,0.11 -0.22,0.2 -0.27,0.27l-0.62 -0.77c0.18,-0.16 0.27,-0.42 0.27,-0.78l0 -3.34 -0.93 0 0 -0.93 1.94 0 0 4.12c0.08,-0.06 0.22,-0.16 0.43,-0.31 0.18,-0.16 0.31,-0.26 0.39,-0.32l0 -0.62 3.26 0c0.1,-0.49 0.15,-1.28 0.15,-2.37l1.01 0c0,1.04 -0.05,1.83 -0.15,2.37l2.29 0 0 0.86 -2.49 0c0,0.02 -0.01,0.08 -0.04,0.15 0.03,-0.05 0.02,-0.04 -0.04,0.04 0.16,0.08 0.38,0.18 0.66,0.31 0.86,0.42 1.49,0.7 1.91,0.86l-0.59 0.89c-0.7,-0.44 -1.51,-0.88 -2.44,-1.32 -0.57,0.52 -1.63,1.01 -3.19,1.48zm0.01 -7.62l0 -0.85 2.44 0 0 -0.94 1.01 0 0 0.94 2.49 0 0 0.85 -2.49 0 0 0.83 2.68 0 0 0.81 -0.27 1.32c-0.05,0 -0.13,-0.01 -0.23,-0.04 -0.29,-0.05 -0.51,-0.08 -0.66,-0.08l0.27 -1.2 -5.59 0 0 -0.81 2.79 0 0 -0.83 -2.44 0zm-1.48 0.59c-0.18,-0.24 -0.47,-0.6 -0.86,-1.09 -0.18,-0.23 -0.32,-0.41 -0.42,-0.54l0.81 -0.55c0.55,0.6 1,1.13 1.36,1.6l-0.89 0.58zm3.14 3.65c-0.69,-0.34 -1.32,-0.61 -1.86,-0.82l0.35 -0.5c0.72,0.26 1.35,0.49 1.86,0.69l-0.35 0.63zm0.62 -1.13c-0.41,-0.21 -1.02,-0.45 -1.82,-0.74l0.31 -0.54c0.67,0.21 1.31,0.43 1.9,0.66l-0.39 0.62z"/>
   </g>
   <g>
    <path class="fil2" d="M410.31 256.61l0.07 0 0.07 0.01 0.07 0.01 0.07 0.01 0.07 0.01 0.07 0.02 0.06 0.03 0.07 0.02 0.06 0.03 0.06 0.03 0.06 0.03 0.05 0.04 0.06 0.04 0.05 0.04 0.05 0.05 0.05 0.04 0.05 0.05 0.04 0.05 0.05 0.06 0.04 0.05 0.03 0.06 0.04 0.06 0.03 0.06 0.03 0.06 0.02 0.07 0.02 0.06 0.02 0.07 0.02 0.07 0.01 0.06 0.01 0.07 0.01 0.08 0 0.07 0 0 0 0.07 -0.01 0.07 -0.01 0.07 -0.01 0.07 -0.02 0.07 -0.02 0.07 -0.02 0.06 -0.02 0.07 -0.03 0.06 -0.03 0.06 -0.04 0.06 -0.03 0.06 -0.04 0.05 -0.05 0.05 -0.04 0.06 -0.05 0.04 -0.05 0.05 -0.05 0.05 -0.05 0.04 -0.06 0.04 -0.05 0.03 -0.06 0.04 -0.06 0.03 -0.06 0.03 -0.07 0.02 -0.06 0.02 -0.07 0.02 -0.07 0.02 -0.07 0.01 -0.07 0.01 -0.07 0.01 -0.07 0 0 0 -0.07 0 -0.07 -0.01 -0.08 -0.01 -0.06 -0.01 -0.07 -0.02 -0.07 -0.02 -0.06 -0.02 -0.07 -0.02 -0.06 -0.03 -0.06 -0.03 -0.06 -0.04 -0.06 -0.03 -0.05 -0.04 -0.06 -0.04 -0.05 -0.05 -0.05 -0.05 -0.04 -0.04 -0.05 -0.06 -0.04 -0.05 -0.04 -0.05 -0.04 -0.06 -0.03 -0.06 -0.03 -0.06 -0.03 -0.06 -0.02 -0.07 -0.03 -0.06 -0.02 -0.07 -0.01 -0.07 -0.01 -0.07 -0.01 -0.07 -0.01 -0.07 0 -0.07 0 0 0 -0.07 0.01 -0.08 0.01 -0.07 0.01 -0.06 0.01 -0.07 0.02 -0.07 0.03 -0.06 0.02 -0.07 0.03 -0.06 0.03 -0.06 0.03 -0.06 0.04 -0.06 0.04 -0.05 0.04 -0.06 0.05 -0.05 0.04 -0.05 0.05 -0.04 0.05 -0.05 0.06 -0.04 0.05 -0.04 0.06 -0.04 0.06 -0.03 0.06 -0.03 0.06 -0.03 0.07 -0.02 0.06 -0.03 0.07 -0.02 0.07 -0.01 0.06 -0.01 0.08 -0.01 0.07 -0.01 0.07 0 0 0zm88.13 1.76l-88.13 0 0 -0.7 88.13 0 0 0.7z"/>
   </g>
   <g>
    <path class="fil1" d="M121.46 351.3l-5.94 0 0 -7.84 5.74 0 0 0.78 -4.81 0 0 2.68 4.54 0 0 0.73 -4.54 0 0 3 5.01 0 0 0.65zm6.6 0.04l-5.17 0 0 -7.84 0.89 0 0 7.15 4.28 0 0 0.69zm4.66 -0.04l-3.46 0 0 -7.84 3.22 0c1.58,0.08 2.44,0.71 2.56,1.9 0,1.04 -0.54,1.65 -1.63,1.83l0 0.04c1.27,0.2 1.93,0.85 1.98,1.94 -0.02,1.4 -0.91,2.11 -2.67,2.13zm-0.31 -3.68l-2.26 0 0 3.03 2.37 0c1.3,0 1.94,-0.53 1.94,-1.6 -0.07,-0.93 -0.76,-1.41 -2.05,-1.43zm-0.12 -3.42l-2.14 0 0 2.72 2.14 0c1.19,-0.03 1.8,-0.52 1.82,-1.48 -0.05,-0.8 -0.66,-1.21 -1.82,-1.24z"/>
    <path class="fil2" d="M143.59 323.83c-0.26,0 -0.5,0.05 -0.74,0.11l-14.84 -21.67c0.52,-0.58 0.85,-1.34 0.85,-2.17 0,-1.82 -1.53,-3.31 -3.41,-3.31 -1.87,0 -3.4,1.49 -3.4,3.31 0,0.86 0.35,1.64 0.9,2.23l-14.83 21.63c-0.26,-0.08 -0.52,-0.13 -0.8,-0.13 -1.57,0 -2.84,1.24 -2.84,2.76 0,1.52 1.27,2.76 2.84,2.76 0.41,0 0.8,-0.09 1.15,-0.24l13.6 6.49c0.1,1.74 1.57,3.13 3.38,3.13 1.82,0 3.3,-1.4 3.39,-3.15l13.63 -6.46c0.34,0.15 0.72,0.23 1.12,0.23 1.57,0 2.84,-1.24 2.84,-2.76 0,-1.52 -1.27,-2.76 -2.84,-2.76zm-2.83 2.76l0 0c0,0.29 0.06,0.56 0.14,0.82l-12.73 6.03c-0.4,-0.51 -0.95,-0.91 -1.58,-1.13l0 -29.1c0.19,-0.06 0.36,-0.15 0.54,-0.24l14.7 21.48c-0.65,0.5 -1.07,1.27 -1.07,2.14zm-16.91 -23.58l0 0c0.15,0.07 0.31,0.14 0.47,0.2l0 29.1c-0.64,0.23 -1.19,0.62 -1.59,1.15l-12.71 -6.08c0.08,-0.25 0.13,-0.51 0.13,-0.79 0,-0.85 -0.4,-1.6 -1.03,-2.11l14.73 -21.47zm-18.23 23.58l0 0c0,-0.91 0.76,-1.65 1.7,-1.65 0.94,0 1.7,0.74 1.7,1.65 0,0.91 -0.76,1.66 -1.7,1.66 -0.94,0 -1.7,-0.75 -1.7,-1.66zm19.83 11.04l0 0c-1.25,0 -2.26,-0.99 -2.26,-2.21 0,-1.22 1.01,-2.21 2.26,-2.21 1.25,0 2.27,0.99 2.27,2.21 0,1.22 -1.02,2.21 -2.27,2.21zm18.14 -9.38l0 0c-0.94,0 -1.7,-0.75 -1.7,-1.66 0,-0.91 0.76,-1.65 1.7,-1.65 0.94,0 1.7,0.74 1.7,1.65 0,0.91 -0.76,1.66 -1.7,1.66z"/>
   </g>
   <g>
    <path class="fil0 str0" d="M199.43 436.94l0 -233.38c0,-2.66 2.19,-4.85 4.86,-4.85l60.9 0c2.67,0 4.85,2.19 4.85,4.85l0 233.38c0,2.66 -2.18,4.85 -4.85,4.85l-60.9 0c-2.67,0 -4.86,-2.19 -4.86,-4.85z"/>
    <g>
     <path class="fil1" d="M229.9 284.19l-5.94 0 0 -7.84 5.75 0 0 0.78 -4.82 0 0 2.67 4.55 0 0 0.74 -4.55 0 0 2.99 5.01 0 0 0.66zm8.08 -5.63l-0.93 0.24c-0.39,-1.12 -1.17,-1.7 -2.33,-1.75 -1.68,0.13 -2.58,1.21 -2.68,3.26 0.08,2.07 0.96,3.17 2.64,3.3 1.34,-0.03 2.17,-0.74 2.48,-2.14l0.94 0.28c-0.42,1.7 -1.56,2.57 -3.42,2.6 -2.28,-0.16 -3.48,-1.49 -3.61,-4 0.13,-2.62 1.36,-3.99 3.69,-4.12 1.55,0.05 2.62,0.83 3.22,2.33zm1.09 3.34l0.93 -0.27c0.15,1.37 0.96,2.04 2.41,2.02 1.29,-0.03 1.98,-0.53 2.06,-1.52 0.07,-0.7 -0.59,-1.2 -1.99,-1.51 -0.02,0 -0.05,-0.01 -0.07,-0.04 -0.08,-0.02 -0.22,-0.06 -0.43,-0.12 -1.84,-0.31 -2.72,-1 -2.64,-2.09 0.08,-1.35 1.01,-2.05 2.79,-2.1 1.79,0 2.83,0.7 3.11,2.1l-0.97 0.23c-0.18,-1.04 -0.87,-1.57 -2.06,-1.59 -1.16,0.05 -1.8,0.5 -1.9,1.36 -0.08,0.64 0.62,1.11 2.1,1.39 0.07,0 0.18,0.03 0.31,0.08 0.15,0.03 0.26,0.06 0.31,0.08 1.68,0.41 2.48,1.15 2.4,2.21 -0.1,1.43 -1.08,2.17 -2.95,2.22 -1.94,0.05 -3.08,-0.77 -3.41,-2.45z"/>
     <path class="fil2" d="M234.74 254.04c-0.79,0 -1.43,0.65 -1.43,1.43 0,0.79 0.64,1.43 1.43,1.43 0.79,0 1.43,-0.64 1.43,-1.43 0,-0.78 -0.64,-1.43 -1.43,-1.43z"/>
     <path class="fil2" d="M244.49 262.62l-19.5 0c-0.27,0 -0.48,0.22 -0.48,0.48 0,0.26 0.21,0.48 0.48,0.48l19.5 0c0.26,0 0.48,-0.22 0.48,-0.48 0,-0.26 -0.22,-0.48 -0.48,-0.48z"/>
     <path class="fil2" d="M241.89 251.19l-14.3 0c-2.37,0 -4.29,1.92 -4.29,4.28 0,2.37 1.92,4.29 4.29,4.29l14.3 0c2.37,0 4.29,-1.92 4.29,-4.29 0,-2.36 -1.92,-4.28 -4.29,-4.28zm0 7.62l0 0 -14.3 0c-1.84,0 -3.34,-1.5 -3.34,-3.34 0,-1.84 1.5,-3.33 3.34,-3.33l14.3 0c1.84,0 3.33,1.49 3.33,3.33 0,1.84 -1.49,3.34 -3.33,3.34z"/>
     <path class="fil2" d="M245.54 245.54c-1.55,-4.48 -5.8,-7.7 -10.8,-7.7 -5.01,0 -9.25,3.22 -10.8,7.7 -5.72,0.63 -10.17,5.48 -10.17,11.36 0,6.32 5.12,11.44 11.44,11.44l19.06 0c6.32,0 11.44,-5.12 11.44,-11.44 0,-5.88 -4.45,-10.73 -10.17,-11.36zm-1.27 20.9l0 0 -19.06 0c-5.26,0 -9.54,-4.28 -9.54,-9.54 0,-4.86 3.65,-8.93 8.48,-9.47 0.73,-0.08 1.35,-0.57 1.59,-1.27 1.33,-3.83 4.94,-6.41 9,-6.41 4.05,0 7.67,2.58 9,6.41 0.24,0.7 0.86,1.19 1.59,1.27 4.83,0.54 8.47,4.61 8.47,9.47 0,5.26 -4.27,9.54 -9.53,9.54z"/>
    </g>
    <g>
     <path class="fil1" d="M229.9 349.02l-5.94 0 0 -7.84 5.75 0 0 0.78 -4.82 0 0 2.67 4.55 0 0 0.74 -4.55 0 0 2.99 5.01 0 0 0.66zm8.08 -5.63l-0.93 0.24c-0.39,-1.12 -1.17,-1.7 -2.33,-1.75 -1.68,0.13 -2.58,1.21 -2.68,3.26 0.08,2.07 0.96,3.17 2.64,3.3 1.34,-0.03 2.17,-0.74 2.48,-2.14l0.94 0.28c-0.42,1.7 -1.56,2.57 -3.42,2.6 -2.28,-0.16 -3.48,-1.49 -3.61,-4 0.13,-2.62 1.36,-3.99 3.69,-4.12 1.55,0.05 2.62,0.83 3.22,2.33zm1.09 3.34l0.93 -0.27c0.15,1.37 0.96,2.04 2.41,2.02 1.29,-0.03 1.98,-0.53 2.06,-1.52 0.07,-0.7 -0.59,-1.2 -1.99,-1.51 -0.02,0 -0.05,-0.01 -0.07,-0.04 -0.08,-0.02 -0.22,-0.06 -0.43,-0.12 -1.84,-0.31 -2.72,-1 -2.64,-2.09 0.08,-1.35 1.01,-2.05 2.79,-2.1 1.79,0 2.83,0.7 3.11,2.1l-0.97 0.23c-0.18,-1.03 -0.87,-1.57 -2.06,-1.59 -1.16,0.05 -1.8,0.5 -1.9,1.36 -0.08,0.64 0.62,1.11 2.1,1.4 0.07,0 0.18,0.02 0.31,0.07 0.15,0.03 0.26,0.06 0.31,0.08 1.68,0.41 2.48,1.15 2.4,2.21 -0.1,1.43 -1.08,2.17 -2.95,2.22 -1.94,0.05 -3.08,-0.77 -3.41,-2.45z"/>
     <path class="fil2" d="M234.74 318.87c-0.79,0 -1.43,0.65 -1.43,1.43 0,0.79 0.64,1.43 1.43,1.43 0.79,0 1.43,-0.64 1.43,-1.43 0,-0.78 -0.64,-1.43 -1.43,-1.43z"/>
     <path class="fil2" d="M244.49 327.45l-19.5 0c-0.27,0 -0.48,0.22 -0.48,0.48 0,0.26 0.21,0.48 0.48,0.48l19.5 0c0.26,0 0.48,-0.22 0.48,-0.48 0,-0.26 -0.22,-0.48 -0.48,-0.48z"/>
     <path class="fil2" d="M241.89 316.02l-14.3 0c-2.37,0 -4.29,1.92 -4.29,4.28 0,2.37 1.92,4.29 4.29,4.29l14.3 0c2.37,0 4.29,-1.92 4.29,-4.29 0,-2.36 -1.92,-4.28 -4.29,-4.28zm0 7.62l0 0 -14.3 0c-1.84,0 -3.34,-1.5 -3.34,-3.34 0,-1.84 1.5,-3.33 3.34,-3.33l14.3 0c1.84,0 3.33,1.49 3.33,3.33 0,1.84 -1.49,3.34 -3.33,3.34z"/>
     <path class="fil2" d="M245.54 310.37c-1.55,-4.48 -5.8,-7.7 -10.8,-7.7 -5.01,0 -9.25,3.22 -10.8,7.7 -5.72,0.63 -10.17,5.48 -10.17,11.36 0,6.32 5.12,11.44 11.44,11.44l19.06 0c6.32,0 11.44,-5.12 11.44,-11.44 0,-5.88 -4.45,-10.73 -10.17,-11.36zm-1.27 20.9l0 0 -19.06 0c-5.26,0 -9.54,-4.28 -9.54,-9.54 0,-4.86 3.65,-8.93 8.48,-9.47 0.73,-0.08 1.35,-0.57 1.59,-1.27 1.33,-3.83 4.94,-6.41 9,-6.41 4.05,0 7.67,2.58 9,6.41 0.24,0.7 0.86,1.19 1.59,1.27 4.83,0.54 8.47,4.61 8.47,9.47 0,5.26 -4.27,9.54 -9.53,9.54z"/>
    </g>
    <g>
     <path class="fil1" d="M229.9 413.85l-5.94 0 0 -7.84 5.75 0 0 0.78 -4.82 0 0 2.67 4.55 0 0 0.74 -4.55 0 0 2.99 5.01 0 0 0.66zm8.08 -5.63l-0.93 0.24c-0.39,-1.12 -1.17,-1.7 -2.33,-1.75 -1.68,0.13 -2.58,1.21 -2.68,3.26 0.08,2.07 0.96,3.17 2.64,3.3 1.34,-0.03 2.17,-0.74 2.48,-2.14l0.94 0.28c-0.42,1.7 -1.56,2.57 -3.42,2.6 -2.28,-0.16 -3.48,-1.49 -3.61,-4 0.13,-2.62 1.36,-3.99 3.69,-4.12 1.55,0.05 2.62,0.83 3.22,2.33zm1.09 3.34l0.93 -0.27c0.15,1.37 0.96,2.04 2.41,2.02 1.29,-0.03 1.98,-0.53 2.06,-1.52 0.07,-0.7 -0.59,-1.2 -1.99,-1.51 -0.02,0 -0.05,-0.01 -0.07,-0.04 -0.08,-0.02 -0.22,-0.06 -0.43,-0.12 -1.84,-0.31 -2.72,-1 -2.64,-2.09 0.08,-1.35 1.01,-2.05 2.79,-2.1 1.79,0 2.83,0.7 3.11,2.1l-0.97 0.23c-0.18,-1.04 -0.87,-1.57 -2.06,-1.59 -1.16,0.05 -1.8,0.5 -1.9,1.36 -0.08,0.64 0.62,1.11 2.1,1.4 0.07,0 0.18,0.02 0.31,0.07 0.15,0.03 0.26,0.06 0.31,0.08 1.68,0.41 2.48,1.15 2.4,2.21 -0.1,1.43 -1.08,2.17 -2.95,2.22 -1.94,0.05 -3.08,-0.77 -3.41,-2.45z"/>
     <path class="fil2" d="M234.74 383.7c-0.79,0 -1.43,0.65 -1.43,1.43 0,0.79 0.64,1.43 1.43,1.43 0.79,0 1.43,-0.64 1.43,-1.43 0,-0.78 -0.64,-1.43 -1.43,-1.43z"/>
     <path class="fil2" d="M244.49 392.28l-19.5 0c-0.27,0 -0.48,0.22 -0.48,0.48 0,0.26 0.21,0.48 0.48,0.48l19.5 0c0.26,0 0.48,-0.22 0.48,-0.48 0,-0.26 -0.22,-0.48 -0.48,-0.48z"/>
     <path class="fil2" d="M241.89 380.85l-14.3 0c-2.37,0 -4.29,1.92 -4.29,4.28 0,2.37 1.92,4.29 4.29,4.29l14.3 0c2.37,0 4.29,-1.92 4.29,-4.29 0,-2.36 -1.92,-4.28 -4.29,-4.28zm0 7.62l0 0 -14.3 0c-1.84,0 -3.34,-1.5 -3.34,-3.34 0,-1.84 1.5,-3.33 3.34,-3.33l14.3 0c1.84,0 3.33,1.49 3.33,3.33 0,1.84 -1.49,3.34 -3.33,3.34z"/>
     <path class="fil2" d="M245.54 375.2c-1.55,-4.48 -5.8,-7.7 -10.8,-7.7 -5.01,0 -9.25,3.22 -10.8,7.7 -5.72,0.63 -10.17,5.48 -10.17,11.36 0,6.32 5.12,11.44 11.44,11.44l19.06 0c6.32,0 11.44,-5.12 11.44,-11.44 0,-5.88 -4.45,-10.73 -10.17,-11.36zm-1.27 20.9l0 0 -19.06 0c-5.26,0 -9.54,-4.28 -9.54,-9.54 0,-4.86 3.65,-8.93 8.48,-9.47 0.73,-0.08 1.35,-0.57 1.59,-1.27 1.33,-3.83 4.94,-6.41 9,-6.41 4.05,0 7.67,2.58 9,6.41 0.24,0.7 0.86,1.19 1.59,1.27 4.83,0.54 8.47,4.61 8.47,9.47 0,5.26 -4.27,9.54 -9.53,9.54z"/>
    </g>
    <path class="fil1" d="M215.12 220.33c-0.03,-0.02 -0.08,-0.06 -0.16,-0.11 -0.33,-0.29 -0.57,-0.5 -0.7,-0.63 0.39,-0.59 0.64,-1.19 0.74,-1.78 0.13,-0.57 0.2,-1.41 0.2,-2.53l0 -2.98 3.8 0c-0.02,-0.08 -0.06,-0.21 -0.11,-0.39 -0.13,-0.39 -0.21,-0.65 -0.24,-0.78l1.21 -0.12c0.02,0.13 0.1,0.4 0.23,0.82 0.05,0.21 0.09,0.36 0.12,0.47l3.33 0 0 0.93 -7.33 0 0 2.02c0.05,2.25 -0.32,3.94 -1.09,5.08zm1.12 -0.46l0 -0.9 4.35 0c0.6,-1.6 1.13,-3.24 1.6,-4.93l1 0.31c-0.62,1.94 -1.13,3.49 -1.55,4.62l1.98 0 0 0.9 -7.38 0zm1.36 -1.56c-0.23,-0.96 -0.58,-2.21 -1.05,-3.77l0.9 -0.23c0.23,0.62 0.52,1.51 0.85,2.68 0.13,0.44 0.24,0.78 0.31,1.01l-1.01 0.31zm2.14 -0.54c-0.13,-0.7 -0.38,-1.83 -0.74,-3.38 -0.03,-0.16 -0.05,-0.27 -0.08,-0.35l0.97 -0.2c0.08,0.29 0.18,0.7 0.32,1.25 0.1,0.46 0.29,1.28 0.58,2.44l-1.05 0.24zm5.98 2.63c-0.1,-0.05 -0.26,-0.14 -0.46,-0.27 -0.24,-0.13 -0.4,-0.23 -0.51,-0.31 0.39,-0.59 0.65,-1.18 0.78,-1.75 0.13,-0.57 0.19,-1.42 0.19,-2.56l0 -3.96 7.93 0 0 7.42c0.05,0.85 -0.38,1.26 -1.28,1.24 -0.34,0.02 -0.75,0.04 -1.24,0.04 -0.03,-0.08 -0.06,-0.2 -0.08,-0.35 -0.05,-0.29 -0.1,-0.51 -0.16,-0.66 0.13,0 0.31,0.01 0.55,0.04 0.23,0 0.4,0 0.5,0 0.47,0.02 0.69,-0.15 0.66,-0.51l0 -1.28 -2.45 0 0 2.64 -1.05 0 0 -2.64 -2.37 0c-0.05,0.93 -0.39,1.9 -1.01,2.91zm6.88 -7.88l-2.45 0 0 1.55 2.45 0 0 -1.55zm-2.45 2.49l0 1.55 2.45 0 0 -1.55 -2.45 0zm-3.34 0.5c0,0.13 -0.01,0.32 -0.04,0.58 0,0.21 0,0.37 0,0.47l2.33 0 0 -1.55 -2.29 0 0 0.5zm0 -2.99l0 1.55 2.29 0 0 -1.55 -2.29 0zm17.4 7.77c-0.72,-0.42 -1.33,-0.81 -1.82,-1.17 -0.41,0.34 -0.92,0.71 -1.51,1.13l-0.43 -0.62 0 0.7 -0.97 0 0 -8.77 4.66 0c0,0.18 -0.02,0.43 -0.04,0.74 0,0.36 -0.01,0.62 -0.04,0.77 -0.03,0.83 -0.47,1.24 -1.32,1.24 -0.39,0 -0.84,0 -1.36,0 -0.02,-0.25 -0.08,-0.53 -0.15,-0.81 0.41,0 0.77,0 1.08,0 0.52,0.03 0.79,-0.16 0.82,-0.54 0,-0.18 0,-0.37 0,-0.55l-2.68 0 0 2.52 3.76 0 0 0.97c-0.36,1.09 -0.76,1.92 -1.2,2.48 0.47,0.39 1.04,0.73 1.71,1.01 -0.08,0.13 -0.19,0.33 -0.35,0.59 -0.08,0.15 -0.13,0.26 -0.16,0.31zm-8.22 0.08c-0.13,-0.1 -0.32,-0.28 -0.55,-0.54 -0.08,-0.08 -0.14,-0.15 -0.19,-0.2 0.46,-0.65 0.67,-1.89 0.62,-3.72l0 -4.39 2.91 0 0 7.69c0,0.59 -0.3,0.91 -0.89,0.97 -0.26,0.02 -0.59,0.03 -0.97,0.03 -0.03,-0.15 -0.07,-0.38 -0.12,-0.69 -0.03,-0.11 -0.04,-0.19 -0.04,-0.24 0.1,0.03 0.32,0.04 0.66,0.04 0.34,0.03 0.49,-0.1 0.47,-0.39l0 -1.67 -1.17 0c-0.02,1.25 -0.27,2.28 -0.73,3.11zm4.46 -1.05c0.49,-0.26 0.93,-0.57 1.32,-0.94 -0.44,-0.59 -0.82,-1.35 -1.13,-2.29l0.55 -0.27 -0.74 0 0 3.5zm2.83 -3.5l-1.82 0c0.28,0.86 0.59,1.49 0.93,1.9 0.39,-0.54 0.69,-1.17 0.89,-1.9zm-6.52 0.28l0 0.35 1.13 0 0 -1.67 -1.13 0 0 1.32zm0 -3.73l0 1.59 1.13 0 0 -1.59 -1.13 0zm9.37 3.77c-0.03,-0.08 -0.1,-0.22 -0.2,-0.43 -0.1,-0.23 -0.18,-0.4 -0.23,-0.5 1.55,-0.19 2.79,-0.43 3.73,-0.74 -0.52,-0.31 -1.03,-0.73 -1.52,-1.25 -0.39,0.34 -0.83,0.7 -1.32,1.09 -0.13,-0.18 -0.36,-0.44 -0.7,-0.77 1.14,-0.73 2.07,-1.56 2.8,-2.49l1.13 0.16c-0.19,0.23 -0.35,0.44 -0.51,0.62l4.78 0 0 0.93c-0.89,0.83 -1.65,1.4 -2.3,1.71 0.96,0.28 2.1,0.48 3.42,0.58 -0.08,0.16 -0.19,0.41 -0.35,0.78 -0.02,0.07 -0.05,0.13 -0.08,0.15 -1.73,-0.18 -3.13,-0.49 -4.19,-0.93 -0.98,0.41 -2.47,0.78 -4.46,1.09zm4.38 4.07c0,-0.13 -0.02,-0.34 -0.07,-0.62 -0.06,-0.18 -0.08,-0.3 -0.08,-0.35 0.18,0 0.45,0 0.81,0 0.37,0 0.65,0 0.86,0 0.62,0.05 0.94,-0.22 0.97,-0.82 0,-0.1 0.01,-0.27 0.04,-0.5 0,-0.26 0,-0.43 0,-0.51l-2.95 0c-0.21,1.35 -1.43,2.35 -3.65,2.99 -0.08,-0.1 -0.2,-0.28 -0.35,-0.54 -0.16,-0.21 -0.25,-0.34 -0.27,-0.39 1.88,-0.44 2.95,-1.13 3.18,-2.06l-2.6 0 0 -0.85 2.79 0c0.06,-0.29 0.08,-0.6 0.08,-0.93l1.09 0 -0.12 0.93 3.92 0c-0.02,0.7 -0.06,1.34 -0.11,1.94 -0.03,1.16 -0.65,1.72 -1.87,1.67 -0.39,0.02 -0.94,0.04 -1.67,0.04zm2.22 -7.49l-4.04 0c0.59,0.57 1.23,1.01 1.9,1.32 0.7,-0.31 1.41,-0.75 2.14,-1.32z"/>
   </g>
   <g>
    <path class="fil2" d="M154.32 318.84l0.08 0 0.07 0.01 0.07 0.01 0.07 0.01 0.07 0.02 0.06 0.01 0.07 0.03 0.06 0.02 0.06 0.03 0.06 0.03 0.06 0.04 0.06 0.03 0.06 0.04 0.05 0.04 0.05 0.05 0.05 0.04 0.05 0.05 0.04 0.05 0.04 0.06 0.04 0.05 0.04 0.06 0.03 0.06 0.03 0.06 0.03 0.06 0.03 0.07 0.02 0.06 0.02 0.07 0.01 0.07 0.02 0.07 0.01 0.07 0 0.07 0 0.07 0 0 0 0.07 0 0.07 -0.01 0.07 -0.02 0.07 -0.01 0.07 -0.02 0.07 -0.02 0.06 -0.03 0.07 -0.03 0.06 -0.03 0.06 -0.03 0.06 -0.04 0.06 -0.04 0.05 -0.04 0.06 -0.04 0.05 -0.05 0.05 -0.05 0.04 -0.05 0.05 -0.05 0.04 -0.06 0.04 -0.06 0.03 -0.06 0.04 -0.06 0.03 -0.06 0.03 -0.06 0.02 -0.07 0.03 -0.06 0.01 -0.07 0.02 -0.07 0.01 -0.07 0.01 -0.07 0.01 -0.08 0 0 0 -0.07 0 -0.07 -0.01 -0.07 -0.01 -0.07 -0.01 -0.07 -0.02 -0.06 -0.01 -0.07 -0.03 -0.06 -0.02 -0.07 -0.03 -0.06 -0.03 -0.05 -0.04 -0.06 -0.03 -0.06 -0.04 -0.05 -0.04 -0.05 -0.05 -0.05 -0.04 -0.05 -0.05 -0.04 -0.05 -0.04 -0.06 -0.04 -0.05 -0.04 -0.06 -0.03 -0.06 -0.04 -0.06 -0.02 -0.06 -0.03 -0.07 -0.02 -0.06 -0.02 -0.07 -0.02 -0.07 -0.01 -0.07 -0.01 -0.07 0 -0.07 0 -0.07 0 0 0 -0.07 0 -0.07 0.01 -0.07 0.01 -0.07 0.02 -0.07 0.02 -0.07 0.02 -0.06 0.03 -0.07 0.02 -0.06 0.04 -0.06 0.03 -0.06 0.04 -0.06 0.04 -0.05 0.04 -0.06 0.04 -0.05 0.05 -0.05 0.05 -0.04 0.05 -0.05 0.05 -0.04 0.06 -0.04 0.06 -0.03 0.05 -0.04 0.06 -0.03 0.07 -0.03 0.06 -0.02 0.07 -0.03 0.06 -0.01 0.07 -0.02 0.07 -0.01 0.07 -0.01 0.07 -0.01 0.07 0 0 0zm51.8 1.76l-51.8 0 0 -0.7 51.8 0 0 0.7zm4.09 -0.35l-4.31 2.16 0 -4.32 4.31 2.16z"/>
   </g>
   <g>
    <path class="fil2" d="M171.46 255.47l0 64.78 -0.7 0 0 -64.78 0.35 -0.35 0.35 0.35zm-0.7 0l0 -0.35 0.35 0 -0.35 0.35zm35.36 0.36l-35.01 0 0 -0.71 35.01 0 0 0.71zm4.09 -0.36l-4.31 2.16 0 -4.31 4.31 2.15z"/>
   </g>
   <g>
    <path class="fil2" d="M170.76 385.13l0 -64.88 0.7 0 0 64.88 -0.35 0.36 -0.35 -0.36zm0.35 0.36l-0.35 0 0 -0.36 0.35 0.36zm35.01 0l-35.01 0 0 -0.71 35.01 0 0 0.71zm4.09 -0.36l-4.31 2.16 0 -4.31 4.31 2.15z"/>
   </g>
   <path class="fil0 str0" d="M328.69 467.18l0 -293.86c0,-2.96 2.42,-5.39 5.38,-5.39l67.6 0c2.97,0 5.39,2.43 5.39,5.39l0 293.86c0,2.96 -2.42,5.39 -5.39,5.39l-67.6 0c-2.96,0 -5.38,-2.43 -5.38,-5.39z"/>
   <g>
    <path class="fil3" d="M366.51 368.28c0,-0.76 0.61,-1.36 1.36,-1.36 0.75,0 1.36,0.6 1.36,1.36 0,0.75 -0.61,1.36 -1.36,1.36 -0.75,0 -1.36,-0.61 -1.36,-1.36z"/>
    <path class="fil3" d="M366.51 361.57c0,-0.75 0.61,-1.36 1.36,-1.36 0.75,0 1.36,0.61 1.36,1.36 0,0.75 -0.61,1.36 -1.36,1.36 -0.75,0 -1.36,-0.61 -1.36,-1.36z"/>
    <path class="fil3" d="M366.51 354.86c0,-0.75 0.61,-1.36 1.36,-1.36 0.75,0 1.36,0.61 1.36,1.36 0,0.75 -0.61,1.36 -1.36,1.36 -0.75,0 -1.36,-0.61 -1.36,-1.36z"/>
   </g>
   <g>
    <path class="fil4 str1" d="M334.59 343.59l0 -142.64c0,-2.52 2.06,-4.57 4.58,-4.57l57.41 0c2.51,0 4.57,2.05 4.57,4.57l0 142.64c0,2.52 -2.06,4.57 -4.57,4.57l-57.41 0c-2.52,0 -4.58,-2.05 -4.58,-4.57z"/>
    <g>
     <g>
      <path class="fil1" d="M346.09 276.27l-2.76 0 0 -7.84 2.76 0c2.49,0.07 3.77,1.38 3.85,3.92 0.05,2.66 -1.23,3.97 -3.85,3.92zm-0.04 -7.07l-1.78 0 0 6.41 1.78 0c1.97,0 2.95,-1.08 2.95,-3.22 -0.05,-2.07 -1.03,-3.14 -2.95,-3.19zm8.04 7.07l-2.76 0 0 -7.84 2.76 0c2.48,0.07 3.77,1.38 3.84,3.92 0.06,2.66 -1.23,3.97 -3.84,3.92zm-0.04 -7.07l-1.78 0 0 6.41 1.78 0c1.97,0 2.95,-1.08 2.95,-3.22 -0.05,-2.07 -1.03,-3.14 -2.95,-3.19zm8.89 7.07l-2.83 -7.11 -0.04 0 0 7.15 -0.9 0 0 -7.88 1.56 0 2.6 6.87 0.04 0 2.6 -6.87 1.55 0 0 7.88 -0.89 0 0 -7.15 -0.08 0c-0.1,0.34 -1.02,2.71 -2.75,7.11l-0.86 0zm11.41 -0.51c-0.02,-0.25 -0.07,-0.54 -0.15,-0.85 0.18,0.03 0.62,0.04 1.32,0.04 0.83,0.05 1.23,-0.29 1.2,-1.01 0.03,-0.23 0.05,-0.64 0.08,-1.2 0.03,-0.29 0.04,-0.5 0.04,-0.63l-3.85 0 0 4.93 -0.81 0 0 -4.93 -2.41 0 0 -0.73 7.92 0c-0.02,0.93 -0.08,1.81 -0.15,2.64 0,1.19 -0.6,1.77 -1.79,1.74 -0.46,0 -0.93,0 -1.4,0zm-5.04 -6.09l0 -0.74 2.56 0 0 -1.16 0.78 0 0 1.16 2.6 0 0 -1.16 0.82 0 0 1.16 2.56 0 0 0.74 -2.56 0 0 0.97 -0.82 0 0 -0.97 -2.6 0 0 0.97 -0.78 0 0 -0.97 -2.56 0zm11.07 4.34l0 -3.29 2.94 0 0 -3.04 0.82 0 0 1.13 4.27 0 0 0.7 -4.27 0 0 1.21 3.42 0 0 3.29 -7.18 0zm0.78 -2.55l0 1.85 5.58 0 0 -1.85 -5.58 0zm-1.21 5.47l-0.74 -0.31c0.03,-0.05 0.08,-0.15 0.16,-0.27 0.46,-0.73 0.78,-1.3 0.97,-1.71l0.73 0.23c-0.31,0.67 -0.68,1.36 -1.12,2.06zm7.8 -0.12c-0.18,-0.39 -0.53,-1.03 -1.05,-1.94l0.74 -0.27c0.08,0.15 0.25,0.47 0.51,0.93 0.28,0.49 0.46,0.82 0.54,0.97l-0.74 0.31zm-5.24 0c-0.05,-0.31 -0.18,-0.76 -0.39,-1.36 -0.08,-0.23 -0.13,-0.41 -0.15,-0.54l0.73 -0.16c0.32,0.91 0.52,1.53 0.63,1.87l-0.82 0.19zm2.49 -0.11c-0.08,-0.29 -0.28,-0.78 -0.59,-1.48 -0.07,-0.18 -0.13,-0.31 -0.15,-0.39l0.74 -0.15c0.31,0.72 0.56,1.33 0.77,1.82l-0.77 0.2zm6.56 -0.39l0 -6.49c-0.47,0.57 -1.26,1.1 -2.37,1.6l0 -0.78c1.34,-0.65 2.2,-1.41 2.56,-2.29l0.66 0 0 7.96 -0.85 0z"/>
      <path class="fil2" d="M364.46 233.35l3.01 1.76c0.12,0.07 0.26,0.11 0.4,0.11 0.15,0 0.29,-0.04 0.4,-0.11l3.01 -1.76c0.24,-0.13 0.4,-0.43 0.4,-0.71l0 -3.51c0,-0.28 -0.16,-0.57 -0.4,-0.71l-3.01 -1.76c-0.23,-0.14 -0.56,-0.14 -0.8,0l-3.01 1.76c-0.23,0.14 -0.4,0.43 -0.4,0.71l0 3.51c0,0.28 0.17,0.58 0.4,0.71zm0.55 -4.13l0 0 2.86 -1.67 2.86 1.67 0 3.33 -2.86 1.67 -2.86 -1.67 0 -3.33zm-5.81 14.34l0 0 -2.67 0c-1.11,0 -2,0.92 -2,2.05l0 2.73c0,1.13 0.89,2.05 2,2.05l2.67 0c1.1,0 2,-0.92 2,-2.05l0 -2.73c0,-1.13 -0.9,-2.05 -2,-2.05zm1.05 4.78l0 0 0 0c0,0.59 -0.47,1.07 -1.05,1.07l-2.67 0c-0.58,0 -1.05,-0.48 -1.05,-1.07l0 -2.73c0,-0.59 0.47,-1.07 1.05,-1.07l2.67 0c0.58,0 1.05,0.48 1.05,1.07l0 2.73zm7.62 -12.08l0 0c-0.26,0 -0.47,0.22 -0.47,0.49l0 5.4c0,0.27 0.21,0.48 0.47,0.48 0.26,0 0.48,-0.21 0.48,-0.48l0 -5.4c0,-0.27 -0.21,-0.49 -0.48,-0.49zm16.82 -9.19l0 0 -14.58 -8.11c-1.22,-0.68 -3.25,-0.68 -4.48,0l-14.57 8.11c-1.26,0.7 -2.25,2.36 -2.25,3.78l0 17.13c0,1.42 0.99,3.08 2.25,3.78l14.57 8.1c0.62,0.35 1.41,0.53 2.24,0.53 0.83,0 1.63,-0.18 2.24,-0.52l14.58 -8.11c1.26,-0.7 2.25,-2.36 2.25,-3.78l0 -17.13c0,-1.42 -0.99,-3.08 -2.25,-3.78zm0.24 20.91l0 0c0,0.73 -0.59,1.72 -1.24,2.08l-14.57 8.1c-0.62,0.35 -1.87,0.35 -2.49,0l-14.58 -8.1c-0.65,-0.36 -1.23,-1.35 -1.23,-2.08l0 -17.13c0,-0.73 0.59,-1.72 1.23,-2.08l14.58 -8.1c0.31,-0.18 0.76,-0.27 1.24,-0.27 0.48,0 0.94,0.09 1.25,0.27l14.57 8.1c0.65,0.36 1.24,1.35 1.24,2.08l0 17.13zm-5.71 -4.42l0 0 -2.67 0c-1.11,0 -2,0.92 -2,2.05l0 2.73c0,1.13 0.89,2.05 2,2.05l2.67 0c1.1,0 2,-0.92 2,-2.05l0 -2.73c0,-1.13 -0.9,-2.05 -2,-2.05zm1.05 4.78l0 0c0,0.59 -0.47,1.07 -1.05,1.07l-2.67 0c-0.58,0 -1.05,-0.48 -1.05,-1.07l0 -2.73c0,-0.59 0.47,-1.07 1.05,-1.07l2.67 0c0.57,0 1.05,0.48 1.05,1.07l0 2.73zm-2.39 -5.75l0 0c0.08,0 0.16,-0.02 0.24,-0.07 0.22,-0.13 0.3,-0.43 0.17,-0.66 -0.09,-0.18 -2.42,-4.29 -6.37,-6.53 -0.24,-0.13 -0.52,-0.04 -0.65,0.19 -0.13,0.24 -0.05,0.54 0.18,0.67 3.72,2.1 5.99,6.11 6.02,6.15 0.09,0.16 0.25,0.25 0.41,0.25zm-8.67 0.97l0 0 -2.67 0c-1.11,0 -2,0.92 -2,2.05l0 2.73c0,1.13 0.89,2.05 2,2.05l2.67 0c1.1,0 2,-0.92 2,-2.05l0 -2.73c0,-1.13 -0.9,-2.05 -2,-2.05zm1.05 4.78l0 0 -0.01 0c0,0.59 -0.47,1.07 -1.04,1.07l-2.67 0c-0.58,0 -1.05,-0.48 -1.05,-1.07l0 -2.73c0,-0.59 0.47,-1.07 1.05,-1.07l2.67 0c0.57,0 1.05,0.48 1.05,1.07l0 2.73zm-6.43 -13.01l0 0c-3.96,2.24 -6.28,6.35 -6.38,6.53 -0.13,0.23 -0.05,0.53 0.18,0.66 0.07,0.04 0.15,0.07 0.23,0.07 0.17,0 0.33,-0.09 0.42,-0.25 0.02,-0.04 2.29,-4.05 6.01,-6.15 0.23,-0.13 0.31,-0.43 0.19,-0.67 -0.13,-0.23 -0.42,-0.32 -0.65,-0.19z"/>
     </g>
     <g>
      <path class="fil1" d="M344.96 342.65l-2.76 0 0 -7.85 2.76 0c2.48,0.08 3.77,1.39 3.84,3.93 0.06,2.66 -1.23,3.97 -3.84,3.92zm-0.04 -7.07l-1.79 0 0 6.41 1.79 0c1.97,0 2.95,-1.08 2.95,-3.22 -0.05,-2.08 -1.03,-3.14 -2.95,-3.19zm8.04 7.07l-2.76 0 0 -7.85 2.76 0c2.48,0.08 3.76,1.39 3.84,3.93 0.05,2.66 -1.23,3.97 -3.84,3.92zm-0.04 -7.07l-1.79 0 0 6.41 1.79 0c1.97,0 2.95,-1.08 2.95,-3.22 -0.05,-2.08 -1.04,-3.14 -2.95,-3.19zm8.89 7.07l-2.83 -7.11 -0.04 0 0 7.15 -0.9 0 0 -7.89 1.56 0 2.6 6.88 0.04 0 2.6 -6.88 1.55 0 0 7.89 -0.89 0 0 -7.15 -0.08 0c-0.1,0.34 -1.02,2.71 -2.76,7.11l-0.85 0zm11.41 -0.51c-0.02,-0.25 -0.08,-0.54 -0.15,-0.85 0.18,0.03 0.62,0.04 1.32,0.04 0.83,0.05 1.23,-0.29 1.2,-1.01 0.03,-0.23 0.05,-0.64 0.08,-1.2 0.02,-0.29 0.04,-0.5 0.04,-0.63l-3.85 0 0 4.93 -0.81 0 0 -4.93 -2.41 0 0 -0.73 7.92 0c-0.03,0.93 -0.08,1.81 -0.16,2.64 0,1.19 -0.59,1.77 -1.78,1.74 -0.47,0 -0.93,0 -1.4,0zm-5.04 -6.09l0 -0.74 2.56 0 0 -1.16 0.77 0 0 1.16 2.61 0 0 -1.16 0.81 0 0 1.16 2.57 0 0 0.74 -2.57 0 0 0.97 -0.81 0 0 -0.97 -2.61 0 0 0.97 -0.77 0 0 -0.97 -2.56 0zm11.07 4.34l0 -3.29 2.94 0 0 -3.04 0.81 0 0 1.13 4.28 0 0 0.7 -4.28 0 0 1.21 3.42 0 0 3.29 -7.17 0zm0.77 -2.55l0 1.85 5.59 0 0 -1.85 -5.59 0zm-1.21 5.47l-0.73 -0.31c0.02,-0.05 0.08,-0.15 0.15,-0.27 0.47,-0.73 0.79,-1.3 0.97,-1.71l0.74 0.23c-0.31,0.67 -0.68,1.36 -1.13,2.06zm7.81 -0.12c-0.18,-0.39 -0.53,-1.03 -1.05,-1.94l0.74 -0.27c0.08,0.15 0.24,0.46 0.5,0.93 0.29,0.49 0.47,0.82 0.55,0.97l-0.74 0.31zm-5.24 0c-0.05,-0.31 -0.18,-0.76 -0.39,-1.36 -0.08,-0.23 -0.13,-0.41 -0.16,-0.54l0.74 -0.16c0.31,0.91 0.52,1.53 0.62,1.87l-0.81 0.19zm2.48 -0.12c-0.08,-0.28 -0.27,-0.77 -0.58,-1.47 -0.08,-0.18 -0.13,-0.31 -0.15,-0.39l0.73 -0.15c0.31,0.72 0.57,1.33 0.78,1.82l-0.78 0.19zm5.28 -1.08l4.27 0 0 0.66 -5.31 0 0 -0.51c0.59,-1.14 1.43,-2.09 2.52,-2.87 1.35,-0.96 1.97,-1.74 1.86,-2.33 -0.02,-0.98 -0.59,-1.49 -1.71,-1.51 -0.9,0 -1.47,0.53 -1.7,1.59l-0.86 -0.31c0.42,-1.35 1.33,-2.02 2.76,-2.02 1.53,0.08 2.34,0.79 2.44,2.13 0.13,0.91 -0.53,1.84 -1.97,2.8 -1.02,0.72 -1.78,1.51 -2.3,2.37z"/>
      <path class="fil2" d="M363.93 299.73l3.01 1.76c0.12,0.07 0.26,0.1 0.4,0.1 0.15,0 0.29,-0.03 0.4,-0.1l3.01 -1.76c0.24,-0.14 0.4,-0.43 0.4,-0.71l0 -3.51c0,-0.28 -0.16,-0.58 -0.4,-0.71l-3.01 -1.76c-0.23,-0.14 -0.56,-0.14 -0.8,0l-3.01 1.76c-0.23,0.13 -0.4,0.43 -0.4,0.71l0 3.51c0,0.28 0.17,0.57 0.4,0.71zm0.55 -4.13l0 0 2.86 -1.67 2.86 1.67 0 3.33 -2.86 1.67 -2.86 -1.67 0 -3.33zm-5.81 14.34l0 0 -2.67 0c-1.11,0 -2,0.92 -2,2.05l0 2.73c0,1.13 0.89,2.05 2,2.05l2.67 0c1.1,0 2,-0.92 2,-2.05l0 -2.73c0,-1.13 -0.9,-2.05 -2,-2.05zm1.05 4.78l0 0 0 0c0,0.59 -0.47,1.07 -1.05,1.07l-2.67 0c-0.58,0 -1.05,-0.48 -1.05,-1.07l0 -2.73c0,-0.59 0.47,-1.07 1.05,-1.07l2.67 0c0.58,0 1.05,0.48 1.05,1.07l0 2.73zm7.62 -12.08l0 0c-0.26,0 -0.48,0.22 -0.48,0.49l0 5.4c0,0.27 0.22,0.48 0.48,0.48 0.26,0 0.48,-0.21 0.48,-0.48l0 -5.4c0,-0.27 -0.21,-0.49 -0.48,-0.49zm16.82 -9.19l0 0 -14.58 -8.11c-1.22,-0.68 -3.25,-0.68 -4.48,0l-14.57 8.11c-1.26,0.7 -2.25,2.36 -2.25,3.78l0 17.13c0,1.42 0.99,3.08 2.25,3.78l14.57 8.1c0.62,0.35 1.41,0.53 2.24,0.53 0.83,0 1.63,-0.18 2.24,-0.52l14.58 -8.11c1.26,-0.7 2.25,-2.36 2.25,-3.78l0 -17.13c0,-1.42 -0.99,-3.08 -2.25,-3.78zm0.24 20.91l0 0c0,0.73 -0.59,1.72 -1.24,2.08l-14.57 8.1c-0.62,0.35 -1.87,0.35 -2.49,0l-14.58 -8.1c-0.65,-0.36 -1.23,-1.35 -1.23,-2.08l0 -17.13c0,-0.73 0.59,-1.72 1.23,-2.08l14.58 -8.1c0.31,-0.18 0.76,-0.28 1.24,-0.28 0.48,0 0.94,0.1 1.25,0.28l14.57 8.1c0.65,0.36 1.24,1.35 1.24,2.08l0 17.13zm-5.71 -4.42l0 0 -2.67 0c-1.11,0 -2,0.92 -2,2.05l0 2.73c0,1.13 0.89,2.05 2,2.05l2.67 0c1.1,0 2,-0.92 2,-2.05l0 -2.73c0,-1.13 -0.9,-2.05 -2,-2.05zm1.05 4.78l0 0c0,0.59 -0.47,1.07 -1.05,1.07l-2.67 0c-0.58,0 -1.05,-0.48 -1.05,-1.07l0 -2.73c0,-0.59 0.47,-1.07 1.05,-1.07l2.67 0c0.57,0 1.05,0.48 1.05,1.07l0 2.73zm-2.39 -5.76l0 0c0.08,0 0.16,-0.02 0.24,-0.06 0.22,-0.13 0.3,-0.43 0.17,-0.66 -0.09,-0.18 -2.42,-4.29 -6.37,-6.53 -0.24,-0.13 -0.52,-0.04 -0.65,0.19 -0.13,0.24 -0.05,0.54 0.18,0.67 3.72,2.1 5.99,6.11 6.02,6.15 0.09,0.16 0.25,0.24 0.41,0.24zm-8.67 0.98l0 0 -2.67 0c-1.11,0 -2,0.92 -2,2.05l0 2.73c0,1.13 0.89,2.05 2,2.05l2.67 0c1.1,0 2,-0.92 2,-2.05l0 -2.73c0,-1.13 -0.9,-2.05 -2,-2.05zm1.05 4.78l0 0 -0.01 0c0,0.59 -0.47,1.07 -1.04,1.07l-2.67 0c-0.58,0 -1.05,-0.48 -1.05,-1.07l0 -2.73c0,-0.59 0.47,-1.07 1.05,-1.07l2.67 0c0.57,0 1.05,0.48 1.05,1.07l0 2.73zm-6.43 -13.01l0 0c-3.96,2.24 -6.28,6.35 -6.38,6.52 -0.13,0.24 -0.05,0.54 0.18,0.67 0.07,0.04 0.15,0.06 0.23,0.06 0.17,0 0.33,-0.08 0.42,-0.24 0.02,-0.04 2.29,-4.06 6.01,-6.15 0.23,-0.13 0.31,-0.43 0.19,-0.67 -0.13,-0.23 -0.42,-0.32 -0.65,-0.19z"/>
     </g>
     <path class="fil1" d="M362.49 201.19l3.18 7.96 -1.32 0 -0.81 -2.13 -3.54 0 -0.81 2.13 -1.32 0 3.18 -7.96 1.44 0zm-0.7 1.05l-0.04 0c-0.08,0.23 -0.16,0.47 -0.23,0.7 -0.03,0.05 -0.43,1.09 -1.21,3.11l2.91 0c-0.77,-2.02 -1.17,-3.06 -1.2,-3.11 0,-0.03 -0.01,-0.08 -0.04,-0.16 -0.13,-0.31 -0.19,-0.49 -0.19,-0.54zm14.92 6.91l0 -6.21c-0.59,0.57 -1.41,1.08 -2.44,1.51 0,-0.36 0,-0.71 0,-1.04 1.34,-0.63 2.25,-1.39 2.72,-2.29l0.89 0 0 8.03 -1.17 0zm-3.54 0l-6.71 0 0 -0.81 4.97 -6.14 -4.55 0 0 -1.01 6.14 0 0 0.93 -5.05 6.1 5.2 0 0 0.93z"/>
    </g>
   </g>
   <g>
    <path class="fil4 str1" d="M334.59 455.79l0 -76.25c0,-2.51 2.06,-4.57 4.58,-4.57l57.41 0c2.51,0 4.57,2.06 4.57,4.57l0 76.25c0,2.52 -2.06,4.58 -4.57,4.58l-57.41 0c-2.52,0 -4.58,-2.06 -4.58,-4.58z"/>
    <g>
     <g>
      <path class="fil1" d="M344.21 454.85l-2.76 0 0 -7.84 2.76 0c2.48,0.08 3.77,1.39 3.84,3.92 0.05,2.67 -1.23,3.98 -3.84,3.92zm-0.04 -7.06l-1.79 0 0 6.41 1.79 0c1.97,0 2.95,-1.08 2.95,-3.23 -0.05,-2.07 -1.03,-3.13 -2.95,-3.18zm8.04 7.06l-2.76 0 0 -7.84 2.76 0c2.48,0.08 3.76,1.39 3.84,3.92 0.05,2.67 -1.23,3.98 -3.84,3.92zm-0.04 -7.06l-1.79 0 0 6.41 1.79 0c1.96,0 2.95,-1.08 2.95,-3.23 -0.05,-2.07 -1.04,-3.13 -2.95,-3.18zm8.89 7.06l-2.84 -7.1 -0.03 0 0 7.14 -0.9 0 0 -7.88 1.56 0 2.6 6.87 0.04 0 2.6 -6.87 1.55 0 0 7.88 -0.89 0 0 -7.14 -0.08 0c-0.1,0.34 -1.02,2.7 -2.76,7.1l-0.85 0zm11.41 -0.5c-0.02,-0.26 -0.08,-0.54 -0.15,-0.85 0.18,0.02 0.62,0.04 1.32,0.04 0.82,0.05 1.23,-0.29 1.2,-1.01 0.03,-0.24 0.05,-0.64 0.08,-1.21 0.02,-0.28 0.04,-0.49 0.04,-0.62l-3.85 0 0 4.93 -0.81 0 0 -4.93 -2.41 0 0 -0.74 7.92 0c-0.03,0.94 -0.08,1.81 -0.16,2.64 0,1.19 -0.59,1.78 -1.78,1.75 -0.47,0 -0.93,0 -1.4,0zm-5.04 -6.09l0 -0.74 2.56 0 0 -1.17 0.77 0 0 1.17 2.61 0 0 -1.17 0.81 0 0 1.17 2.57 0 0 0.74 -2.57 0 0 0.97 -0.81 0 0 -0.97 -2.61 0 0 0.97 -0.77 0 0 -0.97 -2.56 0zm11.07 4.34l0 -3.29 2.94 0 0 -3.04 0.81 0 0 1.13 4.27 0 0 0.7 -4.27 0 0 1.21 3.42 0 0 3.29 -7.17 0zm0.77 -2.55l0 1.85 5.59 0 0 -1.85 -5.59 0zm-1.21 5.47l-0.73 -0.32c0.02,-0.05 0.08,-0.14 0.15,-0.27 0.47,-0.72 0.79,-1.29 0.97,-1.71l0.74 0.24c-0.31,0.67 -0.68,1.36 -1.13,2.06zm7.81 -0.12c-0.18,-0.39 -0.53,-1.04 -1.05,-1.94l0.74 -0.27c0.08,0.15 0.24,0.46 0.5,0.93 0.29,0.49 0.47,0.81 0.55,0.97l-0.74 0.31zm-5.24 0c-0.05,-0.31 -0.18,-0.76 -0.39,-1.36 -0.08,-0.23 -0.13,-0.41 -0.16,-0.54l0.74 -0.16c0.31,0.91 0.52,1.53 0.62,1.86l-0.81 0.2zm2.48 -0.12c-0.08,-0.28 -0.27,-0.78 -0.58,-1.47 -0.08,-0.18 -0.13,-0.31 -0.15,-0.39l0.73 -0.16c0.31,0.73 0.57,1.34 0.78,1.83l-0.78 0.19zm4.78 -8.23l1.2 0 4.27 6.95 0.04 0 0 -6.95 0.89 0 0 7.84 -1.16 0 -4.35 -6.95 0 6.95 -0.89 0 0 -7.84z"/>
      <path class="fil2" d="M364.17 411.94l3.01 1.76c0.11,0.07 0.25,0.1 0.4,0.1 0.15,0 0.29,-0.03 0.4,-0.1l3.01 -1.76c0.24,-0.14 0.4,-0.43 0.4,-0.71l0 -3.51c0,-0.28 -0.16,-0.58 -0.4,-0.72l-3.01 -1.76c-0.23,-0.13 -0.57,-0.13 -0.8,0l-3.01 1.76c-0.24,0.14 -0.4,0.44 -0.4,0.72l0 3.51c0,0.28 0.16,0.57 0.4,0.71zm0.55 -4.13l0 0 2.86 -1.68 2.86 1.68 0 3.33 -2.86 1.67 -2.86 -1.67 0 -3.33zm-5.81 14.34l0 0 -2.67 0c-1.11,0 -2,0.92 -2,2.04l0 2.74c0,1.12 0.89,2.04 2,2.04l2.67 0c1.1,0 2,-0.92 2,-2.04l0 -2.74c0,-1.12 -0.9,-2.04 -2,-2.04zm1.05 4.78l0 0 0 0c0,0.59 -0.47,1.07 -1.05,1.07l-2.67 0c-0.58,0 -1.05,-0.48 -1.05,-1.07l0 -2.74c0,-0.59 0.47,-1.07 1.05,-1.07l2.67 0c0.58,0 1.05,0.48 1.05,1.07l0 2.74zm7.62 -12.08l0 0c-0.26,0 -0.48,0.22 -0.48,0.48l0 5.4c0,0.27 0.22,0.49 0.48,0.49 0.26,0 0.48,-0.22 0.48,-0.49l0 -5.4c0,-0.26 -0.22,-0.48 -0.48,-0.48zm16.82 -9.19l0 0 -14.58 -8.11c-1.22,-0.68 -3.25,-0.68 -4.48,0l-14.57 8.11c-1.26,0.7 -2.25,2.36 -2.25,3.78l0 17.13c0,1.42 0.99,3.07 2.25,3.78l14.57 8.1c0.61,0.34 1.41,0.53 2.24,0.53 0.83,0 1.63,-0.19 2.24,-0.53l14.58 -8.1c1.26,-0.71 2.25,-2.36 2.25,-3.78l0 -17.13c0,-1.42 -0.99,-3.08 -2.25,-3.78zm0.24 20.91l0 0c0,0.72 -0.59,1.71 -1.24,2.07l-14.57 8.11c-0.62,0.34 -1.87,0.35 -2.49,0l-14.58 -8.11c-0.65,-0.36 -1.24,-1.35 -1.24,-2.07l0 -17.13c0,-0.73 0.59,-1.72 1.24,-2.08l14.58 -8.11c0.31,-0.17 0.76,-0.27 1.24,-0.27 0.48,0 0.94,0.1 1.25,0.27l14.57 8.11c0.65,0.36 1.24,1.35 1.24,2.08l0 17.13zm-5.71 -4.42l0 0 -2.67 0c-1.11,0 -2,0.92 -2,2.04l0 2.74c0,1.12 0.89,2.04 2,2.04l2.67 0c1.1,0 2,-0.92 2,-2.04l0 -2.74c0,-1.12 -0.9,-2.04 -2,-2.04zm1.04 4.78l0 0c0,0.59 -0.47,1.07 -1.04,1.07l-2.67 0c-0.58,0 -1.05,-0.48 -1.05,-1.07l0 -2.74c0,-0.59 0.47,-1.07 1.05,-1.07l2.67 0c0.57,0 1.04,0.48 1.04,1.07l0 2.74zm-2.38 -5.76l0 0c0.08,0 0.16,-0.02 0.24,-0.06 0.22,-0.14 0.3,-0.43 0.17,-0.67 -0.09,-0.17 -2.42,-4.29 -6.37,-6.52 -0.24,-0.13 -0.53,-0.05 -0.65,0.19 -0.13,0.24 -0.05,0.53 0.18,0.66 3.72,2.1 5.99,6.12 6.02,6.16 0.08,0.15 0.25,0.24 0.41,0.24zm-8.67 0.98l0 0 -2.67 0c-1.11,0 -2.01,0.92 -2.01,2.04l0 2.74c0,1.12 0.9,2.04 2.01,2.04l2.67 0c1.1,0 2,-0.92 2,-2.04l0 -2.74c0,-1.12 -0.9,-2.04 -2,-2.04zm1.04 4.78l0 0 0 0c0,0.59 -0.47,1.07 -1.04,1.07l-2.67 0c-0.58,0 -1.05,-0.48 -1.05,-1.07l0 -2.74c0,-0.59 0.47,-1.07 1.05,-1.07l2.67 0c0.57,0 1.04,0.48 1.04,1.07l0 2.74zm-6.42 -13.01l0 0c-3.96,2.23 -6.28,6.35 -6.38,6.52 -0.13,0.24 -0.05,0.53 0.18,0.67 0.07,0.04 0.15,0.06 0.23,0.06 0.17,0 0.33,-0.09 0.42,-0.24 0.02,-0.04 2.29,-4.06 6.01,-6.16 0.23,-0.13 0.31,-0.42 0.19,-0.66 -0.13,-0.24 -0.42,-0.32 -0.65,-0.19z"/>
     </g>
     <path class="fil1" d="M361.56 379.78l3.18 7.96 -1.32 0 -0.81 -2.14 -3.54 0 -0.81 2.14 -1.32 0 3.18 -7.96 1.44 0zm-0.7 1.05l-0.04 0c-0.08,0.23 -0.16,0.46 -0.23,0.7 -0.03,0.05 -0.43,1.08 -1.21,3.1l2.91 0c-0.77,-2.02 -1.17,-3.05 -1.2,-3.1 0,-0.03 -0.01,-0.08 -0.04,-0.16 -0.13,-0.31 -0.19,-0.49 -0.19,-0.54zm13.99 5.98l4.12 0 0 0.89 -5.56 0 0 -0.66c0.55,-1.01 1.38,-1.94 2.49,-2.79 1.32,-0.94 1.93,-1.69 1.82,-2.26 -0.02,-0.88 -0.51,-1.33 -1.47,-1.36 -0.86,0 -1.4,0.51 -1.63,1.52l-1.09 -0.35c0.39,-1.42 1.36,-2.14 2.91,-2.14 1.58,0.05 2.42,0.79 2.53,2.22 0.13,0.93 -0.51,1.85 -1.91,2.75 -0.98,0.68 -1.72,1.4 -2.21,2.18zm-2.61 0.93l-6.71 0 0 -0.82 4.97 -6.13 -4.55 0 0 -1.01 6.14 0 0 0.93 -5.05 6.1 5.2 0 0 0.93z"/>
    </g>
   </g>
   <path class="fil1" d="M357.75 188.9l-2.68 0 0 -7.95 2.64 0c2.67,0.05 4.03,1.37 4.08,3.96 0.05,2.71 -1.3,4.05 -4.04,3.99zm-0.08 -6.94l-1.4 0 0 6.01 1.4 0c1.89,0 2.84,-1.02 2.84,-3.06 -0.05,-1.92 -1,-2.9 -2.84,-2.95zm8.79 6.94l-2.68 0 0 -7.95 2.64 0c2.66,0.05 4.02,1.37 4.07,3.96 0.06,2.71 -1.29,4.05 -4.03,3.99zm-0.08 -6.94l-1.4 0 0 6.01 1.4 0c1.89,0 2.83,-1.02 2.83,-3.06 -0.05,-1.92 -0.99,-2.9 -2.83,-2.95zm9.52 6.94l-2.49 -6.98 -0.03 0 0 6.98 -1.17 0 0 -7.95 1.98 0 2.25 6.63 0.04 0 2.17 -6.63 2.02 0 0 7.95 -1.2 0 0 -6.98 -0.04 0c-0.15,0.59 -0.94,2.92 -2.37,6.98l-1.16 0z"/>
   <g>
    <g>
     <path class="fil2" d="M340.63 361.94l-35.01 0 0 -0.71 35.01 0 0 0.71zm4.08 -0.36l-4.31 2.16 0 -4.31 4.31 2.15z"/>
    </g>
    <g>
     <path class="fil2" d="M305.97 239.42l0 80.83 -0.7 0 0 -80.83 0.35 -0.36 0.35 0.36zm-0.7 0l0 -0.36 0.35 0 -0.35 0.36zm35.36 0.35l-35.01 0 0 -0.71 35.01 0 0 0.71zm4.08 -0.35l-4.31 2.15 0 -4.31 4.31 2.16z"/>
    </g>
    <g>
     <path class="fil2" d="M305.27 418l0 -97.75 0.7 0 0 97.75 -0.35 0.35 -0.35 -0.35zm0.35 0.35l-0.35 0 0 -0.35 0.35 0.35zm35.01 0l-35.01 0 0 -0.7 35.01 0 0 0.7zm4.08 -0.35l-4.31 2.16 0 -4.31 4.31 2.15z"/>
    </g>
    <g>
     <path class="fil2" d="M305.97 305.79l0 14.46 -0.7 0 0 -14.46 0.35 -0.35 0.35 0.35zm-0.7 0l0 -0.35 0.35 0 -0.35 0.35zm35.36 0.36l-35.01 0 0 -0.71 35.01 0 0 0.71zm4.08 -0.36l-4.31 2.16 0 -4.31 4.31 2.15z"/>
    </g>
   </g>
   <g>
    <path class="fil2" d="M274.87 327.3l0.08 0 0.07 0.01 0.07 0.01 0.07 0.01 0.06 0.01 0.07 0.02 0.07 0.03 0.06 0.02 0.06 0.03 0.06 0.03 0.06 0.03 0.06 0.04 0.05 0.04 0.06 0.04 0.05 0.05 0.05 0.04 0.04 0.05 0.05 0.05 0.04 0.06 0.04 0.05 0.04 0.06 0.03 0.06 0.03 0.06 0.03 0.06 0.03 0.06 0.02 0.07 0.02 0.07 0.01 0.06 0.02 0.07 0 0.07 0.01 0.08 0 0.07 0 0 0 0.07 -0.01 0.07 0 0.07 -0.02 0.07 -0.01 0.07 -0.02 0.07 -0.02 0.06 -0.03 0.07 -0.03 0.06 -0.03 0.06 -0.03 0.06 -0.04 0.06 -0.04 0.05 -0.04 0.05 -0.05 0.05 -0.04 0.05 -0.05 0.05 -0.05 0.04 -0.06 0.05 -0.05 0.04 -0.06 0.03 -0.06 0.04 -0.06 0.03 -0.06 0.03 -0.06 0.02 -0.07 0.02 -0.07 0.02 -0.06 0.02 -0.07 0.01 -0.07 0.01 -0.07 0.01 -0.08 0 0 0 -0.07 0 -0.07 -0.01 -0.07 -0.01 -0.07 -0.01 -0.07 -0.02 -0.06 -0.02 -0.07 -0.02 -0.06 -0.02 -0.07 -0.03 -0.06 -0.03 -0.06 -0.04 -0.05 -0.03 -0.06 -0.04 -0.05 -0.05 -0.05 -0.04 -0.05 -0.05 -0.05 -0.05 -0.04 -0.05 -0.05 -0.05 -0.03 -0.05 -0.04 -0.06 -0.04 -0.06 -0.03 -0.06 -0.02 -0.06 -0.03 -0.07 -0.02 -0.06 -0.02 -0.07 -0.02 -0.07 -0.01 -0.07 -0.01 -0.07 0 -0.07 -0.01 -0.07 0 0 0.01 -0.07 0 -0.08 0.01 -0.07 0.01 -0.07 0.02 -0.06 0.02 -0.07 0.02 -0.07 0.03 -0.06 0.02 -0.06 0.03 -0.06 0.04 -0.06 0.04 -0.06 0.03 -0.05 0.05 -0.06 0.04 -0.05 0.05 -0.05 0.05 -0.04 0.05 -0.05 0.05 -0.04 0.06 -0.04 0.05 -0.04 0.06 -0.03 0.06 -0.03 0.07 -0.03 0.06 -0.02 0.07 -0.03 0.06 -0.02 0.07 -0.01 0.07 -0.01 0.07 -0.01 0.07 -0.01 0.07 0 0 0zm31.2 1.76l-31.2 0 0 -0.7 31.2 0 0 0.7z"/>
   </g>
   <g>
    <path class="fil5" d="M17.05 302.3c5.18,0 9.37,4.19 9.37,9.37 0,3.16 -1.56,5.95 -3.95,7.65 6.52,2.19 11.29,8.2 11.63,15.38l-34.1 0c0.34,-7.18 5.1,-13.19 11.63,-15.38 -2.4,-1.7 -3.96,-4.49 -3.96,-7.65 0,-5.18 4.2,-9.37 9.38,-9.37zm-15.04 30.59l30.08 0c-0.95,-5.47 -4.84,-10.07 -10.19,-11.86 -0.66,-0.22 -1.11,-0.76 -1.21,-1.44 -0.1,-0.69 0.17,-1.34 0.74,-1.74 2,-1.42 3.19,-3.71 3.19,-6.18 0,-4.18 -3.39,-7.57 -7.57,-7.57 -4.19,0 -7.58,3.39 -7.58,7.57 0,2.47 1.19,4.76 3.2,6.18 0.57,0.4 0.84,1.05 0.74,1.74 -0.1,0.68 -0.55,1.22 -1.21,1.44 -5.35,1.79 -9.24,6.39 -10.19,11.86z"/>
    <path class="fil1" d="M8.45 351.34c-0.08,-0.05 -0.19,-0.13 -0.35,-0.23 -0.18,-0.1 -0.31,-0.18 -0.39,-0.23 0.47,-0.65 0.75,-1.27 0.86,-1.87 0.15,-0.59 0.23,-1.51 0.23,-2.75l0 -3.68 7.76 0 0 7.4c0.06,0.81 -0.36,1.21 -1.24,1.21 -0.15,0 -0.36,0.01 -0.62,0.04 -0.26,0 -0.45,0 -0.58,0 -0.05,-0.31 -0.11,-0.58 -0.16,-0.82 0.13,0 0.31,0.01 0.55,0.04 0.23,0 0.41,0 0.54,0 0.52,0.03 0.76,-0.17 0.74,-0.58l0 -1.59 -2.76 0 0 2.87 -0.81 0 0 -2.87 -2.72 0c-0.05,1.06 -0.4,2.08 -1.05,3.06zm7.34 -8.06l-2.76 0 0 1.81 2.76 0 0 -1.81zm-2.76 2.51l0 1.79 2.76 0 0 -1.79 -2.76 0zm-3.45 0.47c0,0.49 -0.02,0.93 -0.04,1.32l2.68 0 0 -1.79 -2.64 0 0 0.47zm0 -2.98l0 1.81 2.64 0 0 -1.81 -2.64 0zm8.73 8.03c-0.26,-0.21 -0.47,-0.4 -0.66,-0.58 0.47,-0.62 0.77,-1.23 0.9,-1.83 0.15,-0.62 0.23,-1.51 0.23,-2.68l0 -2.8 3.61 0c-0.03,-0.05 -0.08,-0.15 -0.16,-0.31 -0.08,-0.2 -0.23,-0.5 -0.46,-0.89l0.81 -0.23c0.05,0.13 0.14,0.31 0.27,0.54 0.21,0.39 0.37,0.69 0.47,0.89l3.06 0 0 4.36 -0.81 0 0 -0.47 -6.01 0c-0.03,1.58 -0.44,2.91 -1.25,4zm1.28 -5.05l0 0.28 5.98 0 0 -2.38 -5.98 0 0 2.1z"/>
   </g>
   <g>
    <path class="fil2" d="M43.64 318.84l0.07 0 0.07 0.01 0.07 0.01 0.07 0.01 0.07 0.02 0.07 0.01 0.06 0.03 0.06 0.02 0.07 0.03 0.06 0.03 0.06 0.04 0.05 0.03 0.06 0.04 0.05 0.04 0.05 0.05 0.05 0.04 0.05 0.05 0.04 0.05 0.05 0.06 0.03 0.05 0.04 0.06 0.04 0.06 0.03 0.06 0.03 0.06 0.02 0.07 0.02 0.06 0.02 0.07 0.02 0.07 0.01 0.07 0.01 0.07 0 0.07 0.01 0.07 0 0 -0.01 0.07 0 0.07 -0.01 0.07 -0.01 0.07 -0.02 0.07 -0.02 0.07 -0.02 0.06 -0.02 0.07 -0.03 0.06 -0.03 0.06 -0.04 0.06 -0.04 0.06 -0.03 0.05 -0.05 0.06 -0.04 0.05 -0.05 0.05 -0.05 0.04 -0.05 0.05 -0.05 0.04 -0.06 0.04 -0.05 0.03 -0.06 0.04 -0.06 0.03 -0.07 0.03 -0.06 0.02 -0.06 0.03 -0.07 0.01 -0.07 0.02 -0.07 0.01 -0.07 0.01 -0.07 0.01 -0.07 0 0 0 -0.07 0 -0.08 -0.01 -0.07 -0.01 -0.07 -0.01 -0.06 -0.02 -0.07 -0.01 -0.07 -0.03 -0.06 -0.02 -0.06 -0.03 -0.06 -0.03 -0.06 -0.04 -0.06 -0.03 -0.05 -0.04 -0.06 -0.04 -0.05 -0.05 -0.05 -0.04 -0.04 -0.05 -0.05 -0.05 -0.04 -0.06 -0.04 -0.05 -0.04 -0.06 -0.03 -0.06 -0.03 -0.06 -0.03 -0.06 -0.03 -0.07 -0.02 -0.06 -0.02 -0.07 -0.01 -0.07 -0.01 -0.07 -0.01 -0.07 -0.01 -0.07 0 -0.07 0 0 0 -0.07 0.01 -0.07 0.01 -0.07 0.01 -0.07 0.01 -0.07 0.02 -0.07 0.02 -0.06 0.03 -0.07 0.03 -0.06 0.03 -0.06 0.03 -0.06 0.04 -0.06 0.04 -0.05 0.04 -0.06 0.05 -0.05 0.04 -0.05 0.05 -0.04 0.05 -0.05 0.06 -0.04 0.05 -0.04 0.06 -0.03 0.06 -0.04 0.06 -0.03 0.06 -0.03 0.06 -0.02 0.07 -0.03 0.07 -0.01 0.06 -0.02 0.07 -0.01 0.07 -0.01 0.08 -0.01 0.07 0 0 0zm41.24 1.76l-41.24 0 0 -0.7 41.24 0 0 0.7zm4.08 -0.35l-4.31 2.16 0 -4.32 4.31 2.16z"/>
   </g>
   <g>
    <path class="fil2" d="M498.79 88.65l0 35.75 -0.71 0 0 -35.75 0.36 -0.36 0.35 0.36zm-0.35 -0.36l0.35 0 0 0.36 -0.35 -0.36zm-21.34 0l21.34 0 0 0.71 -21.34 0 -0.35 -0.35 0.35 -0.36zm-0.35 0.36l0 -0.36 0.35 0 -0.35 0.36zm0.8 415.12l-0.8 -415.12 0.71 0 0.8 415.12 -0.35 0.35 -0.36 -0.35zm0.36 0.35l-0.36 0 0 -0.35 0.36 0.35zm100.07 0l-100.07 0 0 -0.7 100.07 0 0 0.7zm4.09 -0.35l-4.32 2.16 0 -4.31 4.32 2.15z"/>
   </g>
   <path class="fil1" d="M425.29 247.65l0 -3.22 3.19 0 0 3.22 -0.85 0 0 1.32 0.93 0 0 0.89 -0.93 0 0 1.67c0.1,0 0.27,-0.02 0.5,-0.08 0.26,-0.02 0.46,-0.05 0.58,-0.07 -0.02,0.38 -0.02,0.68 0,0.89 -0.54,0.08 -1.3,0.21 -2.29,0.39 -0.65,0.1 -1.13,0.18 -1.44,0.23l-0.19 -0.97 0.46 -0.04 0 -3.46 0.78 0 0 3.34 0.7 -0.11 0 -4 -1.44 0zm8.62 1.7c-1.06,-0.31 -1.87,-0.65 -2.44,-1.01 -0.62,0.41 -1.48,0.79 -2.56,1.12 -0.08,-0.28 -0.21,-0.58 -0.39,-0.89 0.88,-0.26 1.6,-0.54 2.17,-0.85 -0.34,-0.29 -0.64,-0.69 -0.93,-1.21 -0.08,0.13 -0.22,0.3 -0.43,0.51 -0.1,0.13 -0.18,0.22 -0.23,0.27 -0.03,-0.05 -0.07,-0.11 -0.12,-0.19 -0.1,-0.13 -0.24,-0.31 -0.42,-0.55 0.75,-0.88 1.3,-1.74 1.67,-2.6l1.04 0.12c-0.02,0.08 -0.07,0.18 -0.15,0.31 -0.05,0.1 -0.14,0.28 -0.27,0.54l2.87 0 0 0.9c-0.41,0.75 -0.91,1.39 -1.47,1.94 0.54,0.28 1.21,0.5 2.01,0.66 -0.18,0.39 -0.29,0.7 -0.35,0.93zm-4.69 3.93l0 -3.74 4.34 0 0 3.74 -0.97 0 0 -0.58 -2.4 0 0 0.58 -0.97 0zm0.97 -2.84l0 1.48 2.4 0 0 -1.48 -2.4 0zm-4 -5.16l0 1.51 1.4 0 0 -1.51 -1.4 0zm6.48 0.5l-2.37 0c0.31,0.57 0.7,1.05 1.17,1.43 0.46,-0.38 0.86,-0.86 1.2,-1.43zm3.31 7.42l0 -7.57 3.5 0 0 -1.63 1.09 0 0 1.63 3.52 0 0 7.57 -1.04 0 0 -0.59 -6.02 0 0 0.59 -1.05 0zm1.05 -3.62l0 2.1 2.45 0 0 -2.1 -2.45 0zm3.54 0l0 2.1 2.48 0 0 -2.1 -2.48 0zm2.48 -2.98l-2.48 0 0 2.05 2.48 0 0 -2.05zm-6.02 0l0 2.05 2.45 0 0 -2.05 -2.45 0zm9.6 6.71c-0.26,-0.36 -0.48,-0.66 -0.66,-0.89 1.58,-0.57 2.44,-1.49 2.6,-2.76 0.05,-0.23 0.08,-0.49 0.08,-0.77l-1.48 0 0 -0.86c-0.26,0.24 -0.54,0.47 -0.85,0.7 -0.03,-0.05 -0.08,-0.13 -0.16,-0.23 -0.18,-0.36 -0.32,-0.62 -0.43,-0.78 1.4,-0.93 2.47,-2.15 3.23,-3.65l0.97 0.43c-0.75,1.45 -1.62,2.59 -2.61,3.42l6.26 0c-0.03,0.36 -0.06,0.97 -0.08,1.82 -0.05,0.75 -0.08,1.28 -0.08,1.59 -0.03,1.17 -0.65,1.74 -1.86,1.71 -0.6,0 -1.1,0 -1.52,0 -0.05,-0.39 -0.11,-0.71 -0.19,-0.97 0.15,0 0.39,0 0.7,0 0.39,0.03 0.67,0.04 0.85,0.04 0.62,0.03 0.95,-0.3 0.97,-0.97 0.05,-0.83 0.08,-1.58 0.08,-2.25l-2.72 0c0,0.1 -0.01,0.24 -0.04,0.42 -0.02,0.21 -0.05,0.37 -0.07,0.47 -0.11,1.55 -1.1,2.73 -2.99,3.53zm7.99 -4.62c-1.68,-1.08 -2.86,-2.53 -3.53,-4.35l0.93 -0.38c0.7,1.7 1.78,2.93 3.23,3.68 -0.11,0.21 -0.31,0.56 -0.63,1.05zm2.03 -1.78l0 -0.97c0.18,-0.36 0.4,-0.91 0.66,-1.63l1.01 0.15c-0.05,0.11 -0.11,0.29 -0.19,0.55 -0.18,0.46 -0.31,0.79 -0.39,0.97l1.71 0c0.2,-0.7 0.36,-1.37 0.46,-2.02l1.09 0.08c-0.03,0.13 -0.06,0.32 -0.12,0.58 -0.13,0.59 -0.24,1.05 -0.35,1.36l5.13 0 0 0.93 -5.36 0c-0.1,0.33 -0.22,0.68 -0.35,1.04l4.74 0 0 0.86c-0.52,1.03 -1.18,1.86 -1.98,2.48 0.77,0.39 1.75,0.68 2.91,0.86 -0.21,0.39 -0.39,0.74 -0.54,1.05 -1.35,-0.37 -2.45,-0.79 -3.3,-1.29 -0.99,0.5 -2.14,0.95 -3.46,1.36 -0.03,-0.07 -0.08,-0.18 -0.15,-0.31 -0.08,-0.18 -0.2,-0.4 -0.35,-0.66 1.21,-0.26 2.24,-0.59 3.06,-1.01 -0.62,-0.57 -1.12,-1.24 -1.51,-2.02 -0.7,1.32 -1.61,2.49 -2.72,3.5 -0.1,-0.31 -0.23,-0.67 -0.39,-1.09 1.4,-1.29 2.37,-2.88 2.91,-4.77l-2.52 0zm6.8 1.94l-3.23 0c0.34,0.7 0.86,1.33 1.56,1.9 0.75,-0.54 1.3,-1.18 1.67,-1.9zm0.35 -2.88c-0.47,-0.49 -0.95,-0.93 -1.44,-1.31l0.62 -0.63c0.13,0.11 0.34,0.28 0.62,0.51 0.44,0.33 0.75,0.57 0.93,0.7l-0.73 0.73z"/>
  </g>
 </g>
</svg>
