<svg width="48" height="48" viewBox="0 0 48 48" fill="none" xmlns="http://www.w3.org/2000/svg">
  <!-- 服务器机架 -->
  <rect x="8" y="6" width="32" height="36" fill="#3B82F6" stroke="#1E40AF" stroke-width="2"/>
  
  <!-- 服务器层级 -->
  <rect x="10" y="8" width="28" height="8" fill="#60A5FA" stroke="#1E40AF" stroke-width="1"/>
  <rect x="10" y="18" width="28" height="8" fill="#60A5FA" stroke="#1E40AF" stroke-width="1"/>
  <rect x="10" y="28" width="28" height="8" fill="#60A5FA" stroke="#1E40AF" stroke-width="1"/>
  
  <!-- 指示灯 -->
  <circle cx="14" cy="12" r="2" fill="#10B981"/>
  <circle cx="14" cy="22" r="2" fill="#10B981"/>
  <circle cx="14" cy="32" r="2" fill="#F59E0B"/>
  
  <!-- 端口/接口 -->
  <rect x="32" y="10" width="4" height="2" fill="#1E40AF"/>
  <rect x="32" y="13" width="4" height="2" fill="#1E40AF"/>
  <rect x="32" y="20" width="4" height="2" fill="#1E40AF"/>
  <rect x="32" y="23" width="4" height="2" fill="#1E40AF"/>
  <rect x="32" y="30" width="4" height="2" fill="#1E40AF"/>
  <rect x="32" y="33" width="4" height="2" fill="#1E40AF"/>
  
  <!-- 云计算符号 -->
  <path d="M20 40 C18 40, 16 38, 16 36 C16 34, 18 32, 20 32 L28 32 C30 32, 32 34, 32 36 C32 38, 30 40, 28 40 Z" fill="#E5E7EB" stroke="#6B7280" stroke-width="1"/>
  <circle cx="24" cy="36" r="1" fill="#6B7280"/>
</svg>