<svg viewBox="0 0 200 200" xmlns="http://www.w3.org/2000/svg" xmlns:xlink="http://www.w3.org/1999/xlink" width="200.000000" height="200.000000" fill="none" customFrame="#000000">
	<g id="favicon.ico">
		<path id="矢量 338" d="M163.413 0.00463951L36.2767 0.00463951C16.2465 0.00463951 0 16.2515 0 36.2812L0 163.409C0 183.438 16.2465 199.681 36.2767 199.681L163.413 199.681C181.397 199.681 196.223 186.592 199.222 169.558L199.222 168.613L199.848 168.613L199.848 36.1237C199.848 16.2515 183.602 0.00463867 163.413 0.00463867" fill="rgb(3,68,128)" fill-rule="nonzero" />
		<path id="矢量 339" d="M151.741 0.0044991L108.201 200L163.564 200C181.548 200 196.375 186.911 199.374 169.877L199.374 168.932L200 168.932L200 36.434C200 16.4043 183.753 0.157431 163.723 0.157431C163.41 0 151.737 0 151.737 0" fill="rgb(17,124,131)" fill-rule="nonzero" />
		<path id="矢量 340" d="M82.9723 0.00463867L36.2836 0.00463867C16.2489 0.00463867 0.00683594 16.2515 0.00683594 36.2812L0.00683594 163.409C0.00683594 182.962 15.3052 198.736 34.7048 199.681L82.9768 0.00463867L82.9723 0.00463867Z" fill="rgb(210,52,49)" fill-rule="nonzero" />
		<g id="组合 249">
			<path id="矢量 341" d="M112.649 137.677L122.902 137.677L122.271 139.728C122.271 139.728 121.954 139.571 120.851 139.728L111.864 139.728L112.653 137.677L112.649 137.677ZM114.545 130.736L124.952 130.736L124.159 133.26C124.159 133.26 119.272 133.26 118.329 133.413C114.858 134.047 112.966 135.783 112.966 135.783L114.54 130.736L114.545 130.736ZM122.112 146.983C121.954 147.298 121.795 147.451 121.641 147.613C121.486 147.77 121.01 147.77 120.538 147.77L119.114 147.77L119.272 145.247L113.12 145.247L112.966 154.711L108.71 155.179C108.234 155.179 107.917 154.868 107.758 154.711C107.44 154.396 107.599 153.919 107.917 153.132L110.761 143.983L120.379 143.983C121.799 143.983 122.906 143.826 123.537 143.826C124.326 143.826 124.957 143.511 125.905 143.038C126.849 142.409 127.166 141.936 127.638 141.46C128.11 140.83 128.741 139.571 129.212 137.515L132.688 126L122.589 126C122.589 126 119.436 126.634 118.174 127.107C116.913 127.579 114.867 129.158 114.867 129.158L115.81 126.004L109.5 126.004L100.666 155.179C100.349 156.29 100.036 157.077 100.036 157.545C100.036 158.179 100.825 158.656 101.297 158.966C101.928 159.443 102.558 159.443 103.348 159.443C104.137 159.6 105.24 159.6 106.818 159.6L111.55 159.6L112.97 154.868L112.97 157.234C112.97 158.179 113.125 158.494 113.76 158.966C114.545 159.596 116.437 159.596 119.118 159.596L123.065 159.596L124.485 155.021L121.173 155.179L120.071 155.179C119.912 155.021 119.753 155.021 119.594 154.868C119.435 154.711 119.277 154.868 119.277 153.919L119.277 150.771L122.747 150.609C124.644 150.609 125.429 149.979 126.218 149.349C127.007 148.715 127.166 148.085 127.479 147.298L128.11 144.46L123.065 144.77C122.747 144.928 122.117 146.983 122.117 146.983L122.112 146.983ZM91.9876 154.553L93.7207 148.558L100.98 148.558L102.395 144.14L95.1408 144.14L96.402 140.515L103.502 140.515L104.922 136.255L86.947 136.255L85.5269 140.673L89.6238 140.673L88.5213 144.298L84.42 144.298L83 148.715L87.1013 148.715L84.7331 156.6C84.4244 157.702 84.8919 158.021 85.2094 158.494C85.5608 158.999 86.0341 159.314 86.6294 159.438C87.4144 159.6 88.0495 159.753 88.5213 159.753L96.724 159.753L98.144 154.868L94.3602 155.341C93.8839 155.341 91.8333 155.179 91.992 154.553L91.9876 154.553ZM146.72 135.468C145.613 135.783 143.721 136.728 143.721 136.728L145.459 130.894L150.663 130.894L149.397 134.992C149.397 134.992 147.823 135.149 146.72 135.468ZM146.879 143.668C146.879 143.668 145.3 143.826 144.198 144.14C142.936 144.455 141.04 145.562 141.04 145.562L142.778 139.57L148.14 139.57C148.14 139.413 146.879 143.664 146.879 143.664L146.879 143.668ZM144.039 153.447L138.676 153.447L140.096 148.4L145.459 148.4L144.039 153.447L144.039 153.447ZM156.974 139.413L164.546 139.413L163.28 143.038L155.553 143.038L154.292 146.983L161.07 146.983L155.867 153.919C155.712 154.391 155.236 154.711 154.764 154.868C154.404 155.198 153.982 155.355 153.498 155.341L151.611 155.341L152.237 153.604L150.504 153.604L157.287 130.894L159.337 130.736L160.127 128.056L160.285 130.894C160.127 132.468 161.388 134.047 164.7 133.728L168.642 133.728L169.904 129.477L168.488 129.477C167.54 129.477 167.222 129.315 167.222 128.843L167.068 126.162L160.127 126.162C157.759 126.162 150.976 126.319 149.556 126.792C147.982 127.264 146.085 128.528 146.085 128.528L146.879 126.162L140.096 126.162L138.676 130.736L131.735 153.762L130.315 153.762L129.054 158.021L142.301 158.021L141.825 159.443L148.453 159.443L148.925 158.021L150.663 158.021L150.817 157.545L150.191 159.6L155.077 159.6C157.6 159.6 159.179 158.341 160.281 156.919L163.91 152.187L164.704 157.077C164.854 158.021 165.489 158.494 165.966 158.651C166.592 158.966 167.068 159.443 167.694 159.443C168.488 159.6 168.96 159.6 169.273 159.6L171.641 159.6L173.061 154.868L172.113 154.868C171.482 154.868 170.693 154.711 170.534 154.553C170.38 154.239 170.38 153.919 170.221 153.447L169.432 148.558L166.274 148.558L167.54 146.983L175.266 146.983L176.527 143.038L169.432 143.038L170.693 139.413L177.793 139.413L179.209 135.149L158.389 135.149L156.974 139.413L156.974 139.413ZM92.9358 126.162L91.1982 129.477C90.8851 130.264 90.4088 130.736 90.0957 130.736C89.5941 130.97 89.0678 131.075 88.5169 131.051L87.5688 131.051L86.1488 135.311L89.4651 135.311C90.8851 135.311 92.1464 134.677 92.7726 134.366C93.4032 134.051 93.5664 134.204 94.0383 133.732L95.1408 132.787L104.922 132.787L106.338 128.366L99.0833 128.366L100.503 126.004C100.345 126.162 92.9358 126.162 92.9358 126.162L92.9358 126.162Z" fill="rgb(255,255,255)" fill-rule="nonzero" />
			<path id="矢量 342" d="M182.208 126.162L179.368 130.894C178.424 132.468 176.846 133.727 174.319 133.727L170.059 133.574L171.329 129.472L172.272 129.472C172.749 129.472 173.057 129.472 173.375 129.319C173.534 129.157 173.851 129.004 174.006 128.842L175.584 126.319L182.208 126.162Z" fill="rgb(255,255,255)" fill-rule="nonzero" />
		</g>
		<path id="矢量 344" d="M152.867 67.818L162.261 67.818L160.964 73.2732L151.583 73.2732L147.548 90.3723C147.085 92.3463 146.648 94.098 146.238 95.6274C145.827 97.1568 145.351 98.5573 144.81 99.8289C144.277 101.1 143.644 102.292 142.91 103.403Q141.81 105.071 140.146 106.711L134.512 105.844C135.194 104.964 135.827 104.079 136.412 103.19Q137.303 101.856 138.024 100.349C138.513 99.3442 138.962 98.2505 139.373 97.0679C139.784 95.8853 140.15 94.5648 140.473 93.1066L146.854 65.7907C147.282 63.9323 147.863 62.2695 148.596 60.8023C149.33 59.3262 150.243 58.0858 151.334 57.081C152.426 56.0763 153.732 55.3116 155.252 54.7869Q157.531 54 160.544 54Q162.68 54 164.422 54.4668C165.593 54.7691 166.479 55.067 167.082 55.3605L164.724 60.5489C164.261 60.3266 163.645 60.1176 162.876 59.922C162.108 59.7175 161.204 59.6152 160.165 59.6152C159.09 59.6152 158.177 59.7708 157.426 60.0821C156.675 60.3933 156.029 60.8245 155.487 61.3758C154.955 61.9182 154.518 62.5807 154.177 63.3632C153.837 64.1457 153.562 64.9904 153.352 65.8974L152.867 67.818ZM33.7356 58.1481Q40.4434 58.1481 44.0069 60.829Q45.3172 61.8062 46.1474 63.0932L46.1474 63.0932Q47.5835 65.3191 47.5835 68.4716C47.5835 71.0947 47.09 73.3265 46.1031 75.1672Q45.3743 76.5262 44.3726 77.6397L44.3722 77.6401L44.3722 77.6402Q43.339 78.7884 42.0155 79.6754Q39.4215 81.4226 35.7925 82.2095Q32.1766 82.9965 27.827 82.9965L24.9316 82.9965L21.7743 96.3877L15.001 96.3877L23.7525 59.0684Q26.3335 58.5215 28.9013 58.3348Q31.4822 58.1481 33.7356 58.1481ZM123.376 89.5587C124.258 91.9951 125.035 94.2714 125.708 96.3877L131.132 96.3877L140.04 58.5215L133.333 58.5215L127.372 84.3703C126.655 82.2896 125.813 80.0844 124.843 77.7547Q123.402 74.2602 121.843 70.7924C120.812 68.4805 119.751 66.2708 118.659 64.1634C117.568 62.0472 116.52 60.1665 115.515 58.5215L110.091 58.5215L101.182 96.3877L107.838 96.3877L114.336 68.7383Q115.947 71.646 117.533 75.1138C118.59 77.4257 119.607 79.8043 120.585 82.2496C121.572 84.6859 122.502 87.1223 123.376 89.5587ZM33.0937 63.9367Q32.0718 63.9367 31.1547 63.9901C30.552 64.0256 29.945 64.079 29.3336 64.1501L26.2811 77.2079L29.0192 77.2079C30.5215 77.2079 31.967 77.0834 33.3557 76.8344Q35.4519 76.4476 37.0633 75.554C38.1376 74.9493 38.9935 74.1268 39.6311 73.0865Q40.6006 71.5259 40.6006 69.1251Q40.6006 67.2535 39.6911 66.0973Q39.246 65.5315 38.583 65.1371Q36.5786 63.9367 33.0937 63.9367ZM51.1219 94.1469C52.8775 96.1476 55.4191 97.1479 58.7471 97.1479C61.4984 97.1479 63.8828 96.5477 65.9004 95.3473C67.9267 94.1469 69.5905 92.6175 70.8919 90.7591C72.202 88.9007 73.1671 86.8422 73.7872 84.5837C74.4161 82.3251 74.7305 80.1244 74.7305 77.9815Q74.7305 73.584 72.6283 70.7412L72.6283 70.7411L72.6281 70.7409L72.6278 70.7405Q72.3774 70.402 72.0972 70.0854Q71.6204 69.5442 71.0651 69.1015L71.0649 69.1014Q68.5686 67.1111 64.4854 67.1111C61.7691 67.1111 59.4066 67.7113 57.3974 68.9117Q55.5158 70.0409 54.0311 71.5584L54.0307 71.5588L54.0306 71.5589Q53.1481 72.4608 52.4058 73.4999C51.087 75.3583 50.1044 77.4168 49.4581 79.6754Q48.4886 83.0632 48.4886 86.2242Q48.4886 90.6036 50.5736 93.4623L50.574 93.4628Q50.832 93.8165 51.1219 94.1469ZM85.5259 91.7461C87.2377 91.7461 88.5915 91.466 89.5872 90.9058C90.5916 90.3367 91.0938 89.4698 91.0938 88.3049C91.0938 87.3535 90.7707 86.5977 90.1244 86.0375Q89.168 85.1839 86.7574 84.0368C85.8927 83.6367 85.0935 83.2188 84.3599 82.7831C83.6262 82.3474 82.993 81.8405 82.4602 81.2626C81.9274 80.6757 81.4994 79.991 81.1763 79.2085C80.8531 78.426 80.6915 77.488 80.6915 76.3942C80.6915 73.5488 81.7091 71.2903 83.7441 69.6186Q86.8098 67.1111 92.6005 67.1111C94.391 67.1111 95.9937 67.3023 97.4086 67.6846C98.8235 68.067 99.8847 68.4582 100.592 68.8584L98.2864 73.9934C97.6837 73.6289 96.8103 73.2732 95.6661 72.9264C94.522 72.5796 93.321 72.4062 92.0633 72.4062C91.4607 72.4062 90.8624 72.4596 90.2685 72.5663C89.6746 72.673 89.1461 72.8553 88.6832 73.1131C88.2203 73.371 87.836 73.7267 87.5303 74.1802C87.2246 74.6337 87.0718 75.1894 87.0718 75.8474Q87.0718 76.4428 87.2963 76.9359L87.2964 76.9361L87.2965 76.9362Q87.5448 77.4813 88.0675 77.9014C88.7313 78.426 89.6877 78.9773 90.9366 79.5553Q92.7053 80.3823 93.9368 81.1559C94.7665 81.6627 95.4478 82.2362 95.9806 82.8764C96.5221 83.5078 96.9151 84.2147 97.1597 84.9972C97.413 85.7796 97.5396 86.7177 97.5396 87.8114C97.5396 89.1541 97.2688 90.4034 96.7273 91.5594C96.1946 92.7064 95.4172 93.689 94.3953 94.507C93.3822 95.3251 92.1245 95.9698 90.6222 96.441C89.1199 96.9123 87.3993 97.1479 85.4604 97.1479Q83.4821 97.1479 81.8969 96.8679Q80.3116 96.6011 79.1325 96.2543C78.3464 96.0142 77.6826 95.7697 77.1411 95.5207C76.6084 95.2629 76.1978 95.0406 75.9096 94.8538L78.2154 89.6654C78.4687 89.8166 78.8356 90.0122 79.3159 90.2523C79.805 90.4835 80.3596 90.7102 80.9798 90.9325C81.6086 91.1459 82.3074 91.3371 83.076 91.506C83.8446 91.6661 84.6612 91.7461 85.5259 91.7461ZM162.761 78.5016C161.993 80.7335 161.609 83.0899 161.609 85.5707C161.609 87.2068 161.831 88.7273 162.277 90.1322C162.731 91.5372 163.43 92.7598 164.373 93.8001C165.325 94.8316 166.513 95.6497 167.936 96.2543C169.369 96.8501 171.072 97.1479 173.046 97.1479C174.758 97.1479 176.295 96.9568 177.657 96.5744C179.02 96.1921 180.112 95.8008 180.933 95.4007L180.396 89.9989C179.784 90.3279 178.915 90.6569 177.788 90.9859C176.662 91.306 175.491 91.466 174.277 91.466C173.098 91.466 172.116 91.306 171.33 90.9859C170.544 90.6569 169.923 90.19 169.469 89.5854C169.024 88.9807 168.701 88.2872 168.5 87.5047C168.308 86.7222 168.212 85.8597 168.212 84.9171C168.212 83.2366 168.443 81.6538 168.906 80.1689Q169.613 77.9281 170.897 76.2876C171.753 75.1938 172.797 74.3269 174.028 73.6867Q174.184 73.6065 174.342 73.5331Q176.081 72.7263 178.195 72.7263Q179.911 72.7263 181.09 73.0598C181.876 73.2821 182.592 73.5355 183.239 73.82L185.544 68.5249Q183.985 67.818 182.243 67.4712C181.081 67.2311 179.802 67.1111 178.404 67.1111C175.758 67.1111 173.395 67.6046 171.316 68.5916C169.247 69.5697 167.495 70.9079 166.063 72.6063Q166.007 72.6724 165.952 72.7391Q163.884 75.2282 162.761 78.5016ZM61.5748 73.0269Q62.5604 72.673 63.6732 72.673Q65.7356 72.673 66.8025 73.7036L66.8028 73.7039Q67.0708 73.9628 67.276 74.2869Q68.2979 75.9007 68.2979 78.635Q68.2979 80.7024 67.7083 83.0098C67.3153 84.5392 66.7519 85.9308 66.0183 87.1846C65.2846 88.4383 64.3719 89.4742 63.2801 90.2923Q62.5598 90.832 61.7507 91.1344Q60.7205 91.5194 59.5463 91.5194C57.8257 91.5194 56.6244 90.9948 55.9431 89.9455C55.2706 88.8874 54.9343 87.4469 54.9343 85.624C54.9343 84.2013 55.1309 82.7342 55.5239 81.2225C55.9169 79.7109 56.4803 78.3194 57.2139 77.0478C57.948 75.7763 58.8607 74.7315 59.9524 73.9134Q60.7153 73.3356 61.5748 73.0269Z" fill="rgb(255,255,255)" fill-rule="evenodd" />
	</g>
</svg>
