<svg viewBox="0 0 230 59.3549" xmlns="http://www.w3.org/2000/svg" xmlns:xlink="http://www.w3.org/1999/xlink" width="230.000000" height="59.354858" fill="none" customFrame="#000000">
	<g id="logo">
		<g id="优刻云">
			<path id="路径_8" d="M45.2185 28.1774C48.4854 25.7559 51.7523 24.5452 55.6131 24.5452C57.9369 24.5531 60.1592 25.0315 62.2798 25.9805C64.4004 26.9294 66.2367 28.2671 67.7889 29.9937C68.5753 30.829 69.2749 31.7314 69.8876 32.701C70.5003 33.6705 71.0149 34.6894 71.4315 35.7577C71.8481 36.826 72.1589 37.924 72.3641 39.0519C72.5693 40.1798 72.665 41.3169 72.6513 42.4632C72.6376 43.6095 72.5147 44.7439 72.2826 45.8666C72.0505 46.9893 71.7135 48.0797 71.2715 49.1377C70.8295 50.1957 70.2907 51.2021 69.6549 52.1568C69.0192 53.1114 68.2983 53.9969 67.4921 54.8133C64.522 57.5376 61.5526 59.0507 57.9886 59.3535L51.1581 52.6946L55.0188 52.6946C58.8796 52.3918 61.2555 51.1811 62.7397 49.6679C63.228 49.1698 63.6652 48.6304 64.0512 48.0497C64.4373 47.469 64.7653 46.8573 65.0353 46.2145C65.3053 45.5718 65.5125 44.9095 65.6569 44.2276C65.8013 43.5458 65.8804 42.8564 65.894 42.1596C65.9077 41.4628 65.8557 40.7709 65.7382 40.0839C65.6206 39.3969 65.4395 38.727 65.1949 38.0743C64.9503 37.4215 64.6465 36.7974 64.2836 36.2021C63.9206 35.6067 63.5049 35.0506 63.0365 34.5338C60.9577 32.4151 58.5818 31.5072 55.6124 31.5072C53.8304 31.5072 51.407 32.0824 48.4848 34.5338C47.0188 35.7407 43.921 38.3387 42.7329 39.5498L37.9668 34.6672C40.1703 32.4151 43.4369 29.6915 45.2185 28.1774Z" fill="rgb(0,54,255)" fill-rule="nonzero" />
			<path id="路径_9" d="M0 15.1748C0.417395 14.0668 0.916053 12.9966 1.49597 11.9641C2.07589 10.9316 2.73045 9.94867 3.45964 9.01529C4.18882 8.08191 4.98431 7.20875 5.8461 6.39582C6.70788 5.58288 7.62611 4.83946 8.60079 4.16555C9.57547 3.49164 10.5955 2.89495 11.6608 2.37548C12.726 1.85601 13.8245 1.41969 14.956 1.06653C16.0876 0.713369 17.2393 0.447399 18.4113 0.268623C19.5832 0.0898459 20.7619 0.000304968 21.9475 0C33.6738 0 42.9924 8.62884 44.7963 19.3403L37.8826 19.3403C36.3797 11.9018 29.7654 6.54595 21.9488 6.54595C20.3732 6.54801 18.8289 6.76891 17.3161 7.20866C15.8033 7.64841 14.3816 8.28964 13.051 9.13235C11.7205 9.97505 10.5336 10.986 9.49045 12.1651C8.44729 13.3442 7.58901 14.6449 6.91561 16.0673C6.91561 16.0673 6.61464 16.3649 6.61464 16.0673C4.51041 15.7697 2.10292 15.1748 0 15.1748Z" fill="rgb(0,54,255)" fill-rule="nonzero" transform="matrix(0.961389,-0.275192,0.276083,0.961134,5.23828,12.3275)" />
			<path id="路径_7" d="M9.85687 49.4516C11.0385 50.652 13.401 52.4523 17.5354 52.4523L42.9338 52.4523C35.2553 44.9505 28.758 38.649 28.1674 38.049C27.044 36.8869 25.8628 35.7867 24.6236 34.7485C21.6705 32.0493 19.3073 31.7478 17.2402 31.7478C14.2868 31.7478 11.9239 32.9478 9.85688 34.7485C5.72247 38.6493 5.72246 45.5505 9.85687 49.4516ZM4.83635 29.9471C6.3821 28.2346 8.20909 26.908 10.3173 25.9673C12.4255 25.0267 14.6342 24.5526 16.9435 24.5452C21.0782 24.5452 24.622 26.0453 27.8706 28.4476C29.0522 29.648 30.8238 30.848 32.3011 32.6483C33.4827 33.8486 58.8811 59.055 58.8811 59.055C57.4044 59.3548 55.6322 59.3548 54.1574 59.3548L21.9656 59.3548C19.6031 59.3548 17.8312 59.3548 16.059 59.0546C14.0172 58.8984 12.0591 58.4085 10.1849 57.585C8.31062 56.7614 6.62627 55.6509 5.13182 54.2533C-1.66059 47.6516 -1.66091 36.5485 4.83635 29.9471Z" fill="rgb(0,54,255)" fill-rule="nonzero" />
		</g>
		<g id="组_2">
			<path id="路径_2" d="M183.259 25.7702L229.999 25.7702L229.999 30.9959L204.947 30.9959C197.656 42.0074 193.917 47.7931 193.917 48.3528C193.917 48.9125 193.917 49.1008 194.104 49.1008L219.156 49.1008C219.717 49.1008 219.905 48.7274 219.905 47.7944L219.905 39.581L225.514 39.581L225.514 48.7261C225.514 52.2709 224.018 54.1385 221.027 54.5119L189.803 54.5119C189.297 54.5147 188.814 54.4144 188.351 54.2111C187.889 54.0077 187.488 53.719 187.149 53.3449C186.81 52.9708 186.563 52.5439 186.406 52.0643C186.25 51.5847 186.198 51.0941 186.252 50.5925C186.252 49.0994 190.178 42.5672 198.03 30.9959L183.072 30.9959L183.072 25.7702L183.259 25.7702ZM186.623 9.90637L227.382 9.90637L227.382 15.1321L186.623 15.1321L186.623 9.90637Z" fill="rgb(0,54,255)" fill-rule="nonzero" />
			<rect id="矩形_30_00000061441276690079182010000017013284684053878662_" width="5.982858" height="31.727667" x="164.501953" y="12.519409" fill="rgb(0,54,255)" />
			<path id="路径_27_00000127735322374891505560000015568990832767520428_" d="M165.25 55.6319L166.746 49.8461L171.046 49.8461C171.347 49.858 171.638 49.8092 171.918 49.6997C172.199 49.5901 172.445 49.429 172.658 49.2164C172.871 49.0038 173.033 48.7575 173.142 48.4775C173.252 48.1975 173.301 47.9072 173.289 47.6068L173.289 7.85339L179.272 7.85339L179.272 46.6735C179.272 52.4592 176.654 55.4452 171.232 55.4452L165.25 55.6319Z" fill="rgb(0,54,255)" fill-rule="nonzero" />
			<path id="路径_22_00000181786225579021621920000001932147113999552932_" d="M79.9945 55.6319L79.9945 26.3309C79.0596 27.2639 77.9379 28.1972 76.8159 29.1306L75.3203 30.2502L75.3203 22.5982L75.5073 22.2248C79.0831 18.1162 81.8251 13.5127 83.7334 8.41434L83.9204 7.854L91.0249 7.854L90.6509 8.97368C89.5628 12.2433 88.1294 15.3545 86.3507 18.3071L86.3507 55.6338L79.9945 55.6319Z" fill="rgb(0,54,255)" fill-rule="nonzero" />
			<rect id="矩形_29_00000120541735188526490520000006411221938917508501_" width="7.291497" height="5.972393" x="111.779297" y="9.160034" fill="rgb(0,54,255)" />
			<path id="路径_23_00000032630932896373872110000016298684455220252077_" d="M150.481 23.9043L157.959 23.9043C138.702 50.2196 138.515 50.2196 137.767 51.3396C135.524 54.139 134.589 55.4453 130.663 55.4453L117.202 55.4453C116.433 55.5091 115.67 55.4626 114.915 55.3059C114.159 55.1492 113.441 54.8887 112.761 54.5245C112.081 54.1602 111.467 53.7072 110.918 53.1653C110.369 52.6234 109.909 52.0149 109.537 51.3399C108.747 49.6831 108.436 47.9411 108.602 46.1139L108.602 23.5306L105.237 23.5306C104.115 31.9294 101.686 46.8602 96.6361 55.445L96.6361 55.6316L89.5312 55.6316L89.7179 55.2583C94.7674 45.3669 97.3834 32.6757 98.505 23.5306L89.7179 23.5306L89.7179 17.3719L99.253 17.3719C99.6333 14.2723 99.8202 11.1612 99.8137 8.03853L99.8137 7.85219L106.357 7.85219L106.357 8.03885C106.357 10.2782 106.17 13.6379 105.796 17.3706L123.37 17.3706L123.37 23.5293L115.333 23.5293L115.333 46.3015C115.333 49.2875 116.454 49.8463 117.763 49.8463L129.729 49.8463C130.505 49.9221 131.234 49.7725 131.917 49.3975C132.6 49.0226 133.117 48.4878 133.468 47.7932L133.655 47.6069C133.655 47.6069 134.216 46.8589 134.777 45.9269C135.899 44.4335 138.142 41.2608 140.386 38.0894L139.451 38.0894C139.009 38.0913 138.57 38.0499 138.136 37.9651C137.702 37.8803 137.28 37.7539 136.871 37.5857C136.462 37.4176 136.073 37.211 135.705 36.966C135.337 36.721 134.996 36.4423 134.683 36.13C134.37 35.8177 134.091 35.4778 133.846 35.1103C133.6 34.7427 133.393 34.3548 133.225 33.9463C133.056 33.5379 132.93 33.1169 132.845 32.6835C132.76 32.25 132.718 31.8124 132.72 31.3707C132.783 29.8834 133.22 28.5147 134.029 27.2647L140.76 18.3062L131.412 18.3062L131.412 12.3338L143.563 12.3338L143.563 7.66711L151.602 7.66711L151.602 12.3328L161.886 12.3328L161.886 18.3052L148.425 18.3052L139.077 30.9964L139.077 31.5564C139.077 31.7427 139.263 31.7427 139.45 31.7427L145.059 31.7427L150.481 23.9043Z" fill="rgb(0,54,255)" fill-rule="nonzero" />
			<path id="路径_26_00000073695245610775052130000010354037759649886107_" d="M155.34 55.4452L150.292 49.6594L146.179 55.4452L138.514 55.6318L154.031 33.6089L161.883 33.4226L153.843 44.4341L163.004 55.6322L155.34 55.4452Z" fill="rgb(0,54,255)" fill-rule="nonzero" />
		</g>
	</g>
</svg>
