<svg viewBox="0 0 81 20" xmlns="http://www.w3.org/2000/svg" xmlns:xlink="http://www.w3.org/1999/xlink" width="81.000000" height="20.000000" fill="none" customFrame="#000000">
	<g id="组合 240">
		<rect id="矩形 117" width="81.000000" height="20.000000" x="0.000000" y="0.000000" fill="rgb(255,255,255)" fill-opacity="0" />
		<g id="组合 239">
			<g id="组合 238">
				<path id="矢量 270" d="M32.8398 2.56811C32.834 2.55932 32.8223 2.54907 32.8086 2.53735L31.1699 2.01001Q31.1561 1.99816 31.1449 2.00029Q31.1395 2.00132 31.1348 2.00562C31.1289 2.01147 31.1211 2.02173 31.1074 2.03638C30.584 3.53637 29.9785 5.00414 29.293 6.43967C28.6113 7.87521 27.8516 9.28439 27.0176 10.6672Q27 10.6892 27 10.7111C27.002 10.7229 27.0098 10.7346 27.0215 10.7463L28.1602 12.5261C28.1719 12.5378 28.1797 12.5436 28.1816 12.5436C28.1875 12.5407 28.1953 12.5319 28.209 12.5173C28.69 11.7166 29.151 10.8988 29.5918 10.0637L29.5918 18.6125C29.5918 18.6418 29.6074 18.6564 29.6367 18.6564L31.373 18.6564C31.4023 18.6564 31.416 18.6418 31.416 18.6125L31.416 8.21506C31.416 8.18576 31.4023 8.17111 31.373 8.17111L30.5423 8.17111C31.3936 6.38756 32.1582 4.53014 32.8359 2.59887C32.8477 2.58423 32.8496 2.57397 32.8398 2.56811ZM51.4688 2.12427C51.498 2.12427 51.5117 2.13892 51.5117 2.16821L51.5117 3.63158L55.3613 3.63158C55.3906 3.63158 55.4062 3.64477 55.4062 3.67113L55.4062 5.34984C55.4062 5.37913 55.3906 5.39378 55.3613 5.39378L50.4549 5.39378L48.1895 8.5007L49.6403 9.76411C50.6305 8.62399 51.4586 7.34592 52.123 5.92991C52.1465 5.90062 52.168 5.89329 52.1895 5.90794L53.7441 6.62864Q53.7725 6.64852 53.774 6.67024Q53.7748 6.68212 53.7676 6.69456Q53.1389 8.00103 52.3304 9.18471L52.3304 9.18474Q51.5942 10.2625 50.709 11.2385C49.4688 12.6008 48.0566 13.717 46.4707 14.5871C46.4512 14.6017 46.4316 14.5959 46.4102 14.5695L45.5918 13.071Q45.589 13.066 45.5881 13.0607Q45.5844 13.038 45.6152 13.0095Q46.8929 12.3064 47.9896 11.3873Q48.2022 11.2091 48.4079 11.0229L45.8691 8.76876C45.8691 8.76876 45.8672 8.76583 45.8652 8.75998L45.8652 8.75119C45.8594 8.72482 45.8594 8.71017 45.8652 8.70724L48.274 5.39378L45.6855 5.39378C45.6562 5.39378 45.6406 5.37913 45.6406 5.34984L45.6406 3.67113C45.6406 3.64477 45.6562 3.63158 45.6855 3.63158L49.6055 3.63158L49.6055 2.16821C49.6055 2.13892 49.6191 2.12427 49.6484 2.12427L51.4688 2.12427ZM37.5859 2.19018C37.5859 2.16089 37.5703 2.14624 37.541 2.14624L35.8066 2.14624C35.7773 2.14624 35.7617 2.16089 35.7617 2.19018L35.7617 5.67064L32.668 5.67064C32.6387 5.67064 32.625 5.68528 32.625 5.71458L32.625 7.39328C32.625 7.42258 32.6387 7.43723 32.668 7.43723L35.7537 7.43723C35.7232 8.83489 35.6065 10.0654 35.4023 11.1286Q35.0449 13.0007 34.207 14.5431Q33.3721 16.0856 31.8867 17.5182C31.8594 17.5446 31.8535 17.5666 31.8691 17.5842L33.0898 18.8146C33.1035 18.8322 33.125 18.8278 33.1523 18.8014Q34.8223 17.2018 35.7891 15.4221C36.4355 14.2355 36.8984 12.9392 37.1738 11.5329C37.4106 10.3214 37.5448 8.9562 37.5779 7.43723L43.959 7.43723C43.9883 7.43723 44.002 7.42258 44.002 7.39328L44.002 5.71458C44.002 5.68528 43.9883 5.67064 43.959 5.67064L37.5859 5.67064L37.5859 2.19018ZM41.5059 2.18579C41.4824 2.15649 41.4609 2.14917 41.4395 2.16382L39.8848 2.68237Q39.8533 2.70753 39.8549 2.73044Q39.8555 2.73954 39.8613 2.74829L40.7539 5.25316C40.7773 5.28245 40.7988 5.28978 40.8203 5.27513L42.377 4.75658C42.4062 4.73607 42.4121 4.7141 42.3984 4.69066L41.5059 2.18579ZM61.6816 2.177C61.707 2.177 61.7207 2.19165 61.7207 2.22095L61.7207 18.4279C61.7207 18.4572 61.707 18.4718 61.6816 18.4718L57.9902 18.4718C57.9609 18.4718 57.9453 18.4572 57.9453 18.4279L57.9453 16.5778C57.9453 16.5485 57.9609 16.5339 57.9902 16.5339L59.9004 16.5339L59.9004 2.22095C59.9004 2.19165 59.916 2.177 59.9453 2.177L61.6816 2.177ZM78.4277 3.00317C78.4277 2.97387 78.4141 2.95922 78.3887 2.95922L64.9473 2.95922C64.918 2.95922 64.9023 2.97387 64.9023 3.00317L64.9023 4.739C64.9023 4.7683 64.918 4.78295 64.9473 4.78295L78.3887 4.78295C78.4141 4.78295 78.4277 4.7683 78.4277 4.739L78.4277 3.00317ZM57.9766 3.51293C58.002 3.51293 58.0156 3.52612 58.0156 3.55248L58.0156 14.7629C58.0156 14.7922 58.002 14.8068 57.9766 14.8068L56.2676 14.8068C56.2422 14.8068 56.2285 14.7922 56.2285 14.7629L56.2285 3.55248C56.2285 3.52612 56.2422 3.51293 56.2676 3.51293L57.9766 3.51293ZM40.7051 8.54025C40.7051 8.51095 40.6914 8.49631 40.6621 8.49631L38.9258 8.49631C38.8965 8.49631 38.8828 8.51095 38.8828 8.54025L38.8828 18.3971C38.8828 18.4118 38.8848 18.422 38.8906 18.4279Q38.8968 18.4335 38.9041 18.4367Q38.914 18.4411 38.9258 18.4411L44.1914 18.4411C44.2207 18.4411 44.2344 18.4264 44.2344 18.3971L44.2344 16.6613C44.2344 16.632 44.2207 16.6174 44.1914 16.6174L40.7051 16.6174L40.7051 8.54025ZM79.8184 8.56222C79.8184 8.53293 79.8027 8.51828 79.7734 8.51828L63.918 8.51828C63.8887 8.51828 63.873 8.53293 63.873 8.56222L63.873 10.2981C63.873 10.3274 63.8887 10.342 63.918 10.342L69.5028 10.342L63.8301 17.9972C63.8301 18.0002 63.8281 18.0046 63.8262 18.0104L63.8262 18.028C63.8281 18.0339 63.8379 18.0368 63.8516 18.0368L78.6484 18.0368C78.6777 18.0368 78.6934 18.0221 78.6934 17.9928L78.6934 13.9675C78.6934 13.9382 78.6777 13.9235 78.6484 13.9235L76.8867 13.9235C76.8574 13.9235 76.8418 13.9382 76.8418 13.9675L76.8418 16.2175L67.4512 16.2175L71.804 10.342L79.7734 10.342C79.8027 10.342 79.8184 10.3274 79.8184 10.2981L79.8184 8.56222ZM53.6562 9.71358C53.6797 9.68429 53.7012 9.67696 53.7227 9.69161L55.2207 10.5002Q55.2507 10.5212 55.2507 10.5421Q55.2507 10.5519 55.2441 10.5617Q54.1943 12.5016 52.7814 14.1256L52.7814 14.1256Q52.7494 14.1624 52.7172 14.199Q52.6232 14.306 52.5275 14.4116L55.625 17.4128Q55.6353 17.4259 55.6353 17.4391Q55.6353 17.4523 55.625 17.4655L54.457 18.6872C54.4434 18.7048 54.4258 18.7048 54.4082 18.6872L51.2863 15.6623Q50.4641 16.4157 49.5581 17.049Q48.1107 18.0608 46.4492 18.7663C46.4297 18.778 46.4102 18.7707 46.3887 18.7443L45.7324 17.1579C45.7188 17.1374 45.7246 17.1154 45.752 17.092C47.4941 16.3566 49.0195 15.3635 50.3301 14.1125C51.6406 12.8615 52.748 11.3952 53.6562 9.71358Z" fill="rgb(37,53,84)" fill-rule="evenodd" />
			</g>
			<path id="矢量 270" d="M16.5599 8.68004C17.6829 7.86413 18.8079 7.45617 20.1359 7.45617C20.9347 7.45885 21.7003 7.62011 22.4288 7.93981C23.1593 8.25951 23.792 8.71032 24.3252 9.2921C24.5967 9.5736 24.8369 9.87767 25.0479 10.2043C25.2588 10.531 25.4346 10.8744 25.5791 11.2344C25.7217 11.5942 25.8291 11.9642 25.8994 12.3443C25.9697 12.7243 26.0029 13.1075 25.999 13.4938C25.9931 13.88 25.9521 14.2623 25.872 14.6406C25.792 15.0189 25.6748 15.3862 25.5244 15.7428C25.3721 16.0993 25.1865 16.4383 24.9678 16.7601C24.749 17.0818 24.501 17.3801 24.2237 17.6552C23.2003 18.5732 22.1788 19.083 20.9523 19.185L18.6028 16.9413L19.9309 16.9413C21.2589 16.8392 22.0773 16.4313 22.587 15.9215C22.755 15.7536 22.9073 15.5719 23.0401 15.3762C23.1729 15.1805 23.2843 14.9743 23.378 14.7578C23.4698 14.5412 23.5421 14.3181 23.5909 14.0882C23.6417 13.8585 23.669 13.6262 23.6729 13.3915C23.6788 13.1567 23.6592 12.9236 23.6202 12.692C23.5792 12.4606 23.5167 12.2348 23.4327 12.0149C23.3487 11.7949 23.2432 11.5846 23.1182 11.384C22.9952 11.1835 22.8507 10.9961 22.6905 10.8219C21.9757 10.108 21.1574 9.80211 20.1359 9.80211C19.5227 9.80211 18.6887 9.99596 17.6829 10.8219C17.179 11.2286 16.1127 12.104 15.7045 12.5121L14.0639 10.8668C14.8217 10.108 15.9467 9.1903 16.5599 8.68004Z" fill="rgb(0,110,255)" fill-rule="evenodd" />
			<path id="矢量 270" d="M4.24401 8.25389C4.27721 7.85631 4.33971 7.46349 4.43346 7.07531C4.5272 6.68713 4.65024 6.3081 4.80258 5.93823C4.95687 5.56835 5.13655 5.21179 5.34357 4.86865C5.55255 4.52539 5.78496 4.19946 6.04277 3.89086C6.30252 3.58227 6.58181 3.29443 6.88648 3.02746C7.1892 2.76037 7.51146 2.51721 7.85129 2.29797C8.19307 2.07861 8.54852 1.88574 8.91765 1.71912C9.28873 1.55249 9.67153 1.41431 10.0621 1.3042C13.9428 0.21692 17.845 2.14734 19.4582 5.44909L17.1712 6.09008C15.9681 3.82043 13.271 2.69922 10.6852 3.42407C10.1637 3.5708 9.67348 3.78552 9.21646 4.06823C8.7575 4.35095 8.34736 4.69042 7.988 5.08679C7.62669 5.48303 7.33178 5.92052 7.09741 6.39916C6.865 6.87768 6.70485 7.37853 6.61696 7.9016C6.61696 7.9016 6.5447 8.02587 6.51736 7.92955C5.79278 8.02831 4.93929 8.05883 4.24401 8.25389Z" fill="rgb(0,110,255)" fill-rule="evenodd" />
			<path id="矢量 270" d="M4.24401 8.25389C4.27721 7.85631 4.33971 7.46349 4.43346 7.07531C4.5272 6.68713 4.65024 6.3081 4.80258 5.93823C4.95687 5.56835 5.13655 5.21179 5.34357 4.86865C5.55255 4.52539 5.78496 4.19946 6.04277 3.89086C6.30252 3.58227 6.58181 3.29443 6.88648 3.02746C7.1892 2.76037 7.51146 2.51721 7.85129 2.29797C8.19307 2.07861 8.54852 1.88574 8.91765 1.71912C9.28873 1.55249 9.67153 1.41431 10.0621 1.3042C13.9428 0.21692 17.845 2.14734 19.4582 5.44909L17.1712 6.09008C15.9681 3.82043 13.271 2.69922 10.6852 3.42407C10.1637 3.5708 9.67348 3.78552 9.21646 4.06823C8.7575 4.35095 8.34736 4.69042 7.988 5.08679C7.62669 5.48303 7.33178 5.92052 7.09741 6.39916C6.865 6.87768 6.70485 7.37853 6.61696 7.9016C6.61696 7.9016 6.5447 8.02587 6.51736 7.92955C5.79278 8.02831 4.93929 8.05883 4.24401 8.25389Z" fill="rgb(0,163,255)" fill-rule="evenodd" />
			<path id="矢量 270" d="M4.39244 15.8486C4.79867 16.253 5.61114 16.8596 7.03296 16.8596L15.7728 16.8596C13.1304 14.3319 10.8961 12.2085 10.691 12.0063C10.3063 11.6147 9.89808 11.2441 9.47231 10.8943C8.45673 9.98473 7.64426 9.88317 6.9314 9.88317C5.91582 9.88317 5.10335 10.2875 4.39244 10.8943C2.96867 12.2086 2.96867 14.534 4.39244 15.8486ZM2.664 9.27635C3.19522 8.69933 3.8241 8.25231 4.55064 7.93541C5.27522 7.6184 6.03495 7.45873 6.82984 7.45617C8.25361 7.45617 9.47231 7.96166 10.5895 8.77111C10.9957 9.17552 11.605 9.57994 12.1148 10.1865C12.521 10.5911 21.2609 19.0844 21.2609 19.0844C20.7512 19.1855 20.1418 19.1855 19.634 19.1855L8.55829 19.1855C7.74582 19.1855 7.13452 19.1855 6.52517 19.0843C5.82402 19.0317 5.15022 18.8667 4.50377 18.5891C3.85926 18.3116 3.2792 17.9375 2.76555 17.4665C0.427758 15.242 0.427757 11.5007 2.664 9.27635Z" fill="rgb(0,110,255)" fill-rule="evenodd" />
			<path id="矢量 270" d="M4.39244 15.8486C4.79867 16.253 5.61114 16.8596 7.03296 16.8596L15.7728 16.8596C13.1304 14.3319 10.8961 12.2085 10.691 12.0063C10.3063 11.6147 9.89808 11.2441 9.47231 10.8943C8.45673 9.98473 7.64426 9.88317 6.9314 9.88317C5.91582 9.88317 5.10335 10.2875 4.39244 10.8943C2.96867 12.2086 2.96867 14.534 4.39244 15.8486ZM2.664 9.27635C3.19522 8.69933 3.8241 8.25231 4.55064 7.93541C5.27522 7.6184 6.03495 7.45873 6.82984 7.45617C8.25361 7.45617 9.47231 7.96166 10.5895 8.77111C10.9957 9.17552 11.605 9.57994 12.1148 10.1865C12.521 10.5911 21.2609 19.0844 21.2609 19.0844C20.7512 19.1855 20.1418 19.1855 19.634 19.1855L8.55829 19.1855C7.74582 19.1855 7.13452 19.1855 6.52517 19.0843C5.82402 19.0317 5.15022 18.8667 4.50377 18.5891C3.85926 18.3116 3.2792 17.9375 2.76555 17.4665C0.427758 15.242 0.427757 11.5007 2.664 9.27635Z" fill="rgb(0,200,220)" fill-rule="evenodd" />
		</g>
	</g>
</svg>
