<svg xmlns:xlink="http://www.w3.org/1999/xlink" xmlns="http://www.w3.org/2000/svg" width="1226" height="715" viewBox="0 0 1226 715" fill="none">
<g clip-path="url(#clip0_990_1967)">
<path d="M189 466.5L193.822 476.992L200.497 467.57L189 466.5ZM385.078 604.184L196.922 470.887L195.766 472.519L383.922 605.816L385.078 604.184Z" fill="url(#paint0_linear_990_1967)"/>
<path d="M1031.5 462L1026.68 472.492L1020 463.07L1031.5 462ZM835.422 599.684L1023.58 466.387L1024.73 468.019L836.578 601.316L835.422 599.684Z" fill="url(#paint1_linear_990_1967)"/>
<rect x="512" y="627" width="188" height="58" rx="29" fill="#0069FF"/>
<path d="M588.744 651.656V655.376H599.28V651.656H588.744ZM601.776 657.464H586.344V649.568H590.256C589.8 648.464 588.912 646.952 588.024 645.824L589.92 644.936C590.952 646.136 592.008 647.768 592.416 648.896L591.024 649.568H595.704C596.568 648.152 597.528 646.304 598.104 644.864L600.408 645.8C599.688 647.048 598.896 648.416 598.152 649.568H601.776V657.464ZM597.72 661.088L596.088 662.528C595.224 661.4 593.472 659.744 591.96 658.712L593.544 657.464C595.104 658.472 596.856 660.032 597.72 661.088ZM585.096 665.624L583.032 664.664C583.968 663.44 584.736 661.328 585.144 659.456L587.256 659.84C586.896 661.832 586.128 664.136 585.096 665.624ZM592.776 664.64H597.456C598.584 664.64 598.776 664.304 598.896 662.336C599.424 662.672 600.36 663.008 601.008 663.128C600.72 665.96 600 666.656 597.6 666.656H592.584C589.44 666.656 588.672 666.032 588.672 663.8V659.096H591.024V663.776C591.024 664.52 591.288 664.64 592.776 664.64ZM600 659.84L601.728 658.856C603.12 660.464 604.56 662.6 605.064 664.088L603.24 665.216C602.736 663.728 601.368 661.496 600 659.84ZM616.512 660.008H610.608V663.728H616.512V660.008ZM608.496 666.776V657.992H618.72V666.608H616.512V665.672H610.608V666.776H608.496ZM619.224 647.6V649.592H607.896V647.6H612.648C612.408 646.856 612.072 645.992 611.76 645.296L613.776 644.72C614.232 645.632 614.712 646.76 614.976 647.6H619.224ZM616.056 649.592L618.264 650.096C617.736 651.416 617.136 652.856 616.608 654.008H619.776V656.024H607.248V654.008H610.632C610.416 652.952 609.84 651.368 609.264 650.168L611.208 649.664C611.832 650.864 612.432 652.448 612.672 653.504L610.92 654.008H614.472C615.072 652.736 615.72 650.912 616.056 649.592ZM627.288 645.968L628.848 646.952C628.008 649.184 626.952 651.92 625.992 654.08C628.032 656.264 628.488 658.136 628.488 659.72C628.488 661.256 628.152 662.408 627.336 662.984C626.928 663.272 626.4 663.44 625.848 663.512C625.272 663.584 624.552 663.584 623.856 663.56C623.832 662.984 623.64 662.048 623.304 661.448C623.928 661.52 624.504 661.52 624.912 661.52C625.272 661.496 625.608 661.424 625.848 661.28C626.304 660.992 626.448 660.32 626.448 659.504C626.448 658.088 625.872 656.384 623.88 654.344C624.672 652.424 625.56 649.928 626.136 648.08H622.824V666.8H620.856V646.064H626.952L627.288 645.968Z" fill="white"/>
<path d="M758 715.5C758 631.277 689.723 563 605.5 563C521.277 563 453 631.277 453 715.5" stroke="url(#paint2_linear_990_1967)"/>
<mask id="path-6-inside-1_990_1967" fill="white">
<path d="M12.4401 297.081C118.088 155.78 270.715 56.8433 442.835 18.0872L523.065 374.399C435.839 394.04 358.491 444.178 304.952 515.786L12.4401 297.081Z"/>
</mask>
<path d="M12.4401 297.081C118.088 155.78 270.715 56.8433 442.835 18.0872L523.065 374.399C435.839 394.04 358.491 444.178 304.952 515.786L12.4401 297.081Z" fill="url(#paint3_linear_990_1967)" stroke="url(#paint4_linear_990_1967)" stroke-width="2" mask="url(#path-6-inside-1_990_1967)"/>
<mask id="path-7-inside-2_990_1967" fill="white">
<path d="M1205.72 306.82C1100.84 161.663 946.906 59.4326 772.433 19.0615L688.416 382.163C775.076 402.215 851.533 452.993 903.627 525.092L1205.72 306.82Z"/>
</mask>
<path d="M1205.72 306.82C1100.84 161.663 946.906 59.4326 772.433 19.0615L688.416 382.163C775.076 402.215 851.533 452.993 903.627 525.092L1205.72 306.82Z" fill="url(#paint5_linear_990_1967)" stroke="url(#paint6_linear_990_1967)" stroke-width="2" mask="url(#path-7-inside-2_990_1967)"/>
<mask id="path-8-inside-3_990_1967" fill="white">
<path d="M448.397 16.8571C553.378 -5.93404 662.06 -5.61095 766.902 17.804L688.504 368.841C634.587 356.8 578.695 356.634 524.707 368.354L448.397 16.8571Z"/>
</mask>
<path d="M448.397 16.8571C553.378 -5.93404 662.06 -5.61095 766.902 17.804L688.504 368.841C634.587 356.8 578.695 356.634 524.707 368.354L448.397 16.8571Z" fill="url(#paint7_linear_990_1967)" stroke="url(#paint8_linear_990_1967)" stroke-width="2" mask="url(#path-8-inside-3_990_1967)"/>
<path d="M501.011 77.8C499.671 77.8 498.511 76.72 498.511 75.12C498.511 73.5 499.671 72.42 501.011 72.42C502.331 72.42 503.511 73.5 503.511 75.12C503.511 76.72 502.331 77.8 501.011 77.8ZM531.16 75.28V71.72H520.78V75.28H531.16ZM532.66 70.32V76.68H519.36V70.32H525.1V64.26H526.58V66.4H534.14V67.8H526.58V70.32H532.66ZM518.26 82.52L516.9 81.86C517.96 80.96 518.98 79.36 519.62 77.88L521.02 78.24C520.36 79.8 519.34 81.48 518.26 82.52ZM522.82 78.42L524.24 78.3C524.5 79.56 524.72 81.2 524.74 82.16L523.26 82.36C523.26 81.36 523.08 79.7 522.82 78.42ZM526.92 78.44L528.26 78.14C528.88 79.34 529.52 80.96 529.76 81.96L528.32 82.3C528.12 81.32 527.52 79.66 526.92 78.44ZM530.98 78.26L532.28 77.76C533.3 79.02 534.44 80.68 534.94 81.8L533.54 82.36C533.08 81.26 531.98 79.54 530.98 78.26ZM546.8 67.7L547.64 66.88C548.52 67.28 549.48 67.76 550.4 68.28C551.14 67.7 551.78 67 552.24 66.24H546.82V65.16H552.9L553.14 65.1L553.98 65.48C553.46 66.86 552.58 68.02 551.52 68.94C552.58 69.58 553.52 70.24 554.16 70.8L553.22 71.76C552.58 71.16 551.6 70.44 550.48 69.74C549.68 70.28 548.82 70.7 547.94 71.02C547.78 70.7 547.46 70.22 547.18 69.96C547.9 69.74 548.62 69.44 549.3 69.02C548.48 68.54 547.6 68.08 546.8 67.7ZM543.66 68.1H540.18C539.54 68.86 538.72 69.58 537.7 70.22C537.5 69.94 537.12 69.58 536.86 69.44C538.3 68.6 539.38 67.5 539.94 66.54L541.16 66.74C541.08 66.88 540.98 67.02 540.9 67.16H541.28V64.26H542.56V65.22H546.02V66.22H542.56V67.16H544.38L544.6 67.1L545.46 67.58C544.04 70.36 540.86 72.18 537.92 73.08C537.78 72.78 537.42 72.34 537.18 72.1C538.3 71.8 539.48 71.32 540.58 70.7C540.12 70.36 539.56 69.98 539.1 69.7L539.9 69.04C540.42 69.34 541.06 69.72 541.54 70.1C542.4 69.52 543.14 68.84 543.66 68.1ZM542.14 76.7V77.74H550V76.7H542.14ZM547.2 73.94H550.48C548.78 73.22 547.2 72.32 545.98 71.34C544.84 72.32 543.46 73.2 541.96 73.94H545.74C545.5 73.54 545.16 73.14 544.86 72.78L546.06 72.48C546.46 72.9 546.9 73.46 547.2 73.94ZM542.14 74.84V75.88H550V74.84H542.14ZM551.42 78.66H546.58C547.64 79 548.86 79.42 550.02 79.88C550.82 79.24 551.78 78.42 552.32 77.86L553.44 78.54C552.74 79.16 551.92 79.8 551.14 80.3C552.16 80.72 553.08 81.12 553.78 81.48L552.96 82.48C551.34 81.58 548.12 80.26 545.64 79.44L546.34 78.66H542.14V80.88L546.58 80.26C546.54 80.58 546.46 81.1 546.46 81.36C541.36 82.14 540.7 82.26 540.3 82.46C540.22 82.12 540 81.6 539.8 81.34C540.14 81.2 540.7 80.9 540.7 80.12V74.5C539.76 74.92 538.78 75.28 537.8 75.58C537.62 75.22 537.26 74.7 536.96 74.4C540.44 73.5 544.14 71.76 546.02 69.52L547.2 70.12C547.06 70.28 546.92 70.42 546.78 70.56C548.74 72.14 552.24 73.48 555.26 74.08C554.98 74.36 554.6 74.88 554.4 75.24C553.44 75.02 552.42 74.7 551.42 74.32V78.66ZM562.5 75.6V64.58H563.96V82.56H562.5V77.02C558.86 78.36 558.28 78.64 557.9 78.96C557.8 78.58 557.5 77.92 557.3 77.6C557.58 77.42 557.98 77.04 557.98 76.26V66.48H559.44V76.62L562.5 75.6ZM567.74 69.54L567.62 69.84C568.2 72.08 568.98 74.2 570.04 76.04C571 74.24 571.64 72.06 572.06 69.54H567.74ZM575.04 69.54H573.56C573 72.7 572.18 75.28 570.9 77.42C572.08 79.06 573.5 80.4 575.22 81.24C574.88 81.54 574.4 82.06 574.2 82.46C572.56 81.56 571.22 80.26 570.08 78.68C568.88 80.26 567.38 81.54 565.5 82.56C565.34 82.24 564.82 81.64 564.52 81.34C566.52 80.36 568.06 79.04 569.24 77.38C568.24 75.7 567.44 73.78 566.84 71.68C566.38 72.64 565.84 73.5 565.26 74.24C565.06 73.94 564.5 73.28 564.2 73C565.92 70.98 566.96 67.72 567.52 64.26L569.04 64.52C568.82 65.76 568.52 66.98 568.2 68.14H575.04V69.54ZM584.12 67.98H579.44C578.86 68.96 578.2 69.82 577.52 70.54C577.4 70.2 577 69.46 576.74 69.12C577.94 67.96 579 66.18 579.62 64.32L580.96 64.72C580.74 65.34 580.5 65.96 580.2 66.56H584.12V67.98ZM581.44 79.9L584.26 78.54C584.3 78.9 584.42 79.52 584.52 79.8C580.78 81.74 580.22 82.04 579.88 82.38C579.78 82.04 579.5 81.42 579.28 81.12C579.58 80.96 580.02 80.62 580.02 79.86V75.48H577.24V74.12H580.02V71.42H578.26V70.08H583.84V71.42H581.44V74.12H584.28V75.48H581.44V79.9ZM586.72 70.12V72.54H592.54V70.12H586.72ZM592.54 66.46H586.72V68.88H592.54V66.46ZM594.02 74.52L594.94 75.56C593.96 76.4 592.64 77.3 591.56 77.96C592.5 79.36 593.76 80.46 595.32 81.12C594.98 81.4 594.54 82 594.34 82.38C591.3 80.9 589.5 77.82 588.52 73.86H586.72V80.46L590.24 79.6C590.22 80.04 590.26 80.64 590.3 80.96C586.2 82.08 585.58 82.28 585.2 82.54C585.08 82.2 584.78 81.6 584.54 81.32C584.84 81.16 585.26 80.74 585.26 79.92V65.14H593.92V73.86H589.74C590.06 74.96 590.44 75.98 590.92 76.9C591.98 76.22 593.24 75.28 594.02 74.52ZM501.011 103.8C499.671 103.8 498.511 102.72 498.511 101.12C498.511 99.5 499.671 98.42 501.011 98.42C502.331 98.42 503.511 99.5 503.511 101.12C503.511 102.72 502.331 103.8 501.011 103.8ZM521.92 94.58V93H517.28V91.68H521.92V90.28H523.4V91.68H528.58V90.28H530.08V91.68H534.78V93H530.08V94.36H528.58V93H523.4V94.58H521.92ZM532.16 94.16L533.36 95.32C529.5 96.2 523.28 96.64 518.22 96.74C518.18 96.38 518.02 95.8 517.88 95.48C522.86 95.34 528.96 94.92 532.16 94.16ZM526.82 99.6L525.44 100.06C525.32 99.3 524.8 98.12 524.26 97.24L525.56 96.84C526.14 97.68 526.66 98.8 526.82 99.6ZM521.84 100.18L520.54 100.74C520.28 99.9 519.52 98.66 518.78 97.76L520.02 97.24C520.8 98.12 521.56 99.34 521.84 100.18ZM532.1 96.5L533.58 97.08C532.78 98.38 531.78 99.9 531 100.88L529.84 100.38C530.6 99.36 531.56 97.68 532.1 96.5ZM534.84 103.04H528C529.74 104.7 532.54 106.08 535.18 106.72C534.84 107.04 534.4 107.62 534.18 108.02C531.46 107.18 528.56 105.5 526.72 103.5V108.52H525.2V103.54C523.28 105.52 520.4 107.26 517.76 108.16C517.54 107.76 517.1 107.18 516.74 106.86C519.28 106.16 522.08 104.68 523.86 103.04H517.22V101.7H525.2V100.18H526.72V101.7H534.84V103.04ZM550 96.32V92.54H542.06V96.32H550ZM551.5 91.12V97.74H540.62V91.12H551.5ZM543.32 101.28H539.14V106.02H543.32V101.28ZM537.72 108.54V99.84H544.78V108.36H543.32V107.46H539.14V108.54H537.72ZM548.4 106.02H552.94V101.28H548.4V106.02ZM546.96 99.84H554.4V108.4H552.94V107.46H548.4V108.54H546.96V99.84ZM501.011 129.8C499.671 129.8 498.511 128.72 498.511 127.12C498.511 125.5 499.671 124.42 501.011 124.42C502.331 124.42 503.511 125.5 503.511 127.12C503.511 128.72 502.331 129.8 501.011 129.8ZM534.98 126.56V128.02H526.78V132.46C526.78 133.52 526.46 133.96 525.72 134.2C524.98 134.44 523.7 134.48 521.6 134.46C521.48 134.04 521.2 133.38 520.96 132.98C522.64 133.04 524.2 133.02 524.66 133C525.1 133 525.28 132.86 525.28 132.44V128.02H517.06V126.56H525.28V123.32H518.4V121.9H525.28V118.82C523.08 119.06 520.82 119.2 518.76 119.3C518.7 118.9 518.52 118.32 518.38 117.98C523.1 117.76 528.9 117.24 531.9 116.3L533.02 117.48C531.32 118 529.14 118.38 526.78 118.66V121.9H533.86V123.32H526.78V126.56H534.98ZM544.84 125.94L543.98 127.36C543.56 126.62 542.64 125.22 541.9 124.12V134.52H540.44V124.82C539.66 127.04 538.66 129.22 537.6 130.56C537.42 130.14 537.04 129.6 536.8 129.26C538.16 127.48 539.58 124.3 540.26 121.54H537.1V120.12H540.44V116.28H541.9V120.12H544.68V121.54H541.9V122.2C542.58 122.96 544.42 125.38 544.84 125.94ZM552.86 132.92H553.4C553.54 132.92 553.68 132.88 553.78 132.78C553.88 132.66 553.92 132.48 553.98 132.02C554 131.56 554.04 130.52 554.04 129.18C554.34 129.46 554.8 129.68 555.18 129.82C555.18 130.94 555.12 132.42 555.02 132.92C554.92 133.5 554.76 133.8 554.5 134.02C554.22 134.22 553.84 134.3 553.46 134.3H552.48C552.1 134.3 551.68 134.18 551.36 133.9C551.04 133.62 550.94 133.28 550.94 131.54V118.82H547.28V123.8C547.28 127.08 546.86 131.62 544 134.58C543.78 134.28 543.18 133.76 542.84 133.58C545.54 130.8 545.8 126.84 545.8 123.78V117.4H552.4V131.68C552.4 132.34 552.44 132.72 552.52 132.8C552.62 132.88 552.72 132.92 552.86 132.92ZM571.16 127.28V123.72H560.78V127.28H571.16ZM572.66 122.32V128.68H559.36V122.32H565.1V116.26H566.58V118.4H574.14V119.8H566.58V122.32H572.66ZM558.26 134.52L556.9 133.86C557.96 132.96 558.98 131.36 559.62 129.88L561.02 130.24C560.36 131.8 559.34 133.48 558.26 134.52ZM562.82 130.42L564.24 130.3C564.5 131.56 564.72 133.2 564.74 134.16L563.26 134.36C563.26 133.36 563.08 131.7 562.82 130.42ZM566.92 130.44L568.26 130.14C568.88 131.34 569.52 132.96 569.76 133.96L568.32 134.3C568.12 133.32 567.52 131.66 566.92 130.44ZM570.98 130.26L572.28 129.76C573.3 131.02 574.44 132.68 574.94 133.8L573.54 134.36C573.08 133.26 571.98 131.54 570.98 130.26ZM586.8 119.7L587.64 118.88C588.52 119.28 589.48 119.76 590.4 120.28C591.14 119.7 591.78 119 592.24 118.24H586.82V117.16H592.9L593.14 117.1L593.98 117.48C593.46 118.86 592.58 120.02 591.52 120.94C592.58 121.58 593.52 122.24 594.16 122.8L593.22 123.76C592.58 123.16 591.6 122.44 590.48 121.74C589.68 122.28 588.82 122.7 587.94 123.02C587.78 122.7 587.46 122.22 587.18 121.96C587.9 121.74 588.62 121.44 589.3 121.02C588.48 120.54 587.6 120.08 586.8 119.7ZM583.66 120.1H580.18C579.54 120.86 578.72 121.58 577.7 122.22C577.5 121.94 577.12 121.58 576.86 121.44C578.3 120.6 579.38 119.5 579.94 118.54L581.16 118.74C581.08 118.88 580.98 119.02 580.9 119.16H581.28V116.26H582.56V117.22H586.02V118.22H582.56V119.16H584.38L584.6 119.1L585.46 119.58C584.04 122.36 580.86 124.18 577.92 125.08C577.78 124.78 577.42 124.34 577.18 124.1C578.3 123.8 579.48 123.32 580.58 122.7C580.12 122.36 579.56 121.98 579.1 121.7L579.9 121.04C580.42 121.34 581.06 121.72 581.54 122.1C582.4 121.52 583.14 120.84 583.66 120.1ZM582.14 128.7V129.74H590V128.7H582.14ZM587.2 125.94H590.48C588.78 125.22 587.2 124.32 585.98 123.34C584.84 124.32 583.46 125.2 581.96 125.94H585.74C585.5 125.54 585.16 125.14 584.86 124.78L586.06 124.48C586.46 124.9 586.9 125.46 587.2 125.94ZM582.14 126.84V127.88H590V126.84H582.14ZM591.42 130.66H586.58C587.64 131 588.86 131.42 590.02 131.88C590.82 131.24 591.78 130.42 592.32 129.86L593.44 130.54C592.74 131.16 591.92 131.8 591.14 132.3C592.16 132.72 593.08 133.12 593.78 133.48L592.96 134.48C591.34 133.58 588.12 132.26 585.64 131.44L586.34 130.66H582.14V132.88L586.58 132.26C586.54 132.58 586.46 133.1 586.46 133.36C581.36 134.14 580.7 134.26 580.3 134.46C580.22 134.12 580 133.6 579.8 133.34C580.14 133.2 580.7 132.9 580.7 132.12V126.5C579.76 126.92 578.78 127.28 577.8 127.58C577.62 127.22 577.26 126.7 576.96 126.4C580.44 125.5 584.14 123.76 586.02 121.52L587.2 122.12C587.06 122.28 586.92 122.42 586.78 122.56C588.74 124.14 592.24 125.48 595.26 126.08C594.98 126.36 594.6 126.88 594.4 127.24C593.44 127.02 592.42 126.7 591.42 126.32V130.66Z" fill="#5C5C5C"/>
<path d="M623.011 77.8C621.671 77.8 620.511 76.72 620.511 75.12C620.511 73.5 621.671 72.42 623.011 72.42C624.331 72.42 625.511 73.5 625.511 75.12C625.511 76.72 624.331 77.8 623.011 77.8ZM646.26 72.74L646.44 74.12C645.46 74.42 644.46 74.74 643.48 75.02V80.56C643.48 81.42 643.28 81.8 642.76 82.04C642.24 82.3 641.42 82.32 640.04 82.32C639.98 81.92 639.76 81.32 639.56 80.92C640.52 80.94 641.38 80.94 641.62 80.94C641.9 80.94 642.02 80.84 642.02 80.54V75.48C641.04 75.76 640.12 76.04 639.3 76.28L638.86 74.78C639.74 74.56 640.84 74.26 642.02 73.96V69.7H639.04V68.28H642.02V64.3H643.48V68.28H646.24V69.7H643.48V73.52L646.26 72.74ZM657.14 65.96V67.42H653.6V80.36C653.6 81.38 653.34 81.88 652.62 82.12C651.9 82.4 650.66 82.42 648.78 82.42C648.68 81.98 648.4 81.24 648.16 80.82C649.62 80.88 651.08 80.88 651.5 80.86C651.88 80.84 652.04 80.72 652.04 80.34V67.42H646.34V65.96H657.14ZM661.62 78.06L667.06 76.74C667.04 77.18 667.08 77.8 667.14 78.12C661.18 79.66 660.42 79.92 659.92 80.2C659.82 79.84 659.52 79.06 659.26 78.66C659.62 78.48 660.12 78.12 660.12 77.34V66.6C662.2 66.12 664.56 65.36 665.92 64.68L667.1 65.86C665.58 66.52 663.52 67.1 661.62 67.56V71.28H667.12V72.72H661.62V78.06ZM676.2 65.68V77.52C676.2 78.38 676.02 78.9 675.4 79.16C674.78 79.44 673.74 79.46 672.26 79.46C672.18 79.04 671.92 78.3 671.68 77.88C672.9 77.94 674 77.92 674.32 77.92C674.64 77.9 674.74 77.8 674.74 77.5V67.14H670.14V82.5H668.68V65.68H676.2ZM623.011 103.8C621.671 103.8 620.511 102.72 620.511 101.12C620.511 99.5 621.671 98.42 623.011 98.42C624.331 98.42 625.511 99.5 625.511 101.12C625.511 102.72 624.331 103.8 623.011 103.8ZM647.18 93.32L647.48 93.24L648.5 93.58C647.44 101.4 644.32 106.06 640.06 108.38C639.84 108 639.22 107.4 638.86 107.16C641.18 105.98 643.12 104.16 644.54 101.56C643.7 100.78 642.38 99.76 641.3 99.04L642.2 98.06C643.16 98.66 644.34 99.5 645.18 100.22C645.86 98.64 646.4 96.82 646.74 94.72H642.94C642.18 96.8 641.22 98.64 640.1 100.04C639.86 99.78 639.2 99.3 638.88 99.1C640.7 97.04 641.96 93.74 642.68 90.26L644.14 90.54C643.92 91.5 643.7 92.42 643.42 93.32H647.18ZM651.74 96.72L652.28 96.28C654 97.64 656.16 99.54 657.22 100.8L656.04 101.82C655.14 100.68 653.32 99 651.74 97.66V108.52H650.22V90.28H651.74V96.72ZM674.26 99.66L673.14 99C673.58 98.44 674.08 97.64 674.48 96.84H659.72V95.54H667.3V93.7H660.94V92.38H667.3V90.32H668.8V92.38H675.34V93.7H668.8V95.54H675.22L675.48 95.46L676.52 95.9C675.88 97.26 675.04 98.72 674.26 99.66ZM667.3 98.94L666.5 99.88C665.68 99.28 664.06 98.52 662.74 98.1L663.5 97.22C664.82 97.6 666.44 98.32 667.3 98.94ZM660.74 100L661.44 99.08C662.76 99.44 664.38 100.12 665.22 100.7L664.46 101.7C663.66 101.12 662.04 100.4 660.74 100ZM676.7 103.34H668.88C667.74 106 665.34 107.68 660.12 108.56C660.02 108.18 659.66 107.62 659.4 107.3C663.92 106.6 666.1 105.34 667.22 103.34H659.36V102H667.8C668.2 100.7 668.34 99.18 668.44 97.36H669.98C669.86 99.12 669.7 100.68 669.36 102H676.7V103.34ZM668.82 105.52L669.5 104.42C672.22 105.24 675.12 106.36 676.9 107.3L676.06 108.5C674.34 107.56 671.56 106.38 668.82 105.52ZM623.011 129.8C621.671 129.8 620.511 128.72 620.511 127.12C620.511 125.5 621.671 124.42 623.011 124.42C624.331 124.42 625.511 125.5 625.511 127.12C625.511 128.72 624.331 129.8 623.011 129.8ZM654.78 117.14L656.16 117.58C655.02 119.82 653.18 121.98 651.42 123.38C651.18 123.1 650.66 122.56 650.34 122.3C652.1 121.06 653.78 119.14 654.78 117.14ZM640.92 118.44V129.44H639.78V117.2H645.98V129.38H644.8V118.44H640.92ZM643.5 119.74V125.4C643.5 128.32 643.12 132.14 639.62 134.44C639.44 134.18 639.1 133.74 638.82 133.54C642.1 131.54 642.32 127.94 642.32 125.4V119.74H643.5ZM643.02 130.36L643.94 129.7C644.86 130.76 645.96 132.22 646.48 133.12L645.46 133.9C645 132.96 643.94 131.46 643.02 130.36ZM656.86 125.38H652.68C653.48 128.64 655.04 131.54 657.24 132.96C656.92 133.2 656.48 133.72 656.24 134.1C653.84 132.36 652.18 129.14 651.3 125.38H649.66V132.32L652.6 131.26C652.6 131.68 652.66 132.26 652.74 132.58C648.9 134.12 648.32 134.38 648 134.66C647.9 134.3 647.64 133.72 647.4 133.44C647.74 133.28 648.28 132.9 648.28 132.12V125.38H646.48V124H648.28V116.68H649.66V124H656.86V125.38ZM672.7 121.1V118.42H663.22V121.1H672.7ZM674.24 117.08V122.42H661.76V117.08H674.24ZM676.6 125.58H665.06C664.84 126.32 664.58 127.08 664.34 127.78H674.24C674.24 127.78 674.22 128.26 674.16 128.48C673.7 131.8 673.2 133.3 672.46 133.92C672.02 134.34 671.52 134.46 670.76 134.5C670.1 134.52 668.76 134.5 667.4 134.42C667.36 133.98 667.16 133.4 666.88 133C668.3 133.14 669.72 133.16 670.3 133.16C670.76 133.16 671.02 133.14 671.24 132.96C671.74 132.58 672.14 131.48 672.5 129.16H663.02V129.14H662.12C662.54 128.18 663.02 126.8 663.44 125.58H659.32V124.22H676.6V125.58ZM678.22 136.58L684.22 117.14H685.54L679.56 136.58H678.22ZM697.052 128.62H701.772V126.04H697.052V128.62ZM691.032 128.62H695.572V126.04H691.192C691.192 126.84 691.152 127.72 691.032 128.62ZM698.372 118.86H692.792C692.292 119.54 691.732 120.2 691.132 120.86H696.772C697.352 120.28 697.932 119.54 698.372 118.86ZM691.192 122.22V124.74H695.572V122.22H691.192ZM701.772 124.74V122.22H697.052V124.74H701.772ZM703.272 120.86V132.62C703.272 133.5 703.052 133.94 702.432 134.2C701.792 134.44 700.692 134.46 699.052 134.46C698.992 134.04 698.732 133.4 698.512 133C699.772 133.04 700.972 133.02 701.312 133.02C701.652 133 701.772 132.9 701.772 132.6V129.96H697.052V134.1H695.572V129.96H690.812C690.412 131.68 689.692 133.38 688.352 134.7C688.152 134.4 687.532 133.82 687.232 133.64C689.432 131.42 689.692 128.3 689.692 125.86V122.28C689.192 122.72 688.692 123.12 688.152 123.52C687.892 123.16 687.392 122.68 687.052 122.46C689.712 120.64 691.612 118.22 692.612 116.22L694.252 116.52C694.052 116.88 693.852 117.22 693.632 117.6H699.272L699.512 117.52L700.492 118.22C699.992 119.08 699.252 120.04 698.472 120.86H703.272ZM717.792 119.34H712.572C711.932 120.2 711.172 121.02 710.412 121.78H715.692C716.432 121.1 717.212 120.18 717.792 119.34ZM721.532 126.64V123.16H716.752V126.64H721.532ZM710.712 123.16V126.64H715.312V123.16H710.712ZM713.292 132.84H721.072C723.052 132.84 723.352 132.28 723.592 129.66C723.972 129.9 724.572 130.12 725.012 130.2C724.672 133.3 724.072 134.2 721.072 134.2H713.392C710.252 134.2 709.272 133.64 709.272 131.34V122.82C708.692 123.34 708.092 123.78 707.492 124.2C707.372 123.86 706.932 123.14 706.692 122.8C709.112 121.32 711.552 118.88 712.932 116.2L714.252 116.7C714.012 117.14 713.772 117.56 713.512 118H718.772L719.072 117.92L720.052 118.62C719.352 119.68 718.432 120.82 717.492 121.78H722.992V128.94H721.532V128.06H710.712V131.36C710.712 132.54 711.132 132.84 713.292 132.84Z" fill="#5C5C5C"/>
<mask id="path-11-inside-4_990_1967" fill="white">
<path d="M311.552 507.563C344.438 459.213 388.743 419.722 440.541 392.589C492.339 365.456 550.03 351.519 608.502 352.013C666.975 352.507 724.422 367.416 775.754 395.42C827.086 423.424 870.718 463.658 902.783 512.557L751.613 611.687C735.853 587.653 714.409 567.878 689.179 554.115C663.95 540.351 635.714 533.023 606.976 532.78C578.237 532.537 549.882 539.387 524.424 552.723C498.965 566.059 477.19 585.469 461.026 609.232L311.552 507.563Z"/>
</mask>
<path d="M311.552 507.563C344.438 459.213 388.743 419.722 440.541 392.589C492.339 365.456 550.03 351.519 608.502 352.013C666.975 352.507 724.422 367.416 775.754 395.42C827.086 423.424 870.718 463.658 902.783 512.557L751.613 611.687C735.853 587.653 714.409 567.878 689.179 554.115C663.95 540.351 635.714 533.023 606.976 532.78C578.237 532.537 549.882 539.387 524.424 552.723C498.965 566.059 477.19 585.469 461.026 609.232L311.552 507.563Z" fill="url(#paint9_linear_990_1967)" stroke="url(#paint10_linear_990_1967)" stroke-width="2" mask="url(#path-11-inside-4_990_1967)"/>
<rect x="512" y="340" width="188" height="46" rx="23" fill="#0069FF"/>
<path d="M564.192 355.32H562.872C562.296 356.4 561.6 357.36 560.928 358.104C560.496 357.84 559.56 357.336 559.008 357.144C560.328 355.824 561.408 353.784 562.032 351.744L564.216 352.152C564.048 352.68 563.856 353.184 563.616 353.712H569.712V355.32H566.376C566.832 355.992 567.216 356.712 567.408 357.24L565.512 357.912C565.296 357.216 564.744 356.184 564.192 355.32ZM576.144 369.6H565.224V371.472H576.144V369.6ZM574.92 363.168H565.224V364.848H574.92V363.168ZM565.224 366.504V367.92H578.352V373.872H576.144V373.176H565.224V373.92H562.968V361.488H577.08V366.504H565.224ZM568.392 357.072L570.36 356.664C570.744 357.216 571.104 357.912 571.32 358.488H580.008V362.544H577.752V360.24H562.392V362.544H560.256V358.488H569.088C568.872 358.008 568.632 357.504 568.392 357.072ZM573.744 353.712H580.56V355.32H576.696C577.2 355.968 577.68 356.64 577.92 357.144L576.072 357.96C575.784 357.264 575.064 356.208 574.368 355.32H573C572.568 356.064 572.112 356.736 571.608 357.288C571.224 357 570.288 356.496 569.784 356.28C570.864 355.2 571.68 353.472 572.136 351.768L574.296 352.152C574.152 352.68 573.96 353.184 573.744 353.712ZM592.8 356.592V358.896H590.76V354.672H596.808C596.544 353.904 596.16 353.016 595.848 352.32L597.984 351.816C598.392 352.728 598.92 353.856 599.208 354.672H604.8V358.728H602.688V356.592H592.8ZM598.392 359.04L599.736 357.816C601.224 358.992 603.288 360.768 604.344 361.8L602.928 363.264C601.944 362.184 599.904 360.36 598.392 359.04ZM595.224 357.864L597.12 358.56C595.872 360.384 593.856 362.304 592.128 363.504C591.888 363.12 591.192 362.184 590.808 361.776C592.44 360.816 594.144 359.304 595.224 357.864ZM589.968 362.328L590.328 364.32C589.512 364.632 588.648 364.944 587.832 365.232V371.16C587.832 372.264 587.616 372.864 586.992 373.2C586.344 373.56 585.384 373.632 583.872 373.632C583.824 373.104 583.536 372.144 583.272 371.568C584.208 371.592 585.12 371.592 585.384 371.592C585.672 371.592 585.792 371.496 585.792 371.16V365.976L583.296 366.864L582.84 364.68C583.656 364.44 584.688 364.128 585.792 363.744V358.392H583.104V356.328H585.792V351.864H587.832V356.328H590.112V358.392H587.832V363.072L589.968 362.328ZM598.68 371.136H605.088V373.104H589.944V371.136H596.448V365.688H591.84V363.744H603.384V365.688H598.68V371.136ZM619.44 354.936V365.592H617.328V352.992H627.768V365.592H625.56V354.936H619.44ZM616.584 368.712L615.048 370.368C614.496 369.432 613.296 367.8 612.288 366.528C611.712 369.12 610.608 371.688 608.472 373.656C608.136 373.2 607.416 372.48 606.864 372.096C609.552 369.816 610.416 366.384 610.68 363.312H607.056V361.2H610.8C610.824 360.696 610.824 360.216 610.824 359.76V357.744H607.584V355.68H610.824V352.128H612.936V355.68H616.032V357.744H612.936V359.76C612.936 360.24 612.936 360.696 612.912 361.2H616.32V363.312H612.792C612.768 363.624 612.744 363.936 612.696 364.248C613.656 365.208 616.056 368.016 616.584 368.712ZM624.912 371.64H626.352C627.024 371.64 627.168 371.016 627.264 367.872C627.744 368.256 628.512 368.592 629.016 368.688C628.8 372.384 628.488 373.368 626.352 373.368H624.576C622.896 373.368 622.224 372.864 622.224 371.064V367.68C621.168 369.984 619.272 372.216 616.128 373.872C615.888 373.44 615.144 372.576 614.736 372.264C620.76 369.168 621.48 364.584 621.48 360.936V356.712H623.544V360.984C623.544 362.208 623.448 363.552 623.136 364.896H624.192V370.848C624.192 371.472 624.408 371.64 624.912 371.64ZM637.632 369.312L639 367.92C640.416 369.072 642.432 370.728 643.416 371.784L642 373.368C641.064 372.288 639.096 370.536 637.632 369.312ZM632.28 353.064H642.888V367.512H640.728V355.056H634.344V367.584H632.28V353.064ZM649.656 352.08H651.864V370.92C651.864 372.336 651.528 372.984 650.688 373.344C649.824 373.704 648.384 373.776 646.2 373.776C646.08 373.152 645.744 372.12 645.384 371.496C647.016 371.544 648.528 371.544 649.008 371.52C649.464 371.52 649.656 371.376 649.656 370.896V352.08ZM645.216 354.024H647.304V368.424H645.216V354.024ZM636.456 356.592H638.544V363.432C638.544 367.08 637.68 371.424 632.328 373.944C632.112 373.464 631.392 372.6 630.984 372.24C635.88 369.936 636.456 366.528 636.456 363.384V356.592Z" fill="white"/>
<rect x="465.5" y="406.5" width="117" height="45" rx="22.5" fill="white" stroke="#0069FF"/>
<rect x="380.5" y="471.5" width="117" height="45" rx="22.5" fill="white" stroke="#0069FF"/>
<rect x="700.5" y="471.5" width="117" height="45" rx="22.5" fill="white" stroke="#0069FF"/>
<rect x="625.5" y="406.5" width="117" height="45" rx="22.5" fill="white" stroke="#0069FF"/>
<path d="M499.92 438.54V424.28H501.4V438.54H499.92ZM500.6 420.96L501.74 420.24C502.76 421.34 504 422.88 504.6 423.84L503.38 424.7C502.84 423.72 501.62 422.12 500.6 420.96ZM516.16 421V436.56C516.16 437.56 515.9 438 515.22 438.26C514.52 438.5 513.3 438.52 511.4 438.5C511.32 438.1 511.1 437.46 510.86 437.06C512.32 437.12 513.74 437.12 514.16 437.08C514.54 437.06 514.68 436.94 514.68 436.56V422.42H505.18V421H516.16ZM533.74 436.16V432.58H525.3V436.16H533.74ZM529.72 424.8V427.16H536.18V428.52H529.72V431.2H535.22V438.24H533.74V437.48H525.3V438.28H523.86V431.2H528.22V424.8H529.72ZM530.04 422.7H536.8V424.14H522.08V427.88C522.08 430.96 521.78 435.52 520 438.54C519.72 438.3 519.06 437.86 518.7 437.7C520.4 434.82 520.58 430.76 520.58 427.88V422.7H528.38C528.1 422.04 527.74 421.28 527.34 420.68L528.76 420.32C529.28 421.04 529.76 421.98 530.04 422.7ZM541.82 431.04H546.26L545.56 428.8C545.02 427.14 544.56 425.54 544.08 423.84H544C543.54 425.56 543.06 427.14 542.54 428.8L541.82 431.04ZM548.12 437L546.72 432.52H541.36L539.94 437H538.06L543.04 422.34H545.1L550.08 437H548.12Z" fill="#333333"/>
<path d="M433.78 502.26C433.06 502.26 432.46 501.7 432.46 500.88C432.46 500.06 433.06 499.46 433.78 499.46C434.5 499.46 435.1 500.06 435.1 500.88C435.1 501.7 434.5 502.26 433.78 502.26ZM439.346 502.26C438.626 502.26 438.026 501.7 438.026 500.88C438.026 500.06 438.626 499.46 439.346 499.46C440.066 499.46 440.666 500.06 440.666 500.88C440.666 501.7 440.066 502.26 439.346 502.26ZM444.913 502.26C444.193 502.26 443.593 501.7 443.593 500.88C443.593 500.06 444.193 499.46 444.913 499.46C445.633 499.46 446.233 500.06 446.233 500.88C446.233 501.7 445.633 502.26 444.913 502.26Z" fill="#333333"/>
<path d="M753.78 502.26C753.06 502.26 752.46 501.7 752.46 500.88C752.46 500.06 753.06 499.46 753.78 499.46C754.5 499.46 755.1 500.06 755.1 500.88C755.1 501.7 754.5 502.26 753.78 502.26ZM759.346 502.26C758.626 502.26 758.026 501.7 758.026 500.88C758.026 500.06 758.626 499.46 759.346 499.46C760.066 499.46 760.666 500.06 760.666 500.88C760.666 501.7 760.066 502.26 759.346 502.26ZM764.913 502.26C764.193 502.26 763.593 501.7 763.593 500.88C763.593 500.06 764.193 499.46 764.913 499.46C765.633 499.46 766.233 500.06 766.233 500.88C766.233 501.7 765.633 502.26 764.913 502.26Z" fill="#333333"/>
<path d="M659.92 438.54V424.28H661.4V438.54H659.92ZM660.6 420.96L661.74 420.24C662.76 421.34 664 422.88 664.6 423.84L663.38 424.7C662.84 423.72 661.62 422.12 660.6 420.96ZM676.16 421V436.56C676.16 437.56 675.9 438 675.22 438.26C674.52 438.5 673.3 438.52 671.4 438.5C671.32 438.1 671.1 437.46 670.86 437.06C672.32 437.12 673.74 437.12 674.16 437.08C674.54 437.06 674.68 436.94 674.68 436.56V422.42H665.18V421H676.16ZM693.74 436.16V432.58H685.3V436.16H693.74ZM689.72 424.8V427.16H696.18V428.52H689.72V431.2H695.22V438.24H693.74V437.48H685.3V438.28H683.86V431.2H688.22V424.8H689.72ZM690.04 422.7H696.8V424.14H682.08V427.88C682.08 430.96 681.78 435.52 680 438.54C679.72 438.3 679.06 437.86 678.7 437.7C680.4 434.82 680.58 430.76 680.58 427.88V422.7H688.38C688.1 422.04 687.74 421.28 687.34 420.68L688.76 420.32C689.28 421.04 689.76 421.98 690.04 422.7ZM700 437V422.34H704.36C707.34 422.34 709.4 423.34 709.4 425.92C709.4 427.38 708.62 428.66 707.24 429.1V429.2C709 429.54 710.24 430.7 710.24 432.7C710.24 435.58 707.96 437 704.68 437H700ZM701.86 428.58H704.04C706.56 428.58 707.58 427.64 707.58 426.16C707.58 424.44 706.4 423.8 704.12 423.8H701.86V428.58ZM701.86 435.52H704.42C706.94 435.52 708.42 434.62 708.42 432.64C708.42 430.82 706.98 430 704.42 430H701.86V435.52Z" fill="#333333"/>
<path d="M605.999 202L652 225.102V287.476L606 310L560 287.476V225.102L605.999 202Z" fill="#95C6FF"/>
<path d="M606 209.5L645.972 229.5V283.5L606 303L566.029 283.5V229.5L606 209.5Z" fill="#0069FF"/>
<path d="M587.92 252.54V238.28H589.4V252.54H587.92ZM588.6 234.96L589.74 234.24C590.76 235.34 592 236.88 592.6 237.84L591.38 238.7C590.84 237.72 589.62 236.12 588.6 234.96ZM604.16 235V250.56C604.16 251.56 603.9 252 603.22 252.26C602.52 252.5 601.3 252.52 599.4 252.5C599.32 252.1 599.1 251.46 598.86 251.06C600.32 251.12 601.74 251.12 602.16 251.08C602.54 251.06 602.68 250.94 602.68 250.56V236.42H593.18V235H604.16ZM621.74 250.16V246.58H613.3V250.16H621.74ZM617.72 238.8V241.16H624.18V242.52H617.72V245.2H623.22V252.24H621.74V251.48H613.3V252.28H611.86V245.2H616.22V238.8H617.72ZM618.04 236.7H624.8V238.14H610.08V241.88C610.08 244.96 609.78 249.52 608 252.54C607.72 252.3 607.06 251.86 606.7 251.7C608.4 248.82 608.58 244.76 608.58 241.88V236.7H616.38C616.1 236.04 615.74 235.28 615.34 234.68L616.76 234.32C617.28 235.04 617.76 235.98 618.04 236.7ZM591.2 263.02H589.82C589.34 263.96 588.8 264.78 588.2 265.42C587.92 265.24 587.3 264.9 586.94 264.74C588.02 263.62 588.9 261.94 589.38 260.22L590.82 260.46C590.68 260.96 590.52 261.42 590.32 261.9H595.66V263.02H592.62C593 263.64 593.34 264.3 593.5 264.76L592.24 265.22C592.06 264.62 591.62 263.76 591.2 263.02ZM601.38 274.78H591.76V276.7H601.38V274.78ZM600.34 269.4H591.76V271.1H600.34V269.4ZM591.76 272.24V273.62H602.84V278.5H601.38V277.86H591.76V278.54H590.28V268.26H601.8V272.24H591.76ZM594.82 264.6L596.14 264.32C596.42 264.78 596.76 265.38 596.94 265.86H604.22V269.12H602.74V267.04H589.52V269.12H588.08V265.86H595.42C595.24 265.44 595.04 264.98 594.82 264.6ZM598.74 261.92H604.72V263.02H601.16C601.62 263.62 602.04 264.26 602.26 264.72L601.06 265.28C600.8 264.66 600.22 263.76 599.64 263.02H598.24C597.88 263.68 597.48 264.28 597.06 264.74C596.8 264.52 596.2 264.2 595.84 264.04C596.74 263.1 597.42 261.68 597.78 260.24L599.22 260.48C599.08 260.98 598.92 261.44 598.74 261.92ZM613.06 272.98L613.32 274.4C611.18 275.12 608.9 275.9 607.12 276.48L606.78 274.98C607.52 274.76 608.44 274.48 609.46 274.14V268.76H607.18V267.36H609.46V263.02H606.98V261.62H613.18V263.02H610.88V267.36H612.9V268.76H610.88V273.7L613.06 272.98ZM615.52 266.22V268.78H618.56V266.22H615.52ZM615.52 262.48V265H618.56V262.48H615.52ZM622.9 265V262.48H619.84V265H622.9ZM622.9 268.78V266.22H619.84V268.78H622.9ZM619.96 276.52H625.26V277.88H612.38V276.52H618.46V273.78H613.92V272.42H618.46V270.08H614.16V261.18H624.32V270.08H619.96V272.42H624.62V273.78H619.96V276.52Z" fill="white"/>
<path d="M423.999 253L470 276.102V338.476L424 361L378 338.476V276.102L423.999 253Z" fill="#95C6FF"/>
<path d="M424 260.5L463.972 280.5V334.5L424 354L384.029 334.5V280.5L424 260.5Z" fill="#0069FF"/>
<path d="M405.86 296.7V295.26H422.28V296.7H413.56C412.32 298.34 410.92 299.96 409.48 301.24L418.56 300.56C417.84 299.72 417 298.86 416.24 298.16L417.5 297.48C419.28 299.08 421.16 301.2 422.04 302.7L420.72 303.52C420.44 303.04 420.06 302.46 419.62 301.88C409.06 302.74 407.94 302.82 407.2 303.1C407.1 302.78 406.86 302 406.7 301.56C407.12 301.48 407.58 301.1 408.18 300.52C408.74 300.06 410.24 298.48 411.54 296.7H405.86ZM414.08 285.28L415.5 285.9C415.3 286.16 415.1 286.44 414.92 286.7C416.74 288.56 419.98 290.76 423.2 291.86C422.86 292.16 422.4 292.76 422.16 293.18C419.06 291.92 415.94 289.62 414.06 287.7C412.82 289.06 411.28 290.34 409.56 291.44H418.8V292.82H409.3V291.6C408.26 292.26 407.16 292.86 406 293.38C405.78 293.02 405.26 292.4 404.92 292.12C408.8 290.46 412.3 287.96 414.08 285.28ZM429.38 287.46V289.72H438.68V287.46H429.38ZM427.86 286.16H440.26V291.04H427.86V286.16ZM433.12 295.44H434.68V297.3C434.68 299.38 433.78 301.94 426.38 303.6C426.2 303.28 425.74 302.68 425.4 302.38C432.56 300.98 433.12 298.86 433.12 297.26V295.44ZM434.56 300.64L435.3 299.56C437.66 300.34 440.92 301.52 442.66 302.36L441.88 303.6C440.24 302.76 437 301.48 434.56 300.64ZM427.16 292.78H441.06V299.96H439.48V294.18H428.66V300.1H427.16V292.78ZM409.2 314.02H407.82C407.34 314.96 406.8 315.78 406.2 316.42C405.92 316.24 405.3 315.9 404.94 315.74C406.02 314.62 406.9 312.94 407.38 311.22L408.82 311.46C408.68 311.96 408.52 312.42 408.32 312.9H413.66V314.02H410.62C411 314.64 411.34 315.3 411.5 315.76L410.24 316.22C410.06 315.62 409.62 314.76 409.2 314.02ZM419.38 325.78H409.76V327.7H419.38V325.78ZM418.34 320.4H409.76V322.1H418.34V320.4ZM409.76 323.24V324.62H420.84V329.5H419.38V328.86H409.76V329.54H408.28V319.26H419.8V323.24H409.76ZM412.82 315.6L414.14 315.32C414.42 315.78 414.76 316.38 414.94 316.86H422.22V320.12H420.74V318.04H407.52V320.12H406.08V316.86H413.42C413.24 316.44 413.04 315.98 412.82 315.6ZM416.74 312.92H422.72V314.02H419.16C419.62 314.62 420.04 315.26 420.26 315.72L419.06 316.28C418.8 315.66 418.22 314.76 417.64 314.02H416.24C415.88 314.68 415.48 315.28 415.06 315.74C414.8 315.52 414.2 315.2 413.84 315.04C414.74 314.1 415.42 312.68 415.78 311.24L417.22 311.48C417.08 311.98 416.92 312.44 416.74 312.92ZM431.06 323.98L431.32 325.4C429.18 326.12 426.9 326.9 425.12 327.48L424.78 325.98C425.52 325.76 426.44 325.48 427.46 325.14V319.76H425.18V318.36H427.46V314.02H424.98V312.62H431.18V314.02H428.88V318.36H430.9V319.76H428.88V324.7L431.06 323.98ZM433.52 317.22V319.78H436.56V317.22H433.52ZM433.52 313.48V316H436.56V313.48H433.52ZM440.9 316V313.48H437.84V316H440.9ZM440.9 319.78V317.22H437.84V319.78H440.9ZM437.96 327.52H443.26V328.88H430.38V327.52H436.46V324.78H431.92V323.42H436.46V321.08H432.16V312.18H442.32V321.08H437.96V323.42H442.62V324.78H437.96V327.52Z" fill="white"/>
<path d="M787.999 253L834 276.102V338.476L788 361L742 338.476V276.102L787.999 253Z" fill="#95C6FF"/>
<path d="M788 260.5L827.972 280.5V334.5L788 354L748.029 334.5V280.5L788 260.5Z" fill="#0069FF"/>
<path d="M783.44 299.22H772.86V301.58H783.44V299.22ZM771.44 303.6V297.92H784.9V303.56H783.44V302.84H772.86V303.6H771.44ZM781.94 295.58V293.82H774.24V295.58H781.94ZM772.84 292.74H783.4V296.66H772.84V292.74ZM769.86 294.12V290.24H786.3V294.12H784.86V291.44H771.24V294.12H769.86ZM782.22 286.92H786.74V288.28H782.22V289.7H780.76V288.28H775.14V289.7H773.68V288.28H769.28V286.92H773.68V285.28H775.14V286.92H780.76V285.28H782.22V286.92ZM805.7 285.84L806.98 286.42C806.3 287.7 805.44 289.2 804.72 290.14L803.62 289.62C804.3 288.64 805.22 287 805.7 285.84ZM796.22 289.08H791.34C790.8 289.98 790.2 290.76 789.58 291.42C789.46 291.12 789.06 290.4 788.82 290.08C790 288.92 791.02 287.16 791.62 285.32L792.9 285.7C792.7 286.36 792.42 287.02 792.1 287.66H796.22V289.08ZM793.54 292.42V295.12H796.32V296.48H793.54V300.68L795.8 299.5C795.84 299.88 795.98 300.46 796.1 300.76C792.78 302.62 792.24 302.94 791.92 303.28C791.8 302.92 791.48 302.34 791.22 302.04C791.58 301.82 792.16 301.28 792.16 300.42V296.48H789.32V295.12H792.16V292.42H790.18V291.08H795.88V292.42H793.54ZM799.9 289.56L798.68 290.2C798.38 289.24 797.56 287.68 796.76 286.52L797.92 285.98C798.72 287.1 799.58 288.58 799.9 289.56ZM798.4 297.9H805.06V295.76H798.4V297.9ZM805.06 292.34H798.4V294.46H805.06V292.34ZM805.06 290.92H806.4V301.66C806.4 302.44 806.24 302.86 805.7 303.1C805.12 303.34 804.24 303.36 802.72 303.36C802.66 302.98 802.48 302.38 802.26 302C803.38 302.04 804.38 302.04 804.66 302.02C804.96 302 805.06 301.92 805.06 301.64V299.18H798.4V303.54H797.04V290.94H801.12V285.24H802.5V290.94L805.06 290.92ZM773.2 314.02H771.82C771.34 314.96 770.8 315.78 770.2 316.42C769.92 316.24 769.3 315.9 768.94 315.74C770.02 314.62 770.9 312.94 771.38 311.22L772.82 311.46C772.68 311.96 772.52 312.42 772.32 312.9H777.66V314.02H774.62C775 314.64 775.34 315.3 775.5 315.76L774.24 316.22C774.06 315.62 773.62 314.76 773.2 314.02ZM783.38 325.78H773.76V327.7H783.38V325.78ZM782.34 320.4H773.76V322.1H782.34V320.4ZM773.76 323.24V324.62H784.84V329.5H783.38V328.86H773.76V329.54H772.28V319.26H783.8V323.24H773.76ZM776.82 315.6L778.14 315.32C778.42 315.78 778.76 316.38 778.94 316.86H786.22V320.12H784.74V318.04H771.52V320.12H770.08V316.86H777.42C777.24 316.44 777.04 315.98 776.82 315.6ZM780.74 312.92H786.72V314.02H783.16C783.62 314.62 784.04 315.26 784.26 315.72L783.06 316.28C782.8 315.66 782.22 314.76 781.64 314.02H780.24C779.88 314.68 779.48 315.28 779.06 315.74C778.8 315.52 778.2 315.2 777.84 315.04C778.74 314.1 779.42 312.68 779.78 311.24L781.22 311.48C781.08 311.98 780.92 312.44 780.74 312.92ZM795.06 323.98L795.32 325.4C793.18 326.12 790.9 326.9 789.12 327.48L788.78 325.98C789.52 325.76 790.44 325.48 791.46 325.14V319.76H789.18V318.36H791.46V314.02H788.98V312.62H795.18V314.02H792.88V318.36H794.9V319.76H792.88V324.7L795.06 323.98ZM797.52 317.22V319.78H800.56V317.22H797.52ZM797.52 313.48V316H800.56V313.48H797.52ZM804.9 316V313.48H801.84V316H804.9ZM804.9 319.78V317.22H801.84V319.78H804.9ZM801.96 327.52H807.26V328.88H794.38V327.52H800.46V324.78H795.92V323.42H800.46V321.08H796.16V312.18H806.32V321.08H801.96V323.42H806.62V324.78H801.96V327.52Z" fill="white"/>
<path d="M333.374 159.037C332.158 159.6 330.651 159.106 329.98 157.654C329.3 156.184 329.899 154.717 331.116 154.154C332.314 153.6 333.838 154.085 334.518 155.555C335.19 157.008 334.572 158.483 333.374 159.037ZM351.227 140.159L350.575 141.321C349.866 140.789 348.483 140.085 347.333 139.647L347.973 138.602C349.098 138.985 350.51 139.61 351.227 140.159ZM345.262 138.6L346.53 138.388C346.763 139.844 346.897 141.325 346.933 142.785L352.7 155.256L351.52 155.801L346.861 145.727C346.777 146.735 346.65 147.653 346.472 148.507C346.211 148.275 345.563 147.781 345.203 147.573C345.789 145.076 345.747 141.746 345.262 138.6ZM355.095 150.666L356.368 148.844C356.608 149.173 356.99 149.57 357.198 149.782C355.369 152.545 355.094 153.047 354.965 153.481C354.713 153.223 354.126 152.811 353.799 152.676C353.969 152.377 354.159 151.739 353.806 150.976L350.859 144.605L349.08 145.427L348.484 144.138L351.443 142.77L355.095 150.666ZM361.981 144.926L361.142 143.11L357.221 144.924L358.06 146.739L361.981 144.926ZM359.404 149.643L363.325 147.83L362.46 145.96L358.539 147.774L359.404 149.643ZM355.469 137.801L356.519 140.07L356.918 139.885C357.153 138.917 357.327 137.911 357.448 136.886L355.469 137.801ZM361.737 139.155L358.033 140.868C357.79 141.818 357.466 142.739 357.1 143.614L361.838 141.422L365.456 149.246L364.24 149.809L363.845 148.955L359.924 150.769L360.352 151.695L359.19 152.232L356.143 145.642C355.85 146.153 355.547 146.689 355.228 147.19C354.947 147.011 354.25 146.694 353.878 146.558C354.934 145.078 355.773 143.412 356.4 141.624L352.969 143.21L352.398 141.976L355.284 140.641L354.235 138.372L351.875 139.463L351.338 138.302L353.698 137.21L352.749 135.159L353.983 134.588L354.932 136.639L357.038 135.665L357.474 136.609C357.575 135.637 357.614 134.672 357.573 133.677L358.922 133.45C358.978 135.429 358.812 137.357 358.443 139.18L361.166 137.921L361.737 139.155ZM364.293 129.864L365.685 129.683C365.85 131.326 365.869 133.035 365.748 134.678L371.305 146.695L370.053 147.274L365.427 137.272C365.273 138.225 365.049 139.122 364.799 139.965C364.529 139.715 363.811 139.21 363.442 138.984C364.298 136.45 364.616 133.042 364.293 129.864ZM373.812 141.68L374.5 143.168L380.799 140.255L380.111 138.767L373.812 141.68ZM376.593 131.161L370.294 134.074L370.999 135.599L377.298 132.686L376.593 131.161ZM378.474 135.227L377.76 133.684L371.461 136.597L372.175 138.14L378.474 135.227ZM372.628 139.12L373.35 140.681L379.649 137.768L378.927 136.207L372.628 139.12ZM382.052 139.676L383.667 138.929L384.204 140.091L372.097 145.69L371.559 144.528L373.284 143.731L368.591 133.584L371.713 132.14C371.595 131.599 371.427 130.95 371.277 130.292L366.848 132.34L366.302 131.16L370.931 129.02C370.72 128.324 370.508 127.629 370.311 127.059L371.787 126.486C371.93 127.081 372.106 127.749 372.256 128.407L377.103 126.165L377.649 127.345L372.566 129.696C372.698 130.362 372.848 131.02 372.929 131.577L377.359 129.529L382.052 139.676ZM344.288 182.636C343.071 183.198 341.565 182.705 340.894 181.253C340.214 179.782 340.813 178.315 342.029 177.753C343.227 177.199 344.752 177.684 345.432 179.154C346.103 180.606 345.486 182.082 344.288 182.636ZM371.132 164.998L368.631 159.589L363.475 161.973L365.977 167.383L371.132 164.998ZM369.36 157.687L373.054 165.674L365.284 169.267L361.59 161.28L369.36 157.687ZM364.965 170.341L364.677 171.862C364.038 171.386 362.528 170.454 361.385 169.793L365.263 178.179L363.974 178.776L360.272 170.77C360.356 173.001 360.215 175.27 359.774 176.84C359.452 176.526 358.865 176.114 358.478 175.897C359.062 174.062 359.276 171.143 359.055 168.711L356.078 170.088L355.49 168.817L358.685 167.339L357.334 164.417C356.401 165.068 355.442 165.71 354.53 166.264C354.333 165.981 353.96 165.603 353.68 165.379C355.798 164.003 358.26 162.226 359.491 160.885L360.793 161.605C360.183 162.24 359.385 162.895 358.497 163.548L359.974 166.743L362.824 165.425L363.412 166.696L360.562 168.014L360.721 168.359C361.596 168.726 364.322 169.999 364.965 170.341ZM367.387 170.432L368.855 170.128C369.215 172.43 369.07 174.832 368.478 176.649C368.149 176.558 367.384 176.428 366.991 176.389C367.624 174.708 367.735 172.519 367.387 170.432ZM371.265 169.146L372.236 168.146C373.911 169.244 375.913 170.808 376.908 171.913L375.881 173.027C374.904 171.914 372.94 170.288 371.265 169.146ZM377.021 160.865L388.203 155.693C388.203 155.693 388.403 156.174 388.469 156.363C390.759 161.981 391.48 164.16 391.182 165.135C390.992 165.774 390.678 166.095 390.06 166.425C389.486 166.757 388.352 167.259 387.193 167.707C386.99 167.316 386.566 166.829 386.136 166.565C387.366 166.128 388.464 165.643 388.899 165.441C389.281 165.265 389.455 165.118 389.571 164.844C389.815 164.181 389.246 162.284 387.382 157.682L382.463 159.957C383.626 163.759 383.931 167.563 380.147 171.34C379.806 171.079 379.173 170.711 378.765 170.591C382.368 167.184 382.04 163.854 381.047 160.611L377.561 162.223L376.982 160.971C376.755 161.671 376.466 162.333 376.179 162.951C375.799 162.796 375.001 162.548 374.539 162.453C375.977 159.893 376.652 156.54 376.429 153.294L378.047 153.03C378.188 155.764 377.79 158.526 377.021 160.865ZM381.711 151.424L382.693 150.353C384.951 152.283 388.389 153.999 390.932 154.541C390.695 154.982 390.458 155.708 390.371 156.189C387.72 155.41 384.216 153.505 381.711 151.424ZM355.202 206.234C353.985 206.797 352.479 206.303 351.807 204.851C351.127 203.381 351.727 201.914 352.943 201.351C354.141 200.797 355.666 201.282 356.346 202.752C357.017 204.205 356.4 205.68 355.202 206.234ZM375.681 193.083L375.409 194.685C374.681 194.207 373.009 193.261 371.767 192.624L376.015 201.809L374.69 202.422L370.501 193.363C370.834 195.942 370.86 198.618 370.474 200.405C370.126 200.081 369.494 199.668 369.062 199.449C369.628 197.337 369.581 193.899 369.039 191.109L366.389 192.334L365.801 191.064L368.796 189.678L367.025 185.848L368.35 185.235L370.122 189.066L372.536 187.949L373.124 189.22L370.709 190.336L371.053 191.081C371.903 191.393 375.002 192.758 375.681 193.083ZM379.947 183.486L374.084 186.198C376.159 189.16 378.152 191.279 380.461 192.745C380.947 190.031 380.827 186.913 379.947 183.486ZM379.953 181.831L380.914 181.717C382.287 186.26 382.49 190.176 381.817 193.485C383.562 194.352 385.497 194.867 387.824 195.135C387.597 195.549 387.389 196.196 387.375 196.688C385.111 196.368 383.178 195.808 381.441 194.959C380.791 197.176 379.703 199.111 378.302 200.751C377.979 200.482 377.355 200.132 376.947 200.012C378.39 198.463 379.496 196.519 380.12 194.247C377.449 192.618 375.206 190.196 372.831 186.777L372.196 187.071L371.591 185.764L379.742 181.994L379.953 181.831ZM399.83 174.973L400.393 176.19L384.691 183.452L384.128 182.235L388.793 180.078C388.054 179.384 386.712 178.484 385.593 177.922L386.501 176.885C387.7 177.476 389.07 178.341 389.819 179.008L389.084 179.943L394.911 177.249L393.781 177.33C394.04 176.175 394.217 174.462 394.208 173.299L395.744 173.095C395.595 174.486 395.386 176.037 395.092 177.165L399.83 174.973ZM401.852 179.393L401.666 180.801C400.104 180.664 397.186 180.691 395.042 180.868L395.251 179.603C397.36 179.399 400.271 179.309 401.852 179.393ZM390.143 181.9L391.371 182.125C390.632 183.767 389.01 186.169 387.747 187.679C387.397 187.444 386.86 187.142 386.444 187.004C387.746 185.674 389.471 183.4 390.143 181.9ZM390.516 187.566L392.573 192.014L394.842 190.964L392.785 186.517L390.516 187.566ZM396.307 184.888L394.019 185.946L396.076 190.393L398.363 189.336L396.307 184.888ZM399.846 183.251L397.541 184.317L399.598 188.765L401.903 187.699L399.846 183.251ZM403.174 187.111L405.407 186.078L405.969 187.295L389.577 194.875L389.015 193.659L391.357 192.576L388.754 186.949L400.571 181.484L403.174 187.111Z" fill="#5C5C5C"/>
<path d="M836.507 102.634C835.235 102.21 834.477 100.819 834.983 99.3012C835.495 97.7643 836.937 97.1067 838.208 97.5306C839.461 97.9481 840.238 99.3459 839.726 100.883C839.22 102.401 837.759 103.052 836.507 102.634ZM865.24 112.658L855.203 109.311L854.457 111.55L864.494 114.897L865.24 112.658ZM852.471 113.017L854.267 107.629L867.036 111.886L865.252 117.237L863.867 116.775L864.095 116.092L854.058 112.745L853.818 113.466L852.471 113.017ZM864.969 108.73L865.525 107.061L858.221 104.625L857.664 106.295L864.969 108.73ZM857.234 103.158L867.252 106.498L866.012 110.217L855.994 106.876L857.234 103.158ZM853.971 103.524L855.198 99.8433L870.794 105.043L869.566 108.724L868.2 108.269L869.048 105.726L856.127 101.418L855.28 103.961L853.971 103.524ZM867.973 100.603L872.261 102.033L871.831 103.323L867.543 101.894L867.094 103.241L865.709 102.779L866.158 101.432L860.827 99.6541L860.378 101.001L858.993 100.539L859.442 99.1923L855.268 97.8005L855.698 96.5103L859.872 97.9021L860.391 96.3463L861.776 96.8081L861.257 98.3639L866.588 100.142L867.107 98.5858L868.492 99.0476L867.973 100.603ZM890.589 107.006L891.62 107.961C890.57 108.96 889.28 110.111 888.3 110.775L887.421 109.934C888.376 109.219 889.767 107.954 890.589 107.006ZM880.571 107.081L875.942 105.537C875.145 106.22 874.329 106.77 873.532 107.2C873.513 106.878 873.361 106.068 873.235 105.689C874.721 104.962 876.246 103.615 877.397 102.059L878.491 102.824C878.092 103.387 877.618 103.925 877.112 104.431L881.021 105.734L880.571 107.081ZM876.972 109.402L876.118 111.963L878.756 112.842L878.326 114.133L875.688 113.253L874.36 117.238L876.877 116.833C876.795 117.206 876.744 117.801 876.763 118.123C873.025 118.838 872.412 118.97 872.001 119.192C872.001 118.812 871.88 118.161 871.729 117.794C872.14 117.699 872.861 117.37 873.133 116.554L874.379 112.817L871.685 111.918L872.115 110.628L874.809 111.527L875.663 108.965L873.785 108.339L874.209 107.068L879.616 108.871L879.192 110.142L876.972 109.402ZM883.911 108.7L882.551 108.921C882.57 107.916 882.285 106.177 881.893 104.823L883.165 104.678C883.569 105.993 883.917 107.669 883.911 108.7ZM879.85 116.138L886.168 118.244L886.845 116.214L880.526 114.107L879.85 116.138ZM887.926 112.97L881.608 110.863L880.938 112.874L887.256 114.981L887.926 112.97ZM888.375 111.623L889.647 112.046L886.249 122.235C886.003 122.975 885.718 123.323 885.13 123.38C884.504 123.424 883.663 123.164 882.221 122.684C882.284 122.304 882.303 121.678 882.214 121.248C883.264 121.64 884.213 121.957 884.485 122.026C884.776 122.102 884.896 122.058 884.985 121.792L885.763 119.458L879.445 117.352L878.066 121.488L876.775 121.058L880.761 109.105L884.631 110.395L886.434 104.988L887.744 105.424L885.941 110.832L888.375 111.623ZM828.283 127.299C827.011 126.876 826.253 125.484 826.759 123.966C827.271 122.429 828.713 121.772 829.984 122.196C831.237 122.613 832.014 124.011 831.502 125.548C830.996 127.066 829.535 127.717 828.283 127.299ZM851.237 120.765L852.407 121.555C851.597 122.656 850.693 123.724 849.744 124.736L845.328 137.979L843.943 137.518L847.498 126.855C846.626 127.639 845.721 128.265 844.874 128.784C844.848 128.417 844.716 127.55 844.608 127.114C846.872 125.761 849.352 123.383 851.237 120.765ZM854.645 124.199L853.349 128.089L860.198 130.372L861.495 126.483L854.645 124.199ZM855.656 134.951L854.36 138.84C854.998 139.201 855.707 139.479 856.466 139.732C856.971 139.922 859.179 140.637 859.843 140.858C859.564 141.124 859.147 141.681 858.945 142.035L855.928 141.029C852.968 140.042 850.894 138.676 850.35 135.437C849.363 136.816 848.218 137.847 846.947 138.561C846.795 138.258 846.353 137.625 846.093 137.328C848.339 136.285 849.983 133.945 851.362 130.884L852.665 131.466C852.279 132.307 851.875 133.079 851.444 133.8C851.463 135.766 852.096 137.031 853.107 137.98L855.676 130.277L851.578 128.911L853.722 122.479L863.304 125.674L861.159 132.105L857.061 130.739L856.099 133.623L860.539 135.103L860.096 136.431L855.656 134.951ZM882.365 131.671L883.396 132.626C882.346 133.625 881.056 134.776 880.075 135.44L879.196 134.599C880.152 133.884 881.543 132.62 882.365 131.671ZM872.347 131.746L867.718 130.202C866.921 130.885 866.105 131.435 865.308 131.865C865.289 131.543 865.137 130.733 865.011 130.354C866.497 129.627 868.022 128.28 869.173 126.724L870.267 127.489C869.868 128.052 869.394 128.59 868.888 129.096L872.796 130.399L872.347 131.746ZM868.748 134.067L867.894 136.628L870.532 137.507L870.101 138.798L867.464 137.918L866.136 141.903L868.653 141.498C868.571 141.871 868.52 142.466 868.539 142.788C864.801 143.503 864.187 143.635 863.776 143.857C863.776 143.477 863.656 142.826 863.505 142.459C863.916 142.364 864.637 142.035 864.909 141.219L866.155 137.482L863.461 136.583L863.891 135.293L866.585 136.192L867.439 133.63L865.561 133.004L865.985 131.733L871.392 133.536L870.968 134.807L868.748 134.067ZM875.686 133.365L874.327 133.587C874.346 132.581 874.061 130.842 873.669 129.488L874.941 129.343C875.345 130.658 875.693 132.334 875.686 133.365ZM871.625 140.803L877.943 142.909L878.62 140.879L872.302 138.772L871.625 140.803ZM879.702 137.635L873.384 135.528L872.714 137.539L879.032 139.646L879.702 137.635ZM880.151 136.288L881.423 136.711L878.025 146.9C877.779 147.64 877.494 147.988 876.906 148.045C876.28 148.089 875.438 147.83 873.997 147.349C874.06 146.969 874.079 146.343 873.99 145.913C875.04 146.305 875.989 146.622 876.261 146.691C876.552 146.767 876.672 146.723 876.76 146.457L877.539 144.124L871.221 142.017L869.841 146.153L868.551 145.723L872.537 133.77L876.407 135.06L878.21 129.653L879.519 130.09L877.716 135.497L880.151 136.288ZM820.058 151.964C818.787 151.541 818.028 150.149 818.534 148.631C819.047 147.094 820.489 146.437 821.76 146.861C823.012 147.278 823.79 148.676 823.278 150.213C822.772 151.731 821.311 152.382 820.058 151.964ZM845.156 149.623L845.732 150.426C844.676 151.634 843.385 152.722 841.994 153.607C842.569 154.663 843.682 157.079 843.992 157.731L842.733 158.597C842.474 157.794 841.823 156.207 841.298 154.999L838.597 163.1L837.231 162.645L839.843 154.809C838.502 155.479 837.162 155.959 835.922 156.263C835.935 155.846 835.878 155.068 835.764 154.713C838.452 154.176 841.551 152.658 843.702 150.635L838.484 148.895L838.914 147.605L842.88 148.927C842.766 148.067 842.342 146.682 841.881 145.664L843.196 145.385C843.689 146.435 844.164 147.795 844.284 148.636L842.993 148.965L844.872 149.591L845.156 149.623ZM846.319 163.714L849.146 164.657C849.962 164.929 850.322 164.29 851.372 161.52C851.638 161.925 852.087 162.349 852.454 162.576C851.252 165.612 850.518 166.548 848.792 165.972L845.756 164.96C843.991 164.372 843.7 163.663 844.346 161.728L849.065 147.574L850.45 148.036L845.718 162.228C845.389 163.214 845.484 163.436 846.319 163.714ZM868.898 160.364L870.093 156.778L862.561 154.267L861.365 157.853L868.898 160.364ZM871.966 155.906L869.872 162.186L859.55 158.744L861.644 152.464L871.966 155.906ZM860.992 162.957L857.026 161.634L855.527 166.131L859.493 167.453L860.992 162.957ZM853.383 168.072L856.135 159.819L862.832 162.052L860.137 170.135L858.752 169.673L859.037 168.819L855.072 167.497L854.73 168.522L853.383 168.072ZM864.312 169.06L868.619 170.496L870.118 165.999L865.811 164.563L864.312 169.06ZM864.9 162.742L871.958 165.095L869.251 173.216L867.866 172.754L868.163 171.862L863.856 170.426L863.515 171.451L862.149 170.995L864.9 162.742ZM878.042 168.22L886.827 171.149C886.176 170.194 885.676 169.163 885.366 168.132L881.116 166.715C880.18 167.31 879.168 167.815 878.042 168.22ZM891.684 170.239L886.96 168.664C887.776 170.517 889.363 172.332 891.267 173.578C890.855 173.736 890.293 174.16 889.964 174.451C889.028 173.78 888.193 172.933 887.459 172.035L887.453 172.054C885.928 175.804 885.163 177.214 884.448 177.587C883.98 177.853 883.582 177.847 883.013 177.72C882.469 177.581 881.482 177.252 880.483 176.834C880.597 176.43 880.609 175.822 880.508 175.367C881.476 175.816 882.444 176.139 882.804 176.259C883.146 176.373 883.348 176.398 883.569 176.303C884.025 176.076 884.638 174.994 885.79 172.237L881.198 170.706C879.743 173.362 877.776 174.962 873.406 174.728C873.374 174.317 873.197 173.646 872.989 173.26C876.866 173.583 878.529 172.325 879.756 170.225L876.815 169.245L877.043 168.562C876.094 168.814 875.12 169.017 874.07 169.131C874.052 168.745 873.799 168.049 873.565 167.676C875.734 167.493 877.638 166.905 879.238 166.089L875.159 164.729L875.583 163.458L880.762 165.185C881.464 164.723 882.078 164.211 882.66 163.667L877.385 161.908L877.803 160.656L880.952 161.706C880.864 160.96 880.548 159.758 880.194 158.86L881.503 158.664C881.888 159.594 882.262 160.814 882.363 161.586L881.161 161.776L883.646 162.604C884.475 161.637 885.146 160.574 885.664 159.525L887.094 160.17C886.543 161.188 885.898 162.175 885.164 163.111L887.422 163.863C888.314 163.275 889.497 162.32 890.192 161.625L891.337 162.491C890.546 163.155 889.648 163.826 888.826 164.331L891.881 165.35L891.463 166.602L884.215 164.186C883.672 164.742 883.115 165.273 882.47 165.754L892.108 168.968L891.684 170.239ZM811.834 176.629C810.563 176.206 809.804 174.814 810.31 173.296C810.823 171.759 812.265 171.102 813.536 171.526C814.788 171.943 815.566 173.341 815.054 174.878C814.548 176.396 813.086 177.047 811.834 176.629ZM843.282 178.766L842.858 180.038L839.936 179.063L837.937 185.059C837.69 185.799 837.418 186.109 836.836 186.147C836.286 186.216 835.514 186.001 834.281 185.59C834.351 185.191 834.319 184.59 834.25 184.167C835.097 184.47 835.913 184.742 836.147 184.799C836.394 184.882 836.495 184.831 836.571 184.603L838.038 180.202C835.863 181.479 833.326 182.383 831.094 182.819C830.993 182.49 830.74 181.921 830.499 181.567C832.985 181.131 835.888 180.012 838.115 178.456L832.48 176.577L832.903 175.306L838.994 177.337L839.791 174.946L841.157 175.402L840.36 177.792L843.282 178.766ZM828.336 184.83L841.067 189.075L845.445 175.946L832.714 171.701L828.336 184.83ZM831.727 169.917L847.361 175.13L841.857 191.637L840.378 191.143L840.637 190.365L827.906 186.12L827.647 186.898L826.224 186.424L831.727 169.917ZM851.2 178.16L847.822 188.292L846.702 187.918L850.505 176.515L856.747 178.597L852.964 189.943L851.806 189.557L855.165 179.482L851.2 178.16ZM853.3 180.525L851.655 185.458C850.763 188.134 849.169 191.524 845.121 192.662C845.039 192.339 844.805 191.839 844.615 191.523C848.403 190.657 849.713 187.425 850.497 185.073L852.142 180.14L853.3 180.525ZM849.725 190.17L850.921 189.81C851.502 191.1 852.192 192.89 852.438 193.921L851.192 194.37C850.958 193.301 850.32 191.486 849.725 190.17ZM860.331 192.821L859.104 192.897C859.142 192.53 859.199 192.106 859.218 191.607C855.12 191.126 854.513 191.113 854.083 191.201C854.102 190.892 854.134 190.227 854.077 189.829C854.387 189.848 854.753 189.506 855.253 188.956C855.74 188.444 857.404 186.363 858.511 184.308L859.693 185.124C858.567 186.857 857.195 188.634 855.942 189.987L859.237 190.411C859.225 189.501 859.206 188.546 859.13 187.698L860.237 187.73C860.408 189.431 860.439 191.613 860.331 192.821ZM859.599 181.614L865.936 183.727C865.936 183.727 865.752 184.277 865.676 184.441C862.425 193.308 861.236 196.179 860.249 196.862C859.673 197.261 859.243 197.286 858.604 197.179C858.035 197.052 857.112 196.723 856.201 196.356C856.321 195.932 856.366 195.294 856.252 194.813C857.226 195.243 858.118 195.54 858.516 195.673C858.839 195.781 859.028 195.781 859.326 195.585C860.066 195.136 861.274 192.334 864.121 184.555L858.637 182.727C857.733 183.669 856.803 184.498 855.93 185.092C855.759 184.782 855.361 184.143 855.095 183.865C856.885 182.733 858.707 180.684 860.124 178.458L861.37 179.211C860.82 180.039 860.212 180.849 859.599 181.614Z" fill="#5C5C5C"/>
</g>
<defs>
<linearGradient id="paint0_linear_990_1967" x1="286.75" y1="466.5" x2="286.75" y2="605" gradientUnits="userSpaceOnUse">
<stop stop-color="#0069FF"/>
<stop offset="1" stop-color="#0069FF" stop-opacity="0"/>
</linearGradient>
<linearGradient id="paint1_linear_990_1967" x1="933.75" y1="462" x2="933.75" y2="600.5" gradientUnits="userSpaceOnUse">
<stop stop-color="#0069FF"/>
<stop offset="1" stop-color="#0069FF" stop-opacity="0"/>
</linearGradient>
<linearGradient id="paint2_linear_990_1967" x1="605.5" y1="546" x2="605.5" y2="670" gradientUnits="userSpaceOnUse">
<stop offset="0.228841" stop-color="#0069FF"/>
<stop offset="1" stop-color="#0069FF" stop-opacity="0"/>
</linearGradient>
<linearGradient id="paint3_linear_990_1967" x1="275.5" y1="63.5" x2="404" y2="302" gradientUnits="userSpaceOnUse">
<stop stop-color="#CEE5FF"/>
<stop offset="1" stop-color="#E0EFFF" stop-opacity="0"/>
</linearGradient>
<linearGradient id="paint4_linear_990_1967" x1="605.5" y1="0" x2="605.5" y2="474.174" gradientUnits="userSpaceOnUse">
<stop stop-color="#0069FF"/>
<stop offset="1" stop-color="#AFBACE" stop-opacity="0"/>
</linearGradient>
<linearGradient id="paint5_linear_990_1967" x1="981" y1="85" x2="864.5" y2="250.5" gradientUnits="userSpaceOnUse">
<stop stop-color="#CEE5FF"/>
<stop offset="1" stop-color="#E0EFFF" stop-opacity="0"/>
</linearGradient>
<linearGradient id="paint6_linear_990_1967" x1="605.5" y1="0" x2="605.5" y2="474.174" gradientUnits="userSpaceOnUse">
<stop stop-color="#0069FF"/>
<stop offset="1" stop-color="#AFBACE" stop-opacity="0"/>
</linearGradient>
<linearGradient id="paint7_linear_990_1967" x1="605.5" y1="0" x2="605.5" y2="205" gradientUnits="userSpaceOnUse">
<stop stop-color="#CEE5FF"/>
<stop offset="1" stop-color="#E0EFFF" stop-opacity="0"/>
</linearGradient>
<linearGradient id="paint8_linear_990_1967" x1="605.5" y1="0" x2="605.5" y2="474.174" gradientUnits="userSpaceOnUse">
<stop stop-color="#0069FF"/>
<stop offset="1" stop-color="#AFBACE" stop-opacity="0"/>
</linearGradient>
<linearGradient id="paint9_linear_990_1967" x1="618.5" y1="430.5" x2="618.5" y2="590.5" gradientUnits="userSpaceOnUse">
<stop stop-color="#CCE4FF"/>
<stop offset="1" stop-color="#CCE3FF" stop-opacity="0"/>
</linearGradient>
<linearGradient id="paint10_linear_990_1967" x1="605.5" y1="352" x2="605.5" y2="628" gradientUnits="userSpaceOnUse">
<stop stop-color="#0069FF"/>
<stop offset="1" stop-color="#0069FF" stop-opacity="0"/>
</linearGradient>
<clipPath id="clip0_990_1967">
<rect width="1226" height="715" fill="white"/>
</clipPath>
</defs>
</svg>